<svg xmlns="http://www.w3.org/2000/svg" fill="none" viewBox="109.47 215 430 218.94">
<rect x="109.971" y="433.441" width="217.942" height="429" rx="108.971" transform="rotate(-90 109.971 433.441)" fill="#1D1D1D" stroke="#F8F24B"/>
<circle cx="224.495" cy="324.293" r="83.7083" transform="rotate(-90 224.495 324.293)" fill="#F8F24B" stroke="#F8F24B"/>
<path d="M240.42 368.633H230.252V378.801H219.961V368.633H209.793V358.341H219.961V348.235H230.252V358.341H240.42V368.633ZM215.955 318.09C215.955 313.53 217.27 309.977 219.899 307.429C222.529 304.841 226.185 303.547 230.869 303.547C236.086 303.547 240.092 305.273 242.885 308.724C245.679 312.133 247.076 316.961 247.076 323.205C247.076 330.436 245.124 335.818 241.221 339.351C237.277 342.884 231.259 344.65 223.166 344.65C214.292 344.65 207.78 342.576 203.631 338.426C199.481 334.236 197.407 328.484 197.407 321.172C197.407 318.173 197.674 315.379 198.208 312.791C198.701 310.203 199.358 308.128 200.18 306.567H212.628C211.929 308.128 211.375 309.915 210.964 311.928C210.512 313.941 210.286 316.077 210.286 318.337C210.286 324.212 212.463 327.149 216.818 327.149H217.558C217.106 325.876 216.736 324.438 216.448 322.835C216.12 321.233 215.955 319.652 215.955 318.09ZM236.107 322.959C236.107 321.562 235.696 320.514 234.874 319.816C234.011 319.117 232.676 318.768 230.869 318.768C229.225 318.768 227.952 319.138 227.048 319.878C226.103 320.576 225.63 321.665 225.63 323.144C225.63 324.54 225.898 325.876 226.432 327.149H231.361C233.005 327.149 234.217 326.8 234.997 326.102C235.737 325.403 236.107 324.356 236.107 322.959ZM240.913 302.293C237.38 302.293 234.258 301.779 231.546 300.752C228.835 299.684 226.288 297.958 223.905 295.576C221.481 293.193 218.975 289.906 216.387 285.716C215.606 284.483 214.949 283.62 214.415 283.127C213.84 282.593 213.162 282.326 212.381 282.326C210.697 282.326 209.855 283.538 209.855 285.962C209.855 287.77 210.327 289.844 211.272 292.186C212.217 294.528 213.408 296.644 214.846 298.533L201.72 302.169C200.406 299.54 199.296 296.52 198.393 293.111C197.448 289.701 196.975 286.27 196.975 282.819C196.975 277.15 198.228 272.754 200.734 269.632C203.24 266.51 206.794 264.948 211.395 264.948C213.86 264.948 216.038 265.503 217.927 266.612C219.776 267.68 221.337 268.995 222.611 270.556C223.884 272.076 225.343 274.069 226.986 276.534C228.794 279.286 230.355 281.32 231.67 282.634C232.943 283.908 234.422 284.545 236.107 284.545V277.088H232.594V264.455H246.213V302.293H240.913Z" fill="#1D1D1D"/>
<path d="M389.552 352.35C389.552 352.46 389.519 352.559 389.453 352.647C389.365 352.713 389.266 352.746 389.156 352.746H366.886C366.776 352.746 366.688 352.713 366.623 352.647C366.535 352.559 366.491 352.46 366.491 352.35V348.496C366.491 348.386 366.535 348.298 366.623 348.232C366.688 348.144 366.776 348.1 366.886 348.1H385.401C385.511 348.1 385.566 348.045 385.566 347.936V337.163C385.566 337.053 385.609 336.965 385.697 336.899C385.763 336.812 385.851 336.768 385.961 336.768H389.156C389.266 336.768 389.365 336.812 389.453 336.899C389.519 336.965 389.552 337.053 389.552 337.163V352.35ZM370.708 331.685C370.708 332.432 370.466 333.058 369.983 333.563C369.478 334.046 368.852 334.288 368.105 334.288C367.336 334.288 366.71 334.046 366.227 333.563C365.744 333.08 365.502 332.454 365.502 331.685C365.502 330.917 365.744 330.291 366.227 329.808C366.71 329.324 367.336 329.083 368.105 329.083C368.852 329.083 369.478 329.335 369.983 329.841C370.466 330.324 370.708 330.939 370.708 331.685ZM389.552 333.662C389.552 333.772 389.519 333.871 389.453 333.959C389.365 334.024 389.266 334.057 389.156 334.057H372.981C372.871 334.057 372.783 334.024 372.717 333.959C372.629 333.871 372.585 333.772 372.585 333.662V329.808C372.585 329.698 372.629 329.61 372.717 329.544C372.783 329.456 372.871 329.412 372.981 329.412H389.156C389.266 329.412 389.365 329.456 389.453 329.544C389.519 329.61 389.552 329.698 389.552 329.808V333.662ZM389.552 321.081C389.552 321.301 389.442 321.444 389.222 321.51L373.047 326.781C373.003 326.803 372.948 326.814 372.882 326.814C372.684 326.814 372.585 326.693 372.585 326.451V322.201C372.585 321.96 372.695 321.806 372.915 321.74L382.897 319.039C382.963 319.017 382.996 318.984 382.996 318.94C382.996 318.896 382.963 318.863 382.897 318.841L372.915 316.14C372.695 316.074 372.585 315.92 372.585 315.678L372.651 311.429C372.651 311.297 372.695 311.198 372.783 311.132C372.849 311.066 372.959 311.055 373.113 311.099L389.222 316.337C389.442 316.403 389.552 316.546 389.552 316.766V321.081ZM379.339 294.781C380.174 294.649 381.107 294.605 382.139 294.649C382.403 294.671 382.535 294.814 382.535 295.077V305.257C382.535 305.389 382.59 305.433 382.699 305.389C383.139 305.323 383.578 305.202 384.017 305.027C385.247 304.456 385.862 303.292 385.862 301.535C385.84 300.129 385.269 299.02 384.149 298.207C384.017 298.119 383.951 298.02 383.951 297.911C383.951 297.845 383.995 297.768 384.083 297.68L386.422 295.308C386.532 295.198 386.631 295.143 386.719 295.143C386.762 295.143 386.85 295.187 386.982 295.275C387.883 296 388.585 296.933 389.091 298.075C389.574 299.217 389.815 300.469 389.815 301.831C389.815 303.72 389.387 305.323 388.53 306.641C387.674 307.937 386.477 308.87 384.94 309.441C383.841 309.902 382.403 310.133 380.624 310.133C379.416 310.133 378.351 309.968 377.428 309.639C375.869 309.134 374.628 308.255 373.706 307.003C372.783 305.729 372.322 304.225 372.322 302.49C372.322 300.294 372.959 298.537 374.233 297.219C375.507 295.879 377.209 295.066 379.339 294.781ZM376.341 302.457C376.341 303.841 376.989 304.752 378.285 305.191C378.57 305.279 378.922 305.356 379.339 305.422C379.449 305.422 379.504 305.367 379.504 305.257V299.558C379.504 299.426 379.449 299.382 379.339 299.426C378.702 299.536 378.395 299.591 378.417 299.591C377.758 299.788 377.253 300.14 376.901 300.645C376.528 301.128 376.341 301.732 376.341 302.457ZM406.458 374.239C406.458 372.789 406.754 371.515 407.347 370.417C407.94 369.319 408.786 368.473 409.884 367.88C410.96 367.265 412.201 366.958 413.607 366.958C414.99 366.958 416.209 367.276 417.264 367.913C418.318 368.528 419.141 369.407 419.734 370.549C420.305 371.669 420.591 372.965 420.591 374.436V379.114C420.591 379.224 420.646 379.279 420.756 379.279H429.156C429.266 379.279 429.365 379.323 429.453 379.411C429.519 379.477 429.552 379.565 429.552 379.674V383.529C429.552 383.639 429.519 383.737 429.453 383.825C429.365 383.891 429.266 383.924 429.156 383.924H406.853C406.743 383.924 406.656 383.891 406.59 383.825C406.502 383.737 406.458 383.639 406.458 383.529V374.239ZM416.868 374.93C416.868 373.92 416.583 373.107 416.012 372.492C415.419 371.878 414.65 371.57 413.706 371.57C412.739 371.57 411.96 371.878 411.367 372.492C410.774 373.107 410.477 373.92 410.477 374.93V379.114C410.477 379.224 410.532 379.279 410.642 379.279H416.704C416.813 379.279 416.868 379.224 416.868 379.114V374.93ZM412.388 355.965C412.388 355.174 412.542 354.548 412.849 354.087C412.937 353.912 413.102 353.846 413.343 353.89L417.099 354.581C417.362 354.603 417.439 354.757 417.329 355.043C417.22 355.372 417.165 355.756 417.165 356.196C417.165 356.371 417.187 356.613 417.231 356.92C417.297 357.711 417.593 358.381 418.12 358.93C418.625 359.479 419.306 359.754 420.163 359.754H429.156C429.266 359.754 429.365 359.798 429.453 359.885C429.519 359.951 429.552 360.039 429.552 360.149V364.003C429.552 364.113 429.519 364.212 429.453 364.3C429.365 364.366 429.266 364.399 429.156 364.399H413.014C412.904 364.399 412.816 364.366 412.75 364.3C412.662 364.212 412.618 364.113 412.618 364.003V360.149C412.618 360.039 412.662 359.951 412.75 359.885C412.816 359.798 412.904 359.754 413.014 359.754H414.266C414.332 359.754 414.375 359.732 414.397 359.688C414.419 359.644 414.408 359.611 414.364 359.589C413.047 358.688 412.388 357.48 412.388 355.965ZM429.815 344.727C429.815 346.572 429.332 348.153 428.366 349.471C427.399 350.789 426.082 351.689 424.412 352.173C423.38 352.48 422.26 352.634 421.052 352.634C419.756 352.634 418.592 352.48 417.56 352.173C415.935 351.667 414.661 350.756 413.739 349.438C412.816 348.12 412.355 346.539 412.355 344.694C412.355 342.893 412.816 341.356 413.739 340.082C414.639 338.808 415.902 337.908 417.527 337.381C418.625 337.029 419.778 336.854 420.986 336.854C422.172 336.854 423.281 337.007 424.314 337.315C426.027 337.798 427.377 338.698 428.366 340.016C429.332 341.312 429.815 342.882 429.815 344.727ZM425.829 344.727C425.829 344.002 425.609 343.387 425.17 342.882C424.731 342.377 424.127 342.015 423.358 341.795C422.655 341.619 421.887 341.532 421.052 341.532C420.13 341.532 419.35 341.619 418.713 341.795C417.966 342.037 417.384 342.41 416.967 342.915C416.55 343.42 416.341 344.035 416.341 344.76C416.341 345.507 416.55 346.133 416.967 346.638C417.384 347.121 417.966 347.473 418.713 347.692C419.24 347.868 420.02 347.956 421.052 347.956C422.04 347.956 422.809 347.879 423.358 347.725C424.127 347.506 424.731 347.143 425.17 346.638C425.609 346.111 425.829 345.474 425.829 344.727ZM410.708 331.397C410.708 332.143 410.466 332.758 409.983 333.242C409.478 333.725 408.852 333.966 408.105 333.966C407.336 333.966 406.71 333.725 406.227 333.242C405.744 332.758 405.502 332.143 405.502 331.397C405.502 330.628 405.744 330.002 406.227 329.519C406.71 329.036 407.336 328.794 408.105 328.794C408.852 328.794 409.478 329.047 409.983 329.552C410.466 330.035 410.708 330.65 410.708 331.397ZM436.272 337.162C436.272 337.425 436.141 337.557 435.877 337.557H432.747C432.462 337.557 432.341 337.414 432.385 337.129C432.429 335.833 432.242 334.933 431.825 334.428C431.408 333.9 430.672 333.637 429.618 333.637L413.014 333.703C412.904 333.703 412.816 333.67 412.75 333.604C412.662 333.516 412.618 333.417 412.618 333.307V329.453C412.618 329.343 412.662 329.255 412.75 329.189C412.816 329.102 412.904 329.058 413.014 329.058H429.552C431.331 329.058 432.703 329.299 433.67 329.782C434.658 330.266 435.35 331.089 435.745 332.253C436.141 333.395 436.316 335.032 436.272 337.162ZM419.339 310.513C420.174 310.381 421.107 310.337 422.139 310.381C422.403 310.403 422.535 310.546 422.535 310.81V320.989C422.535 321.121 422.59 321.165 422.699 321.121C423.139 321.055 423.578 320.934 424.017 320.759C425.247 320.188 425.862 319.024 425.862 317.267C425.84 315.861 425.269 314.752 424.149 313.939C424.017 313.851 423.951 313.753 423.951 313.643C423.951 313.577 423.995 313.5 424.083 313.412L426.422 311.04C426.532 310.93 426.631 310.876 426.719 310.876C426.762 310.876 426.85 310.919 426.982 311.007C427.883 311.732 428.585 312.665 429.091 313.808C429.574 314.95 429.815 316.201 429.815 317.563C429.815 319.452 429.387 321.055 428.53 322.373C427.674 323.669 426.477 324.602 424.94 325.173C423.841 325.635 422.403 325.865 420.624 325.865C419.416 325.865 418.351 325.7 417.428 325.371C415.869 324.866 414.628 323.987 413.706 322.735C412.783 321.462 412.322 319.957 412.322 318.222C412.322 316.026 412.959 314.269 414.233 312.951C415.507 311.611 417.209 310.799 419.339 310.513ZM416.341 318.189C416.341 319.573 416.989 320.484 418.285 320.923C418.57 321.011 418.922 321.088 419.339 321.154C419.449 321.154 419.504 321.099 419.504 320.989V315.29C419.504 315.158 419.449 315.114 419.339 315.158C418.702 315.268 418.395 315.323 418.417 315.323C417.758 315.521 417.253 315.872 416.901 316.377C416.528 316.86 416.341 317.464 416.341 318.189ZM429.815 300.073C429.815 301.83 429.376 303.357 428.498 304.652C427.619 305.926 426.411 306.838 424.874 307.387C423.776 307.76 422.48 307.947 420.986 307.947C419.515 307.947 418.241 307.76 417.165 307.387C415.671 306.86 414.496 305.948 413.64 304.652C412.783 303.357 412.355 301.83 412.355 300.073C412.355 298.316 412.794 296.779 413.673 295.461C414.551 294.121 415.66 293.232 417 292.792C417.527 292.617 417.922 292.529 418.186 292.529H418.252C418.45 292.529 418.57 292.639 418.614 292.858L419.174 296.647V296.713C419.174 296.911 419.065 297.042 418.845 297.108L418.318 297.207C417.747 297.361 417.275 297.701 416.901 298.228C416.528 298.755 416.341 299.381 416.341 300.106C416.341 300.809 416.517 301.402 416.868 301.885C417.22 302.368 417.703 302.709 418.318 302.906C418.977 303.148 419.877 303.269 421.019 303.269C422.161 303.269 423.062 303.159 423.721 302.939C424.38 302.742 424.896 302.401 425.269 301.918C425.642 301.413 425.829 300.809 425.829 300.106C425.829 299.425 425.653 298.832 425.302 298.327C424.929 297.8 424.423 297.438 423.787 297.24C423.743 297.218 423.677 297.207 423.589 297.207C423.567 297.185 423.534 297.174 423.49 297.174C423.226 297.152 423.117 296.998 423.161 296.713L423.754 292.924C423.797 292.705 423.918 292.595 424.116 292.595C424.292 292.595 424.621 292.661 425.104 292.792C426.576 293.254 427.729 294.154 428.563 295.494C429.398 296.812 429.815 298.338 429.815 300.073ZM415.946 280.105C416.056 280.105 416.154 280.149 416.242 280.237C416.308 280.303 416.341 280.391 416.341 280.501V283.663C416.341 283.773 416.396 283.828 416.506 283.828H423.49C424.215 283.828 424.753 283.685 425.104 283.4C425.456 283.092 425.631 282.609 425.631 281.95V280.863C425.631 280.753 425.675 280.665 425.763 280.6C425.829 280.512 425.917 280.468 426.027 280.468H429.156C429.398 280.468 429.541 280.6 429.585 280.863C429.629 281.786 429.651 282.444 429.651 282.84C429.651 284.663 429.354 286.024 428.761 286.925C428.146 287.825 427.004 288.287 425.335 288.308H416.506C416.396 288.308 416.341 288.363 416.341 288.473V290.351C416.341 290.461 416.308 290.56 416.242 290.648C416.154 290.713 416.056 290.746 415.946 290.746H413.014C412.904 290.746 412.816 290.713 412.75 290.648C412.662 290.56 412.618 290.461 412.618 290.351V288.473C412.618 288.363 412.564 288.308 412.454 288.308H408.533C408.424 288.308 408.336 288.276 408.27 288.21C408.182 288.122 408.138 288.023 408.138 287.913V284.223C408.138 284.114 408.182 284.026 408.27 283.96C408.336 283.872 408.424 283.828 408.533 283.828H412.454C412.564 283.828 412.618 283.773 412.618 283.663V280.501C412.618 280.391 412.662 280.303 412.75 280.237C412.816 280.149 412.904 280.105 413.014 280.105H415.946ZM429.782 270.555C429.782 272.027 429.574 273.312 429.156 274.41C428.739 275.508 428.157 276.365 427.41 276.98C426.664 277.573 425.818 277.869 424.874 277.869H424.544C424.434 277.869 424.347 277.836 424.281 277.77C424.193 277.682 424.149 277.584 424.149 277.474V273.817C424.149 273.707 424.193 273.619 424.281 273.553C424.347 273.465 424.434 273.422 424.544 273.422H424.577C425.06 273.422 425.478 273.158 425.829 272.631C426.159 272.082 426.323 271.401 426.323 270.588C426.323 269.842 426.18 269.238 425.895 268.776C425.587 268.315 425.214 268.085 424.775 268.085C424.38 268.085 424.083 268.282 423.885 268.678C423.688 269.073 423.479 269.721 423.259 270.621C422.996 271.654 422.743 272.466 422.502 273.059C422.019 274.465 421.426 275.585 420.723 276.419C420.02 277.254 419.01 277.671 417.692 277.671C416.067 277.671 414.782 277.045 413.837 275.794C412.871 274.52 412.388 272.84 412.388 270.753C412.388 269.347 412.618 268.118 413.08 267.063C413.519 266.009 414.145 265.196 414.957 264.625C415.77 264.032 416.693 263.736 417.725 263.736C417.835 263.736 417.933 263.78 418.021 263.868C418.087 263.934 418.12 264.021 418.12 264.131V267.656C418.12 267.766 418.087 267.865 418.021 267.953C417.933 268.019 417.835 268.052 417.725 268.052C417.242 268.052 416.835 268.304 416.506 268.809C416.176 269.293 416.012 269.94 416.012 270.753C416.012 271.478 416.143 272.071 416.407 272.532C416.671 272.993 417.033 273.224 417.494 273.224C417.933 273.224 418.263 273.004 418.483 272.565C418.702 272.104 418.933 271.346 419.174 270.292C419.24 270.05 419.317 269.776 419.405 269.468C419.471 269.161 419.559 268.831 419.668 268.48C420.13 266.921 420.723 265.691 421.447 264.79C422.172 263.89 423.226 263.439 424.61 263.439C426.235 263.439 427.509 264.087 428.432 265.383C429.332 266.657 429.782 268.381 429.782 270.555Z" fill="white"/>
</svg>