<svg xmlns="http://www.w3.org/2000/svg" fill="none" viewBox="110.44 215.96 430 218.94">
<rect x="110.936" y="434.406" width="217.942" height="429" rx="108.971" transform="rotate(-90 110.936 434.406)" fill="#1D1D1D" stroke="#F8F24B"/>
<circle cx="225.46" cy="325.258" r="83.7083" transform="rotate(-90 225.46 325.258)" fill="#F8F24B" stroke="#F8F24B"/>
<path d="M247.178 379.519H237.071V373.603H209.341V381.368H202.377L199.234 367.687V357.334H237.071V352.158H247.178V379.519ZM198.372 330.007C198.372 322.694 200.343 317.25 204.287 313.676C208.19 310.102 214.188 308.315 222.282 308.315C231.155 308.315 237.667 310.41 241.816 314.601C245.966 318.75 248.04 324.481 248.04 331.794C248.04 334.793 247.773 337.586 247.239 340.174C246.746 342.763 246.089 344.837 245.267 346.399H232.819C233.518 344.837 234.093 343.05 234.545 341.037C234.956 339.024 235.161 336.888 235.161 334.628C235.161 328.754 232.984 325.816 228.629 325.816H227.951C228.978 328.445 229.492 331.28 229.492 334.32C229.492 339.086 228.218 342.804 225.671 345.474C223.083 348.103 219.488 349.418 214.887 349.418C209.423 349.418 205.314 347.734 202.562 344.365C199.768 340.996 198.372 336.21 198.372 330.007ZM214.64 334.197C216.284 334.197 217.557 333.848 218.461 333.149C219.365 332.41 219.817 331.301 219.817 329.822C219.817 328.425 219.55 327.09 219.016 325.816H214.086C212.442 325.816 211.251 326.165 210.511 326.864C209.731 327.562 209.341 328.61 209.341 330.007C209.341 331.403 209.772 332.451 210.635 333.149C211.497 333.848 212.833 334.197 214.64 334.197ZM222.713 277.357C223.042 276.084 223.72 274.872 224.747 273.722C225.733 272.53 226.986 271.565 228.506 270.825C230.026 270.045 231.71 269.654 233.559 269.654C238.078 269.654 241.632 271.277 244.22 274.523C246.767 277.727 248.04 282.493 248.04 288.82C248.04 291.819 247.712 294.818 247.054 297.817C246.356 300.816 245.514 303.486 244.528 305.828H231.402C232.511 303.281 233.415 300.651 234.113 297.94C234.812 295.187 235.161 292.579 235.161 290.114C235.161 288.388 234.894 287.135 234.36 286.355C233.826 285.533 232.943 285.122 231.71 285.122C229.327 285.122 228.136 286.56 228.136 289.436V293.873H218.03V290.422C218.03 287.71 216.879 286.355 214.579 286.355C212.36 286.355 211.251 287.71 211.251 290.422C211.251 292.394 211.723 294.448 212.668 296.584C213.572 298.72 214.763 300.795 216.242 302.808L203.117 306.444C201.802 303.938 200.693 301.083 199.789 297.878C198.844 294.674 198.372 291.449 198.372 288.203C198.372 282.534 199.563 278.179 201.946 275.139C204.328 272.099 207.697 270.579 212.052 270.579C214.764 270.579 217.003 271.216 218.769 272.489C220.495 273.763 221.809 275.385 222.713 277.357Z" fill="#1D1D1D"/>
<path d="M390.78 384.298C390.78 386.055 390.506 387.592 389.957 388.91C389.386 390.228 388.584 391.249 387.552 391.974C386.497 392.676 385.278 393.028 383.895 393.028H383.17C383.06 393.028 382.972 392.995 382.906 392.929C382.819 392.841 382.775 392.742 382.775 392.633V388.877C382.775 388.767 382.819 388.679 382.906 388.613C382.972 388.525 383.06 388.482 383.17 388.482H383.664C384.543 388.482 385.289 388.075 385.904 387.263C386.497 386.45 386.794 385.352 386.794 383.968C386.794 382.804 386.552 381.937 386.069 381.366C385.564 380.795 384.949 380.509 384.224 380.509C383.697 380.509 383.258 380.685 382.906 381.036C382.533 381.388 382.215 381.871 381.951 382.486C381.666 383.079 381.281 384.034 380.798 385.352C380.293 386.823 379.777 388.075 379.25 389.107C378.723 390.118 378.009 390.974 377.108 391.677C376.186 392.358 375.055 392.698 373.715 392.698C372.397 392.698 371.244 392.358 370.256 391.677C369.268 390.996 368.51 390.052 367.983 388.844C367.456 387.636 367.192 386.241 367.192 384.66C367.192 382.991 367.489 381.508 368.082 380.213C368.675 378.895 369.509 377.874 370.585 377.149C371.64 376.402 372.869 376.029 374.275 376.029H374.769C374.879 376.029 374.978 376.073 375.066 376.16C375.132 376.226 375.165 376.314 375.165 376.424V380.213C375.165 380.322 375.132 380.421 375.066 380.509C374.978 380.575 374.879 380.608 374.769 380.608H374.506C373.583 380.608 372.804 380.992 372.167 381.761C371.508 382.508 371.178 383.54 371.178 384.858C371.178 385.89 371.398 386.703 371.837 387.296C372.276 387.867 372.88 388.152 373.649 388.152C374.198 388.152 374.659 387.987 375.033 387.658C375.406 387.307 375.747 386.801 376.054 386.143C376.34 385.462 376.735 384.418 377.24 383.013C377.811 381.453 378.316 380.235 378.756 379.356C379.195 378.456 379.854 377.654 380.732 376.951C381.589 376.226 382.709 375.864 384.092 375.864C386.157 375.864 387.793 376.622 389.001 378.137C390.187 379.653 390.78 381.706 390.78 384.298ZM373.32 366.347C373.32 364.92 373.572 363.646 374.077 362.526C374.561 361.406 375.23 360.538 376.087 359.923C376.944 359.286 377.899 358.968 378.953 358.968H390.121C390.231 358.968 390.33 359.012 390.418 359.1C390.484 359.166 390.517 359.253 390.517 359.363V363.218C390.517 363.328 390.484 363.426 390.418 363.514C390.33 363.58 390.231 363.613 390.121 363.613H389.034C388.968 363.613 388.924 363.635 388.902 363.679C388.88 363.723 388.902 363.767 388.968 363.811C390.176 364.733 390.78 366.216 390.78 368.258C390.78 369.971 390.363 371.355 389.528 372.409C388.694 373.463 387.464 373.99 385.839 373.99C384.147 373.99 382.841 373.397 381.918 372.211C380.974 371.026 380.502 369.334 380.502 367.138V363.778C380.502 363.668 380.447 363.613 380.337 363.613H379.612C378.887 363.613 378.327 363.833 377.932 364.272C377.515 364.711 377.306 365.37 377.306 366.249C377.306 366.929 377.427 367.5 377.668 367.962C377.91 368.401 378.25 368.686 378.69 368.818C378.931 368.884 379.041 369.027 379.019 369.247L378.492 373.233C378.448 373.496 378.349 373.617 378.195 373.595C377.273 373.507 376.438 373.145 375.692 372.508C374.945 371.849 374.363 370.993 373.946 369.938C373.528 368.862 373.32 367.665 373.32 366.347ZM387.321 367.006C387.321 366.062 387.068 365.26 386.563 364.601C386.058 363.943 385.41 363.613 384.62 363.613H383.434C383.324 363.613 383.269 363.668 383.269 363.778V366.15C383.269 367.138 383.456 367.918 383.829 368.489C384.202 369.038 384.729 369.312 385.41 369.312C386.003 369.312 386.475 369.104 386.827 368.686C387.156 368.269 387.321 367.709 387.321 367.006ZM376.911 346.331C377.02 346.331 377.119 346.375 377.207 346.463C377.273 346.529 377.306 346.617 377.306 346.727V349.889C377.306 349.999 377.361 350.054 377.471 350.054H384.455C385.18 350.054 385.718 349.911 386.069 349.626C386.421 349.318 386.596 348.835 386.596 348.176V347.089C386.596 346.979 386.64 346.891 386.728 346.825C386.794 346.738 386.882 346.694 386.992 346.694H390.121C390.363 346.694 390.506 346.825 390.55 347.089C390.593 348.011 390.615 348.67 390.615 349.066C390.615 350.889 390.319 352.25 389.726 353.151C389.111 354.051 387.969 354.512 386.3 354.534H377.471C377.361 354.534 377.306 354.589 377.306 354.699V356.577C377.306 356.687 377.273 356.786 377.207 356.873C377.119 356.939 377.02 356.972 376.911 356.972H373.979C373.869 356.972 373.781 356.939 373.715 356.873C373.627 356.786 373.583 356.687 373.583 356.577V354.699C373.583 354.589 373.528 354.534 373.419 354.534H369.498C369.388 354.534 369.301 354.501 369.235 354.436C369.147 354.348 369.103 354.249 369.103 354.139V350.449C369.103 350.339 369.147 350.252 369.235 350.186C369.301 350.098 369.388 350.054 369.498 350.054H373.419C373.528 350.054 373.583 349.999 373.583 349.889V346.727C373.583 346.617 373.627 346.529 373.715 346.463C373.781 346.375 373.869 346.331 373.979 346.331H376.911ZM371.673 341.031C371.673 341.778 371.431 342.404 370.948 342.909C370.443 343.392 369.817 343.634 369.07 343.634C368.301 343.634 367.675 343.392 367.192 342.909C366.709 342.426 366.467 341.8 366.467 341.031C366.467 340.262 366.709 339.636 367.192 339.153C367.675 338.67 368.301 338.428 369.07 338.428C369.817 338.428 370.443 338.681 370.948 339.186C371.431 339.669 371.673 340.284 371.673 341.031ZM390.517 343.008C390.517 343.118 390.484 343.216 390.418 343.304C390.33 343.37 390.231 343.403 390.121 343.403H373.946C373.836 343.403 373.748 343.37 373.682 343.304C373.594 343.216 373.55 343.118 373.55 343.008V339.153C373.55 339.043 373.594 338.956 373.682 338.89C373.748 338.802 373.836 338.758 373.946 338.758H390.121C390.231 338.758 390.33 338.802 390.418 338.89C390.484 338.956 390.517 339.043 390.517 339.153V343.008ZM390.747 328.384C390.747 329.856 390.539 331.141 390.121 332.239C389.704 333.337 389.122 334.194 388.375 334.809C387.628 335.401 386.783 335.698 385.839 335.698H385.509C385.399 335.698 385.311 335.665 385.246 335.599C385.158 335.511 385.114 335.412 385.114 335.303V331.646C385.114 331.536 385.158 331.448 385.246 331.382C385.311 331.294 385.399 331.251 385.509 331.251H385.542C386.025 331.251 386.443 330.987 386.794 330.46C387.123 329.911 387.288 329.23 387.288 328.417C387.288 327.671 387.145 327.067 386.86 326.605C386.552 326.144 386.179 325.914 385.74 325.914C385.344 325.914 385.048 326.111 384.85 326.507C384.653 326.902 384.444 327.55 384.224 328.45C383.961 329.483 383.708 330.295 383.467 330.888C382.983 332.294 382.39 333.414 381.688 334.248C380.985 335.083 379.974 335.5 378.657 335.5C377.031 335.5 375.747 334.874 374.802 333.623C373.836 332.349 373.353 330.669 373.353 328.582C373.353 327.176 373.583 325.947 374.045 324.892C374.484 323.838 375.11 323.025 375.922 322.454C376.735 321.861 377.657 321.565 378.69 321.565C378.799 321.565 378.898 321.609 378.986 321.697C379.052 321.763 379.085 321.85 379.085 321.96V325.485C379.085 325.595 379.052 325.694 378.986 325.782C378.898 325.848 378.799 325.881 378.69 325.881C378.206 325.881 377.8 326.133 377.471 326.638C377.141 327.122 376.977 327.769 376.977 328.582C376.977 329.307 377.108 329.9 377.372 330.361C377.635 330.822 377.998 331.053 378.459 331.053C378.898 331.053 379.228 330.833 379.447 330.394C379.667 329.933 379.898 329.175 380.139 328.121C380.205 327.879 380.282 327.605 380.37 327.297C380.436 326.99 380.524 326.66 380.633 326.309C381.095 324.75 381.688 323.52 382.412 322.619C383.137 321.719 384.191 321.268 385.575 321.268C387.2 321.268 388.474 321.916 389.396 323.212C390.297 324.486 390.747 326.21 390.747 328.384ZM373.55 308.949C373.55 308.839 373.594 308.751 373.682 308.685C373.748 308.597 373.836 308.554 373.946 308.554H377.075C377.185 308.554 377.284 308.597 377.372 308.685C377.438 308.751 377.471 308.839 377.471 308.949V312.144C377.471 312.254 377.526 312.309 377.635 312.309H390.121C390.231 312.309 390.33 312.353 390.418 312.441C390.484 312.507 390.517 312.595 390.517 312.704V316.559C390.517 316.669 390.484 316.768 390.418 316.855C390.33 316.921 390.231 316.954 390.121 316.954H377.635C377.526 316.954 377.471 317.009 377.471 317.119V319.063C377.471 319.173 377.438 319.271 377.372 319.359C377.284 319.425 377.185 319.458 377.075 319.458H373.946C373.836 319.458 373.748 319.425 373.682 319.359C373.594 319.271 373.55 319.173 373.55 319.063V317.119C373.55 317.009 373.495 316.954 373.386 316.954H372.661C371.299 316.954 370.245 316.746 369.498 316.328C368.73 315.911 368.191 315.241 367.884 314.319C367.554 313.374 367.412 312.079 367.456 310.431V309.179C367.456 309.07 367.5 308.982 367.587 308.916C367.653 308.828 367.741 308.784 367.851 308.784H370.519C370.629 308.784 370.728 308.828 370.816 308.916C370.882 308.982 370.915 309.07 370.915 309.179V310.267C370.937 311.035 371.101 311.573 371.409 311.881C371.694 312.166 372.233 312.309 373.023 312.309H373.386C373.495 312.309 373.55 312.254 373.55 312.144V308.949ZM371.673 303.348C371.673 304.095 371.431 304.721 370.948 305.226C370.443 305.709 369.817 305.951 369.07 305.951C368.301 305.951 367.675 305.709 367.192 305.226C366.709 304.743 366.467 304.117 366.467 303.348C366.467 302.58 366.709 301.954 367.192 301.471C367.675 300.987 368.301 300.746 369.07 300.746C369.817 300.746 370.443 300.998 370.948 301.503C371.431 301.987 371.673 302.602 371.673 303.348ZM390.517 305.325C390.517 305.435 390.484 305.534 390.418 305.621C390.33 305.687 390.231 305.72 390.121 305.72H373.946C373.836 305.72 373.748 305.687 373.682 305.621C373.594 305.534 373.55 305.435 373.55 305.325V301.471C373.55 301.361 373.594 301.273 373.682 301.207C373.748 301.119 373.836 301.075 373.946 301.075H390.121C390.231 301.075 390.33 301.119 390.418 301.207C390.484 301.273 390.517 301.361 390.517 301.471V305.325ZM380.304 282.507C381.138 282.375 382.072 282.331 383.104 282.375C383.368 282.397 383.499 282.54 383.499 282.804V292.983C383.499 293.115 383.554 293.159 383.664 293.115C384.103 293.049 384.543 292.928 384.982 292.753C386.212 292.182 386.827 291.018 386.827 289.261C386.805 287.855 386.234 286.746 385.114 285.933C384.982 285.845 384.916 285.747 384.916 285.637C384.916 285.571 384.96 285.494 385.048 285.406L387.387 283.034C387.497 282.924 387.596 282.869 387.683 282.869C387.727 282.869 387.815 282.913 387.947 283.001C388.847 283.726 389.55 284.659 390.055 285.801C390.539 286.943 390.78 288.195 390.78 289.557C390.78 291.446 390.352 293.049 389.495 294.367C388.639 295.663 387.442 296.596 385.904 297.167C384.806 297.628 383.368 297.859 381.589 297.859C380.381 297.859 379.316 297.694 378.393 297.365C376.834 296.86 375.593 295.981 374.67 294.729C373.748 293.455 373.287 291.951 373.287 290.216C373.287 288.02 373.924 286.263 375.198 284.945C376.471 283.605 378.174 282.793 380.304 282.507ZM377.306 290.183C377.306 291.567 377.954 292.478 379.25 292.917C379.535 293.005 379.887 293.082 380.304 293.148C380.414 293.148 380.469 293.093 380.469 292.983V287.284C380.469 287.152 380.414 287.108 380.304 287.152C379.667 287.262 379.359 287.317 379.381 287.317C378.723 287.515 378.217 287.866 377.866 288.371C377.493 288.854 377.306 289.458 377.306 290.183ZM367.851 269.003C367.741 269.003 367.653 268.97 367.587 268.904C367.5 268.817 367.456 268.718 367.456 268.608V264.753C367.456 264.644 367.5 264.556 367.587 264.49C367.653 264.402 367.741 264.358 367.851 264.358H390.121C390.231 264.358 390.33 264.402 390.418 264.49C390.484 264.556 390.517 264.644 390.517 264.753V268.608C390.517 268.718 390.484 268.817 390.418 268.904C390.33 268.97 390.231 269.003 390.121 269.003H389.034C388.968 269.003 388.935 269.025 388.935 269.069C388.913 269.113 388.924 269.157 388.968 269.201C390.176 270.123 390.78 271.386 390.78 272.989C390.78 274.527 390.352 275.856 389.495 276.976C388.639 278.074 387.464 278.865 385.97 279.348C384.828 279.721 383.499 279.908 381.984 279.908C380.425 279.908 379.063 279.71 377.899 279.315C376.493 278.81 375.384 278.019 374.572 276.943C373.737 275.845 373.32 274.494 373.32 272.891C373.32 271.309 373.869 270.079 374.967 269.201C375.033 269.157 375.055 269.113 375.033 269.069C375.011 269.025 374.967 269.003 374.901 269.003H367.851ZM385.377 269.695C384.565 269.256 383.456 269.036 382.05 269.036C380.578 269.036 379.425 269.278 378.591 269.761C377.734 270.266 377.306 271.002 377.306 271.968C377.306 273 377.734 273.78 378.591 274.307C379.447 274.856 380.611 275.131 382.083 275.131C383.401 275.131 384.499 274.9 385.377 274.439C386.322 273.89 386.794 273.077 386.794 272.001C386.794 271.013 386.322 270.244 385.377 269.695ZM430.78 394.685C430.78 396.398 430.451 397.902 429.792 399.198C429.111 400.494 428.167 401.493 426.959 402.196C425.751 402.899 424.356 403.25 422.775 403.25H415.165C413.583 403.25 412.189 402.899 410.981 402.196C409.773 401.493 408.839 400.494 408.18 399.198C407.522 397.902 407.192 396.398 407.192 394.685C407.192 392.993 407.511 391.511 408.147 390.237C408.762 388.941 409.652 387.942 410.816 387.239C411.958 386.514 413.287 386.152 414.802 386.152C415 386.152 415.121 386.284 415.165 386.547L415.395 390.402V390.468C415.395 390.687 415.274 390.797 415.033 390.797C413.869 390.797 412.935 391.16 412.233 391.884C411.53 392.587 411.178 393.521 411.178 394.685C411.178 395.871 411.53 396.826 412.233 397.551C412.935 398.254 413.869 398.605 415.033 398.605H422.972C424.114 398.605 425.037 398.254 425.74 397.551C426.443 396.826 426.794 395.871 426.794 394.685C426.794 393.521 426.443 392.587 425.74 391.884C425.037 391.16 424.114 390.797 422.972 390.797C422.731 390.797 422.61 390.665 422.61 390.402L422.775 386.547C422.775 386.438 422.808 386.35 422.874 386.284C422.939 386.196 423.016 386.152 423.104 386.152C424.62 386.152 425.959 386.514 427.123 387.239C428.287 387.942 429.188 388.941 429.825 390.237C430.462 391.511 430.78 392.993 430.78 394.685ZM413.979 373.159C413.869 373.159 413.781 373.126 413.715 373.06C413.627 372.972 413.583 372.873 413.583 372.764V368.909C413.583 368.799 413.627 368.711 413.715 368.646C413.781 368.558 413.869 368.514 413.979 368.514H430.121C430.231 368.514 430.33 368.558 430.418 368.646C430.484 368.711 430.517 368.799 430.517 368.909V372.764C430.517 372.873 430.484 372.972 430.418 373.06C430.33 373.126 430.231 373.159 430.121 373.159H429.001C428.935 373.159 428.902 373.181 428.902 373.225C428.88 373.269 428.902 373.313 428.968 373.357C430.154 374.235 430.747 375.597 430.747 377.442C430.747 379.111 430.242 380.483 429.232 381.56C428.221 382.636 426.805 383.174 424.982 383.174H413.979C413.869 383.174 413.781 383.141 413.715 383.075C413.627 382.987 413.583 382.888 413.583 382.779V378.957C413.583 378.847 413.627 378.759 413.715 378.694C413.781 378.606 413.869 378.562 413.979 378.562H423.829C424.707 378.562 425.421 378.331 425.97 377.87C426.519 377.387 426.794 376.728 426.794 375.893C426.794 375.147 426.574 374.532 426.135 374.048C425.674 373.565 425.081 373.269 424.356 373.159H413.979ZM430.747 358.337C430.747 359.808 430.539 361.093 430.121 362.191C429.704 363.289 429.122 364.146 428.375 364.761C427.628 365.354 426.783 365.65 425.839 365.65H425.509C425.399 365.65 425.311 365.617 425.246 365.551C425.158 365.464 425.114 365.365 425.114 365.255V361.598C425.114 361.488 425.158 361.4 425.246 361.335C425.311 361.247 425.399 361.203 425.509 361.203H425.542C426.025 361.203 426.443 360.939 426.794 360.412C427.123 359.863 427.288 359.182 427.288 358.37C427.288 357.623 427.145 357.019 426.86 356.558C426.552 356.096 426.179 355.866 425.74 355.866C425.344 355.866 425.048 356.063 424.85 356.459C424.653 356.854 424.444 357.502 424.224 358.402C423.961 359.435 423.708 360.247 423.467 360.84C422.983 362.246 422.39 363.366 421.688 364.201C420.985 365.035 419.974 365.453 418.657 365.453C417.031 365.453 415.747 364.827 414.802 363.575C413.836 362.301 413.353 360.621 413.353 358.534C413.353 357.129 413.583 355.899 414.045 354.844C414.484 353.79 415.11 352.978 415.922 352.407C416.735 351.814 417.657 351.517 418.69 351.517C418.799 351.517 418.898 351.561 418.986 351.649C419.052 351.715 419.085 351.803 419.085 351.912V355.437C419.085 355.547 419.052 355.646 418.986 355.734C418.898 355.8 418.799 355.833 418.69 355.833C418.206 355.833 417.8 356.085 417.471 356.591C417.141 357.074 416.977 357.722 416.977 358.534C416.977 359.259 417.108 359.852 417.372 360.313C417.635 360.774 417.998 361.005 418.459 361.005C418.898 361.005 419.228 360.785 419.447 360.346C419.667 359.885 419.898 359.127 420.139 358.073C420.205 357.831 420.282 357.557 420.37 357.249C420.436 356.942 420.524 356.613 420.633 356.261C421.095 354.702 421.688 353.472 422.412 352.571C423.137 351.671 424.191 351.221 425.575 351.221C427.2 351.221 428.474 351.869 429.396 353.164C430.297 354.438 430.747 356.162 430.747 358.337ZM416.911 338.867C417.02 338.867 417.119 338.911 417.207 338.999C417.273 339.065 417.306 339.153 417.306 339.263V342.425C417.306 342.535 417.361 342.59 417.471 342.59H424.455C425.18 342.59 425.718 342.447 426.069 342.162C426.421 341.854 426.596 341.371 426.596 340.712V339.625C426.596 339.515 426.64 339.427 426.728 339.361C426.794 339.274 426.882 339.23 426.992 339.23H430.121C430.363 339.23 430.506 339.361 430.55 339.625C430.593 340.547 430.615 341.206 430.615 341.602C430.615 343.425 430.319 344.786 429.726 345.687C429.111 346.587 427.969 347.048 426.3 347.07H417.471C417.361 347.07 417.306 347.125 417.306 347.235V349.113C417.306 349.223 417.273 349.322 417.207 349.409C417.119 349.475 417.02 349.508 416.911 349.508H413.979C413.869 349.508 413.781 349.475 413.715 349.409C413.627 349.322 413.583 349.223 413.583 349.113V347.235C413.583 347.125 413.528 347.07 413.419 347.07H409.498C409.388 347.07 409.301 347.037 409.235 346.972C409.147 346.884 409.103 346.785 409.103 346.675V342.985C409.103 342.876 409.147 342.788 409.235 342.722C409.301 342.634 409.388 342.59 409.498 342.59H413.419C413.528 342.59 413.583 342.535 413.583 342.425V339.263C413.583 339.153 413.627 339.065 413.715 338.999C413.781 338.911 413.869 338.867 413.979 338.867H416.911ZM430.78 328.818C430.78 330.663 430.297 332.244 429.331 333.562C428.364 334.88 427.046 335.78 425.377 336.263C424.345 336.571 423.225 336.724 422.017 336.724C420.721 336.724 419.557 336.571 418.525 336.263C416.9 335.758 415.626 334.847 414.703 333.529C413.781 332.211 413.32 330.63 413.32 328.785C413.32 326.984 413.781 325.447 414.703 324.173C415.604 322.899 416.867 321.998 418.492 321.471C419.59 321.12 420.743 320.944 421.951 320.944C423.137 320.944 424.246 321.098 425.278 321.405C426.992 321.889 428.342 322.789 429.331 324.107C430.297 325.403 430.78 326.973 430.78 328.818ZM426.794 328.818C426.794 328.093 426.574 327.478 426.135 326.973C425.696 326.468 425.092 326.105 424.323 325.886C423.62 325.71 422.852 325.622 422.017 325.622C421.095 325.622 420.315 325.71 419.678 325.886C418.931 326.127 418.349 326.501 417.932 327.006C417.515 327.511 417.306 328.126 417.306 328.851C417.306 329.597 417.515 330.223 417.932 330.729C418.349 331.212 418.931 331.563 419.678 331.783C420.205 331.958 420.985 332.046 422.017 332.046C423.005 332.046 423.774 331.969 424.323 331.816C425.092 331.596 425.696 331.234 426.135 330.729C426.574 330.201 426.794 329.565 426.794 328.818ZM413.32 299.18C413.32 297.467 413.836 296.127 414.868 295.161C415.9 294.194 417.35 293.711 419.217 293.711H430.121C430.231 293.711 430.33 293.755 430.418 293.843C430.484 293.909 430.517 293.997 430.517 294.106V297.961C430.517 298.071 430.484 298.17 430.418 298.257C430.33 298.323 430.231 298.356 430.121 298.356H420.238C419.338 298.356 418.624 298.587 418.097 299.048C417.57 299.509 417.306 300.124 417.306 300.893C417.306 301.662 417.57 302.288 418.097 302.771C418.624 303.254 419.327 303.496 420.205 303.496H430.121C430.231 303.496 430.33 303.539 430.418 303.627C430.484 303.693 430.517 303.781 430.517 303.891V307.712C430.517 307.822 430.484 307.921 430.418 308.009C430.33 308.075 430.231 308.108 430.121 308.108H420.238C419.359 308.108 418.657 308.349 418.13 308.833C417.581 309.316 417.306 309.942 417.306 310.71C417.306 311.413 417.515 312.006 417.932 312.489C418.349 312.951 418.931 313.225 419.678 313.313H430.121C430.231 313.313 430.33 313.357 430.418 313.445C430.484 313.511 430.517 313.598 430.517 313.708V317.563C430.517 317.673 430.484 317.771 430.418 317.859C430.33 317.925 430.231 317.958 430.121 317.958H413.979C413.869 317.958 413.781 317.925 413.715 317.859C413.627 317.771 413.583 317.673 413.583 317.563V313.708C413.583 313.598 413.627 313.511 413.715 313.445C413.781 313.357 413.869 313.313 413.979 313.313H415.263C415.329 313.313 415.373 313.291 415.395 313.247C415.417 313.203 415.395 313.159 415.329 313.115C413.99 312.215 413.32 310.82 413.32 308.931C413.32 307.833 413.55 306.878 414.012 306.065C414.473 305.231 415.132 304.594 415.988 304.154C416.12 304.089 416.12 304.012 415.988 303.924C415.088 303.441 414.418 302.793 413.979 301.98C413.539 301.146 413.32 300.212 413.32 299.18ZM420.304 275.558C421.138 275.426 422.072 275.382 423.104 275.426C423.368 275.448 423.499 275.591 423.499 275.854V286.034C423.499 286.166 423.554 286.21 423.664 286.166C424.103 286.1 424.543 285.979 424.982 285.803C426.212 285.232 426.827 284.068 426.827 282.311C426.805 280.906 426.234 279.797 425.114 278.984C424.982 278.896 424.916 278.797 424.916 278.688C424.916 278.622 424.96 278.545 425.048 278.457L427.387 276.085C427.497 275.975 427.596 275.92 427.683 275.92C427.727 275.92 427.815 275.964 427.947 276.052C428.847 276.777 429.55 277.71 430.055 278.852C430.539 279.994 430.78 281.246 430.78 282.608C430.78 284.497 430.352 286.1 429.495 287.418C428.639 288.714 427.442 289.647 425.904 290.218C424.806 290.679 423.368 290.91 421.589 290.91C420.381 290.91 419.316 290.745 418.393 290.416C416.834 289.911 415.593 289.032 414.67 287.78C413.748 286.506 413.287 285.002 413.287 283.267C413.287 281.071 413.924 279.313 415.198 277.996C416.471 276.656 418.174 275.843 420.304 275.558ZM417.306 283.234C417.306 284.618 417.954 285.529 419.25 285.968C419.535 286.056 419.887 286.133 420.304 286.199C420.414 286.199 420.469 286.144 420.469 286.034V280.335C420.469 280.203 420.414 280.159 420.304 280.203C419.667 280.313 419.359 280.368 419.381 280.368C418.723 280.565 418.217 280.917 417.866 281.422C417.493 281.905 417.306 282.509 417.306 283.234ZM413.353 264.13C413.353 263.339 413.506 262.713 413.814 262.252C413.902 262.076 414.066 262.01 414.308 262.054L418.064 262.746C418.327 262.768 418.404 262.922 418.294 263.207C418.184 263.537 418.13 263.921 418.13 264.36C418.13 264.536 418.152 264.777 418.195 265.085C418.261 265.876 418.558 266.545 419.085 267.095C419.59 267.644 420.271 267.918 421.128 267.918H430.121C430.231 267.918 430.33 267.962 430.418 268.05C430.484 268.116 430.517 268.204 430.517 268.313V272.168C430.517 272.278 430.484 272.377 430.418 272.464C430.33 272.53 430.231 272.563 430.121 272.563H413.979C413.869 272.563 413.781 272.53 413.715 272.464C413.627 272.377 413.583 272.278 413.583 272.168V268.313C413.583 268.204 413.627 268.116 413.715 268.05C413.781 267.962 413.869 267.918 413.979 267.918H415.23C415.296 267.918 415.34 267.896 415.362 267.852C415.384 267.808 415.373 267.775 415.329 267.753C414.012 266.853 413.353 265.645 413.353 264.13ZM430.747 253.456C430.747 254.927 430.539 256.212 430.121 257.31C429.704 258.408 429.122 259.265 428.375 259.88C427.628 260.473 426.783 260.769 425.839 260.769H425.509C425.399 260.769 425.311 260.736 425.246 260.67C425.158 260.583 425.114 260.484 425.114 260.374V256.717C425.114 256.607 425.158 256.519 425.246 256.454C425.311 256.366 425.399 256.322 425.509 256.322H425.542C426.025 256.322 426.443 256.058 426.794 255.531C427.123 254.982 427.288 254.301 427.288 253.489C427.288 252.742 427.145 252.138 426.86 251.677C426.552 251.215 426.179 250.985 425.74 250.985C425.344 250.985 425.048 251.182 424.85 251.578C424.653 251.973 424.444 252.621 424.224 253.522C423.961 254.554 423.708 255.366 423.467 255.959C422.983 257.365 422.39 258.485 421.688 259.32C420.985 260.154 419.974 260.572 418.657 260.572C417.031 260.572 415.747 259.946 414.802 258.694C413.836 257.42 413.353 255.74 413.353 253.653C413.353 252.248 413.583 251.018 414.045 249.964C414.484 248.909 415.11 248.097 415.922 247.526C416.735 246.933 417.657 246.636 418.69 246.636C418.799 246.636 418.898 246.68 418.986 246.768C419.052 246.834 419.085 246.922 419.085 247.032V250.557C419.085 250.666 419.052 250.765 418.986 250.853C418.898 250.919 418.799 250.952 418.69 250.952C418.206 250.952 417.8 251.204 417.471 251.71C417.141 252.193 416.977 252.841 416.977 253.653C416.977 254.378 417.108 254.971 417.372 255.432C417.635 255.893 417.998 256.124 418.459 256.124C418.898 256.124 419.228 255.904 419.447 255.465C419.667 255.004 419.898 254.246 420.139 253.192C420.205 252.95 420.282 252.676 420.37 252.368C420.436 252.061 420.524 251.732 420.633 251.38C421.095 249.821 421.688 248.591 422.412 247.69C423.137 246.79 424.191 246.34 425.575 246.34C427.2 246.34 428.474 246.988 429.396 248.283C430.297 249.557 430.747 251.281 430.747 253.456Z" fill="white"/>
</svg>