<svg xmlns="http://www.w3.org/2000/svg" fill="none" viewBox="110.44 215.96 430 218.94">
<rect x="110.936" y="434.406" width="217.942" height="429" rx="108.971" transform="rotate(-90 110.936 434.406)" fill="#1D1D1D" stroke="#F8F24B"/>
<circle cx="225.46" cy="325.258" r="83.7083" transform="rotate(-90 225.46 325.258)" fill="#F8F24B" stroke="#F8F24B"/>
<path d="M241.385 369.598H231.217V379.766H220.926V369.598H210.758V359.306H220.926V349.2H231.217V359.306H241.385V369.598ZM241.878 345.985C238.345 345.985 235.223 345.471 232.511 344.444C229.8 343.376 227.253 341.651 224.87 339.268C222.446 336.885 219.94 333.599 217.352 329.408C216.571 328.176 215.914 327.313 215.38 326.82C214.805 326.286 214.127 326.019 213.346 326.019C211.662 326.019 210.82 327.231 210.82 329.655C210.82 331.462 211.292 333.537 212.237 335.879C213.182 338.22 214.373 340.336 215.811 342.226L202.685 345.862C201.371 343.232 200.261 340.213 199.357 336.803C198.413 333.393 197.94 329.963 197.94 326.512C197.94 320.842 199.193 316.447 201.699 313.324C204.205 310.202 207.759 308.641 212.36 308.641C214.825 308.641 217.003 309.195 218.892 310.305C220.741 311.373 222.302 312.687 223.576 314.249C224.849 315.769 226.308 317.761 227.951 320.226C229.759 322.979 231.32 325.012 232.634 326.327C233.908 327.6 235.387 328.237 237.071 328.237V320.781H233.559V308.148H247.178V345.985H241.878ZM248.04 284.151C248.04 291.094 246.068 296.455 242.125 300.234C238.181 303.973 231.874 305.842 223.206 305.842C214.538 305.842 208.231 303.973 204.287 300.234C200.343 296.455 198.372 291.094 198.372 284.151C198.372 277.208 200.343 271.867 204.287 268.128C208.231 264.349 214.538 262.459 223.206 262.459C231.217 262.459 237.359 264.205 241.632 267.697C245.904 271.148 248.04 276.632 248.04 284.151ZM237.071 284.151C237.071 281.357 235.551 279.96 232.511 279.96H213.901C210.861 279.96 209.341 281.357 209.341 284.151C209.341 286.944 210.861 288.341 213.901 288.341H232.511C235.551 288.341 237.071 286.944 237.071 284.151Z" fill="#1D1D1D"/>
<path d="M390.517 398.179C390.517 398.289 390.484 398.388 390.418 398.475C390.33 398.541 390.231 398.574 390.121 398.574H367.851C367.741 398.574 367.653 398.541 367.587 398.475C367.5 398.388 367.456 398.289 367.456 398.179V394.325C367.456 394.215 367.5 394.127 367.587 394.061C367.653 393.973 367.741 393.929 367.851 393.929H386.366C386.475 393.929 386.53 393.874 386.53 393.764V382.992C386.53 382.882 386.574 382.794 386.662 382.728C386.728 382.64 386.816 382.596 386.926 382.596H390.121C390.231 382.596 390.33 382.64 390.418 382.728C390.484 382.794 390.517 382.882 390.517 382.992V398.179ZM373.32 373.264C373.32 371.837 373.572 370.563 374.077 369.443C374.561 368.323 375.23 367.455 376.087 366.84C376.944 366.203 377.899 365.885 378.953 365.885H390.121C390.231 365.885 390.33 365.929 390.418 366.017C390.484 366.083 390.517 366.17 390.517 366.28V370.135C390.517 370.245 390.484 370.343 390.418 370.431C390.33 370.497 390.231 370.53 390.121 370.53H389.034C388.968 370.53 388.924 370.552 388.902 370.596C388.88 370.64 388.902 370.684 388.968 370.728C390.176 371.65 390.78 373.133 390.78 375.175C390.78 376.888 390.363 378.272 389.528 379.326C388.694 380.38 387.464 380.907 385.839 380.907C384.147 380.907 382.841 380.314 381.918 379.128C380.974 377.943 380.502 376.251 380.502 374.055V370.695C380.502 370.585 380.447 370.53 380.337 370.53H379.612C378.887 370.53 378.327 370.75 377.932 371.189C377.515 371.628 377.306 372.287 377.306 373.166C377.306 373.846 377.427 374.417 377.668 374.879C377.91 375.318 378.25 375.603 378.69 375.735C378.931 375.801 379.041 375.944 379.019 376.164L378.492 380.15C378.448 380.413 378.349 380.534 378.195 380.512C377.273 380.424 376.438 380.062 375.692 379.425C374.945 378.766 374.363 377.91 373.946 376.855C373.528 375.779 373.32 374.582 373.32 373.264ZM387.321 373.923C387.321 372.979 387.068 372.177 386.563 371.518C386.058 370.859 385.41 370.53 384.62 370.53H383.434C383.324 370.53 383.269 370.585 383.269 370.695V373.067C383.269 374.055 383.456 374.835 383.829 375.406C384.202 375.955 384.729 376.229 385.41 376.229C386.003 376.229 386.475 376.021 386.827 375.603C387.156 375.186 387.321 374.626 387.321 373.923ZM373.979 352.73C373.869 352.73 373.781 352.697 373.715 352.631C373.627 352.543 373.583 352.444 373.583 352.334V348.48C373.583 348.37 373.627 348.282 373.715 348.216C373.781 348.128 373.869 348.085 373.979 348.085H390.121C390.231 348.085 390.33 348.128 390.418 348.216C390.484 348.282 390.517 348.37 390.517 348.48V352.334C390.517 352.444 390.484 352.543 390.418 352.631C390.33 352.697 390.231 352.73 390.121 352.73H389.001C388.935 352.73 388.902 352.752 388.902 352.796C388.88 352.839 388.902 352.883 388.968 352.927C390.154 353.806 390.747 355.168 390.747 357.012C390.747 358.682 390.242 360.054 389.232 361.13C388.221 362.207 386.805 362.745 384.982 362.745H373.979C373.869 362.745 373.781 362.712 373.715 362.646C373.627 362.558 373.583 362.459 373.583 362.349V358.528C373.583 358.418 373.627 358.33 373.715 358.264C373.781 358.176 373.869 358.132 373.979 358.132H383.829C384.707 358.132 385.421 357.902 385.97 357.441C386.519 356.957 386.794 356.299 386.794 355.464C386.794 354.717 386.574 354.102 386.135 353.619C385.674 353.136 385.081 352.839 384.356 352.73H373.979ZM373.32 335.832C373.32 334.075 373.858 332.658 374.934 331.582C376.01 330.506 377.471 329.968 379.316 329.968H390.121C390.231 329.968 390.33 330.012 390.418 330.1C390.484 330.165 390.517 330.253 390.517 330.363V334.218C390.517 334.327 390.484 334.426 390.418 334.514C390.33 334.58 390.231 334.613 390.121 334.613H380.271C379.392 334.613 378.679 334.865 378.13 335.371C377.581 335.854 377.306 336.502 377.306 337.314C377.306 338.127 377.581 338.786 378.13 339.291C378.679 339.774 379.392 340.016 380.271 340.016H390.121C390.231 340.016 390.33 340.06 390.418 340.148C390.484 340.213 390.517 340.301 390.517 340.411V344.266C390.517 344.375 390.484 344.474 390.418 344.562C390.33 344.628 390.231 344.661 390.121 344.661H373.979C373.869 344.661 373.781 344.628 373.715 344.562C373.627 344.474 373.583 344.375 373.583 344.266V340.411C373.583 340.301 373.627 340.213 373.715 340.148C373.781 340.06 373.869 340.016 373.979 340.016H375.132C375.198 340.016 375.241 339.994 375.263 339.95C375.285 339.906 375.274 339.873 375.23 339.851C373.957 338.951 373.32 337.611 373.32 335.832ZM390.78 319.296C390.78 321.053 390.341 322.579 389.462 323.875C388.584 325.149 387.376 326.06 385.839 326.609C384.74 326.983 383.445 327.169 381.951 327.169C380.48 327.169 379.206 326.983 378.13 326.609C376.636 326.082 375.461 325.171 374.605 323.875C373.748 322.579 373.32 321.053 373.32 319.296C373.32 317.539 373.759 316.001 374.637 314.683C375.516 313.344 376.625 312.454 377.965 312.015C378.492 311.839 378.887 311.751 379.151 311.751H379.217C379.414 311.751 379.535 311.861 379.579 312.081L380.139 315.869V315.935C380.139 316.133 380.029 316.265 379.81 316.331L379.283 316.43C378.712 316.583 378.239 316.924 377.866 317.451C377.493 317.978 377.306 318.604 377.306 319.329C377.306 320.031 377.482 320.624 377.833 321.108C378.184 321.591 378.668 321.931 379.283 322.129C379.942 322.37 380.842 322.491 381.984 322.491C383.126 322.491 384.027 322.381 384.685 322.162C385.344 321.964 385.86 321.624 386.234 321.141C386.607 320.635 386.794 320.031 386.794 319.329C386.794 318.648 386.618 318.055 386.267 317.55C385.893 317.023 385.388 316.66 384.751 316.462C384.707 316.44 384.642 316.43 384.554 316.43C384.532 316.408 384.499 316.397 384.455 316.397C384.191 316.375 384.081 316.221 384.125 315.935L384.718 312.147C384.762 311.927 384.883 311.817 385.081 311.817C385.257 311.817 385.586 311.883 386.069 312.015C387.541 312.476 388.694 313.377 389.528 314.716C390.363 316.034 390.78 317.561 390.78 319.296ZM373.32 300.217C373.32 298.46 373.858 297.044 374.934 295.968C376.01 294.891 377.471 294.353 379.316 294.353H390.121C390.231 294.353 390.33 294.397 390.418 294.485C390.484 294.551 390.517 294.639 390.517 294.749V298.603C390.517 298.713 390.484 298.812 390.418 298.9C390.33 298.965 390.231 298.998 390.121 298.998H380.271C379.392 298.998 378.679 299.251 378.13 299.756C377.581 300.239 377.306 300.887 377.306 301.7C377.306 302.512 377.581 303.171 378.13 303.676C378.679 304.16 379.392 304.401 380.271 304.401H390.121C390.231 304.401 390.33 304.445 390.418 304.533C390.484 304.599 390.517 304.687 390.517 304.797V308.651C390.517 308.761 390.484 308.86 390.418 308.948C390.33 309.013 390.231 309.046 390.121 309.046H367.851C367.741 309.046 367.653 309.013 367.587 308.948C367.5 308.86 367.456 308.761 367.456 308.651V304.797C367.456 304.687 367.5 304.599 367.587 304.533C367.653 304.445 367.741 304.401 367.851 304.401H375.132C375.198 304.401 375.241 304.379 375.263 304.335C375.285 304.291 375.274 304.259 375.23 304.237C373.957 303.336 373.32 301.996 373.32 300.217ZM380.304 276.137C381.138 276.005 382.072 275.961 383.104 276.005C383.368 276.027 383.499 276.17 383.499 276.433V286.613C383.499 286.745 383.554 286.789 383.664 286.745C384.103 286.679 384.543 286.558 384.982 286.383C386.212 285.812 386.827 284.648 386.827 282.891C386.805 281.485 386.234 280.376 385.114 279.563C384.982 279.475 384.916 279.376 384.916 279.267C384.916 279.201 384.96 279.124 385.048 279.036L387.387 276.664C387.497 276.554 387.596 276.499 387.683 276.499C387.727 276.499 387.815 276.543 387.947 276.631C388.847 277.356 389.55 278.289 390.055 279.431C390.539 280.573 390.78 281.825 390.78 283.187C390.78 285.076 390.352 286.679 389.495 287.997C388.639 289.293 387.442 290.226 385.904 290.797C384.806 291.258 383.368 291.489 381.589 291.489C380.381 291.489 379.316 291.324 378.393 290.995C376.834 290.49 375.593 289.611 374.67 288.359C373.748 287.085 373.287 285.581 373.287 283.846C373.287 281.65 373.924 279.893 375.198 278.575C376.471 277.235 378.174 276.422 380.304 276.137ZM377.306 283.813C377.306 285.197 377.954 286.108 379.25 286.547C379.535 286.635 379.887 286.712 380.304 286.778C380.414 286.778 380.469 286.723 380.469 286.613V280.914C380.469 280.782 380.414 280.738 380.304 280.782C379.667 280.892 379.359 280.947 379.381 280.947C378.723 281.144 378.217 281.496 377.866 282.001C377.493 282.484 377.306 283.088 377.306 283.813ZM367.851 262.633C367.741 262.633 367.653 262.6 367.587 262.534C367.5 262.446 367.456 262.348 367.456 262.238V258.383C367.456 258.274 367.5 258.186 367.587 258.12C367.653 258.032 367.741 257.988 367.851 257.988H390.121C390.231 257.988 390.33 258.032 390.418 258.12C390.484 258.186 390.517 258.274 390.517 258.383V262.238C390.517 262.348 390.484 262.446 390.418 262.534C390.33 262.6 390.231 262.633 390.121 262.633H389.034C388.968 262.633 388.935 262.655 388.935 262.699C388.913 262.743 388.924 262.787 388.968 262.831C390.176 263.753 390.78 265.016 390.78 266.619C390.78 268.157 390.352 269.486 389.495 270.606C388.639 271.704 387.464 272.494 385.97 272.978C384.828 273.351 383.499 273.538 381.984 273.538C380.425 273.538 379.063 273.34 377.899 272.945C376.493 272.44 375.384 271.649 374.572 270.573C373.737 269.475 373.32 268.124 373.32 266.521C373.32 264.939 373.869 263.709 374.967 262.831C375.033 262.787 375.055 262.743 375.033 262.699C375.011 262.655 374.967 262.633 374.901 262.633H367.851ZM385.377 263.325C384.565 262.886 383.456 262.666 382.05 262.666C380.578 262.666 379.425 262.908 378.591 263.391C377.734 263.896 377.306 264.632 377.306 265.598C377.306 266.63 377.734 267.41 378.591 267.937C379.447 268.486 380.611 268.761 382.083 268.761C383.401 268.761 384.499 268.53 385.377 268.069C386.322 267.52 386.794 266.707 386.794 265.631C386.794 264.643 386.322 263.874 385.377 263.325ZM430.78 396.1C430.78 397.813 430.451 399.318 429.792 400.614C429.111 401.909 428.167 402.909 426.959 403.611C425.751 404.314 424.356 404.666 422.775 404.666H415.165C413.583 404.666 412.189 404.314 410.981 403.611C409.773 402.909 408.839 401.909 408.18 400.614C407.522 399.318 407.192 397.813 407.192 396.1C407.192 394.409 407.511 392.927 408.147 391.653C408.762 390.357 409.652 389.358 410.816 388.655C411.958 387.93 413.287 387.568 414.802 387.568C415 387.568 415.121 387.699 415.165 387.963L415.395 391.817V391.883C415.395 392.103 415.274 392.213 415.033 392.213C413.869 392.213 412.935 392.575 412.233 393.3C411.53 394.003 411.178 394.936 411.178 396.1C411.178 397.286 411.53 398.242 412.233 398.966C412.935 399.669 413.869 400.021 415.033 400.021H422.972C424.114 400.021 425.037 399.669 425.74 398.966C426.442 398.242 426.794 397.286 426.794 396.1C426.794 394.936 426.442 394.003 425.74 393.3C425.037 392.575 424.114 392.213 422.972 392.213C422.731 392.213 422.61 392.081 422.61 391.817L422.775 387.963C422.775 387.853 422.808 387.765 422.874 387.699C422.939 387.612 423.016 387.568 423.104 387.568C424.62 387.568 425.959 387.93 427.123 388.655C428.287 389.358 429.188 390.357 429.825 391.653C430.462 392.927 430.78 394.409 430.78 396.1ZM413.32 377.801C413.32 376.373 413.572 375.099 414.077 373.979C414.561 372.859 415.23 371.992 416.087 371.377C416.944 370.74 417.899 370.421 418.953 370.421H430.121C430.231 370.421 430.33 370.465 430.418 370.553C430.484 370.619 430.517 370.707 430.517 370.817V374.671C430.517 374.781 430.484 374.88 430.418 374.967C430.33 375.033 430.231 375.066 430.121 375.066H429.034C428.968 375.066 428.924 375.088 428.902 375.132C428.88 375.176 428.902 375.22 428.968 375.264C430.176 376.186 430.78 377.669 430.78 379.711C430.78 381.425 430.363 382.808 429.528 383.862C428.694 384.917 427.464 385.444 425.839 385.444C424.147 385.444 422.841 384.851 421.918 383.665C420.974 382.479 420.502 380.788 420.502 378.591V375.231C420.502 375.121 420.447 375.066 420.337 375.066H419.612C418.887 375.066 418.327 375.286 417.932 375.725C417.515 376.164 417.306 376.823 417.306 377.702C417.306 378.383 417.427 378.954 417.668 379.415C417.91 379.854 418.25 380.14 418.69 380.272C418.931 380.337 419.041 380.48 419.019 380.7L418.492 384.686C418.448 384.95 418.349 385.07 418.195 385.048C417.273 384.961 416.438 384.598 415.692 383.961C414.945 383.302 414.363 382.446 413.946 381.392C413.528 380.315 413.32 379.118 413.32 377.801ZM427.321 378.46C427.321 377.515 427.068 376.714 426.563 376.055C426.058 375.396 425.41 375.066 424.62 375.066H423.434C423.324 375.066 423.269 375.121 423.269 375.231V377.603C423.269 378.591 423.456 379.371 423.829 379.942C424.202 380.491 424.729 380.766 425.41 380.766C426.003 380.766 426.475 380.557 426.827 380.14C427.156 379.722 427.321 379.162 427.321 378.46ZM413.32 348.371C413.32 346.658 413.836 345.318 414.868 344.352C415.9 343.385 417.35 342.902 419.217 342.902H430.121C430.231 342.902 430.33 342.946 430.418 343.034C430.484 343.1 430.517 343.188 430.517 343.298V347.152C430.517 347.262 430.484 347.361 430.418 347.449C430.33 347.514 430.231 347.547 430.121 347.547H420.238C419.338 347.547 418.624 347.778 418.097 348.239C417.57 348.7 417.306 349.315 417.306 350.084C417.306 350.853 417.57 351.479 418.097 351.962C418.624 352.445 419.327 352.687 420.205 352.687H430.121C430.231 352.687 430.33 352.731 430.418 352.818C430.484 352.884 430.517 352.972 430.517 353.082V356.904C430.517 357.013 430.484 357.112 430.418 357.2C430.33 357.266 430.231 357.299 430.121 357.299H420.238C419.359 357.299 418.657 357.54 418.13 358.024C417.581 358.507 417.306 359.133 417.306 359.901C417.306 360.604 417.515 361.197 417.932 361.68C418.349 362.142 418.931 362.416 419.678 362.504H430.121C430.231 362.504 430.33 362.548 430.418 362.636C430.484 362.702 430.517 362.79 430.517 362.899V366.754C430.517 366.864 430.484 366.962 430.418 367.05C430.33 367.116 430.231 367.149 430.121 367.149H413.979C413.869 367.149 413.781 367.116 413.715 367.05C413.627 366.962 413.583 366.864 413.583 366.754V362.899C413.583 362.79 413.627 362.702 413.715 362.636C413.781 362.548 413.869 362.504 413.979 362.504H415.263C415.329 362.504 415.373 362.482 415.395 362.438C415.417 362.394 415.395 362.35 415.329 362.306C413.99 361.406 413.32 360.011 413.32 358.122C413.32 357.024 413.55 356.069 414.012 355.256C414.473 354.422 415.132 353.785 415.988 353.346C416.12 353.28 416.12 353.203 415.988 353.115C415.088 352.632 414.418 351.984 413.979 351.171C413.539 350.337 413.32 349.403 413.32 348.371ZM418.13 324.521C419.25 324.125 420.567 323.928 422.083 323.928C423.598 323.928 424.971 324.136 426.201 324.554C427.607 325.059 428.727 325.86 429.561 326.959C430.374 328.035 430.78 329.374 430.78 330.978C430.78 332.559 430.231 333.789 429.133 334.667C429.067 334.711 429.045 334.755 429.067 334.799C429.089 334.843 429.133 334.865 429.199 334.865H436.249C436.359 334.865 436.447 334.909 436.512 334.997C436.6 335.063 436.644 335.151 436.644 335.26V339.115C436.644 339.225 436.6 339.324 436.512 339.411C436.447 339.477 436.359 339.51 436.249 339.51H413.979C413.869 339.51 413.781 339.477 413.715 339.411C413.627 339.324 413.583 339.225 413.583 339.115V335.26C413.583 335.151 413.627 335.063 413.715 334.997C413.781 334.909 413.869 334.865 413.979 334.865H415.066C415.132 334.865 415.176 334.843 415.198 334.799C415.198 334.755 415.176 334.711 415.132 334.667C413.924 333.745 413.32 332.471 413.32 330.846C413.32 329.331 413.748 328.024 414.605 326.926C415.439 325.805 416.614 325.004 418.13 324.521ZM425.509 329.561C424.653 329.012 423.489 328.738 422.017 328.738C420.633 328.738 419.535 328.968 418.723 329.429C417.778 329.934 417.306 330.747 417.306 331.867C417.306 332.877 417.778 333.635 418.723 334.14C419.513 334.602 420.622 334.832 422.05 334.832C423.521 334.832 424.664 334.591 425.476 334.107C426.355 333.602 426.794 332.856 426.794 331.867C426.794 330.879 426.366 330.11 425.509 329.561ZM413.32 314.164C413.32 312.737 413.572 311.463 414.077 310.343C414.561 309.223 415.23 308.355 416.087 307.74C416.944 307.103 417.899 306.785 418.953 306.785H430.121C430.231 306.785 430.33 306.829 430.418 306.917C430.484 306.982 430.517 307.07 430.517 307.18V311.035C430.517 311.144 430.484 311.243 430.418 311.331C430.33 311.397 430.231 311.43 430.121 311.43H429.034C428.968 311.43 428.924 311.452 428.902 311.496C428.88 311.54 428.902 311.584 428.968 311.628C430.176 312.55 430.78 314.033 430.78 316.075C430.78 317.788 430.363 319.172 429.528 320.226C428.694 321.28 427.464 321.807 425.839 321.807C424.147 321.807 422.841 321.214 421.918 320.028C420.974 318.842 420.502 317.151 420.502 314.955V311.595C420.502 311.485 420.447 311.43 420.337 311.43H419.612C418.887 311.43 418.327 311.65 417.932 312.089C417.515 312.528 417.306 313.187 417.306 314.065C417.306 314.746 417.427 315.317 417.668 315.779C417.91 316.218 418.25 316.503 418.69 316.635C418.931 316.701 419.041 316.844 419.019 317.063L418.492 321.05C418.448 321.313 418.349 321.434 418.195 321.412C417.273 321.324 416.438 320.962 415.692 320.325C414.945 319.666 414.363 318.809 413.946 317.755C413.528 316.679 413.32 315.482 413.32 314.164ZM427.321 314.823C427.321 313.879 427.068 313.077 426.563 312.418C426.058 311.759 425.41 311.43 424.62 311.43H423.434C423.324 311.43 423.269 311.485 423.269 311.595V313.967C423.269 314.955 423.456 315.735 423.829 316.306C424.202 316.855 424.729 317.129 425.41 317.129C426.003 317.129 426.475 316.921 426.827 316.503C427.156 316.086 427.321 315.526 427.321 314.823ZM411.673 301.009C411.673 301.756 411.431 302.382 410.948 302.887C410.443 303.37 409.817 303.612 409.07 303.612C408.301 303.612 407.675 303.37 407.192 302.887C406.709 302.404 406.467 301.778 406.467 301.009C406.467 300.24 406.709 299.614 407.192 299.131C407.675 298.648 408.301 298.406 409.07 298.406C409.817 298.406 410.443 298.659 410.948 299.164C411.431 299.647 411.673 300.262 411.673 301.009ZM430.517 302.986C430.517 303.096 430.484 303.194 430.418 303.282C430.33 303.348 430.231 303.381 430.121 303.381H413.946C413.836 303.381 413.748 303.348 413.682 303.282C413.594 303.194 413.55 303.096 413.55 302.986V299.131C413.55 299.021 413.594 298.934 413.682 298.868C413.748 298.78 413.836 298.736 413.946 298.736H430.121C430.231 298.736 430.33 298.78 430.418 298.868C430.484 298.934 430.517 299.021 430.517 299.131V302.986ZM413.979 284.771C413.869 284.771 413.781 284.738 413.715 284.673C413.627 284.585 413.583 284.486 413.583 284.376V280.522C413.583 280.412 413.627 280.324 413.715 280.258C413.781 280.17 413.869 280.126 413.979 280.126H429.001C431.878 280.126 433.932 280.961 435.162 282.63C436.392 284.277 437.007 286.408 437.007 289.021C437.007 289.79 436.952 290.646 436.842 291.591C436.82 291.81 436.677 291.92 436.414 291.92L433.02 291.789C432.735 291.789 432.614 291.635 432.658 291.327C432.79 290.537 432.856 289.812 432.856 289.153C432.856 287.747 432.548 286.671 431.933 285.924C431.318 285.156 430.33 284.771 428.968 284.771C428.902 284.771 428.869 284.793 428.869 284.837C428.847 284.881 428.858 284.925 428.902 284.969C429.803 285.804 430.253 287.023 430.253 288.626C430.253 290.053 429.913 291.371 429.232 292.579C428.529 293.765 427.409 294.611 425.871 295.116C424.861 295.445 423.554 295.61 421.951 295.61C420.238 295.61 418.843 295.412 417.767 295.017C416.427 294.556 415.351 293.776 414.539 292.678C413.726 291.58 413.32 290.306 413.32 288.856C413.32 287.165 413.825 285.87 414.835 284.969C414.879 284.925 414.901 284.881 414.901 284.837C414.879 284.793 414.835 284.771 414.769 284.771H413.979ZM424.62 285.035C423.961 284.859 423.06 284.771 421.918 284.771C421.237 284.771 420.71 284.793 420.337 284.837C419.963 284.881 419.612 284.958 419.283 285.068C418.69 285.266 418.217 285.595 417.866 286.056C417.493 286.517 417.306 287.088 417.306 287.769C417.306 288.428 417.493 288.988 417.866 289.449C418.217 289.911 418.69 290.251 419.283 290.471C419.942 290.778 420.831 290.932 421.951 290.932C423.181 290.932 424.06 290.8 424.587 290.537C425.18 290.339 425.663 289.999 426.036 289.515C426.388 289.01 426.563 288.417 426.563 287.736C426.563 287.034 426.388 286.452 426.036 285.99C425.663 285.529 425.191 285.211 424.62 285.035ZM413.32 267.981C413.32 266.224 413.858 264.807 414.934 263.731C416.01 262.655 417.471 262.117 419.316 262.117H430.121C430.231 262.117 430.33 262.161 430.418 262.249C430.484 262.315 430.517 262.402 430.517 262.512V266.367C430.517 266.476 430.484 266.575 430.418 266.663C430.33 266.729 430.231 266.762 430.121 266.762H420.271C419.392 266.762 418.679 267.015 418.13 267.52C417.581 268.003 417.306 268.651 417.306 269.463C417.306 270.276 417.581 270.935 418.13 271.44C418.679 271.923 419.392 272.165 420.271 272.165H430.121C430.231 272.165 430.33 272.209 430.418 272.297C430.484 272.363 430.517 272.45 430.517 272.56V276.415C430.517 276.524 430.484 276.623 430.418 276.711C430.33 276.777 430.231 276.81 430.121 276.81H413.979C413.869 276.81 413.781 276.777 413.715 276.711C413.627 276.623 413.583 276.524 413.583 276.415V272.56C413.583 272.45 413.627 272.363 413.715 272.297C413.781 272.209 413.869 272.165 413.979 272.165H415.132C415.198 272.165 415.241 272.143 415.263 272.099C415.285 272.055 415.274 272.022 415.23 272C413.957 271.1 413.32 269.76 413.32 267.981ZM430.747 252.04C430.747 253.512 430.539 254.796 430.121 255.895C429.704 256.993 429.122 257.849 428.375 258.464C427.628 259.057 426.783 259.354 425.839 259.354H425.509C425.399 259.354 425.311 259.321 425.246 259.255C425.158 259.167 425.114 259.068 425.114 258.958V255.302C425.114 255.192 425.158 255.104 425.246 255.038C425.311 254.95 425.399 254.906 425.509 254.906H425.542C426.025 254.906 426.442 254.643 426.794 254.116C427.123 253.566 427.288 252.886 427.288 252.073C427.288 251.326 427.145 250.722 426.86 250.261C426.552 249.8 426.179 249.569 425.74 249.569C425.344 249.569 425.048 249.767 424.85 250.162C424.653 250.558 424.444 251.205 424.224 252.106C423.961 253.138 423.708 253.951 423.467 254.544C422.983 255.949 422.39 257.07 421.688 257.904C420.985 258.739 419.974 259.156 418.657 259.156C417.031 259.156 415.747 258.53 414.802 257.278C413.836 256.004 413.353 254.324 413.353 252.238C413.353 250.832 413.583 249.602 414.044 248.548C414.484 247.494 415.11 246.681 415.922 246.11C416.735 245.517 417.657 245.221 418.69 245.221C418.799 245.221 418.898 245.265 418.986 245.352C419.052 245.418 419.085 245.506 419.085 245.616V249.141C419.085 249.251 419.052 249.35 418.986 249.437C418.898 249.503 418.799 249.536 418.69 249.536C418.206 249.536 417.8 249.789 417.471 250.294C417.141 250.777 416.977 251.425 416.977 252.238C416.977 252.963 417.108 253.555 417.372 254.017C417.635 254.478 417.998 254.709 418.459 254.709C418.898 254.709 419.228 254.489 419.447 254.05C419.667 253.588 419.898 252.831 420.139 251.777C420.205 251.535 420.282 251.26 420.37 250.953C420.436 250.645 420.524 250.316 420.633 249.965C421.095 248.405 421.688 247.175 422.412 246.275C423.137 245.374 424.191 244.924 425.575 244.924C427.2 244.924 428.474 245.572 429.396 246.868C430.297 248.142 430.747 249.866 430.747 252.04Z" fill="white"/>
</svg>