<svg width="133" height="242" viewBox="0 0 133 242" fill="none" xmlns="http://www.w3.org/2000/svg">
<rect x="0.50061" y="0.725098" width="132.165" height="240.954" rx="13.4862" fill="#1C1C1C"/>
<rect x="8.81706" y="22.528" width="13.9358" height="13.9358" rx="6.96789" fill="white"/>
<rect x="8.81706" y="22.528" width="13.9358" height="13.9358" rx="6.96789" stroke="#484848" stroke-width="0.449541"/>
<path d="M28.8612 29.1542C28.5064 29.1542 28.1923 29.0847 27.919 28.9456C27.6457 28.8066 27.4323 28.61 27.2789 28.3558C27.1302 28.0969 27.0559 27.7996 27.0559 27.4639V24.1481C27.0559 24.1242 27.0631 24.105 27.0775 24.0906C27.0966 24.0714 27.1182 24.0618 27.1422 24.0618H27.8039C27.8279 24.0618 27.8471 24.0714 27.8615 24.0906C27.8806 24.105 27.8902 24.1242 27.8902 24.1481V27.4783C27.8902 27.7612 27.9789 27.9914 28.1564 28.1688C28.3338 28.3462 28.5687 28.435 28.8612 28.435C29.1537 28.435 29.3887 28.3462 29.5661 28.1688C29.7435 27.9914 29.8323 27.7612 29.8323 27.4783V24.1481C29.8323 24.1242 29.8394 24.105 29.8538 24.0906C29.873 24.0714 29.8946 24.0618 29.9186 24.0618H30.5803C30.6043 24.0618 30.6234 24.0714 30.6378 24.0906C30.657 24.105 30.6666 24.1242 30.6666 24.1481V27.4639C30.6666 27.7996 30.5923 28.0969 30.4436 28.3558C30.295 28.61 30.084 28.8066 29.8107 28.9456C29.5374 29.0847 29.2209 29.1542 28.8612 29.1542ZM32.9592 29.1398C32.6571 29.1398 32.391 29.0967 32.1608 29.0104C31.9354 28.9193 31.7604 28.797 31.6358 28.6435C31.5111 28.4853 31.4487 28.3103 31.4487 28.1185V28.0537C31.4487 28.0298 31.4559 28.0106 31.4703 27.9962C31.4895 27.977 31.5111 27.9674 31.5351 27.9674H32.168C32.192 27.9674 32.2112 27.977 32.2256 27.9962C32.2447 28.0106 32.2543 28.0298 32.2543 28.0537V28.0681C32.2543 28.188 32.3191 28.2935 32.4485 28.3846C32.5828 28.4709 32.7506 28.5141 32.952 28.5141C33.1438 28.5141 33.2997 28.4757 33.4195 28.399C33.5394 28.3175 33.5994 28.2168 33.5994 28.0969C33.5994 27.9866 33.549 27.9051 33.4483 27.8523C33.3524 27.7948 33.1942 27.7349 32.9736 27.6725L32.7003 27.5862C32.4557 27.5143 32.2495 27.4376 32.0817 27.3561C31.9139 27.2745 31.7724 27.1643 31.6573 27.0252C31.5422 26.8813 31.4847 26.6991 31.4847 26.4786C31.4847 26.1429 31.6166 25.8768 31.8803 25.6802C32.144 25.4788 32.4917 25.3781 32.9232 25.3781C33.2157 25.3781 33.4723 25.426 33.6929 25.5219C33.9134 25.613 34.0837 25.7425 34.2035 25.9103C34.3234 26.0734 34.3834 26.2604 34.3834 26.4714C34.3834 26.4953 34.3738 26.5169 34.3546 26.5361C34.3402 26.5505 34.321 26.5577 34.297 26.5577H33.6857C33.6617 26.5577 33.6401 26.5505 33.6209 26.5361C33.6065 26.5169 33.5994 26.4953 33.5994 26.4714C33.5994 26.3467 33.537 26.2436 33.4123 26.1621C33.2925 26.0758 33.127 26.0326 32.916 26.0326C32.729 26.0326 32.5756 26.0686 32.4557 26.1405C32.3406 26.2076 32.2831 26.3035 32.2831 26.4282C32.2831 26.5433 32.3382 26.632 32.4485 26.6943C32.5636 26.7519 32.753 26.8166 33.0167 26.8885L33.175 26.9317C33.4291 27.0084 33.6425 27.0875 33.8151 27.169C33.9878 27.2458 34.134 27.3561 34.2539 27.4999C34.3738 27.639 34.4337 27.8212 34.4337 28.0466C34.4337 28.387 34.2994 28.6555 34.0309 28.8521C33.7624 29.0439 33.4051 29.1398 32.9592 29.1398ZM38.2398 26.8454C38.259 26.9653 38.2686 27.0995 38.2686 27.2482L38.2614 27.4711C38.2614 27.5287 38.2326 27.5575 38.1751 27.5575H35.9238C35.8998 27.5575 35.8878 27.5694 35.8878 27.5934C35.9022 27.7517 35.9238 27.8595 35.9525 27.9171C36.0676 28.2623 36.3481 28.4374 36.7941 28.4421C37.1201 28.4421 37.3791 28.3079 37.5709 28.0394C37.5901 28.0106 37.614 27.9962 37.6428 27.9962C37.662 27.9962 37.6788 28.0034 37.6932 28.0178L38.1391 28.3846C38.1823 28.4182 38.1894 28.4565 38.1607 28.4997C38.012 28.7107 37.813 28.8737 37.5637 28.9888C37.3191 29.1039 37.0458 29.1614 36.7437 29.1614C36.3697 29.1614 36.0508 29.0775 35.7871 28.9097C35.5282 28.7418 35.3388 28.5069 35.2189 28.2048C35.1086 27.9459 35.0534 27.5862 35.0534 27.1259C35.0534 26.8478 35.0822 26.6224 35.1398 26.4498C35.2357 26.1141 35.4155 25.8504 35.6792 25.6586C35.9477 25.462 36.269 25.3637 36.643 25.3637C37.5877 25.3637 38.1199 25.8576 38.2398 26.8454ZM36.643 26.083C36.4656 26.083 36.317 26.1285 36.1971 26.2196C36.082 26.3059 36.0005 26.4282 35.9525 26.5864C35.9238 26.668 35.9046 26.7735 35.895 26.9029C35.8854 26.9269 35.895 26.9389 35.9238 26.9389H37.3839C37.4078 26.9389 37.4198 26.9269 37.4198 26.9029C37.4102 26.783 37.3959 26.6919 37.3767 26.6296C37.3335 26.457 37.2472 26.3227 37.1177 26.2268C36.9931 26.1309 36.8348 26.083 36.643 26.083ZM40.743 25.3781C40.8964 25.3781 41.0307 25.4092 41.1457 25.4716C41.1841 25.4908 41.1985 25.5267 41.1889 25.5795L41.0666 26.2268C41.0618 26.2843 41.0283 26.3011 40.9659 26.2772C40.894 26.2532 40.8101 26.2412 40.7142 26.2412C40.6518 26.2412 40.6039 26.2436 40.5703 26.2484C40.3689 26.258 40.2011 26.3299 40.0668 26.4642C39.9326 26.5936 39.8655 26.7639 39.8655 26.9748V29.0104C39.8655 29.0343 39.8559 29.0559 39.8367 29.0751C39.8223 29.0895 39.8031 29.0967 39.7791 29.0967H39.1174C39.0934 29.0967 39.0719 29.0895 39.0527 29.0751C39.0383 29.0559 39.0311 29.0343 39.0311 29.0104V25.5075C39.0311 25.4836 39.0383 25.4644 39.0527 25.45C39.0719 25.4308 39.0934 25.4212 39.1174 25.4212H39.7791C39.8031 25.4212 39.8223 25.4308 39.8367 25.45C39.8559 25.4644 39.8655 25.4836 39.8655 25.5075V25.8312C39.8655 25.8504 39.8678 25.8624 39.8726 25.8672C39.8822 25.8672 39.8918 25.86 39.9014 25.8456C40.1028 25.5339 40.3833 25.3781 40.743 25.3781ZM43.4976 25.3637C43.886 25.3637 44.1953 25.4788 44.4254 25.7089C44.6604 25.9391 44.7779 26.2532 44.7779 26.6512V29.0104C44.7779 29.0343 44.7683 29.0559 44.7491 29.0751C44.7347 29.0895 44.7155 29.0967 44.6916 29.0967H44.0298C44.0059 29.0967 43.9843 29.0895 43.9651 29.0751C43.9507 29.0559 43.9435 29.0343 43.9435 29.0104V26.8238C43.9435 26.6032 43.8812 26.4258 43.7565 26.2915C43.6318 26.1525 43.4664 26.083 43.2602 26.083C43.054 26.083 42.8862 26.1501 42.7567 26.2843C42.6321 26.4186 42.5697 26.596 42.5697 26.8166V29.0104C42.5697 29.0343 42.5601 29.0559 42.541 29.0751C42.5266 29.0895 42.5074 29.0967 42.4834 29.0967H41.8217C41.7977 29.0967 41.7761 29.0895 41.757 29.0751C41.7426 29.0559 41.7354 29.0343 41.7354 29.0104V25.5075C41.7354 25.4836 41.7426 25.4644 41.757 25.45C41.7761 25.4308 41.7977 25.4212 41.8217 25.4212H42.4834C42.5074 25.4212 42.5266 25.4308 42.541 25.45C42.5601 25.4644 42.5697 25.4836 42.5697 25.5075V25.7377C42.5697 25.7521 42.5745 25.7617 42.5841 25.7665C42.5937 25.7713 42.6009 25.7665 42.6057 25.7521C42.8023 25.4932 43.0996 25.3637 43.4976 25.3637ZM47.0504 25.3637C47.3524 25.3637 47.6186 25.4164 47.8487 25.5219C48.0789 25.6274 48.2563 25.7737 48.381 25.9607C48.5057 26.1429 48.568 26.3515 48.568 26.5864V29.0104C48.568 29.0343 48.5584 29.0559 48.5392 29.0751C48.5249 29.0895 48.5057 29.0967 48.4817 29.0967H47.82C47.796 29.0967 47.7744 29.0895 47.7552 29.0751C47.7409 29.0559 47.7337 29.0343 47.7337 29.0104V28.7802C47.7337 28.7658 47.7289 28.7586 47.7193 28.7586C47.7097 28.7538 47.7001 28.7562 47.6905 28.7658C47.4555 29.0248 47.1151 29.1542 46.6691 29.1542C46.3095 29.1542 46.0122 29.0631 45.7773 28.8809C45.5471 28.6987 45.432 28.4278 45.432 28.0681C45.432 27.6941 45.5615 27.404 45.8204 27.1978C46.0841 26.9868 46.4534 26.8813 46.9281 26.8813H47.6977C47.7217 26.8813 47.7337 26.8694 47.7337 26.8454V26.6728C47.7337 26.4857 47.6785 26.3419 47.5682 26.2412C47.4579 26.1357 47.2925 26.083 47.0719 26.083C46.8897 26.083 46.7411 26.1165 46.626 26.1837C46.5157 26.246 46.4462 26.3347 46.4174 26.4498C46.403 26.5073 46.3695 26.5313 46.3167 26.5217L45.619 26.4354C45.595 26.4306 45.5735 26.4234 45.5543 26.4138C45.5399 26.3994 45.5351 26.3826 45.5399 26.3635C45.5783 26.071 45.7341 25.8312 46.0074 25.6442C46.2855 25.4572 46.6332 25.3637 47.0504 25.3637ZM46.8777 28.4925C47.1127 28.4925 47.3141 28.4302 47.4819 28.3055C47.6497 28.1808 47.7337 28.0226 47.7337 27.8308V27.4927C47.7337 27.4687 47.7217 27.4568 47.6977 27.4568H47.0935C46.8394 27.4568 46.638 27.5047 46.4893 27.6006C46.3455 27.6965 46.2735 27.8332 46.2735 28.0106C46.2735 28.164 46.3287 28.2839 46.439 28.3702C46.5541 28.4517 46.7003 28.4925 46.8777 28.4925ZM53.3401 25.3637C53.7093 25.3637 53.997 25.4764 54.2032 25.7017C54.4142 25.9223 54.5197 26.2316 54.5197 26.6296V29.0104C54.5197 29.0343 54.5101 29.0559 54.4909 29.0751C54.4765 29.0895 54.4573 29.0967 54.4333 29.0967H53.7788C53.7548 29.0967 53.7333 29.0895 53.7141 29.0751C53.6997 29.0559 53.6925 29.0343 53.6925 29.0104V26.8022C53.6925 26.5816 53.6326 26.4066 53.5127 26.2772C53.3976 26.1477 53.2418 26.083 53.0452 26.083C52.8486 26.083 52.6879 26.1477 52.5632 26.2772C52.4386 26.4066 52.3762 26.5792 52.3762 26.795V29.0104C52.3762 29.0343 52.3667 29.0559 52.3475 29.0751C52.3331 29.0895 52.3139 29.0967 52.2899 29.0967H51.6354C51.6114 29.0967 51.5898 29.0895 51.5707 29.0751C51.5563 29.0559 51.5491 29.0343 51.5491 29.0104V26.8022C51.5491 26.5816 51.4891 26.4066 51.3693 26.2772C51.2494 26.1477 51.0912 26.083 50.8946 26.083C50.7123 26.083 50.5613 26.1357 50.4414 26.2412C50.3263 26.3467 50.2592 26.4905 50.24 26.6728V29.0104C50.24 29.0343 50.2304 29.0559 50.2112 29.0751C50.1969 29.0895 50.1777 29.0967 50.1537 29.0967H49.492C49.468 29.0967 49.4464 29.0895 49.4272 29.0751C49.4129 29.0559 49.4057 29.0343 49.4057 29.0104V25.5075C49.4057 25.4836 49.4129 25.4644 49.4272 25.45C49.4464 25.4308 49.468 25.4212 49.492 25.4212H50.1537C50.1777 25.4212 50.1969 25.4308 50.2112 25.45C50.2304 25.4644 50.24 25.4836 50.24 25.5075V25.7449C50.24 25.7593 50.2448 25.7689 50.2544 25.7737C50.264 25.7785 50.2736 25.7737 50.2832 25.7593C50.3887 25.625 50.5181 25.5267 50.6716 25.4644C50.8298 25.3973 51.0048 25.3637 51.1966 25.3637C51.4316 25.3637 51.6378 25.4116 51.8152 25.5075C51.9926 25.6034 52.1293 25.7425 52.2252 25.9247C52.2396 25.9439 52.2564 25.9439 52.2755 25.9247C52.381 25.7329 52.5273 25.5915 52.7143 25.5003C52.9013 25.4092 53.1099 25.3637 53.3401 25.3637ZM58.4411 26.8454C58.4602 26.9653 58.4698 27.0995 58.4698 27.2482L58.4626 27.4711C58.4626 27.5287 58.4339 27.5575 58.3763 27.5575H56.125C56.101 27.5575 56.0891 27.5694 56.0891 27.5934C56.1034 27.7517 56.125 27.8595 56.1538 27.9171C56.2689 28.2623 56.5494 28.4374 56.9953 28.4421C57.3214 28.4421 57.5803 28.3079 57.7721 28.0394C57.7913 28.0106 57.8153 27.9962 57.8441 27.9962C57.8632 27.9962 57.88 28.0034 57.8944 28.0178L58.3404 28.3846C58.3835 28.4182 58.3907 28.4565 58.3619 28.4997C58.2133 28.7107 58.0143 28.8737 57.7649 28.9888C57.5204 29.1039 57.2471 29.1614 56.945 29.1614C56.571 29.1614 56.2521 29.0775 55.9884 28.9097C55.7294 28.7418 55.54 28.5069 55.4201 28.2048C55.3099 27.9459 55.2547 27.5862 55.2547 27.1259C55.2547 26.8478 55.2835 26.6224 55.341 26.4498C55.4369 26.1141 55.6167 25.8504 55.8805 25.6586C56.149 25.462 56.4703 25.3637 56.8443 25.3637C57.7889 25.3637 58.3212 25.8576 58.4411 26.8454ZM56.8443 26.083C56.6669 26.083 56.5182 26.1285 56.3983 26.2196C56.2833 26.3059 56.2017 26.4282 56.1538 26.5864C56.125 26.668 56.1058 26.7735 56.0963 26.9029C56.0867 26.9269 56.0963 26.9389 56.125 26.9389H57.5851C57.6091 26.9389 57.6211 26.9269 57.6211 26.9029C57.6115 26.783 57.5971 26.6919 57.5779 26.6296C57.5348 26.457 57.4485 26.3227 57.319 26.2268C57.1943 26.1309 57.0361 26.083 56.8443 26.083Z" fill="white"/>
<path d="M29.2802 32.8118C29.3641 33.0174 29.4061 33.2629 29.4061 33.5482C29.4061 33.779 29.3746 33.9825 29.3117 34.1587C29.2278 34.4104 29.0851 34.6055 28.8837 34.744C28.6865 34.8782 28.4411 34.9454 28.1474 34.9454C27.8537 34.9454 27.6019 34.8698 27.3921 34.7188C27.1824 34.5636 27.0376 34.3559 26.9579 34.0957C26.9201 33.9783 26.897 33.8188 26.8887 33.6174C26.8887 33.5755 26.9096 33.5545 26.9516 33.5545H27.2726C27.3145 33.5545 27.3355 33.5755 27.3355 33.6174C27.3439 33.7391 27.3586 33.8524 27.3796 33.9573C27.4257 34.1419 27.5138 34.2887 27.6439 34.3978C27.7781 34.5027 27.9439 34.5552 28.1411 34.5552C28.5187 34.5552 28.7641 34.3873 28.8774 34.0517C28.9278 33.9132 28.9529 33.7412 28.9529 33.5356C28.9529 33.2839 28.9194 33.0783 28.8523 32.9188C28.718 32.6167 28.4809 32.4657 28.1411 32.4657C28.0781 32.4657 28.0005 32.4888 27.9082 32.5349C27.8914 32.5433 27.8788 32.5475 27.8705 32.5475C27.8537 32.5475 27.839 32.537 27.8264 32.516L27.6628 32.2958C27.6418 32.2622 27.6439 32.2328 27.6691 32.2077L28.7767 30.9112C28.7893 30.8902 28.7851 30.8797 28.7641 30.8797H26.9894C26.9474 30.8797 26.9264 30.8587 26.9264 30.8168V30.5525C26.9264 30.5105 26.9474 30.4895 26.9894 30.4895H29.318C29.3599 30.4895 29.3809 30.5105 29.3809 30.5525V30.8608C29.3809 30.8818 29.3704 30.907 29.3494 30.9364L28.3425 32.1447C28.3341 32.1531 28.332 32.1615 28.3362 32.1699C28.3404 32.1741 28.3488 32.1762 28.3614 32.1762C28.8103 32.2056 29.1166 32.4174 29.2802 32.8118ZM32.2926 30.5525C32.2926 30.5105 32.3136 30.4895 32.3556 30.4895H32.6765C32.7185 30.4895 32.7395 30.5105 32.7395 30.5525V34.8321C32.7395 34.874 32.7185 34.895 32.6765 34.895H32.3556C32.3136 34.895 32.2926 34.874 32.2926 34.8321V34.5678C32.2926 34.5594 32.2884 34.5552 32.28 34.5552C32.2758 34.551 32.2695 34.5531 32.2612 34.5615C32.1689 34.6831 32.0535 34.7775 31.915 34.8447C31.7807 34.9118 31.6297 34.9454 31.4619 34.9454C31.1682 34.9454 30.9206 34.8698 30.7192 34.7188C30.522 34.5678 30.3857 34.3622 30.3101 34.102C30.2514 33.9132 30.222 33.6468 30.222 33.3027C30.222 32.9545 30.2472 32.6944 30.2976 32.5223C30.3731 32.2538 30.5115 32.044 30.7129 31.893C30.9143 31.7377 31.164 31.6601 31.4619 31.6601C31.6255 31.6601 31.7766 31.6937 31.915 31.7608C32.0535 31.8238 32.1689 31.9161 32.2612 32.0377C32.2695 32.0461 32.2758 32.0503 32.28 32.0503C32.2884 32.0461 32.2926 32.0398 32.2926 32.0314V30.5525ZM32.1793 34.0706C32.2171 33.9866 32.2444 33.888 32.2612 33.7748C32.2779 33.6615 32.2863 33.5041 32.2863 33.3027C32.2863 33.1013 32.2779 32.944 32.2612 32.8307C32.2444 32.7132 32.215 32.6105 32.173 32.5223C32.1227 32.3797 32.0388 32.2664 31.9213 32.1825C31.808 32.0944 31.6717 32.0503 31.5122 32.0503C31.3444 32.0503 31.1996 32.0923 31.078 32.1762C30.9563 32.2601 30.8682 32.3713 30.8136 32.5098C30.7633 32.6021 30.7255 32.707 30.7003 32.8244C30.6794 32.9377 30.6689 33.0972 30.6689 33.3027C30.6689 33.4999 30.6773 33.6552 30.6941 33.7685C30.7108 33.8776 30.7402 33.9762 30.7822 34.0643C30.8325 34.2153 30.9206 34.3349 31.0465 34.423C31.1766 34.5111 31.3297 34.5552 31.5059 34.5552C31.6738 34.5552 31.8143 34.5111 31.9276 34.423C32.0409 34.3349 32.1248 34.2174 32.1793 34.0706Z" fill="#BABABA"/>
<path d="M9.31155 48.083C9.25161 48.083 9.22164 48.053 9.22164 47.9931V41.8793C9.22164 41.8194 9.25161 41.7894 9.31155 41.7894H9.99485C10.0548 41.7894 10.0848 41.8194 10.0848 41.8793V47.9931C10.0848 48.053 10.0548 48.083 9.99485 48.083H9.31155ZM13.2077 48.1549C12.7642 48.1549 12.3776 48.044 12.0479 47.8223C11.7183 47.5945 11.4875 47.2798 11.3556 46.8782C11.2477 46.5546 11.1938 46.1889 11.1938 45.7814C11.1938 45.3558 11.2447 44.9962 11.3466 44.7025C11.4785 44.3069 11.7093 43.9982 12.0389 43.7764C12.3686 43.5486 12.7612 43.4348 13.2167 43.4348C13.6483 43.4348 14.0229 43.5486 14.3406 43.7764C14.6643 43.9982 14.895 44.3039 15.0329 44.6935C15.1408 44.9992 15.1947 45.3588 15.1947 45.7724C15.1947 46.1919 15.1408 46.5606 15.0329 46.8782C14.901 47.2798 14.6732 47.5945 14.3496 47.8223C14.0259 48.044 13.6453 48.1549 13.2077 48.1549ZM13.2077 47.4087C13.4475 47.4087 13.6573 47.3428 13.8371 47.2109C14.0169 47.073 14.1458 46.8812 14.2237 46.6355C14.2896 46.4077 14.3226 46.126 14.3226 45.7903C14.3226 45.4547 14.2926 45.176 14.2327 44.9542C14.1548 44.7085 14.0259 44.5196 13.8461 44.3878C13.6663 44.2499 13.4475 44.181 13.1898 44.181C12.944 44.181 12.7312 44.2499 12.5514 44.3878C12.3716 44.5196 12.2427 44.7085 12.1648 44.9542C12.0989 45.164 12.0659 45.4427 12.0659 45.7903C12.0659 46.138 12.0989 46.4197 12.1648 46.6355C12.2367 46.8812 12.3626 47.073 12.5424 47.2109C12.7282 47.3428 12.95 47.4087 13.2077 47.4087ZM18.3297 43.4617C18.5215 43.4617 18.6953 43.5007 18.8512 43.5786C18.8931 43.5966 18.9081 43.6325 18.8961 43.6865L18.7523 44.3608C18.7463 44.4148 18.7103 44.4327 18.6444 44.4148C18.5425 44.3728 18.4226 44.3518 18.2847 44.3518L18.1589 44.3608C17.8772 44.3728 17.6434 44.4717 17.4576 44.6575C17.2778 44.8373 17.1879 45.0741 17.1879 45.3678V47.9931C17.1879 48.053 17.1579 48.083 17.098 48.083H16.4147C16.3547 48.083 16.3247 48.053 16.3247 47.9931V43.5966C16.3247 43.5366 16.3547 43.5067 16.4147 43.5067H17.098C17.1579 43.5067 17.1879 43.5366 17.1879 43.5966V44.0731C17.1879 44.0911 17.1909 44.1031 17.1969 44.1091C17.2088 44.1091 17.2178 44.1031 17.2238 44.0911C17.4936 43.6715 17.8622 43.4617 18.3297 43.4617ZM23.2952 45.2239C23.3191 45.4697 23.3281 45.7454 23.3221 46.0511C23.3221 46.111 23.2922 46.141 23.2322 46.141H20.3642C20.3402 46.141 20.3282 46.153 20.3282 46.177C20.3282 46.3807 20.3462 46.5366 20.3821 46.6445C20.4481 46.8842 20.5799 47.073 20.7777 47.2109C20.9815 47.3428 21.2363 47.4087 21.542 47.4087C21.9855 47.4087 22.3272 47.2259 22.5669 46.8603C22.5969 46.8003 22.6358 46.7913 22.6838 46.8333L23.1963 47.1749C23.2382 47.2109 23.2472 47.2499 23.2232 47.2918C23.0554 47.5615 22.8157 47.7743 22.504 47.9302C22.1983 48.086 21.8506 48.1639 21.461 48.1639C21.0235 48.1639 20.6549 48.068 20.3552 47.8762C20.0555 47.6844 19.8307 47.4117 19.6809 47.0581C19.537 46.7044 19.4651 46.2759 19.4651 45.7724C19.4651 45.3348 19.498 45.0022 19.564 44.7744C19.6719 44.3608 19.8876 44.0341 20.2113 43.7944C20.535 43.5546 20.9276 43.4348 21.3891 43.4348C21.9945 43.4348 22.447 43.5876 22.7467 43.8933C23.0464 44.193 23.2292 44.6365 23.2952 45.2239ZM21.3891 44.181C21.1314 44.181 20.9186 44.2469 20.7508 44.3788C20.5829 44.5047 20.469 44.6755 20.4091 44.8913C20.3672 45.0231 20.3402 45.191 20.3282 45.3948C20.3282 45.4187 20.3402 45.4307 20.3642 45.4307H22.4231C22.447 45.4307 22.459 45.4187 22.459 45.3948C22.447 45.197 22.429 45.0501 22.4051 44.9542C22.3451 44.7204 22.2253 44.5346 22.0454 44.3968C21.8716 44.2529 21.6528 44.181 21.3891 44.181ZM29.1674 43.4437C29.6229 43.4437 29.9825 43.5816 30.2463 43.8573C30.51 44.127 30.6419 44.5047 30.6419 44.9902V47.9931C30.6419 48.053 30.6119 48.083 30.552 48.083H29.8776C29.8177 48.083 29.7877 48.053 29.7877 47.9931V45.17C29.7877 44.8703 29.7038 44.6335 29.536 44.4597C29.3742 44.2799 29.1554 44.19 28.8797 44.19C28.6039 44.19 28.3792 44.2769 28.2054 44.4507C28.0315 44.6245 27.9446 44.8583 27.9446 45.152V47.9931C27.9446 48.053 27.9146 48.083 27.8547 48.083H27.1804C27.1205 48.083 27.0905 48.053 27.0905 47.9931V45.17C27.0905 44.8703 27.0066 44.6335 26.8387 44.4597C26.6769 44.2799 26.4581 44.19 26.1824 44.19C25.9067 44.19 25.6849 44.2769 25.5171 44.4507C25.3553 44.6245 25.2743 44.8583 25.2743 45.152V47.9931C25.2743 48.053 25.2444 48.083 25.1844 48.083H24.5011C24.4412 48.083 24.4112 48.053 24.4112 47.9931V43.5966C24.4112 43.5366 24.4412 43.5067 24.5011 43.5067H25.1844C25.2444 43.5067 25.2743 43.5366 25.2743 43.5966V43.9023C25.2743 43.9143 25.2773 43.9233 25.2833 43.9292C25.2953 43.9352 25.3073 43.9322 25.3193 43.9203C25.583 43.6026 25.9666 43.4437 26.4701 43.4437C26.7758 43.4437 27.0365 43.5037 27.2523 43.6236C27.4681 43.7374 27.6359 43.9083 27.7558 44.136C27.7738 44.16 27.7918 44.16 27.8098 44.136C27.9536 43.9023 28.1424 43.7285 28.3762 43.6146C28.6159 43.5007 28.8797 43.4437 29.1674 43.4437ZM34.1606 42.7874C33.9927 42.7874 33.8549 42.7335 33.747 42.6256C33.6391 42.5177 33.5852 42.3798 33.5852 42.212C33.5852 42.0442 33.6391 41.9063 33.747 41.7984C33.8549 41.6905 33.9927 41.6366 34.1606 41.6366C34.3284 41.6366 34.4663 41.6905 34.5742 41.7984C34.682 41.9063 34.736 42.0442 34.736 42.212C34.736 42.3798 34.682 42.5177 34.5742 42.6256C34.4663 42.7335 34.3284 42.7874 34.1606 42.7874ZM33.8009 48.074C33.741 48.074 33.711 48.044 33.711 47.9841V43.5966C33.711 43.5366 33.741 43.5067 33.8009 43.5067H34.4842C34.5442 43.5067 34.5742 43.5366 34.5742 43.5966V47.9841C34.5742 48.044 34.5442 48.074 34.4842 48.074H33.8009ZM39.6439 44.6575C39.7578 44.9812 39.8148 45.3648 39.8148 45.8083C39.8148 46.2279 39.7668 46.5905 39.6709 46.8962C39.545 47.2978 39.3382 47.6095 39.0505 47.8313C38.7628 48.047 38.3942 48.1549 37.9447 48.1549C37.7409 48.1549 37.5461 48.116 37.3603 48.0381C37.1804 47.9541 37.0246 47.8373 36.8927 47.6874C36.8807 47.6754 36.8688 47.6724 36.8568 47.6784C36.8508 47.6844 36.8478 47.6934 36.8478 47.7054V49.7103C36.8478 49.7703 36.8178 49.8003 36.7579 49.8003H36.0746C36.0146 49.8003 35.9847 49.7703 35.9847 49.7103V43.5966C35.9847 43.5366 36.0146 43.5067 36.0746 43.5067H36.7579C36.8178 43.5067 36.8478 43.5366 36.8478 43.5966V43.8933C36.8478 43.9053 36.8508 43.9143 36.8568 43.9203C36.8688 43.9262 36.8807 43.9233 36.8927 43.9113C37.0246 43.7614 37.1804 43.6445 37.3603 43.5606C37.5401 43.4767 37.7349 43.4348 37.9447 43.4348C38.3762 43.4348 38.7329 43.5426 39.0146 43.7584C39.3023 43.9682 39.5121 44.2679 39.6439 44.6575ZM38.6549 46.9771C38.8467 46.6894 38.9426 46.2938 38.9426 45.7903C38.9426 45.3288 38.8677 44.9572 38.7179 44.6755C38.5441 44.3458 38.2593 44.181 37.8637 44.181C37.5161 44.181 37.2524 44.3428 37.0726 44.6665C36.9287 44.9242 36.8568 45.3018 36.8568 45.7993C36.8568 46.3028 36.9347 46.6864 37.0905 46.9502C37.2644 47.2559 37.5191 47.4087 37.8548 47.4087C38.2144 47.4087 38.4811 47.2648 38.6549 46.9771ZM42.5535 48.137C42.1939 48.137 41.8762 48.083 41.6005 47.9751C41.3308 47.8672 41.121 47.7204 40.9711 47.5346C40.8213 47.3428 40.7464 47.133 40.7464 46.9052V46.8063C40.7464 46.7464 40.7763 46.7164 40.8363 46.7164H41.4836C41.5435 46.7164 41.5735 46.7464 41.5735 46.8063V46.8513C41.5735 47.0191 41.6634 47.1659 41.8432 47.2918C42.029 47.4177 42.2628 47.4806 42.5445 47.4806C42.8142 47.4806 43.033 47.4237 43.2009 47.3098C43.3687 47.1899 43.4526 47.0401 43.4526 46.8603C43.4526 46.6864 43.3747 46.5576 43.2188 46.4736C43.063 46.3837 42.8113 46.2908 42.4636 46.1949C42.122 46.099 41.8342 46.0031 41.6005 45.9072C41.3727 45.8053 41.1779 45.6645 41.0161 45.4847C40.8602 45.2988 40.7823 45.0621 40.7823 44.7744C40.7823 44.3728 40.9382 44.0551 41.2498 43.8214C41.5675 43.5816 41.9871 43.4617 42.5086 43.4617C42.8562 43.4617 43.1619 43.5187 43.4256 43.6325C43.6953 43.7404 43.9021 43.8933 44.046 44.0911C44.1898 44.2889 44.2618 44.5107 44.2618 44.7564V44.7834C44.2618 44.8433 44.2318 44.8733 44.1719 44.8733H43.5425C43.4826 44.8733 43.4526 44.8433 43.4526 44.7834V44.7564C43.4526 44.5826 43.3657 44.4387 43.1919 44.3248C43.024 44.205 42.7933 44.145 42.4996 44.145C42.2358 44.145 42.0201 44.196 41.8522 44.2979C41.6904 44.3998 41.6095 44.5376 41.6095 44.7114C41.6095 44.8853 41.6874 45.0171 41.8432 45.107C42.0051 45.197 42.2628 45.2929 42.6164 45.3948C42.9641 45.4907 43.2518 45.5866 43.4796 45.6825C43.7133 45.7724 43.9111 45.9102 44.073 46.096C44.2348 46.2759 44.3157 46.5126 44.3157 46.8063C44.3157 47.2139 44.1539 47.5376 43.8302 47.7773C43.5125 48.0171 43.087 48.137 42.5535 48.137ZM48.0496 43.5966C48.0496 43.5366 48.0796 43.5067 48.1396 43.5067H48.8139C48.8738 43.5067 48.9038 43.5366 48.9038 43.5966V47.9931C48.9038 48.053 48.8738 48.083 48.8139 48.083H48.1396C48.0796 48.083 48.0496 48.053 48.0496 47.9931V47.6604C48.0496 47.6485 48.0437 47.6425 48.0317 47.6425C48.0257 47.6365 48.0167 47.6395 48.0047 47.6514C47.7649 47.9811 47.3963 48.1459 46.8988 48.1459C46.6051 48.1459 46.3324 48.089 46.0807 47.9751C45.8349 47.8612 45.6371 47.6934 45.4873 47.4716C45.3374 47.2499 45.2625 46.9801 45.2625 46.6625V43.5966C45.2625 43.5366 45.2925 43.5067 45.3524 43.5067H46.0267C46.0866 43.5067 46.1166 43.5366 46.1166 43.5966V46.3927C46.1166 46.7044 46.1975 46.9502 46.3594 47.13C46.5272 47.3098 46.761 47.3997 47.0607 47.3997C47.3603 47.3997 47.6001 47.3098 47.7799 47.13C47.9597 46.9442 48.0496 46.6984 48.0496 46.3927V43.5966ZM54.9194 43.4437C55.3749 43.4437 55.7346 43.5816 55.9983 43.8573C56.262 44.127 56.3939 44.5047 56.3939 44.9902V47.9931C56.3939 48.053 56.3639 48.083 56.304 48.083H55.6297C55.5697 48.083 55.5398 48.053 55.5398 47.9931V45.17C55.5398 44.8703 55.4559 44.6335 55.288 44.4597C55.1262 44.2799 54.9074 44.19 54.6317 44.19C54.356 44.19 54.1312 44.2769 53.9574 44.4507C53.7836 44.6245 53.6967 44.8583 53.6967 45.152V47.9931C53.6967 48.053 53.6667 48.083 53.6067 48.083H52.9324C52.8725 48.083 52.8425 48.053 52.8425 47.9931V45.17C52.8425 44.8703 52.7586 44.6335 52.5908 44.4597C52.429 44.2799 52.2102 44.19 51.9345 44.19C51.6587 44.19 51.437 44.2769 51.2691 44.4507C51.1073 44.6245 51.0264 44.8583 51.0264 45.152V47.9931C51.0264 48.053 50.9964 48.083 50.9365 48.083H50.2532C50.1932 48.083 50.1633 48.053 50.1633 47.9931V43.5966C50.1633 43.5366 50.1932 43.5067 50.2532 43.5067H50.9365C50.9964 43.5067 51.0264 43.5366 51.0264 43.5966V43.9023C51.0264 43.9143 51.0294 43.9233 51.0354 43.9292C51.0474 43.9352 51.0593 43.9322 51.0713 43.9203C51.3351 43.6026 51.7187 43.4437 52.2222 43.4437C52.5279 43.4437 52.7886 43.5037 53.0044 43.6236C53.2201 43.7374 53.388 43.9083 53.5079 44.136C53.5258 44.16 53.5438 44.16 53.5618 44.136C53.7056 43.9023 53.8945 43.7285 54.1282 43.6146C54.368 43.5007 54.6317 43.4437 54.9194 43.4437ZM59.4811 48.083C59.4211 48.083 59.3912 48.053 59.3912 47.9931V41.8793C59.3912 41.8194 59.4211 41.7894 59.4811 41.7894H60.1644C60.2243 41.7894 60.2543 41.8194 60.2543 41.8793V47.9931C60.2543 48.053 60.2243 48.083 60.1644 48.083H59.4811ZM63.3772 48.1549C62.9337 48.1549 62.5471 48.044 62.2174 47.8223C61.8878 47.5945 61.657 47.2798 61.5251 46.8782C61.4172 46.5546 61.3633 46.1889 61.3633 45.7814C61.3633 45.3558 61.4143 44.9962 61.5161 44.7025C61.648 44.3069 61.8788 43.9982 62.2084 43.7764C62.5381 43.5486 62.9307 43.4348 63.3862 43.4348C63.8178 43.4348 64.1924 43.5486 64.5101 43.7764C64.8338 43.9982 65.0645 44.3039 65.2024 44.6935C65.3103 44.9992 65.3642 45.3588 65.3642 45.7724C65.3642 46.1919 65.3103 46.5606 65.2024 46.8782C65.0705 47.2798 64.8428 47.5945 64.5191 47.8223C64.1954 48.044 63.8148 48.1549 63.3772 48.1549ZM63.3772 47.4087C63.617 47.4087 63.8268 47.3428 64.0066 47.2109C64.1864 47.073 64.3153 46.8812 64.3932 46.6355C64.4591 46.4077 64.4921 46.126 64.4921 45.7903C64.4921 45.4547 64.4621 45.176 64.4022 44.9542C64.3243 44.7085 64.1954 44.5196 64.0156 44.3878C63.8358 44.2499 63.617 44.181 63.3593 44.181C63.1135 44.181 62.9007 44.2499 62.7209 44.3878C62.5411 44.5196 62.4122 44.7085 62.3343 44.9542C62.2684 45.164 62.2354 45.4427 62.2354 45.7903C62.2354 46.138 62.2684 46.4197 62.3343 46.6355C62.4062 46.8812 62.5321 47.073 62.7119 47.2109C62.8977 47.3428 63.1195 47.4087 63.3772 47.4087ZM68.4992 43.4617C68.691 43.4617 68.8648 43.5007 69.0207 43.5786C69.0626 43.5966 69.0776 43.6325 69.0656 43.6865L68.9218 44.3608C68.9158 44.4148 68.8798 44.4327 68.8139 44.4148C68.712 44.3728 68.5921 44.3518 68.4543 44.3518L68.3284 44.3608C68.0467 44.3728 67.8129 44.4717 67.6271 44.6575C67.4473 44.8373 67.3574 45.0741 67.3574 45.3678V47.9931C67.3574 48.053 67.3274 48.083 67.2675 48.083H66.5842C66.5242 48.083 66.4943 48.053 66.4943 47.9931V43.5966C66.4943 43.5366 66.5242 43.5067 66.5842 43.5067H67.2675C67.3274 43.5067 67.3574 43.5366 67.3574 43.5966V44.0731C67.3574 44.0911 67.3604 44.1031 67.3664 44.1091C67.3784 44.1091 67.3873 44.1031 67.3933 44.0911C67.6631 43.6715 68.0317 43.4617 68.4992 43.4617ZM73.4647 45.2239C73.4886 45.4697 73.4976 45.7454 73.4916 46.0511C73.4916 46.111 73.4617 46.141 73.4017 46.141H70.5337C70.5097 46.141 70.4977 46.153 70.4977 46.177C70.4977 46.3807 70.5157 46.5366 70.5516 46.6445C70.6176 46.8842 70.7494 47.073 70.9472 47.2109C71.151 47.3428 71.4058 47.4087 71.7115 47.4087C72.155 47.4087 72.4967 47.2259 72.7364 46.8603C72.7664 46.8003 72.8053 46.7913 72.8533 46.8333L73.3658 47.1749C73.4077 47.2109 73.4167 47.2499 73.3927 47.2918C73.2249 47.5615 72.9852 47.7743 72.6735 47.9302C72.3678 48.086 72.0201 48.1639 71.6305 48.1639C71.193 48.1639 70.8244 48.068 70.5247 47.8762C70.225 47.6844 70.0002 47.4117 69.8504 47.0581C69.7065 46.7044 69.6346 46.2759 69.6346 45.7724C69.6346 45.3348 69.6675 45.0022 69.7335 44.7744C69.8414 44.3608 70.0572 44.0341 70.3808 43.7944C70.7045 43.5546 71.0971 43.4348 71.5586 43.4348C72.164 43.4348 72.6165 43.5876 72.9162 43.8933C73.2159 44.193 73.3987 44.6365 73.4647 45.2239ZM71.5586 44.181C71.3009 44.181 71.0881 44.2469 70.9203 44.3788C70.7524 44.5047 70.6386 44.6755 70.5786 44.8913C70.5367 45.0231 70.5097 45.191 70.4977 45.3948C70.4977 45.4187 70.5097 45.4307 70.5337 45.4307H72.5926C72.6165 45.4307 72.6285 45.4187 72.6285 45.3948C72.6165 45.197 72.5986 45.0501 72.5746 44.9542C72.5146 44.7204 72.3948 44.5346 72.2149 44.3968C72.0411 44.2529 71.8223 44.181 71.5586 44.181ZM79.3369 43.4437C79.7924 43.4437 80.152 43.5816 80.4158 43.8573C80.6795 44.127 80.8114 44.5047 80.8114 44.9902V47.9931C80.8114 48.053 80.7814 48.083 80.7215 48.083H80.0472C79.9872 48.083 79.9572 48.053 79.9572 47.9931V45.17C79.9572 44.8703 79.8733 44.6335 79.7055 44.4597C79.5437 44.2799 79.3249 44.19 79.0492 44.19C78.7734 44.19 78.5487 44.2769 78.3749 44.4507C78.201 44.6245 78.1141 44.8583 78.1141 45.152V47.9931C78.1141 48.053 78.0842 48.083 78.0242 48.083H77.3499C77.29 48.083 77.26 48.053 77.26 47.9931V45.17C77.26 44.8703 77.1761 44.6335 77.0083 44.4597C76.8464 44.2799 76.6276 44.19 76.3519 44.19C76.0762 44.19 75.8544 44.2769 75.6866 44.4507C75.5248 44.6245 75.4438 44.8583 75.4438 45.152V47.9931C75.4438 48.053 75.4139 48.083 75.3539 48.083H74.6706C74.6107 48.083 74.5807 48.053 74.5807 47.9931V43.5966C74.5807 43.5366 74.6107 43.5067 74.6706 43.5067H75.3539C75.4139 43.5067 75.4438 43.5366 75.4438 43.5966V43.9023C75.4438 43.9143 75.4468 43.9233 75.4528 43.9292C75.4648 43.9352 75.4768 43.9322 75.4888 43.9203C75.7525 43.6026 76.1361 43.4437 76.6396 43.4437C76.9453 43.4437 77.206 43.5037 77.4218 43.6236C77.6376 43.7374 77.8054 43.9083 77.9253 44.136C77.9433 44.16 77.9613 44.16 77.9793 44.136C78.1231 43.9023 78.3119 43.7285 78.5457 43.6146C78.7854 43.5007 79.0492 43.4437 79.3369 43.4437ZM84.3301 42.7874C84.1623 42.7874 84.0244 42.7335 83.9165 42.6256C83.8086 42.5177 83.7547 42.3798 83.7547 42.212C83.7547 42.0442 83.8086 41.9063 83.9165 41.7984C84.0244 41.6905 84.1623 41.6366 84.3301 41.6366C84.4979 41.6366 84.6358 41.6905 84.7437 41.7984C84.8516 41.9063 84.9055 42.0442 84.9055 42.212C84.9055 42.3798 84.8516 42.5177 84.7437 42.6256C84.6358 42.7335 84.4979 42.7874 84.3301 42.7874ZM83.9705 48.074C83.9105 48.074 83.8805 48.044 83.8805 47.9841V43.5966C83.8805 43.5366 83.9105 43.5067 83.9705 43.5067H84.6538C84.7137 43.5067 84.7437 43.5366 84.7437 43.5966V47.9841C84.7437 48.044 84.7137 48.074 84.6538 48.074H83.9705ZM89.8134 44.6575C89.9273 44.9812 89.9843 45.3648 89.9843 45.8083C89.9843 46.2279 89.9363 46.5905 89.8404 46.8962C89.7145 47.2978 89.5078 47.6095 89.22 47.8313C88.9323 48.047 88.5637 48.1549 88.1142 48.1549C87.9104 48.1549 87.7156 48.116 87.5298 48.0381C87.35 47.9541 87.1941 47.8373 87.0622 47.6874C87.0503 47.6754 87.0383 47.6724 87.0263 47.6784C87.0203 47.6844 87.0173 47.6934 87.0173 47.7054V49.7103C87.0173 49.7703 86.9873 49.8003 86.9274 49.8003H86.2441C86.1841 49.8003 86.1542 49.7703 86.1542 49.7103V43.5966C86.1542 43.5366 86.1841 43.5067 86.2441 43.5067H86.9274C86.9873 43.5067 87.0173 43.5366 87.0173 43.5966V43.8933C87.0173 43.9053 87.0203 43.9143 87.0263 43.9203C87.0383 43.9262 87.0503 43.9233 87.0622 43.9113C87.1941 43.7614 87.35 43.6445 87.5298 43.5606C87.7096 43.4767 87.9044 43.4348 88.1142 43.4348C88.5457 43.4348 88.9024 43.5426 89.1841 43.7584C89.4718 43.9682 89.6816 44.2679 89.8134 44.6575ZM88.8244 46.9771C89.0163 46.6894 89.1122 46.2938 89.1122 45.7903C89.1122 45.3288 89.0372 44.9572 88.8874 44.6755C88.7136 44.3458 88.4289 44.181 88.0333 44.181C87.6856 44.181 87.4219 44.3428 87.2421 44.6665C87.0982 44.9242 87.0263 45.3018 87.0263 45.7993C87.0263 46.3028 87.1042 46.6864 87.26 46.9502C87.4339 47.2559 87.6886 47.4087 88.0243 47.4087C88.3839 47.4087 88.6506 47.2648 88.8244 46.9771ZM92.723 48.137C92.3634 48.137 92.0457 48.083 91.77 47.9751C91.5003 47.8672 91.2905 47.7204 91.1406 47.5346C90.9908 47.3428 90.9159 47.133 90.9159 46.9052V46.8063C90.9159 46.7464 90.9458 46.7164 91.0058 46.7164H91.6531C91.7131 46.7164 91.743 46.7464 91.743 46.8063V46.8513C91.743 47.0191 91.8329 47.1659 92.0127 47.2918C92.1986 47.4177 92.4323 47.4806 92.714 47.4806C92.9838 47.4806 93.2025 47.4237 93.3704 47.3098C93.5382 47.1899 93.6221 47.0401 93.6221 46.8603C93.6221 46.6864 93.5442 46.5576 93.3883 46.4736C93.2325 46.3837 92.9808 46.2908 92.6331 46.1949C92.2915 46.099 92.0038 46.0031 91.77 45.9072C91.5422 45.8053 91.3474 45.6645 91.1856 45.4847C91.0297 45.2988 90.9518 45.0621 90.9518 44.7744C90.9518 44.3728 91.1077 44.0551 91.4194 43.8214C91.737 43.5816 92.1566 43.4617 92.6781 43.4617C93.0257 43.4617 93.3314 43.5187 93.5951 43.6325C93.8649 43.7404 94.0716 43.8933 94.2155 44.0911C94.3594 44.2889 94.4313 44.5107 94.4313 44.7564V44.7834C94.4313 44.8433 94.4013 44.8733 94.3414 44.8733H93.712C93.6521 44.8733 93.6221 44.8433 93.6221 44.7834V44.7564C93.6221 44.5826 93.5352 44.4387 93.3614 44.3248C93.1935 44.205 92.9628 44.145 92.6691 44.145C92.4053 44.145 92.1896 44.196 92.0217 44.2979C91.8599 44.3998 91.779 44.5376 91.779 44.7114C91.779 44.8853 91.8569 45.0171 92.0127 45.107C92.1746 45.197 92.4323 45.2929 92.786 45.3948C93.1336 45.4907 93.4213 45.5866 93.6491 45.6825C93.8828 45.7724 94.0806 45.9102 94.2425 46.096C94.4043 46.2759 94.4852 46.5126 94.4852 46.8063C94.4852 47.2139 94.3234 47.5376 93.9997 47.7773C93.682 48.0171 93.2565 48.137 92.723 48.137ZM98.2192 43.5966C98.2192 43.5366 98.2491 43.5067 98.3091 43.5067H98.9834C99.0433 43.5067 99.0733 43.5366 99.0733 43.5966V47.9931C99.0733 48.053 99.0433 48.083 98.9834 48.083H98.3091C98.2491 48.083 98.2192 48.053 98.2192 47.9931V47.6604C98.2192 47.6485 98.2132 47.6425 98.2012 47.6425C98.1952 47.6365 98.1862 47.6395 98.1742 47.6514C97.9344 47.9811 97.5658 48.1459 97.0683 48.1459C96.7746 48.1459 96.5019 48.089 96.2502 47.9751C96.0044 47.8612 95.8066 47.6934 95.6568 47.4716C95.5069 47.2499 95.432 46.9801 95.432 46.6625V43.5966C95.432 43.5366 95.462 43.5067 95.5219 43.5067H96.1962C96.2562 43.5067 96.2861 43.5366 96.2861 43.5966V46.3927C96.2861 46.7044 96.367 46.9502 96.5289 47.13C96.6967 47.3098 96.9305 47.3997 97.2302 47.3997C97.5299 47.3997 97.7696 47.3098 97.9494 47.13C98.1292 46.9442 98.2192 46.6984 98.2192 46.3927V43.5966ZM105.089 43.4437C105.544 43.4437 105.904 43.5816 106.168 43.8573C106.432 44.127 106.563 44.5047 106.563 44.9902V47.9931C106.563 48.053 106.533 48.083 106.474 48.083H105.799C105.739 48.083 105.709 48.053 105.709 47.9931V45.17C105.709 44.8703 105.625 44.6335 105.458 44.4597C105.296 44.2799 105.077 44.19 104.801 44.19C104.525 44.19 104.301 44.2769 104.127 44.4507C103.953 44.6245 103.866 44.8583 103.866 45.152V47.9931C103.866 48.053 103.836 48.083 103.776 48.083H103.102C103.042 48.083 103.012 48.053 103.012 47.9931V45.17C103.012 44.8703 102.928 44.6335 102.76 44.4597C102.598 44.2799 102.38 44.19 102.104 44.19C101.828 44.19 101.606 44.2769 101.439 44.4507C101.277 44.6245 101.196 44.8583 101.196 45.152V47.9931C101.196 48.053 101.166 48.083 101.106 48.083H100.423C100.363 48.083 100.333 48.053 100.333 47.9931V43.5966C100.333 43.5366 100.363 43.5067 100.423 43.5067H101.106C101.166 43.5067 101.196 43.5366 101.196 43.5966V43.9023C101.196 43.9143 101.199 43.9233 101.205 43.9292C101.217 43.9352 101.229 43.9322 101.241 43.9203C101.505 43.6026 101.888 43.4437 102.392 43.4437C102.697 43.4437 102.958 43.5037 103.174 43.6236C103.39 43.7374 103.557 43.9083 103.677 44.136C103.695 44.16 103.713 44.16 103.731 44.136C103.875 43.9023 104.064 43.7285 104.298 43.6146C104.537 43.5007 104.801 43.4437 105.089 43.4437Z" fill="white"/>
<g clip-path="url(#clip0_1032_2928)">
<rect x="8.59229" y="53.4775" width="115.982" height="146.55" rx="7.19266" fill="#2A2A2A"/>
<path d="M181.542 121.492C72.587 126.26 66.408 198.692 76.9378 234.313" stroke="url(#paint0_linear_1032_2928)" stroke-width="7.19266"/>
<path d="M170.428 127.787C70.0395 164.211 78.5306 231.487 95.3247 260.573" stroke="url(#paint1_linear_1032_2928)" stroke-width="7.19266"/>
</g>
<rect x="8.59229" y="201.826" width="8.70225" height="8.70225" rx="4.35112" fill="#167CEE"/>
<g clip-path="url(#clip1_1032_2928)">
<path d="M15.5576 205.748C15.5576 205.624 15.5083 205.505 15.4205 205.417C15.3328 205.33 15.2137 205.28 15.0896 205.28H13.6105L13.8351 204.211C13.8398 204.187 13.8421 204.162 13.8421 204.136C13.8421 204.04 13.8024 203.951 13.7392 203.888L13.4911 203.642L11.9511 205.182C11.8645 205.269 11.813 205.386 11.813 205.514V207.855C11.813 207.979 11.8624 208.098 11.9501 208.186C12.0379 208.274 12.157 208.323 12.2811 208.323H14.3875C14.5817 208.323 14.7479 208.206 14.8181 208.037L15.5249 206.387C15.5459 206.334 15.5576 206.277 15.5576 206.217V205.748ZM10.4088 208.323H11.345V205.514H10.4088V208.323Z" fill="white"/>
</g>
<rect x="17.2944" y="201.826" width="8.70225" height="8.70225" rx="4.35112" fill="#F15066"/>
<g clip-path="url(#clip2_1032_2928)">
<path d="M24.1429 205.646C24.1429 207.182 21.8657 208.425 21.7687 208.476C21.7431 208.49 21.7146 208.497 21.6855 208.497C21.6565 208.497 21.628 208.49 21.6024 208.476C21.5054 208.425 19.2281 207.182 19.2281 205.646C19.2286 205.285 19.372 204.94 19.627 204.685C19.8821 204.43 20.2278 204.286 20.5885 204.286C21.0416 204.286 21.4383 204.48 21.6855 204.81C21.9328 204.48 22.3295 204.286 22.7826 204.286C23.1433 204.286 23.489 204.43 23.7441 204.685C23.9991 204.94 24.1425 205.285 24.1429 205.646Z" fill="white"/>
</g>
<path d="M27.595 204.485C27.614 204.475 27.6346 204.47 27.6567 204.47H28.0317C28.0634 204.47 28.0792 204.486 28.0792 204.518V207.746C28.0792 207.777 28.0634 207.793 28.0317 207.793H27.671C27.6393 207.793 27.6235 207.777 27.6235 207.746V204.959C27.6235 204.953 27.6203 204.948 27.614 204.945C27.6108 204.942 27.6061 204.942 27.5998 204.945L27.1014 205.116C27.095 205.119 27.0871 205.121 27.0776 205.121C27.0586 205.121 27.0476 205.108 27.0444 205.083L27.0254 204.812C27.0254 204.78 27.0349 204.761 27.0539 204.755L27.595 204.485ZM29.3065 207.375C29.3033 207.382 29.3033 207.388 29.3065 207.394C29.3097 207.397 29.3144 207.399 29.3207 207.399H30.7495C30.7811 207.399 30.797 207.415 30.797 207.446V207.746C30.797 207.777 30.7811 207.793 30.7495 207.793H28.7606C28.729 207.793 28.7132 207.777 28.7132 207.746V207.456C28.7132 207.434 28.7211 207.415 28.7369 207.399C28.8445 207.276 29.0913 206.986 29.4774 206.53L29.8049 206.136C30.0992 205.785 30.2463 205.513 30.2463 205.32C30.2463 205.171 30.1957 205.053 30.0944 204.964C29.9963 204.872 29.865 204.826 29.7005 204.826C29.5359 204.826 29.4046 204.872 29.3065 204.964C29.2084 205.056 29.1609 205.176 29.1641 205.325V205.467C29.1641 205.499 29.1483 205.515 29.1166 205.515H28.7511C28.7195 205.515 28.7037 205.499 28.7037 205.467V205.263C28.71 205.098 28.7559 204.953 28.8413 204.826C28.9299 204.7 29.0486 204.603 29.1973 204.537C29.3461 204.467 29.5138 204.432 29.7005 204.432C29.903 204.432 30.0802 204.47 30.2321 204.546C30.384 204.622 30.5011 204.727 30.5834 204.86C30.6656 204.992 30.7068 205.143 30.7068 205.31C30.7068 205.573 30.5644 205.883 30.2796 206.241C30.153 206.402 30.0027 206.584 29.8286 206.787C29.6546 206.986 29.4805 207.182 29.3065 207.375ZM31.7033 207.793C31.6875 207.793 31.6748 207.788 31.6653 207.779C31.659 207.766 31.659 207.752 31.6653 207.736L32.7428 204.888C32.746 204.882 32.746 204.877 32.7428 204.874C32.7397 204.867 32.7349 204.864 32.7286 204.864H31.5846C31.572 204.864 31.5657 204.871 31.5657 204.883V205.106C31.5657 205.138 31.5498 205.154 31.5182 205.154H31.2334C31.2017 205.154 31.1859 205.138 31.1859 205.106V204.518C31.1859 204.486 31.2017 204.47 31.2334 204.47H33.1843C33.2159 204.47 33.2317 204.486 33.2317 204.518V204.836C33.2317 204.848 33.2286 204.867 33.2222 204.893L32.1495 207.755C32.14 207.78 32.1226 207.793 32.0973 207.793H31.7033Z" fill="#B8B8B8"/>
<path d="M88.8341 207.636C88.83 207.644 88.83 207.652 88.8341 207.661C88.8382 207.665 88.8444 207.667 88.8526 207.667H90.7041C90.7451 207.667 90.7656 207.687 90.7656 207.728V208.116C90.7656 208.157 90.7451 208.177 90.7041 208.177H88.1267C88.0857 208.177 88.0652 208.157 88.0652 208.116V207.741C88.0652 207.712 88.0755 207.687 88.096 207.667C88.2354 207.507 88.5553 207.132 89.0556 206.541L89.48 206.03C89.8614 205.575 90.0521 205.223 90.0521 204.972C90.0521 204.78 89.9865 204.626 89.8552 204.511C89.7281 204.392 89.5579 204.333 89.3447 204.333C89.1314 204.333 88.9612 204.392 88.8341 204.511C88.707 204.63 88.6455 204.786 88.6496 204.979V205.163C88.6496 205.204 88.6291 205.225 88.5881 205.225H88.1144C88.0734 205.225 88.0529 205.204 88.0529 205.163V204.899C88.0611 204.685 88.1206 204.497 88.2313 204.333C88.3461 204.169 88.4999 204.044 88.6926 203.957C88.8854 203.867 89.1027 203.822 89.3447 203.822C89.6071 203.822 89.8368 203.871 90.0336 203.97C90.2305 204.068 90.3822 204.204 90.4888 204.376C90.5954 204.548 90.6487 204.743 90.6487 204.96C90.6487 205.3 90.4642 205.702 90.0951 206.166C89.9311 206.375 89.7363 206.611 89.5108 206.873C89.2852 207.132 89.0597 207.386 88.8341 207.636ZM92.8137 208.239C92.3995 208.239 92.0694 208.122 91.8233 207.888C91.5814 207.65 91.4604 207.332 91.4604 206.935V205.114C91.4604 204.716 91.5814 204.4 91.8233 204.167C92.0694 203.933 92.3995 203.816 92.8137 203.816C93.2279 203.816 93.558 203.933 93.804 204.167C94.0542 204.4 94.1793 204.716 94.1793 205.114V206.935C94.1793 207.332 94.0542 207.65 93.804 207.888C93.558 208.122 93.2279 208.239 92.8137 208.239ZM92.8137 207.728C93.0515 207.728 93.2402 207.661 93.3796 207.525C93.519 207.386 93.5887 207.201 93.5887 206.972V205.089C93.5887 204.86 93.519 204.677 93.3796 204.542C93.2402 204.402 93.0515 204.333 92.8137 204.333C92.584 204.333 92.3995 204.402 92.2601 204.542C92.1206 204.677 92.0509 204.86 92.0509 205.089V206.972C92.0509 207.201 92.1206 207.386 92.2601 207.525C92.3995 207.661 92.584 207.728 92.8137 207.728ZM97.4801 208.226C97.1684 208.226 96.9018 208.149 96.6804 207.993C96.4589 207.833 96.3072 207.617 96.2252 207.347C96.1637 207.158 96.1329 206.91 96.1329 206.603C96.1329 206.32 96.1637 206.071 96.2252 205.858C96.3072 205.596 96.4589 205.387 96.6804 205.231C96.9059 205.075 97.1725 204.997 97.4801 204.997C97.7876 204.997 98.0562 205.075 98.2859 205.231C98.5155 205.387 98.6652 205.583 98.7349 205.821C98.7595 205.887 98.7759 205.955 98.7841 206.024C98.7841 206.057 98.7657 206.078 98.7288 206.086L98.2674 206.153H98.2551C98.2264 206.153 98.2059 206.135 98.1936 206.098L98.1752 206C98.1423 205.86 98.0624 205.743 97.9353 205.649C97.8081 205.555 97.6543 205.508 97.4739 205.508C97.2976 205.508 97.1479 205.555 97.0249 205.649C96.9018 205.743 96.8219 205.868 96.785 206.024C96.7481 206.172 96.7296 206.367 96.7296 206.609C96.7296 206.847 96.7481 207.039 96.785 207.187C96.826 207.351 96.9059 207.48 97.0249 207.574C97.1479 207.669 97.2976 207.716 97.4739 207.716C97.6543 207.716 97.8081 207.669 97.9353 207.574C98.0665 207.48 98.1485 207.357 98.1813 207.205C98.1854 207.201 98.1854 207.197 98.1813 207.193C98.1813 207.185 98.1834 207.179 98.1875 207.175V207.15C98.1998 207.117 98.2223 207.105 98.2551 207.113L98.7165 207.187C98.7493 207.195 98.7657 207.211 98.7657 207.236V207.261C98.7657 207.298 98.7554 207.343 98.7349 207.396C98.6652 207.646 98.5155 207.847 98.2859 207.999C98.0562 208.151 97.7876 208.226 97.4801 208.226ZM100.718 208.226C100.415 208.226 100.151 208.151 99.925 207.999C99.6994 207.843 99.5415 207.628 99.4513 207.353C99.3775 207.132 99.3406 206.881 99.3406 206.603C99.3406 206.311 99.3754 206.065 99.4452 205.864C99.5354 205.594 99.6933 205.383 99.9188 205.231C100.144 205.075 100.413 204.997 100.725 204.997C101.02 204.997 101.276 205.075 101.494 205.231C101.715 205.383 101.873 205.592 101.967 205.858C102.041 206.067 102.078 206.313 102.078 206.596C102.078 206.883 102.041 207.136 101.967 207.353C101.877 207.628 101.721 207.843 101.5 207.999C101.278 208.151 101.018 208.226 100.718 208.226ZM100.718 207.716C100.883 207.716 101.026 207.671 101.149 207.581C101.272 207.486 101.36 207.355 101.414 207.187C101.459 207.031 101.481 206.838 101.481 206.609C101.481 206.379 101.461 206.188 101.42 206.037C101.366 205.868 101.278 205.739 101.155 205.649C101.032 205.555 100.883 205.508 100.706 205.508C100.538 205.508 100.392 205.555 100.269 205.649C100.146 205.739 100.058 205.868 100.005 206.037C99.9598 206.18 99.9373 206.371 99.9373 206.609C99.9373 206.847 99.9598 207.039 100.005 207.187C100.054 207.355 100.14 207.486 100.263 207.581C100.39 207.671 100.542 207.716 100.718 207.716ZM106.105 205.003C106.417 205.003 106.663 205.097 106.843 205.286C107.024 205.471 107.114 205.729 107.114 206.061V208.116C107.114 208.157 107.093 208.177 107.052 208.177H106.591C106.55 208.177 106.53 208.157 106.53 208.116V206.184C106.53 205.979 106.472 205.817 106.357 205.698C106.247 205.575 106.097 205.514 105.908 205.514C105.72 205.514 105.566 205.573 105.447 205.692C105.328 205.811 105.269 205.971 105.269 206.172V208.116C105.269 208.157 105.248 208.177 105.207 208.177H104.746C104.705 208.177 104.684 208.157 104.684 208.116V206.184C104.684 205.979 104.627 205.817 104.512 205.698C104.401 205.575 104.251 205.514 104.063 205.514C103.874 205.514 103.722 205.573 103.608 205.692C103.497 205.811 103.442 205.971 103.442 206.172V208.116C103.442 208.157 103.421 208.177 103.38 208.177H102.913C102.872 208.177 102.851 208.157 102.851 208.116V205.108C102.851 205.067 102.872 205.046 102.913 205.046H103.38C103.421 205.046 103.442 205.067 103.442 205.108V205.317C103.442 205.325 103.444 205.331 103.448 205.335C103.456 205.339 103.464 205.337 103.472 205.329C103.653 205.112 103.915 205.003 104.26 205.003C104.469 205.003 104.647 205.044 104.795 205.126C104.942 205.204 105.057 205.321 105.139 205.477C105.152 205.493 105.164 205.493 105.176 205.477C105.275 205.317 105.404 205.198 105.564 205.12C105.728 205.042 105.908 205.003 106.105 205.003ZM111.187 205.003C111.499 205.003 111.745 205.097 111.925 205.286C112.106 205.471 112.196 205.729 112.196 206.061V208.116C112.196 208.157 112.175 208.177 112.134 208.177H111.673C111.632 208.177 111.612 208.157 111.612 208.116V206.184C111.612 205.979 111.554 205.817 111.439 205.698C111.329 205.575 111.179 205.514 110.99 205.514C110.802 205.514 110.648 205.573 110.529 205.692C110.41 205.811 110.351 205.971 110.351 206.172V208.116C110.351 208.157 110.33 208.177 110.289 208.177H109.828C109.787 208.177 109.766 208.157 109.766 208.116V206.184C109.766 205.979 109.709 205.817 109.594 205.698C109.483 205.575 109.334 205.514 109.145 205.514C108.956 205.514 108.805 205.573 108.69 205.692C108.579 205.811 108.524 205.971 108.524 206.172V208.116C108.524 208.157 108.503 208.177 108.462 208.177H107.995C107.954 208.177 107.933 208.157 107.933 208.116V205.108C107.933 205.067 107.954 205.046 107.995 205.046H108.462C108.503 205.046 108.524 205.067 108.524 205.108V205.317C108.524 205.325 108.526 205.331 108.53 205.335C108.538 205.339 108.546 205.337 108.554 205.329C108.735 205.112 108.997 205.003 109.342 205.003C109.551 205.003 109.729 205.044 109.877 205.126C110.025 205.204 110.139 205.321 110.221 205.477C110.234 205.493 110.246 205.493 110.258 205.477C110.357 205.317 110.486 205.198 110.646 205.12C110.81 205.042 110.99 205.003 111.187 205.003ZM115.513 206.221C115.53 206.389 115.536 206.578 115.532 206.787C115.532 206.828 115.511 206.849 115.47 206.849H113.508C113.492 206.849 113.483 206.857 113.483 206.873C113.483 207.013 113.496 207.119 113.52 207.193C113.565 207.357 113.656 207.486 113.791 207.581C113.93 207.671 114.105 207.716 114.314 207.716C114.617 207.716 114.851 207.591 115.015 207.341C115.036 207.3 115.062 207.294 115.095 207.322L115.446 207.556C115.474 207.581 115.481 207.607 115.464 207.636C115.349 207.82 115.185 207.966 114.972 208.073C114.763 208.179 114.525 208.233 114.259 208.233C113.959 208.233 113.707 208.167 113.502 208.036C113.297 207.905 113.143 207.718 113.041 207.476C112.942 207.234 112.893 206.941 112.893 206.596C112.893 206.297 112.916 206.069 112.961 205.914C113.034 205.631 113.182 205.407 113.404 205.243C113.625 205.079 113.894 204.997 114.209 204.997C114.624 204.997 114.933 205.102 115.138 205.311C115.343 205.516 115.468 205.819 115.513 206.221ZM114.209 205.508C114.033 205.508 113.887 205.553 113.773 205.643C113.658 205.729 113.58 205.846 113.539 205.994C113.51 206.084 113.492 206.199 113.483 206.338C113.483 206.354 113.492 206.363 113.508 206.363H114.917C114.933 206.363 114.941 206.354 114.941 206.338C114.933 206.203 114.921 206.102 114.904 206.037C114.863 205.877 114.781 205.75 114.658 205.655C114.539 205.557 114.39 205.508 114.209 205.508ZM117.673 205.003C118.01 205.003 118.276 205.102 118.473 205.298C118.67 205.491 118.768 205.754 118.768 206.086V208.116C118.768 208.157 118.748 208.177 118.707 208.177H118.239C118.198 208.177 118.178 208.157 118.178 208.116V206.203C118.178 205.998 118.118 205.832 117.999 205.704C117.88 205.577 117.723 205.514 117.526 205.514C117.333 205.514 117.175 205.577 117.052 205.704C116.929 205.832 116.868 205.996 116.868 206.197V208.116C116.868 208.157 116.847 208.177 116.806 208.177H116.338C116.297 208.177 116.277 208.157 116.277 208.116V205.108C116.277 205.067 116.297 205.046 116.338 205.046H116.806C116.847 205.046 116.868 205.067 116.868 205.108V205.329C116.868 205.337 116.87 205.344 116.874 205.348C116.882 205.352 116.888 205.35 116.892 205.341C117.068 205.116 117.329 205.003 117.673 205.003ZM121.155 205.471C121.155 205.512 121.134 205.532 121.093 205.532H120.429C120.413 205.532 120.404 205.54 120.404 205.557V207.187C120.404 207.359 120.443 207.484 120.521 207.562C120.599 207.636 120.72 207.673 120.884 207.673H121.063C121.104 207.673 121.124 207.693 121.124 207.734V208.116C121.124 208.157 121.104 208.177 121.063 208.177C120.931 208.185 120.837 208.19 120.78 208.19C120.468 208.19 120.232 208.134 120.072 208.023C119.916 207.909 119.839 207.699 119.839 207.396V205.557C119.839 205.54 119.83 205.532 119.814 205.532H119.439C119.398 205.532 119.377 205.512 119.377 205.471V205.108C119.377 205.067 119.398 205.046 119.439 205.046H119.814C119.83 205.046 119.839 205.038 119.839 205.022V204.296C119.839 204.255 119.859 204.234 119.9 204.234H120.343C120.384 204.234 120.404 204.255 120.404 204.296V205.022C120.404 205.038 120.413 205.046 120.429 205.046H121.093C121.134 205.046 121.155 205.067 121.155 205.108V205.471ZM122.983 208.214C122.737 208.214 122.519 208.177 122.331 208.103C122.146 208.03 122.003 207.929 121.9 207.802C121.798 207.671 121.746 207.527 121.746 207.371V207.304C121.746 207.263 121.767 207.242 121.808 207.242H122.251C122.292 207.242 122.312 207.263 122.312 207.304V207.335C122.312 207.449 122.374 207.55 122.497 207.636C122.624 207.722 122.784 207.765 122.977 207.765C123.161 207.765 123.311 207.726 123.426 207.648C123.54 207.566 123.598 207.464 123.598 207.341C123.598 207.222 123.545 207.134 123.438 207.076C123.331 207.015 123.159 206.951 122.921 206.885C122.687 206.82 122.491 206.754 122.331 206.689C122.175 206.619 122.042 206.523 121.931 206.4C121.824 206.272 121.771 206.11 121.771 205.914C121.771 205.639 121.878 205.421 122.091 205.262C122.308 205.097 122.595 205.015 122.952 205.015C123.19 205.015 123.399 205.054 123.579 205.132C123.764 205.206 123.905 205.311 124.004 205.446C124.102 205.581 124.151 205.733 124.151 205.901V205.92C124.151 205.961 124.131 205.981 124.09 205.981H123.659C123.618 205.981 123.598 205.961 123.598 205.92V205.901C123.598 205.782 123.538 205.684 123.419 205.606C123.305 205.524 123.147 205.483 122.946 205.483C122.765 205.483 122.618 205.518 122.503 205.588C122.392 205.657 122.337 205.752 122.337 205.871C122.337 205.989 122.39 206.08 122.497 206.141C122.607 206.203 122.784 206.268 123.026 206.338C123.264 206.404 123.46 206.469 123.616 206.535C123.776 206.596 123.912 206.691 124.022 206.818C124.133 206.941 124.188 207.103 124.188 207.304C124.188 207.583 124.078 207.804 123.856 207.968C123.639 208.132 123.348 208.214 122.983 208.214Z" fill="#B8B8B8"/>
<g clip-path="url(#clip3_1032_2928)">
<path d="M9.64539 224.594L9.90766 224.571C9.90161 224.504 9.86982 224.441 9.81889 224.397C9.76795 224.352 9.70179 224.329 9.63415 224.332C9.5665 224.334 9.50256 224.363 9.45562 224.412C9.40868 224.461 9.38235 224.526 9.38208 224.594H9.64539ZM15.6967 225.234L15.4488 226.666L15.9681 226.756L16.2156 225.324L15.6967 225.234ZM13.2423 228.461H11.6101V228.988H13.2423V228.461ZM11.2902 228.167L11.0051 224.87L10.4803 224.915L10.7657 228.213L11.2902 228.167ZM15.4488 226.666C15.2708 227.695 14.3433 228.461 13.2423 228.461V228.988C14.5855 228.988 15.7441 228.051 15.9681 226.756L15.4488 226.666ZM13.2458 222.791L13.013 224.211L13.5326 224.296L13.7654 222.876L13.2458 222.791ZM11.1157 224.598L11.621 224.162L11.2769 223.764L10.7724 224.199L11.1157 224.598ZM12.5397 222.746L12.7069 222.102L12.1971 221.97L12.03 222.614L12.5397 222.746ZM12.9589 221.976L13.0098 221.992L13.171 221.491L13.1201 221.475L12.9589 221.976ZM12.2866 223.394C12.3963 223.189 12.4813 222.971 12.5397 222.746L12.03 222.614C11.982 222.799 11.9122 222.977 11.8221 223.146L12.2866 223.394ZM13.0098 221.992C13.0599 222.008 13.1054 222.035 13.142 222.073C13.1786 222.11 13.2051 222.156 13.2191 222.207L13.7289 222.075C13.6926 221.938 13.6224 221.813 13.5249 221.711C13.4274 221.609 13.3056 221.533 13.171 221.491L13.0098 221.992ZM12.7069 222.102C12.7139 222.077 12.7263 222.054 12.7433 222.034C12.7602 222.014 12.7814 221.997 12.8052 221.986L12.5766 221.512C12.3898 221.602 12.2494 221.768 12.1971 221.97L12.7069 222.102ZM12.8052 221.986C12.8532 221.964 12.9082 221.96 12.9589 221.976L13.1201 221.475C12.9408 221.417 12.7463 221.431 12.5766 221.512L12.8052 221.986ZM13.5614 224.857H15.38V224.33H13.5614V224.857ZM10.2489 228.516L9.90766 224.571L9.38313 224.616L9.72369 228.561L10.2489 228.516ZM9.90871 228.554V224.594H9.38208V228.554H9.90871ZM9.72369 228.561C9.72262 228.548 9.72456 228.536 9.72872 228.524C9.73288 228.511 9.73951 228.5 9.74819 228.491C9.75688 228.481 9.76742 228.474 9.77916 228.469C9.7909 228.464 9.80357 228.461 9.81637 228.461V228.988C10.0713 228.988 10.2707 228.769 10.2489 228.516L9.72369 228.561ZM13.7654 222.876C13.8092 222.61 13.7967 222.336 13.7289 222.075L13.2191 222.207C13.2686 222.398 13.2777 222.597 13.2458 222.791L13.7654 222.876ZM11.6101 228.461C11.5297 228.461 11.4522 228.431 11.393 228.376C11.3338 228.322 11.2972 228.247 11.2902 228.167L10.7657 228.213C10.784 228.424 10.8808 228.621 11.0371 228.764C11.1934 228.908 11.3979 228.988 11.6101 228.988V228.461ZM11.621 224.162C11.8597 223.957 12.1167 223.712 12.287 223.394L11.8221 223.146C11.7007 223.374 11.5072 223.566 11.2769 223.764L11.621 224.162ZM16.2156 225.324C16.2368 225.202 16.231 225.077 16.1988 224.957C16.1665 224.838 16.1086 224.727 16.029 224.632C15.9493 224.538 15.85 224.462 15.7379 224.41C15.6258 224.357 15.5037 224.33 15.38 224.33V224.857C15.5791 224.857 15.7311 225.037 15.6967 225.234L16.2156 225.324ZM9.81637 228.461C9.86763 228.461 9.90871 228.503 9.90871 228.554H9.38208C9.38208 228.793 9.57623 228.988 9.81637 228.988V228.461ZM13.013 224.211C12.9999 224.291 13.0043 224.372 13.0258 224.45C13.0474 224.528 13.0855 224.6 13.1377 224.661C13.1899 224.723 13.2548 224.772 13.328 224.806C13.4011 224.84 13.4808 224.857 13.5614 224.857V224.33C13.5571 224.33 13.5529 224.33 13.549 224.328C13.5451 224.326 13.5417 224.323 13.5389 224.32C13.5362 224.317 13.5342 224.313 13.5331 224.309C13.532 224.305 13.5318 224.3 13.5326 224.296L13.013 224.211ZM11.0051 224.87C11.0008 224.819 11.0083 224.768 11.0275 224.72C11.0468 224.673 11.0771 224.631 11.1157 224.598L10.7717 224.199C10.6699 224.286 10.5904 224.397 10.5397 224.522C10.489 224.646 10.4687 224.781 10.4803 224.915L11.0051 224.87Z" fill="white"/>
</g>
<path d="M21.657 227.713C21.6123 227.713 21.59 227.691 21.59 227.646V223.088C21.59 223.043 21.6123 223.021 21.657 223.021H22.1664C22.2111 223.021 22.2335 223.043 22.2335 223.088V227.13C22.2335 227.148 22.2424 227.157 22.2603 227.157H24.5729C24.6176 227.157 24.64 227.179 24.64 227.224V227.646C24.64 227.691 24.6176 227.713 24.5729 227.713H21.657ZM25.7213 223.765C25.5962 223.765 25.4934 223.725 25.4129 223.644C25.3325 223.564 25.2923 223.461 25.2923 223.336C25.2923 223.211 25.3325 223.108 25.4129 223.028C25.4934 222.947 25.5962 222.907 25.7213 222.907C25.8464 222.907 25.9492 222.947 26.0296 223.028C26.1101 223.108 26.1503 223.211 26.1503 223.336C26.1503 223.461 26.1101 223.564 26.0296 223.644C25.9492 223.725 25.8464 223.765 25.7213 223.765ZM25.4532 227.707C25.4085 227.707 25.3861 227.684 25.3861 227.64V224.368C25.3861 224.324 25.4085 224.301 25.4532 224.301H25.9626C26.0073 224.301 26.0296 224.324 26.0296 224.368V227.64C26.0296 227.684 26.0073 227.707 25.9626 227.707H25.4532ZM27.1081 227.713C27.0634 227.713 27.0411 227.691 27.0411 227.646V223.088C27.0411 223.043 27.0634 223.021 27.1081 223.021H27.6175C27.6622 223.021 27.6846 223.043 27.6846 223.088V225.669C27.6846 225.678 27.689 225.685 27.698 225.689C27.7069 225.693 27.7136 225.691 27.7181 225.682L28.9582 224.335C28.9761 224.313 29.0029 224.301 29.0386 224.301H29.6352C29.662 224.301 29.6777 224.31 29.6822 224.328C29.6911 224.342 29.6866 224.359 29.6687 224.382L28.804 225.381C28.7951 225.399 28.7929 225.412 28.7973 225.421L29.8229 227.633L29.8296 227.66C29.8296 227.696 29.8095 227.713 29.7693 227.713H29.233C29.1973 227.713 29.1727 227.696 29.1593 227.66L28.3616 225.836C28.3527 225.814 28.3415 225.812 28.3281 225.83L27.698 226.527C27.689 226.545 27.6846 226.556 27.6846 226.56V227.646C27.6846 227.691 27.6622 227.713 27.6175 227.713H27.1081ZM33.0366 225.582C33.0545 225.765 33.0612 225.971 33.0567 226.198C33.0567 226.243 33.0344 226.265 32.9897 226.265H30.8514C30.8335 226.265 30.8245 226.274 30.8245 226.292C30.8245 226.444 30.838 226.56 30.8648 226.641C30.9139 226.82 31.0122 226.96 31.1597 227.063C31.3117 227.161 31.5016 227.211 31.7295 227.211C32.0602 227.211 32.3149 227.074 32.4937 226.802C32.516 226.757 32.5451 226.75 32.5808 226.782L32.9629 227.036C32.9942 227.063 33.0009 227.092 32.983 227.123C32.8579 227.325 32.6791 227.483 32.4467 227.599C32.2188 227.716 31.9596 227.774 31.6692 227.774C31.3429 227.774 31.0681 227.702 30.8447 227.559C30.6212 227.416 30.4536 227.213 30.3419 226.949C30.2347 226.686 30.181 226.366 30.181 225.991C30.181 225.664 30.2056 225.416 30.2548 225.247C30.3352 224.938 30.4961 224.695 30.7374 224.516C30.9787 224.337 31.2714 224.248 31.6155 224.248C32.0669 224.248 32.4043 224.362 32.6277 224.59C32.8512 224.813 32.9875 225.144 33.0366 225.582ZM31.6155 224.804C31.4234 224.804 31.2647 224.853 31.1396 224.952C31.0145 225.045 30.9296 225.173 30.8849 225.334C30.8536 225.432 30.8335 225.557 30.8245 225.709C30.8245 225.727 30.8335 225.736 30.8514 225.736H32.3864C32.4043 225.736 32.4132 225.727 32.4132 225.709C32.4043 225.562 32.3909 225.452 32.373 225.381C32.3283 225.206 32.2389 225.068 32.1049 224.965C31.9753 224.858 31.8122 224.804 31.6155 224.804Z" fill="white"/>
<g clip-path="url(#clip4_1032_2928)">
<path d="M51.5168 223.834C51.5168 223.573 51.6206 223.322 51.8053 223.138C51.9901 222.953 52.2406 222.849 52.5018 222.849H56.0477C56.309 222.849 56.5595 222.953 56.7442 223.138C56.929 223.322 57.0327 223.573 57.0327 223.834V225.804C57.0327 225.933 57.0072 226.061 56.9577 226.181C56.9082 226.3 56.8357 226.409 56.7442 226.501C56.6528 226.592 56.5442 226.665 56.4247 226.714C56.3052 226.764 56.1771 226.789 56.0477 226.789H54.5459L53.3391 227.845C53.2832 227.894 53.2145 227.925 53.1411 227.936C53.0677 227.947 52.9928 227.936 52.9253 227.906C52.8577 227.875 52.8005 227.826 52.7603 227.763C52.7202 227.701 52.6988 227.628 52.6988 227.554V226.789H52.5018C52.2406 226.789 51.9901 226.685 51.8053 226.501C51.6206 226.316 51.5168 226.065 51.5168 225.804V223.834ZM52.5018 223.243C52.3451 223.243 52.1948 223.305 52.0839 223.416C51.9731 223.527 51.9108 223.677 51.9108 223.834V225.804C51.9108 225.961 51.9731 226.111 52.0839 226.222C52.1948 226.333 52.3451 226.395 52.5018 226.395H53.0928V227.537L54.3977 226.395H56.0477C56.2045 226.395 56.3548 226.333 56.4656 226.222C56.5765 226.111 56.6387 225.961 56.6387 225.804V223.834C56.6387 223.677 56.5765 223.527 56.4656 223.416C56.3548 223.305 56.2045 223.243 56.0477 223.243H52.5018Z" fill="white"/>
</g>
<path d="M61.9754 227.259C61.7347 227.259 61.5207 227.212 61.3335 227.118C61.1496 227.021 61.0058 226.886 60.9022 226.712C60.8019 226.535 60.7517 226.332 60.7517 226.105V224.806C60.7517 224.579 60.8019 224.38 60.9022 224.209C61.0058 224.036 61.1496 223.902 61.3335 223.808C61.5207 223.711 61.7347 223.663 61.9754 223.663C62.2161 223.663 62.4284 223.71 62.6123 223.803C62.7962 223.893 62.9383 224.022 63.0386 224.189C63.1422 224.356 63.194 224.55 63.194 224.771V224.776C63.194 224.793 63.189 224.806 63.179 224.816C63.169 224.826 63.1573 224.831 63.1439 224.831L62.7628 224.851C62.7293 224.851 62.7126 224.836 62.7126 224.806V224.791C62.7126 224.577 62.6457 224.405 62.512 224.275C62.3783 224.144 62.1994 224.079 61.9754 224.079C61.7514 224.079 61.5709 224.144 61.4338 224.275C61.3 224.405 61.2332 224.577 61.2332 224.791V226.125C61.2332 226.339 61.3 226.511 61.4338 226.642C61.5709 226.772 61.7514 226.837 61.9754 226.837C62.1994 226.837 62.3783 226.772 62.512 226.642C62.6457 226.511 62.7126 226.339 62.7126 226.125V226.115C62.7126 226.085 62.7293 226.07 62.7628 226.07L63.1439 226.09C63.1773 226.09 63.194 226.107 63.194 226.14C63.194 226.361 63.1422 226.556 63.0386 226.727C62.9383 226.894 62.7962 227.024 62.6123 227.118C62.4284 227.212 62.2161 227.259 61.9754 227.259ZM64.8713 227.253C64.6239 227.253 64.4082 227.192 64.2244 227.068C64.0405 226.941 63.9118 226.765 63.8382 226.541C63.778 226.361 63.7479 226.157 63.7479 225.93C63.7479 225.692 63.7763 225.492 63.8332 225.328C63.9067 225.107 64.0355 224.935 64.2193 224.811C64.4032 224.684 64.6222 224.621 64.8763 224.621C65.117 224.621 65.326 224.684 65.5032 224.811C65.6837 224.935 65.8124 225.105 65.8893 225.323C65.9495 225.493 65.9796 225.694 65.9796 225.925C65.9796 226.159 65.9495 226.364 65.8893 226.541C65.8158 226.765 65.6887 226.941 65.5082 227.068C65.3277 227.192 65.1154 227.253 64.8713 227.253ZM64.8713 226.837C65.005 226.837 65.122 226.8 65.2223 226.727C65.3226 226.65 65.3945 226.543 65.438 226.406C65.4748 226.279 65.4932 226.122 65.4932 225.935C65.4932 225.747 65.4764 225.592 65.443 225.468C65.3995 225.331 65.3277 225.226 65.2274 225.152C65.1271 225.075 65.005 225.037 64.8613 225.037C64.7242 225.037 64.6055 225.075 64.5052 225.152C64.4049 225.226 64.333 225.331 64.2895 225.468C64.2528 225.585 64.2344 225.741 64.2344 225.935C64.2344 226.128 64.2528 226.286 64.2895 226.406C64.3297 226.543 64.3999 226.65 64.5002 226.727C64.6038 226.8 64.7275 226.837 64.8713 226.837ZM69.2629 224.626C69.517 224.626 69.7176 224.703 69.8647 224.856C70.0118 225.007 70.0853 225.217 70.0853 225.488V227.163C70.0853 227.197 70.0686 227.213 70.0352 227.213H69.6591C69.6256 227.213 69.6089 227.197 69.6089 227.163V225.589C69.6089 225.421 69.5621 225.289 69.4685 225.192C69.3782 225.092 69.2562 225.042 69.1024 225.042C68.9486 225.042 68.8232 225.09 68.7263 225.187C68.6293 225.284 68.5808 225.415 68.5808 225.578V227.163C68.5808 227.197 68.5641 227.213 68.5307 227.213H68.1546C68.1211 227.213 68.1044 227.197 68.1044 227.163V225.589C68.1044 225.421 68.0576 225.289 67.964 225.192C67.8737 225.092 67.7517 225.042 67.5979 225.042C67.4441 225.042 67.3204 225.09 67.2268 225.187C67.1365 225.284 67.0914 225.415 67.0914 225.578V227.163C67.0914 227.197 67.0747 227.213 67.0412 227.213H66.6601C66.6266 227.213 66.6099 227.197 66.6099 227.163V224.711C66.6099 224.677 66.6266 224.661 66.6601 224.661H67.0412C67.0747 224.661 67.0914 224.677 67.0914 224.711V224.881C67.0914 224.888 67.093 224.893 67.0964 224.896C67.1031 224.9 67.1098 224.898 67.1164 224.891C67.2636 224.714 67.4775 224.626 67.7584 224.626C67.9289 224.626 68.0743 224.659 68.1947 224.726C68.315 224.789 68.4086 224.885 68.4755 225.012C68.4855 225.025 68.4956 225.025 68.5056 225.012C68.5858 224.881 68.6912 224.784 68.8215 224.721C68.9553 224.657 69.1024 224.626 69.2629 224.626ZM73.4061 224.626C73.6602 224.626 73.8608 224.703 74.0079 224.856C74.155 225.007 74.2286 225.217 74.2286 225.488V227.163C74.2286 227.197 74.2119 227.213 74.1784 227.213H73.8023C73.7689 227.213 73.7522 227.197 73.7522 227.163V225.589C73.7522 225.421 73.7054 225.289 73.6117 225.192C73.5215 225.092 73.3994 225.042 73.2456 225.042C73.0919 225.042 72.9665 225.09 72.8695 225.187C72.7726 225.284 72.7241 225.415 72.7241 225.578V227.163C72.7241 227.197 72.7074 227.213 72.6739 227.213H72.2978C72.2644 227.213 72.2477 227.197 72.2477 227.163V225.589C72.2477 225.421 72.2009 225.289 72.1072 225.192C72.017 225.092 71.8949 225.042 71.7411 225.042C71.5874 225.042 71.4636 225.09 71.37 225.187C71.2798 225.284 71.2346 225.415 71.2346 225.578V227.163C71.2346 227.197 71.2179 227.213 71.1845 227.213H70.8033C70.7699 227.213 70.7532 227.197 70.7532 227.163V224.711C70.7532 224.677 70.7699 224.661 70.8033 224.661H71.1845C71.2179 224.661 71.2346 224.677 71.2346 224.711V224.881C71.2346 224.888 71.2363 224.893 71.2396 224.896C71.2463 224.9 71.253 224.898 71.2597 224.891C71.4068 224.714 71.6208 224.626 71.9016 224.626C72.0721 224.626 72.2176 224.659 72.3379 224.726C72.4583 224.789 72.5519 224.885 72.6188 225.012C72.6288 225.025 72.6388 225.025 72.6489 225.012C72.7291 224.881 72.8344 224.784 72.9648 224.721C73.0985 224.657 73.2456 224.626 73.4061 224.626ZM76.9332 225.619C76.9466 225.756 76.9516 225.909 76.9483 226.08C76.9483 226.113 76.9316 226.13 76.8981 226.13H75.2984C75.285 226.13 75.2783 226.137 75.2783 226.15C75.2783 226.264 75.2883 226.351 75.3084 226.411C75.3452 226.545 75.4187 226.65 75.529 226.727C75.6427 226.8 75.7848 226.837 75.9553 226.837C76.2027 226.837 76.3933 226.735 76.527 226.531C76.5437 226.498 76.5655 226.493 76.5922 226.516L76.8781 226.707C76.9015 226.727 76.9065 226.749 76.8931 226.772C76.7995 226.923 76.6658 227.041 76.4919 227.128C76.3214 227.215 76.1275 227.259 75.9102 227.259C75.6661 227.259 75.4605 227.205 75.2933 227.098C75.1262 226.991 75.0008 226.839 74.9172 226.642C74.837 226.444 74.7969 226.205 74.7969 225.925C74.7969 225.68 74.8152 225.495 74.852 225.368C74.9122 225.137 75.0326 224.955 75.2131 224.821C75.3936 224.687 75.6126 224.621 75.8701 224.621C76.2077 224.621 76.4602 224.706 76.6273 224.876C76.7945 225.044 76.8965 225.291 76.9332 225.619ZM75.8701 225.037C75.7263 225.037 75.6076 225.074 75.514 225.147C75.4204 225.217 75.3569 225.313 75.3234 225.433C75.3 225.507 75.285 225.6 75.2783 225.714C75.2783 225.727 75.285 225.734 75.2984 225.734H76.4468C76.4602 225.734 76.4669 225.727 76.4669 225.714C76.4602 225.604 76.4501 225.522 76.4368 225.468C76.4033 225.338 76.3365 225.234 76.2362 225.157C76.1392 225.077 76.0172 225.037 75.8701 225.037ZM78.6942 224.626C78.9683 224.626 79.1856 224.706 79.3461 224.866C79.5066 225.023 79.5869 225.237 79.5869 225.508V227.163C79.5869 227.197 79.5701 227.213 79.5367 227.213H79.1556C79.1221 227.213 79.1054 227.197 79.1054 227.163V225.604C79.1054 225.436 79.0569 225.301 78.96 225.197C78.863 225.094 78.7343 225.042 78.5738 225.042C78.4167 225.042 78.288 225.094 78.1877 225.197C78.0874 225.301 78.0372 225.435 78.0372 225.599V227.163C78.0372 227.197 78.0205 227.213 77.9871 227.213H77.6059C77.5725 227.213 77.5558 227.197 77.5558 227.163V224.711C77.5558 224.677 77.5725 224.661 77.6059 224.661H77.9871C78.0205 224.661 78.0372 224.677 78.0372 224.711V224.891C78.0372 224.898 78.0389 224.903 78.0422 224.906C78.0489 224.91 78.0539 224.908 78.0573 224.901C78.201 224.718 78.4133 224.626 78.6942 224.626ZM81.5326 225.007C81.5326 225.04 81.5159 225.057 81.4825 225.057H80.9409C80.9275 225.057 80.9208 225.064 80.9208 225.077V226.406C80.9208 226.546 80.9526 226.648 81.0161 226.712C81.0796 226.772 81.1782 226.802 81.312 226.802H81.4574C81.4908 226.802 81.5076 226.819 81.5076 226.852V227.163C81.5076 227.197 81.4908 227.213 81.4574 227.213C81.3504 227.22 81.2735 227.223 81.2267 227.223C80.9726 227.223 80.7804 227.178 80.65 227.088C80.5229 226.994 80.4594 226.824 80.4594 226.576V225.077C80.4594 225.064 80.4527 225.057 80.4394 225.057H80.1334C80.1 225.057 80.0833 225.04 80.0833 225.007V224.711C80.0833 224.677 80.1 224.661 80.1334 224.661H80.4394C80.4527 224.661 80.4594 224.654 80.4594 224.641V224.049C80.4594 224.015 80.4761 223.999 80.5096 223.999H80.8707C80.9041 223.999 80.9208 224.015 80.9208 224.049V224.641C80.9208 224.654 80.9275 224.661 80.9409 224.661H81.4825C81.5159 224.661 81.5326 224.677 81.5326 224.711V225.007Z" fill="white"/>
<path d="M105.403 225.214L103.52 223.154V224.184C102.578 224.184 100.695 224.802 100.695 227.273C100.695 226.93 101.26 226.243 103.52 226.243V227.273L105.403 225.214Z" stroke="white" stroke-width="0.561803" stroke-linecap="round" stroke-linejoin="round"/>
<path d="M111.625 227.258C111.337 227.258 111.086 227.213 110.872 227.123C110.663 227.034 110.5 226.906 110.384 226.741C110.271 226.577 110.215 226.384 110.215 226.163V226C110.215 225.962 110.234 225.944 110.271 225.944H110.681C110.719 225.944 110.737 225.962 110.737 226V226.135C110.737 226.326 110.82 226.483 110.985 226.607C111.149 226.73 111.376 226.792 111.664 226.792C111.923 226.792 112.118 226.738 112.249 226.629C112.38 226.52 112.445 226.378 112.445 226.202C112.445 226.086 112.412 225.987 112.344 225.904C112.277 225.822 112.178 225.747 112.046 225.68C111.919 225.608 111.732 225.524 111.485 225.427C111.211 225.322 110.994 225.226 110.833 225.14C110.676 225.054 110.545 224.942 110.44 224.803C110.335 224.661 110.282 224.483 110.282 224.27C110.282 223.947 110.397 223.695 110.625 223.511C110.857 223.328 111.17 223.236 111.563 223.236C111.84 223.236 112.084 223.283 112.294 223.376C112.503 223.47 112.664 223.601 112.777 223.77C112.893 223.938 112.951 224.133 112.951 224.354V224.466C112.951 224.504 112.932 224.522 112.895 224.522H112.473C112.436 224.522 112.417 224.504 112.417 224.466V224.382C112.417 224.187 112.339 224.026 112.181 223.899C112.028 223.768 111.814 223.702 111.541 223.702C111.309 223.702 111.129 223.751 111.001 223.848C110.874 223.942 110.81 224.079 110.81 224.258C110.81 224.382 110.842 224.483 110.906 224.562C110.97 224.64 111.063 224.711 111.187 224.775C111.314 224.835 111.507 224.914 111.766 225.011C112.031 225.116 112.247 225.213 112.412 225.303C112.576 225.389 112.713 225.505 112.822 225.652C112.93 225.794 112.985 225.972 112.985 226.185C112.985 226.515 112.863 226.777 112.619 226.972C112.38 227.163 112.048 227.258 111.625 227.258ZM114.922 224.314C115.229 224.314 115.473 224.404 115.653 224.584C115.832 224.76 115.922 225 115.922 225.303V227.157C115.922 227.195 115.904 227.213 115.866 227.213H115.439C115.402 227.213 115.383 227.195 115.383 227.157V225.41C115.383 225.223 115.329 225.071 115.22 224.955C115.111 224.839 114.967 224.781 114.787 224.781C114.611 224.781 114.467 224.839 114.355 224.955C114.242 225.071 114.186 225.221 114.186 225.404V227.157C114.186 227.195 114.168 227.213 114.13 227.213H113.703C113.666 227.213 113.647 227.195 113.647 227.157V223.337C113.647 223.299 113.666 223.281 113.703 223.281H114.13C114.168 223.281 114.186 223.299 114.186 223.337V224.612C114.186 224.62 114.188 224.625 114.192 224.629C114.199 224.633 114.205 224.631 114.209 224.623C114.37 224.417 114.608 224.314 114.922 224.314ZM117.737 224.309C117.965 224.309 118.164 224.35 118.332 224.432C118.505 224.511 118.636 224.623 118.726 224.77C118.819 224.912 118.866 225.075 118.866 225.258V227.157C118.866 227.195 118.847 227.213 118.81 227.213H118.383C118.345 227.213 118.327 227.195 118.327 227.157V226.955C118.327 226.936 118.317 226.932 118.299 226.944C118.201 227.045 118.081 227.123 117.939 227.18C117.801 227.232 117.645 227.258 117.473 227.258C117.196 227.258 116.965 227.189 116.782 227.05C116.602 226.908 116.512 226.695 116.512 226.41C116.512 226.118 116.613 225.889 116.815 225.725C117.021 225.556 117.308 225.472 117.675 225.472H118.304C118.319 225.472 118.327 225.464 118.327 225.449V225.298C118.327 225.133 118.278 225.005 118.181 224.916C118.087 224.822 117.943 224.775 117.748 224.775C117.591 224.775 117.462 224.807 117.36 224.871C117.263 224.931 117.203 225.013 117.181 225.118C117.169 225.155 117.147 225.172 117.113 225.168L116.658 225.107C116.621 225.099 116.604 225.084 116.608 225.062C116.638 224.841 116.756 224.661 116.962 224.522C117.168 224.38 117.426 224.309 117.737 224.309ZM117.591 226.803C117.789 226.803 117.962 226.751 118.108 226.646C118.254 226.541 118.327 226.408 118.327 226.247V225.916C118.327 225.901 118.319 225.893 118.304 225.893H117.776C117.555 225.893 117.379 225.936 117.248 226.022C117.117 226.109 117.051 226.228 117.051 226.382C117.051 226.52 117.1 226.625 117.198 226.697C117.299 226.768 117.43 226.803 117.591 226.803ZM120.847 224.326C120.967 224.326 121.075 224.35 121.173 224.399C121.199 224.41 121.208 224.432 121.201 224.466L121.111 224.888C121.107 224.921 121.085 224.932 121.044 224.921C120.98 224.895 120.905 224.882 120.819 224.882L120.74 224.888C120.564 224.895 120.418 224.957 120.302 225.073C120.19 225.185 120.134 225.333 120.134 225.517V227.157C120.134 227.195 120.115 227.213 120.077 227.213H119.65C119.613 227.213 119.594 227.195 119.594 227.157V224.41C119.594 224.373 119.613 224.354 119.65 224.354H120.077C120.115 224.354 120.134 224.373 120.134 224.41V224.708C120.134 224.719 120.135 224.726 120.139 224.73C120.147 224.73 120.152 224.726 120.156 224.719C120.325 224.457 120.555 224.326 120.847 224.326ZM123.95 225.427C123.965 225.58 123.97 225.753 123.967 225.944C123.967 225.981 123.948 226 123.91 226H122.118C122.103 226 122.096 226.007 122.096 226.022C122.096 226.15 122.107 226.247 122.129 226.314C122.171 226.464 122.253 226.582 122.377 226.668C122.504 226.751 122.663 226.792 122.854 226.792C123.131 226.792 123.345 226.678 123.495 226.449C123.513 226.412 123.538 226.406 123.568 226.432L123.888 226.646C123.914 226.668 123.92 226.693 123.905 226.719C123.8 226.888 123.65 227.02 123.455 227.118C123.264 227.215 123.047 227.264 122.804 227.264C122.53 227.264 122.3 227.204 122.113 227.084C121.925 226.964 121.785 226.794 121.691 226.573C121.601 226.352 121.556 226.084 121.556 225.77C121.556 225.496 121.577 225.288 121.618 225.146C121.686 224.888 121.821 224.683 122.023 224.534C122.225 224.384 122.47 224.309 122.759 224.309C123.137 224.309 123.42 224.404 123.607 224.595C123.794 224.783 123.909 225.06 123.95 225.427ZM122.759 224.775C122.598 224.775 122.465 224.816 122.36 224.899C122.255 224.977 122.184 225.084 122.146 225.219C122.12 225.301 122.103 225.406 122.096 225.534C122.096 225.549 122.103 225.556 122.118 225.556H123.405C123.42 225.556 123.427 225.549 123.427 225.534C123.42 225.41 123.409 225.318 123.394 225.258C123.356 225.112 123.281 224.996 123.169 224.91C123.06 224.82 122.924 224.775 122.759 224.775Z" fill="white"/>
<defs>
<linearGradient id="paint0_linear_1032_2928" x1="111.537" y1="140.688" x2="78.7207" y2="189.239" gradientUnits="userSpaceOnUse">
<stop/>
<stop offset="1" stop-color="#A2A2A2"/>
</linearGradient>
<linearGradient id="paint1_linear_1032_2928" x1="126.372" y1="156.872" x2="82.7667" y2="203.624" gradientUnits="userSpaceOnUse">
<stop/>
<stop offset="1" stop-color="#989898"/>
</linearGradient>
<clipPath id="clip0_1032_2928">
<rect x="8.59229" y="53.4775" width="115.982" height="146.55" rx="7.19266" fill="white"/>
</clipPath>
<clipPath id="clip1_1032_2928">
<rect width="5.61691" height="5.61691" fill="white" transform="translate(10.1744 203.408)"/>
</clipPath>
<clipPath id="clip2_1032_2928">
<rect width="5.61691" height="5.61691" fill="white" transform="translate(18.8767 203.408)"/>
</clipPath>
<clipPath id="clip3_1032_2928">
<rect width="8.42606" height="8.42606" fill="white" transform="translate(8.59229 221)"/>
</clipPath>
<clipPath id="clip4_1032_2928">
<rect width="6.30386" height="6.30386" fill="white" transform="translate(51.1229 222.062)"/>
</clipPath>
</defs>
</svg>
