<svg width="133" height="236" viewBox="0 0 133 236" fill="none" xmlns="http://www.w3.org/2000/svg">
<rect x="0.486237" y="0.119629" width="132.165" height="235.56" rx="13.4862" fill="#2A2A2A"/>
<rect x="113.771" y="139.478" width="10.789" height="10.789" rx="5.3945" fill="white" fill-opacity="0.5"/>
<g clip-path="url(#clip0_1032_3409)">
<path d="M121.644 146.15L121.855 144.927C121.867 144.855 121.864 144.782 121.845 144.712C121.826 144.641 121.792 144.576 121.745 144.521C121.698 144.465 121.64 144.42 121.574 144.389C121.508 144.359 121.436 144.343 121.363 144.343H119.811C119.774 144.343 119.739 144.335 119.706 144.32C119.673 144.304 119.644 144.282 119.62 144.254C119.597 144.227 119.58 144.194 119.57 144.16C119.56 144.125 119.558 144.088 119.564 144.052L119.763 142.84C119.795 142.643 119.786 142.442 119.736 142.249C119.715 142.169 119.673 142.096 119.616 142.036C119.559 141.977 119.488 141.933 119.409 141.908L119.365 141.894C119.267 141.862 119.16 141.87 119.067 141.914C118.966 141.963 118.891 142.053 118.864 142.159L118.721 142.709C118.676 142.884 118.61 143.053 118.524 143.212C118.4 143.445 118.208 143.632 118.007 143.804L117.576 144.176C117.516 144.227 117.47 144.293 117.44 144.366C117.41 144.439 117.398 144.518 117.405 144.597L117.648 147.412C117.659 147.537 117.716 147.653 117.808 147.737C117.9 147.822 118.02 147.868 118.145 147.869H119.538C120.582 147.869 121.472 147.141 121.644 146.15Z" fill="white"/>
<path fill-rule="evenodd" clip-rule="evenodd" d="M116.458 144.118C116.516 144.115 116.573 144.135 116.616 144.174C116.66 144.212 116.687 144.265 116.692 144.323L116.983 147.691C116.988 147.741 116.982 147.791 116.967 147.839C116.952 147.887 116.927 147.932 116.894 147.97C116.861 148.008 116.82 148.039 116.775 148.061C116.73 148.083 116.68 148.095 116.63 148.097C116.58 148.099 116.529 148.091 116.482 148.073C116.435 148.055 116.392 148.028 116.356 147.993C116.32 147.958 116.291 147.916 116.272 147.869C116.252 147.823 116.243 147.773 116.243 147.723V144.342C116.243 144.284 116.266 144.229 116.306 144.187C116.346 144.145 116.4 144.12 116.458 144.118Z" fill="white"/>
</g>
<path d="M117.269 153.671C117.302 153.803 117.318 153.939 117.318 154.08C117.318 154.221 117.3 154.351 117.264 154.471C117.208 154.663 117.098 154.816 116.936 154.93C116.777 155.04 116.587 155.096 116.365 155.096C116.147 155.096 115.959 155.042 115.803 154.934C115.648 154.826 115.538 154.679 115.475 154.494C115.445 154.41 115.429 154.336 115.426 154.273V154.264C115.426 154.24 115.439 154.228 115.466 154.228H115.821C115.848 154.228 115.863 154.242 115.866 154.269C115.869 154.29 115.877 154.321 115.889 154.363C115.922 154.474 115.979 154.562 116.06 154.628C116.144 154.691 116.244 154.723 116.361 154.723C116.484 154.723 116.587 154.69 116.671 154.624C116.758 154.555 116.816 154.461 116.846 154.341C116.867 154.278 116.878 154.191 116.878 154.08C116.878 153.981 116.869 153.89 116.851 153.806C116.83 153.692 116.776 153.605 116.689 153.545C116.605 153.482 116.5 153.451 116.374 153.451C116.257 153.451 116.153 153.478 116.06 153.532C115.967 153.582 115.907 153.651 115.88 153.738C115.871 153.765 115.854 153.779 115.83 153.779H115.471C115.441 153.779 115.426 153.764 115.426 153.734V151.963C115.426 151.933 115.441 151.918 115.471 151.918H117.152C117.182 151.918 117.197 151.933 117.197 151.963V152.246C117.197 152.276 117.182 152.291 117.152 152.291H115.875C115.863 152.291 115.857 152.297 115.857 152.309L115.853 153.248C115.853 153.266 115.86 153.271 115.875 153.262C115.947 153.199 116.03 153.152 116.123 153.122C116.219 153.089 116.319 153.073 116.424 153.073C116.634 153.073 116.813 153.125 116.963 153.23C117.116 153.335 117.218 153.482 117.269 153.671ZM119.622 153.671C119.655 153.803 119.671 153.939 119.671 154.08C119.671 154.221 119.653 154.351 119.618 154.471C119.561 154.663 119.451 154.816 119.289 154.93C119.131 155.04 118.94 155.096 118.718 155.096C118.5 155.096 118.312 155.042 118.157 154.934C118.001 154.826 117.891 154.679 117.828 154.494C117.798 154.41 117.782 154.336 117.779 154.273V154.264C117.779 154.24 117.792 154.228 117.819 154.228H118.174C118.201 154.228 118.216 154.242 118.219 154.269C118.222 154.29 118.23 154.321 118.242 154.363C118.275 154.474 118.332 154.562 118.413 154.628C118.497 154.691 118.597 154.723 118.714 154.723C118.837 154.723 118.94 154.69 119.024 154.624C119.111 154.555 119.169 154.461 119.199 154.341C119.22 154.278 119.231 154.191 119.231 154.08C119.231 153.981 119.222 153.89 119.204 153.806C119.183 153.692 119.129 153.605 119.042 153.545C118.958 153.482 118.853 153.451 118.727 153.451C118.611 153.451 118.506 153.478 118.413 153.532C118.32 153.582 118.26 153.651 118.233 153.738C118.224 153.765 118.207 153.779 118.183 153.779H117.824C117.794 153.779 117.779 153.764 117.779 153.734V151.963C117.779 151.933 117.794 151.918 117.824 151.918H119.505C119.535 151.918 119.55 151.933 119.55 151.963V152.246C119.55 152.276 119.535 152.291 119.505 152.291H118.228C118.216 152.291 118.21 152.297 118.21 152.309L118.206 153.248C118.206 153.266 118.213 153.271 118.228 153.262C118.3 153.199 118.383 153.152 118.476 153.122C118.572 153.089 118.672 153.073 118.777 153.073C118.987 153.073 119.166 153.125 119.316 153.23C119.469 153.335 119.571 153.482 119.622 153.671ZM120.285 155.064C120.255 155.064 120.24 155.049 120.24 155.019V151.963C120.24 151.933 120.255 151.918 120.285 151.918H120.626C120.656 151.918 120.671 151.933 120.671 151.963V153.397C120.671 153.403 120.674 153.407 120.68 153.41C120.686 153.41 120.691 153.407 120.694 153.401L121.98 151.945C121.992 151.927 122.01 151.918 122.034 151.918H122.425C122.443 151.918 122.455 151.924 122.461 151.936C122.467 151.945 122.464 151.957 122.452 151.972L121.382 153.235C121.379 153.244 121.379 153.253 121.382 153.262L122.528 155.011C122.534 155.022 122.537 155.031 122.537 155.037C122.537 155.055 122.525 155.064 122.501 155.064H122.11C122.089 155.064 122.071 155.055 122.056 155.037L121.085 153.567C121.082 153.561 121.078 153.558 121.072 153.558C121.066 153.558 121.061 153.56 121.058 153.563L120.68 153.986C120.674 153.998 120.671 154.005 120.671 154.008V155.019C120.671 155.049 120.656 155.064 120.626 155.064H120.285Z" fill="white"/>
<rect x="113.771" y="164.955" width="10.789" height="10.789" rx="5.3945" fill="white" fill-opacity="0.5"/>
<g clip-path="url(#clip1_1032_3409)">
<path d="M116.155 169.081L116.17 170.969C116.169 171.156 116.206 171.34 116.278 171.512C116.348 171.683 116.452 171.839 116.583 171.97C116.714 172.102 116.87 172.205 117.042 172.276C117.214 172.348 117.398 172.384 117.584 172.384H118.283L118.882 172.983C118.919 173.022 118.964 173.053 119.014 173.073C119.066 173.097 119.122 173.109 119.179 173.109C119.235 173.109 119.291 173.098 119.343 173.076C119.396 173.053 119.443 173.019 119.481 172.977L120.066 172.396H120.764C120.95 172.396 121.133 172.359 121.305 172.288C121.476 172.217 121.632 172.113 121.763 171.981C121.894 171.85 121.998 171.694 122.069 171.523C122.14 171.351 122.176 171.167 122.176 170.981V169.003C122.176 168.818 122.14 168.633 122.069 168.462C121.998 168.29 121.893 168.134 121.762 168.002C121.496 167.74 121.138 167.591 120.764 167.589H117.569C117.383 167.588 117.199 167.625 117.027 167.696C116.856 167.767 116.7 167.871 116.568 168.002C116.437 168.134 116.332 168.29 116.262 168.462C116.191 168.633 116.154 168.818 116.155 169.003V169.081Z" fill="white"/>
</g>
<path d="M116.294 180.542C116.279 180.542 116.267 180.537 116.258 180.528C116.253 180.516 116.253 180.503 116.258 180.488L117.279 177.79C117.282 177.784 117.282 177.78 117.279 177.777C117.276 177.771 117.271 177.768 117.265 177.768H116.182C116.17 177.768 116.164 177.774 116.164 177.786V177.997C116.164 178.027 116.149 178.042 116.119 178.042H115.849C115.819 178.042 115.804 178.027 115.804 177.997V177.44C115.804 177.41 115.819 177.395 115.849 177.395H117.697C117.727 177.395 117.742 177.41 117.742 177.44V177.741C117.742 177.753 117.739 177.771 117.733 177.795L116.717 180.506C116.708 180.53 116.692 180.542 116.668 180.542H116.294ZM118.459 180.542C118.444 180.542 118.432 180.537 118.423 180.528C118.417 180.516 118.417 180.503 118.423 180.488L119.443 177.79C119.446 177.784 119.446 177.78 119.443 177.777C119.44 177.771 119.436 177.768 119.43 177.768H118.346C118.334 177.768 118.328 177.774 118.328 177.786V177.997C118.328 178.027 118.313 178.042 118.283 178.042H118.014C117.984 178.042 117.969 178.027 117.969 177.997V177.44C117.969 177.41 117.984 177.395 118.014 177.395H119.861C119.891 177.395 119.906 177.41 119.906 177.44V177.741C119.906 177.753 119.903 177.771 119.897 177.795L118.881 180.506C118.872 180.53 118.856 180.542 118.832 180.542H118.459ZM122.035 179.197C122.098 179.323 122.129 179.473 122.129 179.647C122.129 179.839 122.087 180.007 122.003 180.15C121.931 180.285 121.823 180.39 121.679 180.465C121.539 180.54 121.372 180.577 121.18 180.577C120.989 180.577 120.819 180.54 120.672 180.465C120.526 180.387 120.415 180.276 120.34 180.132C120.259 179.992 120.218 179.828 120.218 179.642C120.218 179.478 120.251 179.326 120.317 179.188C120.383 179.051 120.481 178.947 120.61 178.878C120.625 178.872 120.625 178.865 120.61 178.856C120.514 178.784 120.442 178.709 120.394 178.631C120.31 178.505 120.268 178.361 120.268 178.199C120.268 178.023 120.319 177.861 120.421 177.714C120.496 177.6 120.599 177.51 120.731 177.444C120.866 177.378 121.016 177.345 121.18 177.345C121.348 177.345 121.497 177.378 121.626 177.444C121.754 177.51 121.856 177.6 121.931 177.714C122.03 177.861 122.08 178.023 122.08 178.199C122.08 178.361 122.038 178.508 121.954 178.64C121.9 178.724 121.829 178.796 121.742 178.856C121.727 178.865 121.727 178.872 121.742 178.878C121.868 178.947 121.966 179.054 122.035 179.197ZM120.758 177.97C120.716 178.048 120.695 178.124 120.695 178.199C120.695 178.319 120.723 178.42 120.78 178.501C120.861 178.635 120.993 178.703 121.176 178.703C121.356 178.703 121.489 178.634 121.576 178.496C121.627 178.424 121.652 178.324 121.652 178.195C121.652 178.111 121.633 178.035 121.594 177.966C121.555 177.891 121.5 177.831 121.428 177.786C121.356 177.741 121.27 177.718 121.171 177.718C121.079 177.718 120.996 177.741 120.924 177.786C120.852 177.831 120.797 177.892 120.758 177.97ZM121.59 179.998C121.658 179.902 121.693 179.773 121.693 179.611C121.693 179.467 121.667 179.349 121.617 179.256C121.533 179.1 121.386 179.022 121.176 179.022C120.972 179.022 120.828 179.095 120.744 179.242C120.687 179.338 120.659 179.463 120.659 179.615C120.659 179.765 120.69 179.888 120.753 179.984C120.84 180.128 120.983 180.2 121.18 180.2C121.366 180.2 121.503 180.132 121.59 179.998Z" fill="white"/>
<rect x="113.771" y="190.432" width="10.789" height="10.789" rx="5.3945" fill="white" fill-opacity="0.5"/>
<g clip-path="url(#clip2_1032_3409)">
<path d="M119.465 194.302V193.005L120.875 194.416L122.007 195.547L120.855 196.506L119.465 197.665V196.396C117.024 196.212 116.168 197.624 116.168 197.624C116.168 196.744 116.241 195.831 116.933 195.139C117.737 194.334 118.902 194.277 119.465 194.302Z" fill="white"/>
</g>
<path d="M116.294 206.019C116.279 206.019 116.267 206.014 116.258 206.005C116.253 205.993 116.253 205.98 116.258 205.965L117.279 203.267C117.282 203.261 117.282 203.257 117.279 203.254C117.276 203.248 117.271 203.245 117.265 203.245H116.182C116.17 203.245 116.164 203.251 116.164 203.263V203.474C116.164 203.504 116.149 203.519 116.119 203.519H115.849C115.819 203.519 115.804 203.504 115.804 203.474V202.917C115.804 202.887 115.819 202.872 115.849 202.872H117.697C117.727 202.872 117.742 202.887 117.742 202.917V203.218C117.742 203.23 117.739 203.248 117.733 203.272L116.717 205.983C116.708 206.007 116.692 206.019 116.668 206.019H116.294ZM118.459 206.019C118.444 206.019 118.432 206.014 118.423 206.005C118.417 205.993 118.417 205.98 118.423 205.965L119.443 203.267C119.446 203.261 119.446 203.257 119.443 203.254C119.44 203.248 119.436 203.245 119.43 203.245H118.346C118.334 203.245 118.328 203.251 118.328 203.263V203.474C118.328 203.504 118.313 203.519 118.283 203.519H118.014C117.984 203.519 117.969 203.504 117.969 203.474V202.917C117.969 202.887 117.984 202.872 118.014 202.872H119.861C119.891 202.872 119.906 202.887 119.906 202.917V203.218C119.906 203.23 119.903 203.248 119.897 203.272L118.881 205.983C118.872 206.007 118.856 206.019 118.832 206.019H118.459ZM122.035 204.674C122.098 204.8 122.129 204.95 122.129 205.124C122.129 205.316 122.087 205.484 122.003 205.627C121.931 205.762 121.823 205.867 121.679 205.942C121.539 206.017 121.372 206.055 121.18 206.055C120.989 206.055 120.819 206.017 120.672 205.942C120.526 205.864 120.415 205.753 120.34 205.609C120.259 205.469 120.218 205.305 120.218 205.119C120.218 204.955 120.251 204.803 120.317 204.665C120.383 204.528 120.481 204.424 120.61 204.355C120.625 204.349 120.625 204.342 120.61 204.333C120.514 204.261 120.442 204.186 120.394 204.108C120.31 203.982 120.268 203.838 120.268 203.676C120.268 203.5 120.319 203.338 120.421 203.191C120.496 203.077 120.599 202.987 120.731 202.921C120.866 202.855 121.016 202.822 121.18 202.822C121.348 202.822 121.497 202.855 121.626 202.921C121.754 202.987 121.856 203.077 121.931 203.191C122.03 203.338 122.08 203.5 122.08 203.676C122.08 203.838 122.038 203.985 121.954 204.117C121.9 204.201 121.829 204.273 121.742 204.333C121.727 204.342 121.727 204.349 121.742 204.355C121.868 204.424 121.966 204.531 122.035 204.674ZM120.758 203.447C120.716 203.525 120.695 203.602 120.695 203.676C120.695 203.796 120.723 203.897 120.78 203.978C120.861 204.112 120.993 204.18 121.176 204.18C121.356 204.18 121.489 204.111 121.576 203.973C121.627 203.901 121.652 203.801 121.652 203.672C121.652 203.588 121.633 203.512 121.594 203.443C121.555 203.368 121.5 203.308 121.428 203.263C121.356 203.218 121.27 203.195 121.171 203.195C121.079 203.195 120.996 203.218 120.924 203.263C120.852 203.308 120.797 203.369 120.758 203.447ZM121.59 205.475C121.658 205.379 121.693 205.25 121.693 205.088C121.693 204.944 121.667 204.826 121.617 204.733C121.533 204.577 121.386 204.499 121.176 204.499C120.972 204.499 120.828 204.573 120.744 204.719C120.687 204.815 120.659 204.94 120.659 205.092C120.659 205.242 120.69 205.365 120.753 205.461C120.84 205.605 120.983 205.677 121.18 205.677C121.366 205.677 121.503 205.609 121.59 205.475Z" fill="white"/>
<rect x="113.771" y="215.909" width="10.789" height="10.789" rx="5.3945" fill="white" fill-opacity="0.5"/>
<path d="M116.768 221.303C116.768 221.383 116.799 221.459 116.855 221.515C116.912 221.571 116.988 221.603 117.067 221.603C117.147 221.603 117.223 221.571 117.279 221.515C117.335 221.459 117.367 221.383 117.367 221.303C117.367 221.224 117.335 221.147 117.279 221.091C117.223 221.035 117.147 221.003 117.067 221.003C116.988 221.003 116.912 221.035 116.855 221.091C116.799 221.147 116.768 221.224 116.768 221.303ZM118.865 221.303C118.865 221.383 118.897 221.459 118.953 221.515C119.009 221.571 119.086 221.603 119.165 221.603C119.245 221.603 119.321 221.571 119.377 221.515C119.433 221.459 119.465 221.383 119.465 221.303C119.465 221.224 119.433 221.147 119.377 221.091C119.321 221.035 119.245 221.003 119.165 221.003C119.086 221.003 119.009 221.035 118.953 221.091C118.897 221.147 118.865 221.224 118.865 221.303ZM120.963 221.303C120.963 221.383 120.995 221.459 121.051 221.515C121.107 221.571 121.184 221.603 121.263 221.603C121.342 221.603 121.419 221.571 121.475 221.515C121.531 221.459 121.563 221.383 121.563 221.303C121.563 221.224 121.531 221.147 121.475 221.091C121.419 221.035 121.342 221.003 121.263 221.003C121.184 221.003 121.107 221.035 121.051 221.091C120.995 221.147 120.963 221.224 120.963 221.303Z" fill="white" stroke="white" stroke-width="0.629358" stroke-linecap="round" stroke-linejoin="round"/>
<g clip-path="url(#clip3_1032_3409)">
<path fill-rule="evenodd" clip-rule="evenodd" d="M11.4069 15.7222C11.3227 15.6379 11.2753 15.5236 11.2753 15.4044C11.2753 15.2852 11.3227 15.1708 11.4069 15.0865L13.95 12.5435C13.9915 12.5006 14.0411 12.4663 14.0959 12.4427C14.1508 12.4192 14.2098 12.4068 14.2694 12.4063C14.3291 12.4057 14.3883 12.4171 14.4436 12.4397C14.4988 12.4623 14.549 12.4957 14.5912 12.5379C14.6334 12.5801 14.6668 12.6303 14.6894 12.6856C14.712 12.7408 14.7234 12.8 14.7229 12.8597C14.7224 12.9194 14.71 12.9784 14.6864 13.0332C14.6628 13.0881 14.6286 13.1377 14.5857 13.1791L12.3604 15.4044L14.5857 17.6296C14.6675 17.7144 14.7129 17.8279 14.7118 17.9458C14.7108 18.0637 14.6635 18.1764 14.5802 18.2598C14.4968 18.3431 14.3841 18.3904 14.2662 18.3914C14.1483 18.3925 14.0348 18.3471 13.95 18.2653L11.4069 15.7222Z" fill="#FAFAFA"/>
</g>
<path d="M24.0368 18.4043C23.9829 18.4043 23.9451 18.38 23.9235 18.3315L22.8554 16.001C22.8446 15.9795 22.8284 15.9687 22.8069 15.9687H21.8359C21.8089 15.9687 21.7954 15.9822 21.7954 16.0091V18.3072C21.7954 18.3342 21.7846 18.3584 21.763 18.38C21.7468 18.3962 21.7253 18.4043 21.6983 18.4043H20.9539C20.9269 18.4043 20.9026 18.3962 20.881 18.38C20.8648 18.3584 20.8567 18.3342 20.8567 18.3072V12.8372C20.8567 12.8102 20.8648 12.7886 20.881 12.7724C20.9026 12.7509 20.9269 12.7401 20.9539 12.7401H23.1791C23.5081 12.7401 23.7994 12.8102 24.053 12.9505C24.3065 13.0853 24.5034 13.2795 24.6437 13.5331C24.7839 13.7812 24.8541 14.0671 24.8541 14.3908C24.8541 14.763 24.757 15.0813 24.5628 15.3456C24.374 15.6046 24.1096 15.7853 23.7698 15.8878C23.759 15.8878 23.7509 15.8932 23.7455 15.9039C23.7401 15.9147 23.7401 15.9255 23.7455 15.9363L24.8864 18.291C24.8972 18.3126 24.9026 18.3288 24.9026 18.3396C24.9026 18.3827 24.873 18.4043 24.8136 18.4043H24.0368ZM21.8359 13.5493C21.8089 13.5493 21.7954 13.5627 21.7954 13.5897V15.2C21.7954 15.2269 21.8089 15.2404 21.8359 15.2404H23.0496C23.3085 15.2404 23.5162 15.1649 23.6727 15.0139C23.8345 14.8574 23.9154 14.6524 23.9154 14.3989C23.9154 14.1453 23.8345 13.9404 23.6727 13.7839C23.5162 13.6275 23.3085 13.5493 23.0496 13.5493H21.8359ZM29.1704 15.8716C29.192 16.0064 29.2028 16.1575 29.2028 16.3247L29.1947 16.5756C29.1947 16.6403 29.1623 16.6727 29.0976 16.6727H26.5648C26.5379 16.6727 26.5244 16.6861 26.5244 16.7131C26.5406 16.8911 26.5648 17.0125 26.5972 17.0773C26.7267 17.4657 27.0423 17.6626 27.5439 17.6679C27.9108 17.6679 28.2021 17.5169 28.4179 17.2148C28.4394 17.1824 28.4664 17.1663 28.4988 17.1663C28.5203 17.1663 28.5392 17.1744 28.5554 17.1905L29.0571 17.6032C29.1057 17.641 29.1137 17.6841 29.0814 17.7327C28.9141 17.97 28.6903 18.1535 28.4098 18.2829C28.1346 18.4124 27.8272 18.4771 27.4873 18.4771C27.0665 18.4771 26.7078 18.3827 26.4111 18.1939C26.1198 18.0051 25.9067 17.7408 25.7719 17.4009C25.6478 17.1096 25.5857 16.705 25.5857 16.1872C25.5857 15.8743 25.6181 15.6207 25.6828 15.4265C25.7907 15.0489 25.993 14.7522 26.2897 14.5364C26.5918 14.3153 26.9532 14.2047 27.374 14.2047C28.4367 14.2047 29.0355 14.7603 29.1704 15.8716ZM27.374 15.0139C27.1744 15.0139 27.0072 15.0651 26.8723 15.1676C26.7429 15.2647 26.6512 15.4023 26.5972 15.5803C26.5648 15.672 26.5433 15.7907 26.5325 15.9363C26.5217 15.9633 26.5325 15.9768 26.5648 15.9768H28.2075C28.2344 15.9768 28.2479 15.9633 28.2479 15.9363C28.2371 15.8015 28.221 15.699 28.1994 15.6288C28.1508 15.4346 28.0537 15.2836 27.9081 15.1757C27.7678 15.0678 27.5898 15.0139 27.374 15.0139ZM33.5481 15.8716C33.5697 16.0064 33.5805 16.1575 33.5805 16.3247L33.5724 16.5756C33.5724 16.6403 33.5401 16.6727 33.4753 16.6727H30.9426C30.9156 16.6727 30.9021 16.6861 30.9021 16.7131C30.9183 16.8911 30.9426 17.0125 30.975 17.0773C31.1044 17.4657 31.42 17.6626 31.9217 17.6679C32.2885 17.6679 32.5798 17.5169 32.7956 17.2148C32.8172 17.1824 32.8442 17.1663 32.8765 17.1663C32.8981 17.1663 32.917 17.1744 32.9332 17.1905L33.4349 17.6032C33.4834 17.641 33.4915 17.6841 33.4591 17.7327C33.2919 17.97 33.068 18.1535 32.7875 18.2829C32.5124 18.4124 32.2049 18.4771 31.8651 18.4771C31.4443 18.4771 31.0856 18.3827 30.7889 18.1939C30.4976 18.0051 30.2845 17.7408 30.1496 17.4009C30.0255 17.1096 29.9635 16.705 29.9635 16.1872C29.9635 15.8743 29.9959 15.6207 30.0606 15.4265C30.1685 15.0489 30.3708 14.7522 30.6675 14.5364C30.9696 14.3153 31.331 14.2047 31.7518 14.2047C32.8145 14.2047 33.4133 14.7603 33.5481 15.8716ZM31.7518 15.0139C31.5522 15.0139 31.385 15.0651 31.2501 15.1676C31.1206 15.2647 31.0289 15.4023 30.975 15.5803C30.9426 15.672 30.921 15.7907 30.9102 15.9363C30.8994 15.9633 30.9102 15.9768 30.9426 15.9768H32.5852C32.6122 15.9768 32.6257 15.9633 32.6257 15.9363C32.6149 15.8015 32.5987 15.699 32.5771 15.6288C32.5286 15.4346 32.4315 15.2836 32.2858 15.1757C32.1456 15.0678 31.9676 15.0139 31.7518 15.0139ZM34.5355 18.4043C34.5085 18.4043 34.4842 18.3962 34.4626 18.38C34.4465 18.3584 34.4384 18.3342 34.4384 18.3072V12.8372C34.4384 12.8102 34.4465 12.7886 34.4626 12.7724C34.4842 12.7509 34.5085 12.7401 34.5355 12.7401H35.2799C35.3069 12.7401 35.3285 12.7509 35.3446 12.7724C35.3662 12.7886 35.377 12.8102 35.377 12.8372V18.3072C35.377 18.3342 35.3662 18.3584 35.3446 18.38C35.3285 18.3962 35.3069 18.4043 35.2799 18.4043H34.5355ZM37.9118 18.4528C37.572 18.4528 37.2726 18.4043 37.0136 18.3072C36.7601 18.2047 36.5632 18.0671 36.4229 17.8945C36.2827 17.7165 36.2125 17.5196 36.2125 17.3038V17.231C36.2125 17.204 36.2206 17.1824 36.2368 17.1663C36.2584 17.1447 36.2827 17.1339 36.3096 17.1339H37.0217C37.0487 17.1339 37.0703 17.1447 37.0864 17.1663C37.108 17.1824 37.1188 17.204 37.1188 17.231V17.2472C37.1188 17.382 37.1916 17.5007 37.3373 17.6032C37.4883 17.7003 37.6771 17.7489 37.9037 17.7489C38.1195 17.7489 38.2948 17.7057 38.4297 17.6194C38.5645 17.5277 38.632 17.4144 38.632 17.2795C38.632 17.1555 38.5753 17.0638 38.462 17.0044C38.3542 16.9397 38.1761 16.8723 37.928 16.8021L37.6205 16.705C37.3454 16.6241 37.1134 16.5378 36.9246 16.4461C36.7358 16.3544 36.5767 16.2303 36.4472 16.0739C36.3177 15.912 36.253 15.707 36.253 15.4589C36.253 15.0813 36.4013 14.7819 36.698 14.5607C36.9947 14.3341 37.3858 14.2209 37.8713 14.2209C38.2004 14.2209 38.489 14.2748 38.7372 14.3827C38.9853 14.4852 39.1768 14.6308 39.3117 14.8197C39.4465 15.0031 39.514 15.2135 39.514 15.4508C39.514 15.4778 39.5032 15.5021 39.4816 15.5236C39.4654 15.5398 39.4438 15.5479 39.4169 15.5479H38.7291C38.7021 15.5479 38.6778 15.5398 38.6562 15.5236C38.6401 15.5021 38.632 15.4778 38.632 15.4508C38.632 15.3106 38.5618 15.1946 38.4216 15.1029C38.2867 15.0058 38.1006 14.9572 37.8633 14.9572C37.6529 14.9572 37.4802 14.9977 37.3454 15.0786C37.2159 15.1541 37.1512 15.262 37.1512 15.4023C37.1512 15.5317 37.2132 15.6315 37.3373 15.7017C37.4668 15.7664 37.6798 15.8392 37.9765 15.9201L38.1546 15.9687C38.4405 16.055 38.6805 16.144 38.8747 16.2357C39.0689 16.322 39.2335 16.4461 39.3683 16.6079C39.5032 16.7644 39.5706 16.9694 39.5706 17.2229C39.5706 17.6059 39.4196 17.908 39.1175 18.1292C38.8154 18.345 38.4135 18.4528 37.9118 18.4528Z" fill="white"/>
<rect x="74.211" y="9.76074" width="37.056" height="10.7582" rx="4.78142" fill="#9A9A9A" fill-opacity="0.5"/>
<g clip-path="url(#clip4_1032_3409)">
<path d="M83.6994 15.3638C83.6994 15.661 83.5814 15.9461 83.3712 16.1562C83.161 16.3664 82.876 16.4845 82.5788 16.4845C82.2816 16.4845 81.9965 16.3664 81.7864 16.1562C81.5762 15.9461 81.4581 15.661 81.4581 15.3638C81.4581 15.0666 81.5762 14.7816 81.7864 14.5714C81.9965 14.3612 82.2816 14.2432 82.5788 14.2432C82.876 14.2432 83.161 14.3612 83.3712 14.5714C83.5814 14.7816 83.6994 15.0666 83.6994 15.3638Z" fill="white"/>
<path d="M79.8891 13.3467C79.6513 13.3467 79.4233 13.4412 79.2551 13.6093C79.087 13.7774 78.9926 14.0055 78.9926 14.2432V16.9328C78.9926 17.1706 79.087 17.3986 79.2551 17.5667C79.4233 17.7348 79.6513 17.8293 79.8891 17.8293H85.2682C85.5059 17.8293 85.734 17.7348 85.9021 17.5667C86.0702 17.3986 86.1647 17.1706 86.1647 16.9328V14.2432C86.1647 14.0055 86.0702 13.7774 85.9021 13.6093C85.734 13.4412 85.5059 13.3467 85.2682 13.3467H84.7428C84.5051 13.3467 84.2771 13.2522 84.109 13.084L83.7378 12.7129C83.5697 12.5447 83.3417 12.4502 83.104 12.4502H82.0533C81.8155 12.4502 81.5875 12.5447 81.4194 12.7129L81.0483 13.084C80.8802 13.2522 80.6522 13.3467 80.4144 13.3467H79.8891ZM80.1132 14.2432C80.0538 14.2432 79.9967 14.2196 79.9547 14.1776C79.9127 14.1356 79.8891 14.0785 79.8891 14.0191C79.8891 13.9597 79.9127 13.9026 79.9547 13.8606C79.9967 13.8186 80.0538 13.795 80.1132 13.795C80.1726 13.795 80.2297 13.8186 80.2717 13.8606C80.3137 13.9026 80.3373 13.9597 80.3373 14.0191C80.3373 14.0785 80.3137 14.1356 80.2717 14.1776C80.2297 14.2196 80.1726 14.2432 80.1132 14.2432ZM84.1475 15.3639C84.1475 15.78 83.9822 16.179 83.688 16.4733C83.3938 16.7675 82.9947 16.9328 82.5786 16.9328C82.1625 16.9328 81.7635 16.7675 81.4692 16.4733C81.175 16.179 81.0097 15.78 81.0097 15.3639C81.0097 14.9478 81.175 14.5487 81.4692 14.2545C81.7635 13.9603 82.1625 13.795 82.5786 13.795C82.9947 13.795 83.3938 13.9603 83.688 14.2545C83.9822 14.5487 84.1475 14.9478 84.1475 15.3639Z" fill="white"/>
</g>
<path d="M91.9997 17.1827C91.7307 17.1827 91.494 17.1307 91.2896 17.0267C91.0852 16.9191 90.9274 16.7703 90.8162 16.5802C90.7051 16.3902 90.6495 16.1696 90.6495 15.9186V14.59C90.6495 14.3389 90.7051 14.1184 90.8162 13.9283C90.9274 13.7383 91.0852 13.5912 91.2896 13.4872C91.494 13.3832 91.7307 13.3312 91.9997 13.3312C92.265 13.3312 92.4999 13.3814 92.7043 13.4819C92.9087 13.5823 93.0665 13.7239 93.1777 13.9068C93.2888 14.0897 93.3444 14.3013 93.3444 14.5415C93.3444 14.5595 93.3373 14.5756 93.3229 14.59C93.3122 14.6007 93.2978 14.6061 93.2799 14.6061L92.785 14.633C92.742 14.633 92.7205 14.6133 92.7205 14.5738C92.7205 14.3622 92.6541 14.1919 92.5214 14.0628C92.3923 13.9337 92.2184 13.8692 91.9997 13.8692C91.7809 13.8692 91.6052 13.9337 91.4725 14.0628C91.3398 14.1919 91.2735 14.3622 91.2735 14.5738V15.9455C91.2735 16.1535 91.3398 16.322 91.4725 16.4511C91.6052 16.5802 91.7809 16.6448 91.9997 16.6448C92.2184 16.6448 92.3923 16.582 92.5214 16.4565C92.6541 16.3274 92.7205 16.1571 92.7205 15.9455C92.7205 15.906 92.742 15.8863 92.785 15.8863L93.2799 15.9078C93.2978 15.9078 93.3122 15.9132 93.3229 15.924C93.3373 15.9347 93.3444 15.9473 93.3444 15.9616C93.3444 16.2055 93.2888 16.4206 93.1777 16.6071C93.0665 16.79 92.9087 16.9317 92.7043 17.0321C92.4999 17.1325 92.265 17.1827 91.9997 17.1827ZM95.2346 14.3587C95.3494 14.3587 95.4498 14.382 95.5359 14.4286C95.5646 14.4429 95.5753 14.4698 95.5681 14.5093L95.4767 14.9934C95.4731 15.0364 95.448 15.049 95.4014 15.031C95.3476 15.0131 95.2848 15.0041 95.2131 15.0041C95.1665 15.0041 95.1306 15.0059 95.1055 15.0095C94.9549 15.0167 94.8294 15.0705 94.729 15.1709C94.6286 15.2677 94.5784 15.395 94.5784 15.5528V17.0751C94.5784 17.093 94.5712 17.1092 94.5569 17.1235C94.5461 17.1343 94.5318 17.1396 94.5138 17.1396H94.019C94.001 17.1396 93.9849 17.1343 93.9705 17.1235C93.9598 17.1092 93.9544 17.093 93.9544 17.0751V14.4555C93.9544 14.4375 93.9598 14.4232 93.9705 14.4124C93.9849 14.3981 94.001 14.3909 94.019 14.3909H94.5138C94.5318 14.3909 94.5461 14.3981 94.5569 14.4124C94.5712 14.4232 94.5784 14.4375 94.5784 14.4555V14.6975C94.5784 14.7119 94.5802 14.7208 94.5838 14.7244C94.5909 14.7244 94.5981 14.7191 94.6053 14.7083C94.7559 14.4752 94.9657 14.3587 95.2346 14.3587ZM98.2427 15.456C98.257 15.5456 98.2642 15.6461 98.2642 15.7572L98.2588 15.924C98.2588 15.967 98.2373 15.9885 98.1943 15.9885H96.5106C96.4927 15.9885 96.4837 15.9975 96.4837 16.0154C96.4945 16.1338 96.5106 16.2144 96.5321 16.2575C96.6182 16.5157 96.828 16.6466 97.1615 16.6502C97.4053 16.6502 97.599 16.5497 97.7424 16.3489C97.7568 16.3274 97.7747 16.3166 97.7962 16.3166C97.8106 16.3166 97.8231 16.322 97.8339 16.3328L98.1674 16.6071C98.1997 16.6322 98.205 16.6609 98.1835 16.6932C98.0723 16.851 97.9235 16.9729 97.7371 17.059C97.5542 17.145 97.3498 17.1881 97.1238 17.1881C96.8441 17.1881 96.6056 17.1253 96.4084 16.9998C96.2148 16.8743 96.0731 16.6986 95.9835 16.4726C95.901 16.279 95.8597 16.01 95.8597 15.6658C95.8597 15.4578 95.8813 15.2892 95.9243 15.1601C95.996 14.9091 96.1305 14.7119 96.3277 14.5684C96.5285 14.4214 96.7688 14.3479 97.0485 14.3479C97.755 14.3479 98.153 14.7173 98.2427 15.456ZM97.0485 14.8858C96.9158 14.8858 96.8047 14.9199 96.715 14.988C96.629 15.0526 96.568 15.144 96.5321 15.2623C96.5106 15.3233 96.4963 15.4022 96.4891 15.499C96.4819 15.517 96.4891 15.5259 96.5106 15.5259H97.6026C97.6205 15.5259 97.6295 15.517 97.6295 15.499C97.6223 15.4094 97.6115 15.3412 97.5972 15.2946C97.5649 15.1655 97.5004 15.0651 97.4035 14.9934C97.3103 14.9217 97.192 14.8858 97.0485 14.8858ZM99.8571 14.3479C100.083 14.3479 100.282 14.3873 100.454 14.4662C100.626 14.5451 100.759 14.6545 100.852 14.7944C100.946 14.9306 100.992 15.0866 100.992 15.2623V17.0751C100.992 17.093 100.985 17.1092 100.971 17.1235C100.96 17.1343 100.946 17.1396 100.928 17.1396H100.433C100.415 17.1396 100.399 17.1343 100.384 17.1235C100.374 17.1092 100.368 17.093 100.368 17.0751V16.903C100.368 16.8922 100.365 16.8868 100.357 16.8868C100.35 16.8832 100.343 16.885 100.336 16.8922C100.16 17.0859 99.9055 17.1827 99.572 17.1827C99.3031 17.1827 99.0807 17.1145 98.905 16.9783C98.7329 16.842 98.6468 16.6394 98.6468 16.3704C98.6468 16.0907 98.7437 15.8738 98.9373 15.7196C99.1345 15.5618 99.4107 15.4829 99.7657 15.4829H100.341C100.359 15.4829 100.368 15.4739 100.368 15.456V15.3269C100.368 15.187 100.327 15.0795 100.244 15.0041C100.162 14.9253 100.038 14.8858 99.8733 14.8858C99.737 14.8858 99.6258 14.9109 99.5398 14.9611C99.4573 15.0077 99.4053 15.0741 99.3838 15.1601C99.373 15.2032 99.3479 15.2211 99.3085 15.2139L98.7867 15.1494C98.7688 15.1458 98.7526 15.1404 98.7383 15.1332C98.7275 15.1225 98.7239 15.1099 98.7275 15.0956C98.7562 14.8768 98.8728 14.6975 99.0772 14.5577C99.2852 14.4178 99.5451 14.3479 99.8571 14.3479ZM99.728 16.6878C99.9038 16.6878 100.054 16.6412 100.18 16.5479C100.305 16.4547 100.368 16.3364 100.368 16.1929V15.9401C100.368 15.9222 100.359 15.9132 100.341 15.9132H99.8894C99.6993 15.9132 99.5487 15.9491 99.4376 16.0208C99.33 16.0925 99.2762 16.1947 99.2762 16.3274C99.2762 16.4422 99.3174 16.5318 99.3999 16.5964C99.486 16.6573 99.5953 16.6878 99.728 16.6878ZM103.034 14.832C103.034 14.8499 103.027 14.8661 103.013 14.8804C103.002 14.8912 102.988 14.8966 102.97 14.8966H102.421C102.403 14.8966 102.394 14.9055 102.394 14.9235V16.2198C102.394 16.3561 102.423 16.4547 102.48 16.5157C102.541 16.5766 102.636 16.6071 102.765 16.6071H102.927C102.945 16.6071 102.959 16.6143 102.97 16.6286C102.984 16.6394 102.991 16.6537 102.991 16.6717V17.0751C102.991 17.1145 102.97 17.1379 102.927 17.145L102.647 17.1504C102.364 17.1504 102.152 17.102 102.012 17.0052C101.872 16.9083 101.801 16.7255 101.797 16.4565V14.9235C101.797 14.9055 101.788 14.8966 101.77 14.8966H101.464C101.446 14.8966 101.43 14.8912 101.415 14.8804C101.404 14.8661 101.399 14.8499 101.399 14.832V14.4555C101.399 14.4375 101.404 14.4232 101.415 14.4124C101.43 14.3981 101.446 14.3909 101.464 14.3909H101.77C101.788 14.3909 101.797 14.382 101.797 14.364V13.7347C101.797 13.7167 101.802 13.7024 101.813 13.6916C101.828 13.6773 101.844 13.6701 101.862 13.6701H102.33C102.348 13.6701 102.362 13.6773 102.373 13.6916C102.387 13.7024 102.394 13.7167 102.394 13.7347V14.364C102.394 14.382 102.403 14.3909 102.421 14.3909H102.97C102.988 14.3909 103.002 14.3981 103.013 14.4124C103.027 14.4232 103.034 14.4375 103.034 14.4555V14.832ZM105.854 15.456C105.869 15.5456 105.876 15.6461 105.876 15.7572L105.87 15.924C105.87 15.967 105.849 15.9885 105.806 15.9885H104.122C104.104 15.9885 104.095 15.9975 104.095 16.0154C104.106 16.1338 104.122 16.2144 104.144 16.2575C104.23 16.5157 104.44 16.6466 104.773 16.6502C105.017 16.6502 105.211 16.5497 105.354 16.3489C105.368 16.3274 105.386 16.3166 105.408 16.3166C105.422 16.3166 105.435 16.322 105.446 16.3328L105.779 16.6071C105.811 16.6322 105.817 16.6609 105.795 16.6932C105.684 16.851 105.535 16.9729 105.349 17.059C105.166 17.145 104.961 17.1881 104.735 17.1881C104.456 17.1881 104.217 17.1253 104.02 16.9998C103.826 16.8743 103.685 16.6986 103.595 16.4726C103.513 16.279 103.471 16.01 103.471 15.6658C103.471 15.4578 103.493 15.2892 103.536 15.1601C103.608 14.9091 103.742 14.7119 103.939 14.5684C104.14 14.4214 104.38 14.3479 104.66 14.3479C105.367 14.3479 105.765 14.7173 105.854 15.456ZM104.66 14.8858C104.527 14.8858 104.416 14.9199 104.327 14.988C104.241 15.0526 104.18 15.144 104.144 15.2623C104.122 15.3233 104.108 15.4022 104.101 15.499C104.094 15.517 104.101 15.5259 104.122 15.5259H105.214C105.232 15.5259 105.241 15.517 105.241 15.499C105.234 15.4094 105.223 15.3412 105.209 15.2946C105.177 15.1655 105.112 15.0651 105.015 14.9934C104.922 14.9217 104.804 14.8858 104.66 14.8858Z" fill="white"/>
<rect x="113.964" y="9.76074" width="11.038" height="11.038" rx="5.51898" fill="white"/>
<rect x="7.90366" y="188.253" width="13.9358" height="13.9358" rx="6.96789" fill="white"/>
<rect x="7.90366" y="188.253" width="13.9358" height="13.9358" rx="6.96789" stroke="#484848" stroke-width="0.449541"/>
<path d="M27.9478 193.085C27.593 193.085 27.2789 193.016 27.0056 192.877C26.7322 192.738 26.5188 192.541 26.3654 192.287C26.2168 192.028 26.1424 191.731 26.1424 191.395V188.079C26.1424 188.055 26.1496 188.036 26.164 188.022C26.1832 188.003 26.2048 187.993 26.2287 187.993H26.8905C26.9144 187.993 26.9336 188.003 26.948 188.022C26.9672 188.036 26.9768 188.055 26.9768 188.079V191.409C26.9768 191.692 27.0655 191.923 27.2429 192.1C27.4203 192.277 27.6553 192.366 27.9478 192.366C28.2403 192.366 28.4753 192.277 28.6527 192.1C28.8301 191.923 28.9188 191.692 28.9188 191.409V188.079C28.9188 188.055 28.926 188.036 28.9404 188.022C28.9596 188.003 28.9811 187.993 29.0051 187.993H29.6668C29.6908 187.993 29.71 188.003 29.7244 188.022C29.7436 188.036 29.7531 188.055 29.7531 188.079V191.395C29.7531 191.731 29.6788 192.028 29.5302 192.287C29.3815 192.541 29.1705 192.738 28.8972 192.877C28.6239 193.016 28.3074 193.085 27.9478 193.085ZM32.0458 193.071C31.7437 193.071 31.4775 193.028 31.2474 192.942C31.022 192.85 30.847 192.728 30.7223 192.575C30.5976 192.416 30.5353 192.241 30.5353 192.05V191.985C30.5353 191.961 30.5425 191.942 30.5569 191.927C30.5761 191.908 30.5976 191.899 30.6216 191.899H31.2546C31.2785 191.899 31.2977 191.908 31.3121 191.927C31.3313 191.942 31.3409 191.961 31.3409 191.985V191.999C31.3409 192.119 31.4056 192.225 31.5351 192.316C31.6693 192.402 31.8372 192.445 32.0386 192.445C32.2304 192.445 32.3862 192.407 32.5061 192.33C32.626 192.249 32.6859 192.148 32.6859 192.028C32.6859 191.918 32.6355 191.836 32.5349 191.784C32.4389 191.726 32.2807 191.666 32.0601 191.604L31.7868 191.517C31.5423 191.445 31.3361 191.369 31.1682 191.287C31.0004 191.206 30.859 191.095 30.7439 190.956C30.6288 190.812 30.5713 190.63 30.5713 190.41C30.5713 190.074 30.7031 189.808 30.9669 189.611C31.2306 189.41 31.5782 189.309 32.0098 189.309C32.3023 189.309 32.5588 189.357 32.7794 189.453C33 189.544 33.1702 189.674 33.2901 189.841C33.41 190.005 33.4699 190.192 33.4699 190.403C33.4699 190.426 33.4603 190.448 33.4411 190.467C33.4267 190.482 33.4076 190.489 33.3836 190.489H32.7722C32.7482 190.489 32.7267 190.482 32.7075 190.467C32.6931 190.448 32.6859 190.426 32.6859 190.403C32.6859 190.278 32.6236 190.175 32.4989 190.093C32.379 190.007 32.2136 189.964 32.0026 189.964C31.8156 189.964 31.6621 190 31.5423 190.072C31.4272 190.139 31.3696 190.235 31.3696 190.359C31.3696 190.474 31.4248 190.563 31.5351 190.625C31.6502 190.683 31.8396 190.748 32.1033 190.82L32.2615 190.863C32.5157 190.94 32.7291 191.019 32.9017 191.1C33.0743 191.177 33.2206 191.287 33.3404 191.431C33.4603 191.57 33.5202 191.752 33.5202 191.978C33.5202 192.318 33.386 192.587 33.1175 192.783C32.8489 192.975 32.4917 193.071 32.0458 193.071ZM37.3263 190.777C37.3455 190.896 37.3551 191.031 37.3551 191.179L37.3479 191.402C37.3479 191.46 37.3192 191.489 37.2616 191.489H35.0103C34.9863 191.489 34.9743 191.501 34.9743 191.525C34.9887 191.683 35.0103 191.791 35.0391 191.848C35.1542 192.193 35.4347 192.369 35.8806 192.373C36.2067 192.373 36.4656 192.239 36.6574 191.971C36.6766 191.942 36.7006 191.927 36.7294 191.927C36.7485 191.927 36.7653 191.935 36.7797 191.949L37.2256 192.316C37.2688 192.349 37.276 192.388 37.2472 192.431C37.0986 192.642 36.8996 192.805 36.6502 192.92C36.4057 193.035 36.1324 193.093 35.8303 193.093C35.4563 193.093 35.1374 193.009 34.8736 192.841C34.6147 192.673 34.4253 192.438 34.3054 192.136C34.1951 191.877 34.14 191.517 34.14 191.057C34.14 190.779 34.1688 190.554 34.2263 190.381C34.3222 190.045 34.502 189.782 34.7658 189.59C35.0343 189.393 35.3556 189.295 35.7296 189.295C36.6742 189.295 37.2065 189.789 37.3263 190.777ZM35.7296 190.014C35.5522 190.014 35.4035 190.06 35.2836 190.151C35.1685 190.237 35.087 190.359 35.0391 190.518C35.0103 190.599 34.9911 190.705 34.9815 190.834C34.9719 190.858 34.9815 190.87 35.0103 190.87H36.4704C36.4944 190.87 36.5064 190.858 36.5064 190.834C36.4968 190.714 36.4824 190.623 36.4632 190.561C36.4201 190.388 36.3338 190.254 36.2043 190.158C36.0796 190.062 35.9214 190.014 35.7296 190.014ZM39.8295 189.309C39.9829 189.309 40.1172 189.34 40.2323 189.403C40.2707 189.422 40.285 189.458 40.2754 189.511L40.1532 190.158C40.1484 190.216 40.1148 190.232 40.0525 190.208C39.9805 190.184 39.8966 190.172 39.8007 190.172C39.7384 190.172 39.6904 190.175 39.6569 190.18C39.4555 190.189 39.2877 190.261 39.1534 190.395C39.0191 190.525 38.952 190.695 38.952 190.906V192.942C38.952 192.965 38.9424 192.987 38.9232 193.006C38.9088 193.021 38.8897 193.028 38.8657 193.028H38.204C38.18 193.028 38.1584 193.021 38.1392 193.006C38.1248 192.987 38.1176 192.965 38.1176 192.942V189.439C38.1176 189.415 38.1248 189.396 38.1392 189.381C38.1584 189.362 38.18 189.352 38.204 189.352H38.8657C38.8897 189.352 38.9088 189.362 38.9232 189.381C38.9424 189.396 38.952 189.415 38.952 189.439V189.762C38.952 189.782 38.9544 189.794 38.9592 189.798C38.9688 189.798 38.9784 189.791 38.988 189.777C39.1894 189.465 39.4699 189.309 39.8295 189.309ZM42.5841 189.295C42.9725 189.295 43.2818 189.41 43.512 189.64C43.7469 189.87 43.8644 190.184 43.8644 190.582V192.942C43.8644 192.965 43.8548 192.987 43.8356 193.006C43.8213 193.021 43.8021 193.028 43.7781 193.028H43.1164C43.0924 193.028 43.0708 193.021 43.0516 193.006C43.0373 192.987 43.0301 192.965 43.0301 192.942V190.755C43.0301 190.534 42.9677 190.357 42.8431 190.223C42.7184 190.084 42.553 190.014 42.3468 190.014C42.1406 190.014 41.9727 190.081 41.8433 190.216C41.7186 190.35 41.6563 190.527 41.6563 190.748V192.942C41.6563 192.965 41.6467 192.987 41.6275 193.006C41.6131 193.021 41.5939 193.028 41.57 193.028H40.9082C40.8843 193.028 40.8627 193.021 40.8435 193.006C40.8291 192.987 40.8219 192.965 40.8219 192.942V189.439C40.8219 189.415 40.8291 189.396 40.8435 189.381C40.8627 189.362 40.8843 189.352 40.9082 189.352H41.57C41.5939 189.352 41.6131 189.362 41.6275 189.381C41.6467 189.396 41.6563 189.415 41.6563 189.439V189.669C41.6563 189.683 41.6611 189.693 41.6707 189.698C41.6802 189.702 41.6874 189.698 41.6922 189.683C41.8888 189.424 42.1861 189.295 42.5841 189.295ZM46.1369 189.295C46.439 189.295 46.7051 189.348 46.9353 189.453C47.1655 189.559 47.3429 189.705 47.4675 189.892C47.5922 190.074 47.6546 190.283 47.6546 190.518V192.942C47.6546 192.965 47.645 192.987 47.6258 193.006C47.6114 193.021 47.5922 193.028 47.5682 193.028H46.9065C46.8825 193.028 46.861 193.021 46.8418 193.006C46.8274 192.987 46.8202 192.965 46.8202 192.942V192.711C46.8202 192.697 46.8154 192.69 46.8058 192.69C46.7962 192.685 46.7866 192.687 46.7771 192.697C46.5421 192.956 46.2016 193.085 45.7557 193.085C45.3961 193.085 45.0988 192.994 44.8638 192.812C44.6336 192.63 44.5186 192.359 44.5186 191.999C44.5186 191.625 44.648 191.335 44.907 191.129C45.1707 190.918 45.5399 190.812 46.0146 190.812H46.7842C46.8082 190.812 46.8202 190.801 46.8202 190.777V190.604C46.8202 190.417 46.7651 190.273 46.6548 190.172C46.5445 190.067 46.3791 190.014 46.1585 190.014C45.9763 190.014 45.8276 190.048 45.7125 190.115C45.6023 190.177 45.5327 190.266 45.504 190.381C45.4896 190.438 45.456 190.462 45.4033 190.453L44.7056 190.367C44.6816 190.362 44.66 190.355 44.6408 190.345C44.6264 190.331 44.6217 190.314 44.6264 190.295C44.6648 190.002 44.8206 189.762 45.094 189.575C45.3721 189.388 45.7197 189.295 46.1369 189.295ZM45.9643 192.424C46.1992 192.424 46.4006 192.361 46.5685 192.237C46.7363 192.112 46.8202 191.954 46.8202 191.762V191.424C46.8202 191.4 46.8082 191.388 46.7842 191.388H46.1801C45.9259 191.388 45.7245 191.436 45.5759 191.532C45.432 191.628 45.3601 191.764 45.3601 191.942C45.3601 192.095 45.4152 192.215 45.5255 192.301C45.6406 192.383 45.7869 192.424 45.9643 192.424ZM52.4266 189.295C52.7958 189.295 53.0835 189.408 53.2897 189.633C53.5007 189.853 53.6062 190.163 53.6062 190.561V192.942C53.6062 192.965 53.5966 192.987 53.5774 193.006C53.563 193.021 53.5439 193.028 53.5199 193.028H52.8654C52.8414 193.028 52.8198 193.021 52.8006 193.006C52.7862 192.987 52.779 192.965 52.779 192.942V190.733C52.779 190.513 52.7191 190.338 52.5992 190.208C52.4841 190.079 52.3283 190.014 52.1317 190.014C51.9351 190.014 51.7745 190.079 51.6498 190.208C51.5251 190.338 51.4628 190.51 51.4628 190.726V192.942C51.4628 192.965 51.4532 192.987 51.434 193.006C51.4196 193.021 51.4005 193.028 51.3765 193.028H50.7219C50.698 193.028 50.6764 193.021 50.6572 193.006C50.6428 192.987 50.6356 192.965 50.6356 192.942V190.733C50.6356 190.513 50.5757 190.338 50.4558 190.208C50.3359 190.079 50.1777 190.014 49.9811 190.014C49.7989 190.014 49.6478 190.067 49.528 190.172C49.4129 190.278 49.3457 190.422 49.3266 190.604V192.942C49.3266 192.965 49.317 192.987 49.2978 193.006C49.2834 193.021 49.2642 193.028 49.2403 193.028H48.5785C48.5546 193.028 48.533 193.021 48.5138 193.006C48.4994 192.987 48.4922 192.965 48.4922 192.942V189.439C48.4922 189.415 48.4994 189.396 48.5138 189.381C48.533 189.362 48.5546 189.352 48.5785 189.352H49.2403C49.2642 189.352 49.2834 189.362 49.2978 189.381C49.317 189.396 49.3266 189.415 49.3266 189.439V189.676C49.3266 189.69 49.3314 189.7 49.341 189.705C49.3505 189.71 49.3601 189.705 49.3697 189.69C49.4752 189.556 49.6047 189.458 49.7581 189.396C49.9164 189.328 50.0914 189.295 50.2832 189.295C50.5182 189.295 50.7243 189.343 50.9018 189.439C51.0792 189.535 51.2158 189.674 51.3117 189.856C51.3261 189.875 51.3429 189.875 51.3621 189.856C51.4676 189.664 51.6138 189.523 51.8008 189.432C51.9879 189.34 52.1964 189.295 52.4266 189.295ZM57.5276 190.777C57.5468 190.896 57.5564 191.031 57.5564 191.179L57.5492 191.402C57.5492 191.46 57.5204 191.489 57.4629 191.489H55.2116C55.1876 191.489 55.1756 191.501 55.1756 191.525C55.19 191.683 55.2116 191.791 55.2403 191.848C55.3554 192.193 55.6359 192.369 56.0819 192.373C56.4079 192.373 56.6669 192.239 56.8587 191.971C56.8779 191.942 56.9018 191.927 56.9306 191.927C56.9498 191.927 56.9666 191.935 56.981 191.949L57.4269 192.316C57.4701 192.349 57.4773 192.388 57.4485 192.431C57.2998 192.642 57.1008 192.805 56.8515 192.92C56.6069 193.035 56.3336 193.093 56.0315 193.093C55.6575 193.093 55.3386 193.009 55.0749 192.841C54.816 192.673 54.6266 192.438 54.5067 192.136C54.3964 191.877 54.3413 191.517 54.3413 191.057C54.3413 190.779 54.37 190.554 54.4276 190.381C54.5235 190.045 54.7033 189.782 54.967 189.59C55.2355 189.393 55.5568 189.295 55.9308 189.295C56.8755 189.295 57.4077 189.789 57.5276 190.777ZM55.9308 190.014C55.7534 190.014 55.6048 190.06 55.4849 190.151C55.3698 190.237 55.2883 190.359 55.2403 190.518C55.2116 190.599 55.1924 190.705 55.1828 190.834C55.1732 190.858 55.1828 190.87 55.2116 190.87H56.6717C56.6957 190.87 56.7076 190.858 56.7076 190.834C56.6981 190.714 56.6837 190.623 56.6645 190.561C56.6213 190.388 56.535 190.254 56.4056 190.158C56.2809 190.062 56.1226 190.014 55.9308 190.014Z" fill="white"/>
<g clip-path="url(#clip5_1032_3409)">
<path d="M28.6229 200.009C28.3159 200.009 28.0272 199.951 27.7567 199.835C27.4863 199.718 27.2511 199.56 27.051 199.36C26.851 199.16 26.6926 198.925 26.5759 198.655C26.4593 198.385 26.4009 198.096 26.4009 197.789C26.4009 197.482 26.4593 197.193 26.5759 196.923C26.6924 196.652 26.8505 196.417 27.05 196.217C27.2496 196.017 27.4847 195.859 27.7552 195.742C28.0257 195.625 28.3144 195.567 28.6215 195.567C28.9285 195.567 29.2173 195.625 29.4878 195.742C29.7581 195.858 29.9933 196.016 30.1934 196.216C30.3935 196.416 30.5518 196.651 30.6685 196.921C30.7851 197.192 30.8435 197.48 30.8435 197.787C30.8435 198.094 30.7852 198.383 30.6687 198.654C30.5522 198.924 30.3939 199.159 30.1939 199.359C29.9938 199.559 29.7588 199.718 29.489 199.834C29.2191 199.951 28.9305 200.01 28.6229 200.009ZM28.6222 199.763C29.1734 199.763 29.6403 199.571 30.0228 199.189C30.4054 198.806 30.5967 198.339 30.5967 197.788C30.5967 197.759 30.5964 197.73 30.5959 197.701C30.5954 197.672 30.5936 197.644 30.5905 197.617C30.5795 197.727 30.5359 197.817 30.4597 197.889C30.3833 197.961 30.2898 197.997 30.1791 197.997H29.5524C29.4376 197.997 29.3393 197.956 29.2575 197.875C29.1757 197.793 29.1348 197.695 29.1348 197.58V197.372H28.2994V196.954C28.2994 196.84 28.3403 196.741 28.4223 196.659C28.5041 196.576 28.6024 196.535 28.7172 196.535H28.926V196.345C28.926 196.225 28.9652 196.131 29.0435 196.062C29.1218 195.993 29.2154 195.954 29.3241 195.943C29.2134 195.9 29.0999 195.868 28.9835 195.847C28.8672 195.825 28.7468 195.814 28.6222 195.814C28.071 195.814 27.6041 196.005 27.2216 196.388C26.839 196.77 26.6477 197.237 26.6477 197.788V197.859C26.6477 197.882 26.6494 197.905 26.6527 197.931H27.7584C27.992 197.931 28.1896 198.011 28.3512 198.173C28.5129 198.335 28.5938 198.532 28.5938 198.764V198.975H27.9672V199.649C28.0685 199.685 28.1743 199.713 28.2846 199.733C28.3948 199.753 28.5074 199.763 28.6222 199.763Z" fill="white"/>
</g>
<path d="M36.1449 196.174C36.4055 196.174 36.6143 196.254 36.7713 196.414C36.9312 196.574 37.0112 196.784 37.0112 197.045C37.0112 197.302 36.9297 197.51 36.7669 197.667C36.6069 197.824 36.3952 197.902 36.1316 197.902H35.2653C35.2534 197.902 35.2475 197.908 35.2475 197.92V199.244C35.2475 199.273 35.2327 199.288 35.2031 199.288H34.9765C34.9469 199.288 34.9321 199.273 34.9321 199.244V196.218C34.9321 196.189 34.9469 196.174 34.9765 196.174H36.1449ZM36.1094 197.64C36.2841 197.64 36.4263 197.587 36.5358 197.48C36.6454 197.37 36.7002 197.227 36.7002 197.049C36.7002 196.868 36.6454 196.723 36.5358 196.614C36.4263 196.504 36.2841 196.449 36.1094 196.449H35.2653C35.2534 196.449 35.2475 196.455 35.2475 196.467V197.622C35.2475 197.634 35.2534 197.64 35.2653 197.64H36.1094ZM38.8895 197.085C38.8895 197.055 38.9043 197.04 38.9339 197.04H39.1605C39.1901 197.04 39.2049 197.055 39.2049 197.085V199.244C39.2049 199.273 39.1901 199.288 39.1605 199.288H38.9339C38.9043 199.288 38.8895 199.273 38.8895 199.244V199.053C38.8895 199.047 38.8865 199.042 38.8806 199.039C38.8747 199.036 38.8702 199.038 38.8673 199.044C38.7429 199.227 38.5459 199.319 38.2764 199.319C38.1343 199.319 38.0025 199.291 37.881 199.235C37.7626 199.176 37.6678 199.091 37.5967 198.982C37.5286 198.872 37.4945 198.74 37.4945 198.586V197.085C37.4945 197.055 37.5093 197.04 37.539 197.04H37.7655C37.7951 197.04 37.8099 197.055 37.8099 197.085V198.493C37.8099 198.662 37.8573 198.796 37.9521 198.897C38.0469 198.995 38.1757 199.044 38.3386 199.044C38.5074 199.044 38.6407 198.993 38.7384 198.893C38.8391 198.792 38.8895 198.659 38.8895 198.493V197.085ZM41.64 197.613C41.6755 197.747 41.6933 197.93 41.6933 198.164C41.6933 198.407 41.6726 198.595 41.6311 198.728C41.5748 198.912 41.4771 199.057 41.3379 199.164C41.1987 199.27 41.0254 199.324 40.8181 199.324C40.6997 199.324 40.5916 199.3 40.4938 199.253C40.3961 199.205 40.3146 199.137 40.2495 199.048C40.2465 199.042 40.2421 199.041 40.2362 199.044C40.2302 199.044 40.2273 199.047 40.2273 199.053V199.244C40.2273 199.273 40.2125 199.288 40.1828 199.288H39.9563C39.9267 199.288 39.9119 199.273 39.9119 199.244V196.223C39.9119 196.193 39.9267 196.178 39.9563 196.178H40.1828C40.2125 196.178 40.2273 196.193 40.2273 196.223V197.271C40.2273 197.277 40.2288 197.282 40.2317 197.285C40.2376 197.285 40.2436 197.282 40.2495 197.276C40.3146 197.19 40.3961 197.123 40.4938 197.076C40.5916 197.028 40.6997 197.005 40.8181 197.005C41.0284 197.005 41.2046 197.059 41.3468 197.169C41.4889 197.276 41.5867 197.424 41.64 197.613ZM41.2979 198.702C41.3275 198.639 41.3483 198.57 41.3601 198.493C41.372 198.413 41.3779 198.303 41.3779 198.164C41.3779 198.019 41.369 197.906 41.3512 197.826C41.3364 197.744 41.3112 197.67 41.2757 197.604C41.2372 197.507 41.175 197.428 41.0891 197.369C41.0032 197.31 40.9011 197.28 40.7826 197.28C40.67 197.28 40.5723 197.311 40.4894 197.373C40.4094 197.433 40.3517 197.513 40.3161 197.613C40.2865 197.675 40.2643 197.747 40.2495 197.826C40.2376 197.906 40.2317 198.019 40.2317 198.164C40.2317 198.306 40.2376 198.417 40.2495 198.497C40.2643 198.574 40.285 198.644 40.3117 198.706C40.3502 198.81 40.4094 198.893 40.4894 198.955C40.5693 199.017 40.6686 199.048 40.787 199.048C40.9114 199.048 41.018 199.017 41.1069 198.955C41.1987 198.893 41.2624 198.808 41.2979 198.702ZM42.3814 199.288C42.3518 199.288 42.337 199.273 42.337 199.244V196.223C42.337 196.193 42.3518 196.178 42.3814 196.178H42.608C42.6376 196.178 42.6524 196.193 42.6524 196.223V199.244C42.6524 199.273 42.6376 199.288 42.608 199.288H42.3814ZM43.5741 196.631C43.503 196.631 43.4438 196.608 43.3964 196.56C43.349 196.513 43.3253 196.454 43.3253 196.383C43.3253 196.309 43.349 196.249 43.3964 196.205C43.4438 196.158 43.503 196.134 43.5741 196.134C43.6452 196.134 43.7044 196.158 43.7518 196.205C43.7992 196.249 43.8229 196.309 43.8229 196.383C43.8229 196.454 43.7992 196.513 43.7518 196.56C43.7044 196.608 43.6452 196.631 43.5741 196.631ZM43.4497 199.284C43.4201 199.284 43.4053 199.269 43.4053 199.239V197.08C43.4053 197.051 43.4201 197.036 43.4497 197.036H43.6763C43.7059 197.036 43.7207 197.051 43.7207 197.08V199.239C43.7207 199.269 43.7059 199.284 43.6763 199.284H43.4497ZM45.3417 199.324C45.1285 199.324 44.9449 199.269 44.7909 199.159C44.6398 199.047 44.5362 198.896 44.4799 198.706C44.4414 198.576 44.4221 198.392 44.4221 198.155C44.4221 197.942 44.4414 197.761 44.4799 197.613C44.5332 197.43 44.6368 197.283 44.7909 197.173C44.9449 197.061 45.1285 197.005 45.3417 197.005C45.5579 197.005 45.7445 197.059 45.9015 197.169C46.0614 197.279 46.1651 197.415 46.2125 197.578C46.2273 197.631 46.2362 197.675 46.2391 197.711V197.72C46.2391 197.741 46.2258 197.754 46.1991 197.76L45.977 197.791H45.9681C45.9474 197.791 45.9341 197.778 45.9281 197.751L45.9148 197.684C45.8882 197.572 45.823 197.477 45.7193 197.4C45.6157 197.32 45.4898 197.28 45.3417 197.28C45.1936 197.28 45.0693 197.32 44.9686 197.4C44.8708 197.477 44.8071 197.581 44.7775 197.711C44.7509 197.824 44.7375 197.973 44.7375 198.16C44.7375 198.355 44.7509 198.506 44.7775 198.613C44.8071 198.746 44.8708 198.853 44.9686 198.933C45.0693 199.01 45.1936 199.048 45.3417 199.048C45.4869 199.048 45.6112 199.011 45.7149 198.937C45.8215 198.86 45.8882 198.762 45.9148 198.644V198.626L45.9193 198.608C45.9222 198.579 45.94 198.567 45.9726 198.573L46.1903 198.608C46.2199 198.614 46.2332 198.631 46.2302 198.657L46.2125 198.746C46.168 198.918 46.0659 199.057 45.9059 199.164C45.746 199.27 45.5579 199.324 45.3417 199.324Z" fill="white"/>
<path d="M67.0004 193.006C67.0004 193.042 66.9824 193.06 66.9464 193.06H65.0368C65.0224 193.06 65.0152 193.067 65.0152 193.081V194.241C65.0152 194.256 65.0224 194.263 65.0368 194.263H66.3477C66.3836 194.263 66.4016 194.281 66.4016 194.317V194.657C66.4016 194.693 66.3836 194.71 66.3477 194.71H65.0368C65.0224 194.71 65.0152 194.718 65.0152 194.732V196.334C65.0152 196.37 64.9972 196.388 64.9613 196.388H64.5513C64.5153 196.388 64.4973 196.37 64.4973 196.334V192.666C64.4973 192.63 64.5153 192.612 64.5513 192.612H66.9464C66.9824 192.612 67.0004 192.63 67.0004 192.666V193.006ZM68.352 196.431C68.0859 196.431 67.8539 196.365 67.6561 196.232C67.4583 196.095 67.3199 195.906 67.2407 195.665C67.176 195.471 67.1436 195.252 67.1436 195.007C67.1436 194.752 67.1742 194.536 67.2353 194.36C67.3145 194.122 67.4529 193.937 67.6507 193.804C67.8485 193.668 68.0841 193.599 68.3574 193.599C68.6163 193.599 68.8411 193.668 69.0317 193.804C69.2259 193.937 69.3644 194.121 69.4471 194.354C69.5118 194.538 69.5442 194.754 69.5442 195.002C69.5442 195.254 69.5118 195.475 69.4471 195.665C69.368 195.906 69.2313 196.095 69.0371 196.232C68.8429 196.365 68.6145 196.431 68.352 196.431ZM68.352 195.984C68.4959 195.984 68.6217 195.944 68.7296 195.865C68.8375 195.782 68.9148 195.667 68.9616 195.52C69.0011 195.383 69.0209 195.214 69.0209 195.013C69.0209 194.811 69.0029 194.644 68.967 194.511C68.9202 194.363 68.8429 194.25 68.735 194.171C68.6271 194.088 68.4959 194.047 68.3412 194.047C68.1938 194.047 68.0661 194.088 67.9582 194.171C67.8503 194.25 67.773 194.363 67.7262 194.511C67.6867 194.637 67.6669 194.804 67.6669 195.013C67.6669 195.221 67.6867 195.39 67.7262 195.52C67.7694 195.667 67.8449 195.782 67.9528 195.865C68.0643 195.944 68.1974 195.984 68.352 195.984ZM70.2762 196.388C70.2402 196.388 70.2222 196.37 70.2222 196.334V192.666C70.2222 192.63 70.2402 192.612 70.2762 192.612H70.6861C70.7221 192.612 70.7401 192.63 70.7401 192.666V196.334C70.7401 196.37 70.7221 196.388 70.6861 196.388H70.2762ZM71.5458 196.388C71.5098 196.388 71.4918 196.37 71.4918 196.334V192.666C71.4918 192.63 71.5098 192.612 71.5458 192.612H71.9557C71.9917 192.612 72.0097 192.63 72.0097 192.666V196.334C72.0097 196.37 71.9917 196.388 71.9557 196.388H71.5458ZM73.8835 196.431C73.6173 196.431 73.3854 196.365 73.1876 196.232C72.9898 196.095 72.8513 195.906 72.7722 195.665C72.7075 195.471 72.6751 195.252 72.6751 195.007C72.6751 194.752 72.7057 194.536 72.7668 194.36C72.8459 194.122 72.9844 193.937 73.1822 193.804C73.38 193.668 73.6155 193.599 73.8889 193.599C74.1478 193.599 74.3726 193.668 74.5632 193.804C74.7574 193.937 74.8958 194.121 74.9786 194.354C75.0433 194.538 75.0757 194.754 75.0757 195.002C75.0757 195.254 75.0433 195.475 74.9786 195.665C74.8994 195.906 74.7628 196.095 74.5686 196.232C74.3744 196.365 74.146 196.431 73.8835 196.431ZM73.8835 195.984C74.0273 195.984 74.1532 195.944 74.2611 195.865C74.369 195.782 74.4463 195.667 74.493 195.52C74.5326 195.383 74.5524 195.214 74.5524 195.013C74.5524 194.811 74.5344 194.644 74.4984 194.511C74.4517 194.363 74.3744 194.25 74.2665 194.171C74.1586 194.088 74.0273 194.047 73.8727 194.047C73.7252 194.047 73.5976 194.088 73.4897 194.171C73.3818 194.25 73.3045 194.363 73.2577 194.511C73.2181 194.637 73.1984 194.804 73.1984 195.013C73.1984 195.221 73.2181 195.39 73.2577 195.52C73.3009 195.667 73.3764 195.782 73.4843 195.865C73.5958 195.944 73.7288 195.984 73.8835 195.984ZM76.2368 196.388C76.208 196.388 76.1883 196.374 76.1775 196.345L75.4007 193.702L75.3953 193.686C75.3953 193.657 75.4133 193.642 75.4492 193.642H75.87C75.9024 193.642 75.9221 193.659 75.9293 193.691L76.4418 195.649C76.4454 195.656 76.449 195.66 76.4526 195.66C76.4598 195.66 76.4652 195.656 76.4688 195.649L76.992 193.691C76.9992 193.659 77.019 193.642 77.0514 193.642H77.4236C77.456 193.642 77.4758 193.659 77.4829 193.691L78.017 195.644C78.0206 195.651 78.0242 195.655 78.0278 195.655C78.035 195.655 78.0404 195.651 78.044 195.644L78.578 193.691C78.5852 193.659 78.605 193.642 78.6374 193.642L79.0527 193.648C79.0707 193.648 79.0833 193.653 79.0905 193.664C79.1013 193.675 79.1049 193.689 79.1013 193.707L78.3191 196.345C78.3083 196.374 78.2885 196.388 78.2598 196.388H77.839C77.8102 196.388 77.7904 196.374 77.7796 196.345L77.251 194.522C77.2474 194.514 77.242 194.511 77.2348 194.511C77.2312 194.511 77.2276 194.514 77.224 194.522L76.7223 196.34C76.7151 196.372 76.6953 196.388 76.663 196.388H76.2368Z" fill="white"/>
<path d="M8.23992 210.01C8.20396 210.01 8.18598 209.992 8.18598 209.956V206.288C8.18598 206.252 8.20396 206.234 8.23992 206.234H8.51504C8.551 206.234 8.56899 206.252 8.56899 206.288V209.654C8.56899 209.668 8.57618 209.675 8.59056 209.675H10.4948C10.5308 209.675 10.5488 209.693 10.5488 209.729V209.956C10.5488 209.992 10.5308 210.01 10.4948 210.01H8.23992ZM12.2176 210.053C11.9587 210.053 11.7357 209.986 11.5487 209.853C11.3617 209.72 11.2322 209.537 11.1603 209.303C11.1099 209.138 11.0848 208.916 11.0848 208.64C11.0848 208.363 11.1099 208.143 11.1603 207.981C11.2286 207.751 11.3563 207.57 11.5433 207.437C11.7303 207.304 11.9569 207.237 12.223 207.237C12.4783 207.237 12.6977 207.304 12.8811 207.437C13.0681 207.57 13.1958 207.749 13.2641 207.976C13.3145 208.131 13.3397 208.352 13.3397 208.64C13.3397 208.931 13.3145 209.152 13.2641 209.303C13.1958 209.537 13.0681 209.72 12.8811 209.853C12.6977 209.986 12.4765 210.053 12.2176 210.053ZM12.2176 209.718C12.3902 209.718 12.5377 209.672 12.66 209.578C12.7822 209.481 12.8649 209.352 12.9081 209.19C12.9405 209.06 12.9566 208.879 12.9566 208.645C12.9566 208.408 12.9423 208.226 12.9135 208.1C12.8703 207.938 12.7858 207.811 12.66 207.717C12.5377 207.62 12.3884 207.571 12.2122 207.571C12.036 207.571 11.8867 207.62 11.7645 207.717C11.6422 207.811 11.5595 207.938 11.5163 208.1C11.4875 208.226 11.4732 208.408 11.4732 208.645C11.4732 208.882 11.4875 209.064 11.5163 209.19C11.5559 209.352 11.6368 209.481 11.7591 209.578C11.8849 209.672 12.0378 209.718 12.2176 209.718ZM15.2165 207.253C15.3352 207.253 15.4377 207.277 15.524 207.323C15.5528 207.338 15.5636 207.361 15.5564 207.393L15.497 207.658C15.4862 207.694 15.4629 207.705 15.4269 207.69C15.3658 207.665 15.2956 207.652 15.2165 207.652L15.1464 207.658C14.9594 207.665 14.8047 207.735 14.6825 207.868C14.5602 207.998 14.4991 208.163 14.4991 208.364V209.956C14.4991 209.992 14.4811 210.01 14.4451 210.01H14.17C14.134 210.01 14.116 209.992 14.116 209.956V207.334C14.116 207.298 14.134 207.28 14.17 207.28H14.4451C14.4811 207.28 14.4991 207.298 14.4991 207.334V207.663C14.4991 207.674 14.5009 207.681 14.5044 207.685C14.5116 207.685 14.517 207.681 14.5206 207.674C14.5962 207.541 14.6915 207.438 14.8065 207.366C14.9252 207.291 15.0619 207.253 15.2165 207.253ZM18.1478 208.186C18.1621 208.287 18.1693 208.413 18.1693 208.564V208.737C18.1693 208.773 18.1514 208.791 18.1154 208.791H16.373C16.3586 208.791 16.3514 208.798 16.3514 208.812C16.3586 209.01 16.3694 209.138 16.3838 209.195C16.4233 209.357 16.5078 209.485 16.6373 209.578C16.7668 209.672 16.9322 209.718 17.1336 209.718C17.2846 209.718 17.4177 209.684 17.5328 209.616C17.6479 209.548 17.7378 209.451 17.8025 209.325C17.8241 209.292 17.8493 209.285 17.878 209.303L18.0884 209.427C18.1172 209.445 18.1244 209.47 18.11 209.503C18.0201 209.675 17.8852 209.812 17.7054 209.913C17.5256 210.01 17.3188 210.058 17.085 210.058C16.8297 210.055 16.6157 209.994 16.4431 209.875C16.2705 209.756 16.1464 209.591 16.0709 209.379C16.0061 209.206 15.9738 208.958 15.9738 208.634C15.9738 208.483 15.9756 208.361 15.9792 208.267C15.9864 208.17 16.0007 208.084 16.0223 208.008C16.0835 207.775 16.2057 207.588 16.3892 207.447C16.5762 207.307 16.8009 207.237 17.0635 207.237C17.3907 207.237 17.6425 207.32 17.8187 207.485C17.9949 207.651 18.1046 207.884 18.1478 208.186ZM17.0635 207.571C16.8872 207.571 16.7398 207.618 16.6211 207.712C16.506 207.802 16.4305 207.924 16.3945 208.079C16.373 208.154 16.3586 208.276 16.3514 208.445C16.3514 208.46 16.3586 208.467 16.373 208.467H17.7701C17.7845 208.467 17.7917 208.46 17.7917 208.445C17.7845 208.284 17.7737 208.168 17.7594 208.1C17.7198 207.938 17.6389 207.811 17.5166 207.717C17.3979 207.62 17.2469 207.571 17.0635 207.571ZM21.693 207.242C21.9628 207.242 22.1749 207.323 22.3296 207.485C22.4878 207.647 22.5669 207.868 22.5669 208.149V209.956C22.5669 209.992 22.549 210.01 22.513 210.01H22.2433C22.2073 210.01 22.1893 209.992 22.1893 209.956V208.224C22.1893 208.026 22.1318 207.87 22.0167 207.755C21.9052 207.636 21.7578 207.577 21.5744 207.577C21.3838 207.577 21.2291 207.634 21.1104 207.749C20.9953 207.865 20.9378 208.019 20.9378 208.213V209.956C20.9378 209.992 20.9198 210.01 20.8839 210.01H20.6087C20.5728 210.01 20.5548 209.992 20.5548 209.956V208.224C20.5548 208.026 20.4991 207.87 20.3876 207.755C20.2761 207.636 20.1268 207.577 19.9398 207.577C19.7492 207.577 19.5964 207.634 19.4813 207.749C19.3698 207.865 19.3141 208.019 19.3141 208.213V209.956C19.3141 209.992 19.2961 210.01 19.2601 210.01H18.985C18.949 210.01 18.9311 209.992 18.9311 209.956V207.334C18.9311 207.298 18.949 207.28 18.985 207.28H19.2601C19.2961 207.28 19.3141 207.298 19.3141 207.334V207.55C19.3141 207.557 19.3159 207.562 19.3195 207.566C19.3266 207.566 19.3338 207.562 19.341 207.555C19.4202 207.451 19.5209 207.374 19.6431 207.323C19.769 207.269 19.9075 207.242 20.0585 207.242C20.2455 207.242 20.4055 207.28 20.5386 207.356C20.6717 207.431 20.7724 207.541 20.8407 207.685C20.8479 207.703 20.8569 207.703 20.8677 207.685C20.9468 207.537 21.0583 207.428 21.2021 207.356C21.346 207.28 21.5096 207.242 21.693 207.242ZM24.6025 210.01C24.5666 210.01 24.5486 209.992 24.5486 209.956V206.288C24.5486 206.252 24.5666 206.234 24.6025 206.234H24.8776C24.9136 206.234 24.9316 206.252 24.9316 206.288V209.956C24.9316 209.992 24.9136 210.01 24.8776 210.01H24.6025ZM27.9891 207.96C28.0431 208.132 28.07 208.361 28.07 208.645C28.07 208.933 28.0467 209.156 27.9999 209.314C27.9352 209.544 27.8165 209.726 27.6439 209.859C27.4749 209.988 27.2609 210.053 27.0019 210.053C26.8617 210.053 26.7322 210.026 26.6135 209.972C26.4949 209.914 26.396 209.834 26.3168 209.729C26.3096 209.722 26.3024 209.72 26.2953 209.724C26.2917 209.724 26.2899 209.727 26.2899 209.735V211.002C26.2899 211.038 26.2719 211.056 26.2359 211.056H25.9608C25.9248 211.056 25.9069 211.038 25.9069 211.002V207.334C25.9069 207.298 25.9248 207.28 25.9608 207.28H26.2359C26.2719 207.28 26.2899 207.298 26.2899 207.334V207.561C26.2899 207.568 26.2917 207.573 26.2953 207.577C26.3024 207.577 26.3096 207.573 26.3168 207.566C26.396 207.462 26.4931 207.381 26.6081 207.323C26.7268 207.266 26.8581 207.237 27.0019 207.237C27.2537 207.237 27.4641 207.302 27.6331 207.431C27.8057 207.561 27.9244 207.737 27.9891 207.96ZM27.563 209.325C27.6025 209.246 27.6313 209.157 27.6493 209.06C27.6709 208.96 27.6816 208.821 27.6816 208.645C27.6816 208.476 27.6744 208.345 27.6601 208.251C27.6457 208.154 27.6205 208.068 27.5845 207.992C27.5414 207.863 27.4641 207.76 27.3526 207.685C27.2447 207.609 27.1152 207.571 26.9642 207.571C26.8203 207.571 26.6998 207.609 26.6027 207.685C26.5056 207.76 26.4337 207.861 26.387 207.987C26.3546 208.059 26.3312 208.143 26.3168 208.24C26.3024 208.337 26.2953 208.472 26.2953 208.645C26.2953 208.818 26.3024 208.954 26.3168 209.055C26.3312 209.152 26.3564 209.238 26.3924 209.314C26.4355 209.436 26.5056 209.535 26.6027 209.611C26.7034 209.682 26.8221 209.718 26.9588 209.718C27.1026 209.718 27.2267 209.682 27.331 209.611C27.4389 209.539 27.5162 209.443 27.563 209.325ZM29.741 210.037C29.5396 210.037 29.3598 210.004 29.2016 209.94C29.0469 209.875 28.9265 209.789 28.8402 209.681C28.7574 209.573 28.7161 209.452 28.7161 209.319V209.255C28.7161 209.219 28.7341 209.201 28.77 209.201H29.029C29.0649 209.201 29.0829 209.219 29.0829 209.255V209.298C29.0829 209.416 29.144 209.521 29.2663 209.611C29.3922 209.697 29.5486 209.74 29.7356 209.74C29.9226 209.74 30.0737 209.699 30.1888 209.616C30.3039 209.53 30.3614 209.422 30.3614 209.292C30.3614 209.202 30.3308 209.129 30.2697 209.071C30.2122 209.014 30.142 208.969 30.0593 208.936C29.9802 208.904 29.8561 208.863 29.6871 208.812C29.4857 208.755 29.3203 208.697 29.1908 208.64C29.0613 208.582 28.9516 208.503 28.8617 208.402C28.7754 208.298 28.7323 208.167 28.7323 208.008C28.7323 207.778 28.8222 207.595 29.002 207.458C29.1818 207.322 29.4192 207.253 29.7141 207.253C29.9119 207.253 30.0863 207.286 30.2373 207.35C30.392 207.415 30.5106 207.505 30.5934 207.62C30.6761 207.731 30.7174 207.857 30.7174 207.998V208.014C30.7174 208.05 30.6995 208.068 30.6635 208.068H30.4099C30.374 208.068 30.356 208.05 30.356 208.014V207.998C30.356 207.875 30.2967 207.773 30.178 207.69C30.0629 207.607 29.9065 207.566 29.7087 207.566C29.5253 207.566 29.3778 207.604 29.2663 207.679C29.1548 207.751 29.0991 207.852 29.0991 207.981C29.0991 208.104 29.153 208.197 29.2609 208.262C29.3688 208.327 29.536 208.391 29.7626 208.456C29.9712 208.517 30.1402 208.575 30.2697 208.629C30.3992 208.683 30.5106 208.762 30.6042 208.866C30.6977 208.967 30.7444 209.1 30.7444 209.265C30.7444 209.499 30.6527 209.686 30.4693 209.826C30.2859 209.967 30.0431 210.037 29.741 210.037ZM33.0934 207.334C33.0934 207.298 33.1114 207.28 33.1474 207.28H33.4225C33.4584 207.28 33.4764 207.298 33.4764 207.334V209.956C33.4764 209.992 33.4584 210.01 33.4225 210.01H33.1474C33.1114 210.01 33.0934 209.992 33.0934 209.956V209.724C33.0934 209.717 33.0898 209.711 33.0826 209.708C33.0754 209.704 33.07 209.706 33.0664 209.713C32.9154 209.936 32.6762 210.048 32.349 210.048C32.1764 210.048 32.0163 210.013 31.8689 209.945C31.725 209.873 31.6099 209.771 31.5236 209.638C31.4409 209.504 31.3995 209.344 31.3995 209.157V207.334C31.3995 207.298 31.4175 207.28 31.4535 207.28H31.7286C31.7646 207.28 31.7826 207.298 31.7826 207.334V209.044C31.7826 209.249 31.8401 209.413 31.9552 209.535C32.0703 209.654 32.2267 209.713 32.4245 209.713C32.6295 209.713 32.7913 209.652 32.91 209.53C33.0323 209.407 33.0934 209.246 33.0934 209.044V207.334ZM37.0968 207.242C37.3666 207.242 37.5788 207.323 37.7334 207.485C37.8916 207.647 37.9708 207.868 37.9708 208.149V209.956C37.9708 209.992 37.9528 210.01 37.9168 210.01H37.6471C37.6111 210.01 37.5931 209.992 37.5931 209.956V208.224C37.5931 208.026 37.5356 207.87 37.4205 207.755C37.309 207.636 37.1616 207.577 36.9782 207.577C36.7876 207.577 36.6329 207.634 36.5142 207.749C36.3992 207.865 36.3416 208.019 36.3416 208.213V209.956C36.3416 209.992 36.3236 210.01 36.2877 210.01H36.0126C35.9766 210.01 35.9586 209.992 35.9586 209.956V208.224C35.9586 208.026 35.9029 207.87 35.7914 207.755C35.6799 207.636 35.5306 207.577 35.3436 207.577C35.153 207.577 35.0002 207.634 34.8851 207.749C34.7736 207.865 34.7179 208.019 34.7179 208.213V209.956C34.7179 209.992 34.6999 210.01 34.6639 210.01H34.3888C34.3528 210.01 34.3349 209.992 34.3349 209.956V207.334C34.3349 207.298 34.3528 207.28 34.3888 207.28H34.6639C34.6999 207.28 34.7179 207.298 34.7179 207.334V207.55C34.7179 207.557 34.7197 207.562 34.7233 207.566C34.7305 207.566 34.7377 207.562 34.7448 207.555C34.824 207.451 34.9247 207.374 35.0469 207.323C35.1728 207.269 35.3113 207.242 35.4623 207.242C35.6493 207.242 35.8094 207.28 35.9424 207.356C36.0755 207.431 36.1762 207.541 36.2445 207.685C36.2517 207.703 36.2607 207.703 36.2715 207.685C36.3506 207.537 36.4621 207.428 36.6059 207.356C36.7498 207.28 36.9134 207.242 37.0968 207.242Z" fill="white"/>
<rect x="7.67889" y="213.606" width="61.3808" height="15.032" rx="7.51602" fill="#5B5B5B"/>
<rect x="10.1842" y="216.111" width="10.0214" height="10.0214" rx="5.01068" fill="white"/>
<rect x="16.4475" y="220.496" width="6.26335" height="6.26335" rx="3.13167" fill="#5B5B5B"/>
<path d="M18.3861 223.031V224.224M18.9825 222.434V225.118M19.5789 223.329V223.925M20.1753 222.733V224.764M20.7718 221.838V225.416" stroke="#FAFAFA" stroke-width="0.313167" stroke-linecap="round" stroke-linejoin="round"/>
<path d="M27.2267 220.261C27.2392 220.246 27.2543 220.239 27.2718 220.239H27.5574C27.5825 220.239 27.595 220.251 27.595 220.276V222.832C27.595 222.857 27.5825 222.869 27.5574 222.869H27.2718C27.2468 222.869 27.2342 222.857 27.2342 222.832V220.907C27.2342 220.9 27.2317 220.895 27.2267 220.892C27.2217 220.89 27.218 220.892 27.2154 220.9L26.6781 221.719C26.668 221.734 26.653 221.742 26.633 221.742H26.4902C26.4726 221.742 26.4576 221.734 26.4451 221.719L25.9039 220.907C25.9014 220.9 25.8976 220.897 25.8926 220.9C25.8876 220.902 25.8851 220.907 25.8851 220.915V222.832C25.8851 222.857 25.8726 222.869 25.8475 222.869H25.5619C25.5369 222.869 25.5243 222.857 25.5243 222.832V220.276C25.5243 220.251 25.5369 220.239 25.5619 220.239H25.8475C25.8676 220.239 25.8826 220.246 25.8926 220.261L26.5503 221.246C26.5528 221.248 26.5565 221.249 26.5616 221.249C26.5666 221.249 26.5703 221.248 26.5728 221.246L27.2267 220.261ZM28.3836 220.656C28.3135 220.656 28.2558 220.633 28.2107 220.588C28.1656 220.543 28.1431 220.485 28.1431 220.415C28.1431 220.345 28.1656 220.287 28.2107 220.242C28.2558 220.197 28.3135 220.175 28.3836 220.175C28.4538 220.175 28.5114 220.197 28.5565 220.242C28.6016 220.287 28.6241 220.345 28.6241 220.415C28.6241 220.485 28.6016 220.543 28.5565 220.588C28.5114 220.633 28.4538 220.656 28.3836 220.656ZM28.2333 222.865C28.2082 222.865 28.1957 222.853 28.1957 222.828V220.994C28.1957 220.969 28.2082 220.956 28.2333 220.956H28.5189C28.5439 220.956 28.5565 220.969 28.5565 220.994V222.828C28.5565 222.853 28.5439 222.865 28.5189 222.865H28.2333ZM29.1611 222.869C29.136 222.869 29.1235 222.857 29.1235 222.832V220.276C29.1235 220.251 29.136 220.239 29.1611 220.239H29.4467C29.4717 220.239 29.4843 220.251 29.4843 220.276V222.832C29.4843 222.857 29.4717 222.869 29.4467 222.869H29.1611ZM31.5562 221.674C31.5663 221.777 31.57 221.892 31.5675 222.02C31.5675 222.045 31.555 222.057 31.5299 222.057H30.3311C30.3211 222.057 30.3161 222.062 30.3161 222.072C30.3161 222.158 30.3236 222.223 30.3386 222.268C30.3662 222.368 30.4213 222.447 30.504 222.505C30.5892 222.56 30.6957 222.587 30.8234 222.587C31.0088 222.587 31.1516 222.511 31.2518 222.358C31.2644 222.333 31.2807 222.329 31.3007 222.347L31.5149 222.49C31.5324 222.505 31.5362 222.521 31.5262 222.538C31.456 222.651 31.3558 222.74 31.2255 222.805C31.0978 222.87 30.9525 222.903 30.7896 222.903C30.6067 222.903 30.4526 222.863 30.3274 222.783C30.2021 222.703 30.1082 222.589 30.0455 222.441C29.9854 222.293 29.9553 222.114 29.9553 221.903C29.9553 221.72 29.9691 221.581 29.9967 221.486C30.0418 221.313 30.132 221.177 30.2672 221.077C30.4025 220.976 30.5666 220.926 30.7595 220.926C31.0126 220.926 31.2017 220.99 31.327 221.118C31.4523 221.243 31.5287 221.429 31.5562 221.674ZM30.7595 221.238C30.6518 221.238 30.5629 221.266 30.4927 221.321C30.4226 221.373 30.375 221.445 30.3499 221.535C30.3324 221.59 30.3211 221.66 30.3161 221.745C30.3161 221.756 30.3211 221.761 30.3311 221.761H31.1917C31.2017 221.761 31.2067 221.756 31.2067 221.745C31.2017 221.663 31.1942 221.601 31.1842 221.561C31.1591 221.464 31.109 221.386 31.0339 221.328C30.9612 221.268 30.8698 221.238 30.7595 221.238ZM31.9003 223.617C31.8828 223.617 31.874 223.604 31.874 223.579V223.358C31.874 223.333 31.8865 223.32 31.9116 223.32H31.9191C32.0193 223.318 32.0982 223.305 32.1559 223.283C32.2135 223.26 32.2611 223.217 32.2987 223.155C32.3362 223.095 32.3726 223.003 32.4076 222.88C32.4101 222.878 32.4101 222.874 32.4076 222.869C32.4076 222.862 32.4076 222.858 32.4076 222.858L31.7801 220.998L31.7763 220.983C31.7763 220.965 31.7876 220.956 31.8101 220.956H32.1145C32.1371 220.956 32.1521 220.966 32.1596 220.986L32.5843 222.403C32.5868 222.408 32.5905 222.411 32.5955 222.411C32.6005 222.411 32.6043 222.408 32.6068 222.403L33.0277 220.986C33.0352 220.966 33.0503 220.956 33.0728 220.956H33.3697C33.3972 220.956 33.4073 220.97 33.3998 220.998L32.7158 223.001C32.6582 223.174 32.6005 223.301 32.5429 223.384C32.4853 223.469 32.4101 223.529 32.3174 223.564C32.2247 223.599 32.0945 223.617 31.9266 223.617H31.9003ZM35.3869 222.903C35.2065 222.903 35.0462 222.868 34.9059 222.798C34.7681 222.725 34.6604 222.624 34.5827 222.493C34.5075 222.361 34.47 222.209 34.47 222.039V221.065C34.47 220.895 34.5075 220.746 34.5827 220.618C34.6604 220.488 34.7681 220.388 34.9059 220.317C35.0462 220.245 35.2065 220.208 35.3869 220.208C35.5673 220.208 35.7264 220.244 35.8642 220.314C36.002 220.381 36.1085 220.478 36.1836 220.603C36.2613 220.728 36.3001 220.874 36.3001 221.039V221.043C36.3001 221.055 36.2964 221.065 36.2888 221.073C36.2813 221.08 36.2726 221.084 36.2625 221.084L35.9769 221.099C35.9519 221.099 35.9393 221.088 35.9393 221.065V221.054C35.9393 220.894 35.8892 220.765 35.789 220.667C35.6888 220.569 35.5548 220.52 35.3869 220.52C35.2191 220.52 35.0838 220.569 34.9811 220.667C34.8808 220.765 34.8307 220.894 34.8307 221.054V222.054C34.8307 222.214 34.8808 222.343 34.9811 222.441C35.0838 222.538 35.2191 222.587 35.3869 222.587C35.5548 222.587 35.6888 222.538 35.789 222.441C35.8892 222.343 35.9393 222.214 35.9393 222.054V222.046C35.9393 222.024 35.9519 222.012 35.9769 222.012L36.2625 222.027C36.2876 222.027 36.3001 222.04 36.3001 222.065C36.3001 222.23 36.2613 222.377 36.1836 222.505C36.1085 222.63 36.002 222.728 35.8642 222.798C35.7264 222.868 35.5673 222.903 35.3869 222.903ZM36.7226 223.617C36.7051 223.617 36.6963 223.604 36.6963 223.579V223.358C36.6963 223.333 36.7088 223.32 36.7339 223.32H36.7414C36.8416 223.318 36.9205 223.305 36.9781 223.283C37.0358 223.26 37.0834 223.217 37.1209 223.155C37.1585 223.095 37.1949 223.003 37.2299 222.88C37.2324 222.878 37.2324 222.874 37.2299 222.869C37.2299 222.862 37.2299 222.858 37.2299 222.858L36.6023 220.998L36.5986 220.983C36.5986 220.965 36.6099 220.956 36.6324 220.956H36.9368C36.9594 220.956 36.9744 220.966 36.9819 220.986L37.4066 222.403C37.4091 222.408 37.4128 222.411 37.4178 222.411C37.4228 222.411 37.4266 222.408 37.4291 222.403L37.85 220.986C37.8575 220.966 37.8725 220.956 37.8951 220.956H38.192C38.2195 220.956 38.2296 220.97 38.222 220.998L37.5381 223.001C37.4805 223.174 37.4228 223.301 37.3652 223.384C37.3076 223.469 37.2324 223.529 37.1397 223.564C37.047 223.599 36.9168 223.617 36.7489 223.617H36.7226ZM39.4043 220.938C39.4844 220.938 39.5571 220.954 39.6222 220.986C39.6398 220.994 39.646 221.009 39.641 221.031L39.5809 221.313C39.5784 221.336 39.5633 221.343 39.5358 221.336C39.4932 221.318 39.4431 221.31 39.3855 221.31L39.3329 221.313C39.2151 221.318 39.1174 221.36 39.0397 221.437C38.9646 221.512 38.927 221.611 38.927 221.734V222.832C38.927 222.857 38.9145 222.869 38.8894 222.869H38.6038C38.5787 222.869 38.5662 222.857 38.5662 222.832V220.994C38.5662 220.969 38.5787 220.956 38.6038 220.956H38.8894C38.9145 220.956 38.927 220.969 38.927 220.994V221.193C38.927 221.201 38.9282 221.206 38.9308 221.208C38.9358 221.208 38.9395 221.206 38.942 221.201C39.0548 221.025 39.2088 220.938 39.4043 220.938ZM41.0995 220.994C41.0995 220.969 41.112 220.956 41.1371 220.956H41.4189C41.444 220.956 41.4565 220.969 41.4565 220.994V222.832C41.4565 222.857 41.444 222.869 41.4189 222.869H41.1371C41.112 222.869 41.0995 222.857 41.0995 222.832V222.693C41.0995 222.688 41.097 222.685 41.092 222.685C41.0895 222.682 41.0857 222.684 41.0807 222.689C40.9805 222.827 40.8264 222.895 40.6184 222.895C40.4957 222.895 40.3817 222.872 40.2765 222.824C40.1738 222.776 40.0911 222.706 40.0284 222.614C39.9658 222.521 39.9345 222.408 39.9345 222.275V220.994C39.9345 220.969 39.947 220.956 39.9721 220.956H40.2539C40.279 220.956 40.2915 220.969 40.2915 220.994V222.163C40.2915 222.293 40.3253 222.396 40.393 222.471C40.4631 222.546 40.5608 222.584 40.6861 222.584C40.8114 222.584 40.9116 222.546 40.9867 222.471C41.0619 222.393 41.0995 222.29 41.0995 222.163V220.994ZM42.6556 222.892C42.5053 222.892 42.3725 222.869 42.2573 222.824C42.1445 222.779 42.0568 222.718 41.9942 222.64C41.9316 222.56 41.9003 222.472 41.9003 222.377V222.336C41.9003 222.31 41.9128 222.298 41.9378 222.298H42.2084C42.2335 222.298 42.246 222.31 42.246 222.336V222.354C42.246 222.424 42.2836 222.486 42.3587 222.538C42.4364 222.591 42.5341 222.617 42.6519 222.617C42.7646 222.617 42.856 222.594 42.9262 222.546C42.9963 222.496 43.0314 222.433 43.0314 222.358C43.0314 222.285 42.9988 222.232 42.9337 222.196C42.8686 222.159 42.7633 222.12 42.618 222.08C42.4752 222.04 42.355 222 42.2573 221.96C42.1621 221.917 42.0806 221.858 42.013 221.783C41.9479 221.705 41.9153 221.606 41.9153 221.486C41.9153 221.318 41.9804 221.186 42.1107 221.088C42.2435 220.988 42.4189 220.938 42.6368 220.938C42.7821 220.938 42.9099 220.961 43.0201 221.009C43.1329 221.054 43.2193 221.118 43.2794 221.201C43.3396 221.283 43.3696 221.376 43.3696 221.479V221.49C43.3696 221.515 43.3571 221.528 43.3321 221.528H43.069C43.0439 221.528 43.0314 221.515 43.0314 221.49V221.479C43.0314 221.406 42.9951 221.346 42.9224 221.298C42.8523 221.248 42.7558 221.223 42.6331 221.223C42.5228 221.223 42.4326 221.244 42.3625 221.287C42.2948 221.33 42.261 221.387 42.261 221.46C42.261 221.533 42.2936 221.588 42.3587 221.625C42.4264 221.663 42.5341 221.703 42.6819 221.745C42.8272 221.786 42.9475 221.826 43.0427 221.866C43.1404 221.903 43.2231 221.961 43.2907 222.039C43.3584 222.114 43.3922 222.213 43.3922 222.336C43.3922 222.506 43.3245 222.641 43.1893 222.741C43.0565 222.842 42.8786 222.892 42.6556 222.892ZM44.0585 222.869C43.9883 222.869 43.9307 222.847 43.8856 222.801C43.8405 222.756 43.818 222.699 43.818 222.629C43.818 222.558 43.8405 222.501 43.8856 222.456C43.9307 222.411 43.9883 222.388 44.0585 222.388C44.1286 222.388 44.1863 222.411 44.2314 222.456C44.2765 222.501 44.299 222.558 44.299 222.629C44.299 222.699 44.2765 222.756 44.2314 222.801C44.1863 222.847 44.1286 222.869 44.0585 222.869ZM47.349 220.261C47.3615 220.246 47.3765 220.239 47.3941 220.239H47.6797C47.7047 220.239 47.7172 220.251 47.7172 220.276V222.832C47.7172 222.857 47.7047 222.869 47.6797 222.869H47.3941C47.369 222.869 47.3565 222.857 47.3565 222.832V220.907C47.3565 220.9 47.354 220.895 47.349 220.892C47.3439 220.89 47.3402 220.892 47.3377 220.9L46.8003 221.719C46.7903 221.734 46.7752 221.742 46.7552 221.742H46.6124C46.5948 221.742 46.5798 221.734 46.5673 221.719L46.0261 220.907C46.0236 220.9 46.0199 220.897 46.0149 220.9C46.0099 220.902 46.0073 220.907 46.0073 220.915V222.832C46.0073 222.857 45.9948 222.869 45.9698 222.869H45.6842C45.6591 222.869 45.6466 222.857 45.6466 222.832V220.276C45.6466 220.251 45.6591 220.239 45.6842 220.239H45.9698C45.9898 220.239 46.0048 220.246 46.0149 220.261L46.6725 221.246C46.675 221.248 46.6788 221.249 46.6838 221.249C46.6888 221.249 46.6926 221.248 46.6951 221.246L47.349 220.261ZM48.5058 220.656C48.4357 220.656 48.3781 220.633 48.333 220.588C48.2879 220.543 48.2653 220.485 48.2653 220.415C48.2653 220.345 48.2879 220.287 48.333 220.242C48.3781 220.197 48.4357 220.175 48.5058 220.175C48.576 220.175 48.6336 220.197 48.6787 220.242C48.7238 220.287 48.7463 220.345 48.7463 220.415C48.7463 220.485 48.7238 220.543 48.6787 220.588C48.6336 220.633 48.576 220.656 48.5058 220.656ZM48.3555 222.865C48.3305 222.865 48.3179 222.853 48.3179 222.828V220.994C48.3179 220.969 48.3305 220.956 48.3555 220.956H48.6411C48.6662 220.956 48.6787 220.969 48.6787 220.994V222.828C48.6787 222.853 48.6662 222.865 48.6411 222.865H48.3555ZM50.4333 220.276C50.4333 220.251 50.4458 220.239 50.4708 220.239H50.7564C50.7815 220.239 50.794 220.251 50.794 220.276V222.832C50.794 222.857 50.7815 222.869 50.7564 222.869H50.4708C50.4458 222.869 50.4333 222.857 50.4333 222.832V222.708C50.4333 222.703 50.4308 222.699 50.4257 222.696C50.4232 222.694 50.4195 222.695 50.4145 222.7C50.3593 222.763 50.2942 222.812 50.219 222.847C50.1439 222.882 50.0625 222.899 49.9748 222.899C49.7944 222.899 49.6441 222.855 49.5238 222.768C49.4061 222.677 49.3196 222.551 49.2645 222.388C49.2169 222.255 49.1931 222.095 49.1931 221.907C49.1931 221.732 49.2132 221.58 49.2532 221.452C49.3059 221.287 49.3923 221.158 49.5125 221.065C49.6328 220.973 49.7869 220.926 49.9748 220.926C50.06 220.926 50.1401 220.944 50.2153 220.979C50.293 221.011 50.3593 221.059 50.4145 221.122C50.4195 221.127 50.4232 221.128 50.4257 221.125C50.4308 221.123 50.4333 221.119 50.4333 221.114V220.276ZM50.3393 222.384C50.3969 222.279 50.4257 222.121 50.4257 221.911C50.4257 221.7 50.3944 221.54 50.3318 221.43C50.2591 221.302 50.1527 221.238 50.0124 221.238C49.862 221.238 49.7506 221.298 49.6779 221.419C49.5977 221.544 49.5576 221.709 49.5576 221.915C49.5576 222.108 49.589 222.263 49.6516 222.381C49.7242 222.518 49.8432 222.587 50.0086 222.587C50.1539 222.587 50.2641 222.52 50.3393 222.384ZM52.176 220.93C52.3814 220.93 52.5443 220.99 52.6645 221.11C52.7848 221.228 52.8449 221.388 52.8449 221.591V222.832C52.8449 222.857 52.8324 222.869 52.8073 222.869H52.5217C52.4967 222.869 52.4841 222.857 52.4841 222.832V221.663C52.4841 221.538 52.4478 221.436 52.3751 221.358C52.3025 221.281 52.206 221.242 52.0858 221.242C51.968 221.242 51.8716 221.281 51.7964 221.358C51.7213 221.436 51.6837 221.536 51.6837 221.659V222.832C51.6837 222.857 51.6711 222.869 51.6461 222.869H51.3605C51.3354 222.869 51.3229 222.857 51.3229 222.832V220.994C51.3229 220.969 51.3354 220.956 51.3605 220.956H51.6461C51.6711 220.956 51.6837 220.969 51.6837 220.994V221.129C51.6837 221.134 51.6849 221.138 51.6874 221.14C51.6924 221.143 51.6962 221.142 51.6987 221.137C51.8064 220.999 51.9655 220.93 52.176 220.93ZM53.5777 220.656C53.5075 220.656 53.4499 220.633 53.4048 220.588C53.3597 220.543 53.3372 220.485 53.3372 220.415C53.3372 220.345 53.3597 220.287 53.4048 220.242C53.4499 220.197 53.5075 220.175 53.5777 220.175C53.6478 220.175 53.7055 220.197 53.7506 220.242C53.7956 220.287 53.8182 220.345 53.8182 220.415C53.8182 220.485 53.7956 220.543 53.7506 220.588C53.7055 220.633 53.6478 220.656 53.5777 220.656ZM53.4274 222.865C53.4023 222.865 53.3898 222.853 53.3898 222.828V220.994C53.3898 220.969 53.4023 220.956 53.4274 220.956H53.713C53.738 220.956 53.7506 220.969 53.7506 220.994V222.828C53.7506 222.853 53.738 222.865 53.713 222.865H53.4274ZM55.4938 220.994C55.4938 220.969 55.5064 220.956 55.5314 220.956H55.817C55.8421 220.956 55.8546 220.969 55.8546 220.994V222.771C55.8546 223.075 55.7682 223.291 55.5953 223.422C55.4249 223.552 55.1957 223.617 54.9076 223.617C54.8675 223.617 54.8049 223.614 54.7197 223.609C54.6946 223.607 54.6821 223.593 54.6821 223.568L54.6934 223.309C54.6934 223.299 54.6971 223.29 54.7046 223.283C54.7122 223.275 54.7222 223.273 54.7347 223.275C54.7698 223.278 54.8211 223.279 54.8888 223.279C55.1017 223.279 55.2558 223.239 55.351 223.159C55.4462 223.081 55.4938 222.948 55.4938 222.76V222.693C55.4938 222.688 55.4913 222.684 55.4863 222.681C55.4838 222.679 55.48 222.68 55.475 222.685C55.3698 222.808 55.2157 222.869 55.0128 222.869C54.85 222.869 54.7021 222.827 54.5694 222.741C54.4391 222.656 54.3489 222.531 54.2988 222.366C54.2662 222.255 54.2499 222.103 54.2499 221.907C54.2499 221.699 54.2687 221.539 54.3063 221.426C54.3539 221.276 54.4378 221.155 54.5581 221.065C54.6808 220.973 54.8249 220.926 54.9903 220.926C55.1957 220.926 55.3573 220.989 55.475 221.114C55.48 221.119 55.4838 221.122 55.4863 221.122C55.4913 221.119 55.4938 221.115 55.4938 221.11V220.994ZM55.4713 222.257C55.4788 222.216 55.4838 222.174 55.4863 222.129C55.4913 222.084 55.4938 222.009 55.4938 221.903C55.4938 221.798 55.4913 221.724 55.4863 221.682C55.4838 221.637 55.4775 221.594 55.4675 221.554C55.4475 221.461 55.4024 221.386 55.3322 221.328C55.2621 221.268 55.1744 221.238 55.0692 221.238C54.9639 221.238 54.8763 221.268 54.8061 221.328C54.736 221.386 54.6859 221.461 54.6558 221.554C54.6282 221.629 54.6145 221.745 54.6145 221.903C54.6145 222.076 54.627 222.194 54.652 222.257C54.6771 222.349 54.7259 222.426 54.7986 222.486C54.8738 222.543 54.9639 222.572 55.0692 222.572C55.1794 222.572 55.2683 222.543 55.336 222.486C55.4061 222.426 55.4512 222.349 55.4713 222.257ZM57.2111 220.93C57.4166 220.93 57.5794 220.99 57.6997 221.11C57.8199 221.228 57.88 221.388 57.88 221.591V222.832C57.88 222.857 57.8675 222.869 57.8425 222.869H57.5569C57.5318 222.869 57.5193 222.857 57.5193 222.832V221.663C57.5193 221.538 57.483 221.436 57.4103 221.358C57.3376 221.281 57.2412 221.242 57.1209 221.242C57.0032 221.242 56.9067 221.281 56.8316 221.358C56.7564 221.436 56.7188 221.536 56.7188 221.659V222.832C56.7188 222.857 56.7063 222.869 56.6812 222.869H56.3956C56.3706 222.869 56.3581 222.857 56.3581 222.832V220.276C56.3581 220.251 56.3706 220.239 56.3956 220.239H56.6812C56.7063 220.239 56.7188 220.251 56.7188 220.276V221.129C56.7188 221.134 56.7201 221.138 56.7226 221.14C56.7276 221.143 56.7313 221.142 56.7339 221.137C56.8416 220.999 57.0007 220.93 57.2111 220.93ZM59.3381 221.216C59.3381 221.241 59.3256 221.253 59.3005 221.253H58.8947C58.8847 221.253 58.8796 221.258 58.8796 221.268V222.264C58.8796 222.369 58.9034 222.446 58.951 222.493C58.9986 222.538 59.0726 222.561 59.1728 222.561H59.2818C59.3068 222.561 59.3193 222.574 59.3193 222.599V222.832C59.3193 222.857 59.3068 222.869 59.2818 222.869C59.2016 222.874 59.144 222.877 59.1089 222.877C58.9185 222.877 58.7744 222.843 58.6767 222.775C58.5815 222.705 58.5339 222.577 58.5339 222.392V221.268C58.5339 221.258 58.5289 221.253 58.5189 221.253H58.2896C58.2646 221.253 58.2521 221.241 58.2521 221.216V220.994C58.2521 220.969 58.2646 220.956 58.2896 220.956H58.5189C58.5289 220.956 58.5339 220.951 58.5339 220.941V220.498C58.5339 220.473 58.5464 220.46 58.5715 220.46H58.8421C58.8671 220.46 58.8796 220.473 58.8796 220.498V220.941C58.8796 220.951 58.8847 220.956 58.8947 220.956H59.3005C59.3256 220.956 59.3381 220.969 59.3381 220.994V221.216ZM61.3913 222.899C61.1983 222.899 61.0305 222.869 60.8877 222.809C60.7474 222.749 60.6384 222.664 60.5607 222.553C60.4856 222.443 60.448 222.314 60.448 222.166V222.057C60.448 222.032 60.4605 222.02 60.4856 222.02H60.7599C60.785 222.02 60.7975 222.032 60.7975 222.057V222.148C60.7975 222.275 60.8526 222.381 60.9628 222.463C61.0731 222.546 61.2247 222.587 61.4176 222.587C61.5904 222.587 61.7207 222.551 61.8084 222.478C61.8961 222.406 61.9399 222.31 61.9399 222.193C61.9399 222.115 61.9174 222.049 61.8723 221.994C61.8272 221.938 61.7608 221.888 61.6731 221.843C61.5879 221.796 61.4627 221.739 61.2973 221.674C61.1144 221.604 60.9691 221.54 60.8614 221.482C60.7562 221.425 60.6685 221.35 60.5983 221.257C60.5282 221.162 60.4931 221.043 60.4931 220.9C60.4931 220.684 60.5695 220.515 60.7223 220.393C60.8777 220.27 61.0869 220.208 61.3499 220.208C61.5353 220.208 61.6982 220.24 61.8385 220.302C61.9788 220.365 62.0865 220.453 62.1617 220.565C62.2393 220.678 62.2782 220.808 62.2782 220.956V221.031C62.2782 221.057 62.2656 221.069 62.2406 221.069H61.9587C61.9337 221.069 61.9211 221.057 61.9211 221.031V220.975C61.9211 220.845 61.8685 220.737 61.7633 220.652C61.6606 220.564 61.5178 220.52 61.3349 220.52C61.1796 220.52 61.0593 220.553 60.9741 220.618C60.8889 220.681 60.8463 220.772 60.8463 220.892C60.8463 220.975 60.8676 221.043 60.9102 221.095C60.9528 221.148 61.0155 221.196 61.0981 221.238C61.1833 221.278 61.3123 221.331 61.4852 221.396C61.6631 221.466 61.8071 221.531 61.9174 221.591C62.0276 221.649 62.1191 221.727 62.1917 221.824C62.2644 221.92 62.3007 222.039 62.3007 222.181C62.3007 222.402 62.2193 222.577 62.0564 222.708C61.8961 222.835 61.6744 222.899 61.3913 222.899ZM62.7813 222.869C62.7563 222.869 62.7437 222.857 62.7437 222.832V220.276C62.7437 220.251 62.7563 220.239 62.7813 220.239H63.0669C63.092 220.239 63.1045 220.251 63.1045 220.276V221.723C63.1045 221.728 63.107 221.732 63.112 221.734C63.117 221.737 63.1208 221.735 63.1233 221.73L63.8185 220.975C63.8285 220.963 63.8436 220.956 63.8636 220.956H64.1981C64.2131 220.956 64.2219 220.961 64.2244 220.971C64.2294 220.979 64.2269 220.989 64.2169 221.001L63.7321 221.561C63.7271 221.571 63.7258 221.579 63.7283 221.584L64.3033 222.824L64.3071 222.839C64.3071 222.859 64.2958 222.869 64.2732 222.869H63.9726C63.9526 222.869 63.9388 222.859 63.9313 222.839L63.4841 221.817C63.479 221.804 63.4728 221.803 63.4653 221.813L63.112 222.204C63.107 222.214 63.1045 222.22 63.1045 222.223V222.832C63.1045 222.857 63.092 222.869 63.0669 222.869H62.7813ZM64.6104 223.617C64.5929 223.617 64.5841 223.604 64.5841 223.579V223.358C64.5841 223.333 64.5966 223.32 64.6217 223.32H64.6292C64.7294 223.318 64.8083 223.305 64.866 223.283C64.9236 223.26 64.9712 223.217 65.0088 223.155C65.0463 223.095 65.0827 223.003 65.1177 222.88C65.1202 222.878 65.1202 222.874 65.1177 222.869C65.1177 222.862 65.1177 222.858 65.1177 222.858L64.4902 220.998L64.4864 220.983C64.4864 220.965 64.4977 220.956 64.5202 220.956H64.8246C64.8472 220.956 64.8622 220.966 64.8697 220.986L65.2944 222.403C65.2969 222.408 65.3006 222.411 65.3056 222.411C65.3107 222.411 65.3144 222.408 65.3169 222.403L65.7378 220.986C65.7453 220.966 65.7604 220.956 65.7829 220.956H66.0798C66.1073 220.956 66.1174 220.97 66.1099 220.998L65.4259 223.001C65.3683 223.174 65.3107 223.301 65.253 223.384C65.1954 223.469 65.1202 223.529 65.0275 223.564C64.9348 223.599 64.8046 223.617 64.6367 223.617H64.6104Z" fill="white"/>
<defs>
<clipPath id="clip0_1032_3409">
<rect width="7.19266" height="7.19266" fill="white" transform="translate(115.569 141.275)"/>
</clipPath>
<clipPath id="clip1_1032_3409">
<rect width="7.19266" height="7.19266" fill="white" transform="matrix(-1 0 0 1 122.761 166.753)"/>
</clipPath>
<clipPath id="clip2_1032_3409">
<rect width="7.19266" height="7.19266" fill="white" transform="matrix(-1 0 0 1 122.761 192.23)"/>
</clipPath>
<clipPath id="clip3_1032_3409">
<rect width="10.789" height="10.789" fill="white" transform="translate(7.67889 10.0098)"/>
</clipPath>
<clipPath id="clip4_1032_3409">
<rect width="7.17214" height="7.17214" fill="white" transform="translate(78.9924 11.5537)"/>
</clipPath>
<clipPath id="clip5_1032_3409">
<rect width="5.92337" height="5.92337" fill="white" transform="translate(25.6605 194.826)"/>
</clipPath>
</defs>
</svg>
