<svg width="133" height="236" viewBox="0 0 133 236" fill="none" xmlns="http://www.w3.org/2000/svg">
<rect x="0.472717" y="0.119629" width="132.165" height="235.56" rx="13.4862" fill="#2A2A2A"/>
<g clip-path="url(#clip0_1032_3991)">
<path fill-rule="evenodd" clip-rule="evenodd" d="M11.3935 13.0249C11.3092 12.9406 11.2618 12.8263 11.2618 12.7071C11.2618 12.5879 11.3092 12.4736 11.3935 12.3893L13.9365 9.84622C13.978 9.80329 14.0276 9.76904 14.0824 9.74548C14.1373 9.72192 14.1963 9.70952 14.256 9.709C14.3156 9.70848 14.3748 9.71986 14.4301 9.74246C14.4853 9.76506 14.5355 9.79844 14.5777 9.84065C14.6199 9.88286 14.6533 9.93305 14.6759 9.9883C14.6985 10.0435 14.7099 10.1027 14.7094 10.1624C14.7089 10.2221 14.6965 10.2811 14.6729 10.336C14.6493 10.3908 14.6151 10.4404 14.5722 10.4819L12.3469 12.7071L14.5722 14.9323C14.6541 15.0171 14.6994 15.1307 14.6983 15.2485C14.6973 15.3664 14.65 15.4792 14.5667 15.5625C14.4833 15.6459 14.3706 15.6931 14.2527 15.6942C14.1349 15.6952 14.0213 15.6499 13.9365 15.568L11.3935 13.0249Z" fill="#FAFAFA"/>
</g>
<path d="M61.1898 15.207C61.1444 15.207 61.1126 15.1866 61.0944 15.1457L60.1949 13.183C60.1858 13.1648 60.1721 13.1557 60.154 13.1557H59.3362C59.3134 13.1557 59.3021 13.1671 59.3021 13.1898V15.1253C59.3021 15.148 59.293 15.1684 59.2748 15.1866C59.2612 15.2002 59.243 15.207 59.2203 15.207H58.5933C58.5706 15.207 58.5502 15.2002 58.532 15.1866C58.5184 15.1684 58.5115 15.148 58.5115 15.1253V10.5183C58.5115 10.4956 58.5184 10.4774 58.532 10.4638C58.5502 10.4456 58.5706 10.4365 58.5933 10.4365H60.4675C60.7446 10.4365 60.9899 10.4956 61.2035 10.6137C61.417 10.7273 61.5829 10.8908 61.701 11.1044C61.8191 11.3134 61.8782 11.5542 61.8782 11.8268C61.8782 12.1403 61.7964 12.4083 61.6328 12.6309C61.4738 12.849 61.2512 13.0012 60.965 13.0876C60.9559 13.0876 60.9491 13.0921 60.9445 13.1012C60.94 13.1103 60.94 13.1194 60.9445 13.1284L61.9054 15.1116C61.9145 15.1298 61.9191 15.1434 61.9191 15.1525C61.9191 15.1889 61.8941 15.207 61.8441 15.207H61.1898ZM59.3362 11.118C59.3134 11.118 59.3021 11.1294 59.3021 11.1521V12.5083C59.3021 12.531 59.3134 12.5423 59.3362 12.5423H60.3584C60.5765 12.5423 60.7514 12.4787 60.8832 12.3515C61.0195 12.2198 61.0876 12.0471 61.0876 11.8336C61.0876 11.62 61.0195 11.4474 60.8832 11.3156C60.7514 11.1839 60.5765 11.118 60.3584 11.118H59.3362ZM65.5135 13.0739C65.5316 13.1875 65.5407 13.3147 65.5407 13.4556L65.5339 13.6668C65.5339 13.7214 65.5066 13.7486 65.4521 13.7486H63.319C63.2963 13.7486 63.2849 13.76 63.2849 13.7827C63.2986 13.9326 63.319 14.0348 63.3463 14.0894C63.4553 14.4165 63.7211 14.5823 64.1436 14.5869C64.4526 14.5869 64.6979 14.4596 64.8797 14.2052C64.8978 14.178 64.9206 14.1643 64.9478 14.1643C64.966 14.1643 64.9819 14.1711 64.9955 14.1848L65.4181 14.5323C65.4589 14.5641 65.4658 14.6005 65.4385 14.6414C65.2977 14.8413 65.1091 14.9958 64.8728 15.1048C64.6411 15.2138 64.3822 15.2684 64.0959 15.2684C63.7416 15.2684 63.4394 15.1889 63.1895 15.0298C62.9442 14.8708 62.7647 14.6482 62.6511 14.362C62.5466 14.1166 62.4944 13.7759 62.4944 13.3397C62.4944 13.0762 62.5217 12.8627 62.5762 12.6991C62.667 12.3811 62.8374 12.1312 63.0873 11.9494C63.3417 11.7632 63.6461 11.67 64.0005 11.67C64.8956 11.67 65.3999 12.138 65.5135 13.0739ZM64.0005 12.3515C63.8324 12.3515 63.6916 12.3947 63.578 12.481C63.4689 12.5628 63.3917 12.6786 63.3463 12.8286C63.319 12.9058 63.3008 13.0058 63.2918 13.1284C63.2827 13.1512 63.2918 13.1625 63.319 13.1625H64.7025C64.7252 13.1625 64.7365 13.1512 64.7365 13.1284C64.7275 13.0149 64.7138 12.9285 64.6957 12.8695C64.6548 12.7059 64.573 12.5787 64.4503 12.4878C64.3322 12.397 64.1823 12.3515 64.0005 12.3515ZM69.2005 13.0739C69.2187 13.1875 69.2278 13.3147 69.2278 13.4556L69.221 13.6668C69.221 13.7214 69.1937 13.7486 69.1392 13.7486H67.0061C66.9833 13.7486 66.972 13.76 66.972 13.7827C66.9856 13.9326 67.0061 14.0348 67.0333 14.0894C67.1424 14.4165 67.4082 14.5823 67.8307 14.5869C68.1396 14.5869 68.385 14.4596 68.5667 14.2052C68.5849 14.178 68.6076 14.1643 68.6349 14.1643C68.653 14.1643 68.6689 14.1711 68.6826 14.1848L69.1051 14.5323C69.146 14.5641 69.1528 14.6005 69.1255 14.6414C68.9847 14.8413 68.7962 14.9958 68.5599 15.1048C68.3282 15.2138 68.0692 15.2684 67.783 15.2684C67.4286 15.2684 67.1265 15.1889 66.8766 15.0298C66.6312 14.8708 66.4518 14.6482 66.3382 14.362C66.2337 14.1166 66.1814 13.7759 66.1814 13.3397C66.1814 13.0762 66.2087 12.8627 66.2632 12.6991C66.3541 12.3811 66.5245 12.1312 66.7744 11.9494C67.0288 11.7632 67.3332 11.67 67.6876 11.67C68.5826 11.67 69.0869 12.138 69.2005 13.0739ZM67.6876 12.3515C67.5195 12.3515 67.3786 12.3947 67.265 12.481C67.156 12.5628 67.0788 12.6786 67.0333 12.8286C67.0061 12.9058 66.9879 13.0058 66.9788 13.1284C66.9697 13.1512 66.9788 13.1625 67.0061 13.1625H68.3895C68.4122 13.1625 68.4236 13.1512 68.4236 13.1284C68.4145 13.0149 68.4009 12.9285 68.3827 12.8695C68.3418 12.7059 68.26 12.5787 68.1374 12.4878C68.0192 12.397 67.8693 12.3515 67.6876 12.3515ZM70.0321 15.207C70.0093 15.207 69.9889 15.2002 69.9707 15.1866C69.9571 15.1684 69.9503 15.148 69.9503 15.1253V10.5183C69.9503 10.4956 69.9571 10.4774 69.9707 10.4638C69.9889 10.4456 70.0093 10.4365 70.0321 10.4365H70.659C70.6818 10.4365 70.6999 10.4456 70.7136 10.4638C70.7317 10.4774 70.7408 10.4956 70.7408 10.5183V15.1253C70.7408 15.148 70.7317 15.1684 70.7136 15.1866C70.6999 15.2002 70.6818 15.207 70.659 15.207H70.0321ZM72.8757 15.2479C72.5895 15.2479 72.3373 15.207 72.1192 15.1253C71.9057 15.0389 71.7398 14.9231 71.6217 14.7777C71.5036 14.6278 71.4445 14.4619 71.4445 14.2802V14.2188C71.4445 14.1961 71.4513 14.178 71.465 14.1643C71.4831 14.1462 71.5036 14.1371 71.5263 14.1371H72.126C72.1487 14.1371 72.1669 14.1462 72.1805 14.1643C72.1987 14.178 72.2078 14.1961 72.2078 14.2188V14.2325C72.2078 14.3461 72.2691 14.446 72.3918 14.5323C72.519 14.6141 72.678 14.655 72.8689 14.655C73.0506 14.655 73.1983 14.6187 73.3118 14.546C73.4254 14.4687 73.4822 14.3733 73.4822 14.2597C73.4822 14.1552 73.4345 14.078 73.3391 14.028C73.2482 13.9735 73.0983 13.9167 72.8893 13.8577L72.6303 13.7759C72.3986 13.7077 72.2033 13.635 72.0442 13.5578C71.8852 13.4806 71.7512 13.3761 71.6422 13.2443C71.5331 13.108 71.4786 12.9353 71.4786 12.7264C71.4786 12.4083 71.6035 12.1562 71.8534 11.9699C72.1033 11.7791 72.4327 11.6837 72.8416 11.6837C73.1188 11.6837 73.3618 11.7291 73.5708 11.82C73.7798 11.9063 73.9411 12.0289 74.0547 12.188C74.1683 12.3424 74.2251 12.5196 74.2251 12.7195C74.2251 12.7423 74.216 12.7627 74.1978 12.7809C74.1842 12.7945 74.166 12.8013 74.1433 12.8013H73.564C73.5413 12.8013 73.5208 12.7945 73.5027 12.7809C73.489 12.7627 73.4822 12.7423 73.4822 12.7195C73.4822 12.6014 73.4232 12.5037 73.305 12.4265C73.1914 12.3447 73.0347 12.3038 72.8348 12.3038C72.6576 12.3038 72.5122 12.3379 72.3986 12.406C72.2896 12.4697 72.2351 12.5605 72.2351 12.6786C72.2351 12.7877 72.2873 12.8717 72.3918 12.9308C72.5009 12.9853 72.6803 13.0467 72.9302 13.1148L73.0801 13.1557C73.3209 13.2284 73.5231 13.3034 73.6867 13.3806C73.8502 13.4533 73.9888 13.5578 74.1024 13.6941C74.216 13.8258 74.2728 13.9985 74.2728 14.212C74.2728 14.5346 74.1456 14.789 73.8911 14.9753C73.6367 15.1571 73.2982 15.2479 72.8757 15.2479Z" fill="white"/>
<path d="M123.34 9.75707H122.126L121.528 8.85813C121.504 8.82346 121.473 8.79505 121.436 8.77542C121.4 8.75578 121.358 8.74554 121.317 8.74561H118.62C118.578 8.74554 118.537 8.75578 118.5 8.77542C118.463 8.79505 118.432 8.82346 118.409 8.85813L117.81 9.75707H116.597C116.351 9.75707 116.115 9.85476 115.941 10.0286C115.767 10.2025 115.669 10.4383 115.669 10.6843V15.4044C115.669 15.6503 115.767 15.8862 115.941 16.0601C116.115 16.2339 116.351 16.3316 116.597 16.3316H123.34C123.586 16.3316 123.821 16.2339 123.995 16.0601C124.169 15.8862 124.267 15.6503 124.267 15.4044V10.6843C124.267 10.4383 124.169 10.2025 123.995 10.0286C123.821 9.85476 123.586 9.75707 123.34 9.75707ZM123.761 15.4044C123.761 15.5162 123.717 15.6234 123.638 15.7024C123.559 15.7815 123.452 15.8259 123.34 15.8259H116.597C116.485 15.8259 116.378 15.7815 116.299 15.7024C116.22 15.6234 116.175 15.5162 116.175 15.4044V10.6843C116.175 10.5725 116.22 10.4653 116.299 10.3862C116.378 10.3072 116.485 10.2628 116.597 10.2628H117.945C117.987 10.2629 118.028 10.2526 118.065 10.233C118.101 10.2134 118.133 10.185 118.156 10.1503L118.755 9.25134H121.181L121.78 10.1503C121.804 10.185 121.835 10.2134 121.872 10.233C121.908 10.2526 121.949 10.2629 121.991 10.2628H123.34C123.452 10.2628 123.559 10.3072 123.638 10.3862C123.717 10.4653 123.761 10.5725 123.761 10.6843V15.4044ZM119.968 11.1057C119.618 11.1057 119.276 11.2095 118.985 11.404C118.694 11.5985 118.467 11.875 118.333 12.1984C118.199 12.5218 118.164 12.8777 118.232 13.2211C118.3 13.5644 118.469 13.8798 118.717 14.1274C118.964 14.3749 119.279 14.5435 119.623 14.6118C119.966 14.6801 120.322 14.6451 120.646 14.5111C120.969 14.3771 121.245 14.1503 121.44 13.8592C121.634 13.5681 121.738 13.2259 121.738 12.8758C121.738 12.4063 121.552 11.9561 121.22 11.6241C120.888 11.2922 120.438 11.1057 119.968 11.1057ZM119.968 14.1401C119.718 14.1401 119.474 14.0659 119.266 13.927C119.058 13.7881 118.896 13.5906 118.8 13.3596C118.704 13.1286 118.679 12.8744 118.728 12.6291C118.777 12.3839 118.897 12.1586 119.074 11.9817C119.251 11.8049 119.476 11.6845 119.722 11.6357C119.967 11.5869 120.221 11.612 120.452 11.7077C120.683 11.8034 120.881 11.9654 121.019 12.1733C121.158 12.3813 121.233 12.6257 121.233 12.8758C121.233 13.2111 121.099 13.5327 120.862 13.7698C120.625 14.0069 120.303 14.1401 119.968 14.1401Z" fill="#FAFAFA"/>
<rect x="7.89018" y="188.253" width="13.9358" height="13.9358" rx="6.96789" fill="white"/>
<rect x="7.89018" y="188.253" width="13.9358" height="13.9358" rx="6.96789" stroke="#484848" stroke-width="0.449541"/>
<path d="M27.9343 197.778C27.5795 197.778 27.2654 197.709 26.9921 197.57C26.7187 197.431 26.5054 197.234 26.3519 196.98C26.2033 196.721 26.1289 196.424 26.1289 196.088V192.772C26.1289 192.748 26.1361 192.729 26.1505 192.715C26.1697 192.695 26.1913 192.686 26.2153 192.686H26.877C26.901 192.686 26.9201 192.695 26.9345 192.715C26.9537 192.729 26.9633 192.748 26.9633 192.772V196.102C26.9633 196.385 27.052 196.615 27.2294 196.793C27.4068 196.97 27.6418 197.059 27.9343 197.059C28.2268 197.059 28.4618 196.97 28.6392 196.793C28.8166 196.615 28.9053 196.385 28.9053 196.102V192.772C28.9053 192.748 28.9125 192.729 28.9269 192.715C28.9461 192.695 28.9676 192.686 28.9916 192.686H29.6533C29.6773 192.686 29.6965 192.695 29.7109 192.715C29.7301 192.729 29.7397 192.748 29.7397 192.772V196.088C29.7397 196.424 29.6653 196.721 29.5167 196.98C29.368 197.234 29.1571 197.431 28.8837 197.57C28.6104 197.709 28.2939 197.778 27.9343 197.778ZM32.0323 197.764C31.7302 197.764 31.464 197.721 31.2339 197.634C31.0085 197.543 30.8335 197.421 30.7088 197.268C30.5841 197.109 30.5218 196.934 30.5218 196.743V196.678C30.5218 196.654 30.529 196.635 30.5434 196.62C30.5626 196.601 30.5841 196.591 30.6081 196.591H31.2411C31.265 196.591 31.2842 196.601 31.2986 196.62C31.3178 196.635 31.3274 196.654 31.3274 196.678V196.692C31.3274 196.812 31.3921 196.918 31.5216 197.009C31.6558 197.095 31.8237 197.138 32.0251 197.138C32.2169 197.138 32.3727 197.1 32.4926 197.023C32.6125 196.941 32.6724 196.841 32.6724 196.721C32.6724 196.611 32.6221 196.529 32.5214 196.476C32.4255 196.419 32.2672 196.359 32.0466 196.297L31.7733 196.21C31.5288 196.138 31.3226 196.062 31.1548 195.98C30.9869 195.899 30.8455 195.788 30.7304 195.649C30.6153 195.505 30.5578 195.323 30.5578 195.103C30.5578 194.767 30.6896 194.501 30.9534 194.304C31.2171 194.103 31.5647 194.002 31.9963 194.002C32.2888 194.002 32.5453 194.05 32.7659 194.146C32.9865 194.237 33.1567 194.367 33.2766 194.534C33.3965 194.697 33.4564 194.884 33.4564 195.095C33.4564 195.119 33.4468 195.141 33.4276 195.16C33.4133 195.175 33.3941 195.182 33.3701 195.182H32.7587C32.7347 195.182 32.7132 195.175 32.694 195.16C32.6796 195.141 32.6724 195.119 32.6724 195.095C32.6724 194.971 32.6101 194.868 32.4854 194.786C32.3655 194.7 32.2001 194.657 31.9891 194.657C31.8021 194.657 31.6487 194.693 31.5288 194.765C31.4137 194.832 31.3562 194.928 31.3562 195.052C31.3562 195.167 31.4113 195.256 31.5216 195.318C31.6367 195.376 31.8261 195.441 32.0898 195.513L32.248 195.556C32.5022 195.632 32.7156 195.712 32.8882 195.793C33.0608 195.87 33.2071 195.98 33.3269 196.124C33.4468 196.263 33.5068 196.445 33.5068 196.671C33.5068 197.011 33.3725 197.28 33.104 197.476C32.8354 197.668 32.4782 197.764 32.0323 197.764ZM37.3129 195.469C37.332 195.589 37.3416 195.724 37.3416 195.872L37.3344 196.095C37.3344 196.153 37.3057 196.181 37.2481 196.181H34.9968C34.9728 196.181 34.9609 196.193 34.9609 196.217C34.9752 196.376 34.9968 196.484 35.0256 196.541C35.1407 196.886 35.4212 197.061 35.8671 197.066C36.1932 197.066 36.4521 196.932 36.6439 196.663C36.6631 196.635 36.6871 196.62 36.7159 196.62C36.735 196.62 36.7518 196.627 36.7662 196.642L37.2122 197.009C37.2553 197.042 37.2625 197.081 37.2337 197.124C37.0851 197.335 36.8861 197.498 36.6367 197.613C36.3922 197.728 36.1189 197.785 35.8168 197.785C35.4428 197.785 35.1239 197.702 34.8602 197.534C34.6012 197.366 34.4118 197.131 34.2919 196.829C34.1817 196.57 34.1265 196.21 34.1265 195.75C34.1265 195.472 34.1553 195.246 34.2128 195.074C34.3087 194.738 34.4885 194.474 34.7523 194.283C35.0208 194.086 35.3421 193.988 35.7161 193.988C36.6607 193.988 37.193 194.482 37.3129 195.469ZM35.7161 194.707C35.5387 194.707 35.39 194.753 35.2701 194.844C35.1551 194.93 35.0735 195.052 35.0256 195.21C34.9968 195.292 34.9776 195.397 34.968 195.527C34.9585 195.551 34.968 195.563 34.9968 195.563H36.4569C36.4809 195.563 36.4929 195.551 36.4929 195.527C36.4833 195.407 36.4689 195.316 36.4497 195.254C36.4066 195.081 36.3203 194.947 36.1908 194.851C36.0661 194.755 35.9079 194.707 35.7161 194.707ZM39.816 194.002C39.9695 194.002 40.1037 194.033 40.2188 194.096C40.2572 194.115 40.2715 194.151 40.262 194.203L40.1397 194.851C40.1349 194.908 40.1013 194.925 40.039 194.901C39.9671 194.877 39.8831 194.865 39.7872 194.865C39.7249 194.865 39.677 194.868 39.6434 194.872C39.442 194.882 39.2742 194.954 39.1399 195.088C39.0056 195.218 38.9385 195.388 38.9385 195.599V197.634C38.9385 197.658 38.9289 197.68 38.9097 197.699C38.8954 197.714 38.8762 197.721 38.8522 197.721H38.1905C38.1665 197.721 38.1449 197.714 38.1257 197.699C38.1114 197.68 38.1042 197.658 38.1042 197.634V194.132C38.1042 194.108 38.1114 194.088 38.1257 194.074C38.1449 194.055 38.1665 194.045 38.1905 194.045H38.8522C38.8762 194.045 38.8954 194.055 38.9097 194.074C38.9289 194.088 38.9385 194.108 38.9385 194.132V194.455C38.9385 194.474 38.9409 194.486 38.9457 194.491C38.9553 194.491 38.9649 194.484 38.9745 194.47C39.1759 194.158 39.4564 194.002 39.816 194.002ZM42.5706 193.988C42.959 193.988 43.2683 194.103 43.4985 194.333C43.7334 194.563 43.8509 194.877 43.8509 195.275V197.634C43.8509 197.658 43.8413 197.68 43.8222 197.699C43.8078 197.714 43.7886 197.721 43.7646 197.721H43.1029C43.0789 197.721 43.0573 197.714 43.0382 197.699C43.0238 197.68 43.0166 197.658 43.0166 197.634V195.448C43.0166 195.227 42.9542 195.05 42.8296 194.916C42.7049 194.777 42.5395 194.707 42.3333 194.707C42.1271 194.707 41.9593 194.774 41.8298 194.908C41.7051 195.043 41.6428 195.22 41.6428 195.441V197.634C41.6428 197.658 41.6332 197.68 41.614 197.699C41.5996 197.714 41.5804 197.721 41.5565 197.721H40.8947C40.8708 197.721 40.8492 197.714 40.83 197.699C40.8156 197.68 40.8084 197.658 40.8084 197.634V194.132C40.8084 194.108 40.8156 194.088 40.83 194.074C40.8492 194.055 40.8708 194.045 40.8947 194.045H41.5565C41.5804 194.045 41.5996 194.055 41.614 194.074C41.6332 194.088 41.6428 194.108 41.6428 194.132V194.362C41.6428 194.376 41.6476 194.386 41.6572 194.391C41.6668 194.395 41.6739 194.391 41.6787 194.376C41.8753 194.117 42.1726 193.988 42.5706 193.988ZM46.1234 193.988C46.4255 193.988 46.6916 194.04 46.9218 194.146C47.152 194.251 47.3294 194.398 47.4541 194.585C47.5787 194.767 47.6411 194.976 47.6411 195.21V197.634C47.6411 197.658 47.6315 197.68 47.6123 197.699C47.5979 197.714 47.5787 197.721 47.5548 197.721H46.893C46.8691 197.721 46.8475 197.714 46.8283 197.699C46.8139 197.68 46.8067 197.658 46.8067 197.634V197.404C46.8067 197.39 46.8019 197.383 46.7923 197.383C46.7827 197.378 46.7732 197.38 46.7636 197.39C46.5286 197.649 46.1882 197.778 45.7422 197.778C45.3826 197.778 45.0853 197.687 44.8503 197.505C44.6202 197.323 44.5051 197.052 44.5051 196.692C44.5051 196.318 44.6345 196.028 44.8935 195.822C45.1572 195.611 45.5264 195.505 46.0011 195.505H46.7708C46.7947 195.505 46.8067 195.493 46.8067 195.469V195.297C46.8067 195.11 46.7516 194.966 46.6413 194.865C46.531 194.76 46.3656 194.707 46.145 194.707C45.9628 194.707 45.8141 194.741 45.699 194.808C45.5888 194.87 45.5192 194.959 45.4905 195.074C45.4761 195.131 45.4425 195.155 45.3898 195.146L44.6921 195.059C44.6681 195.055 44.6465 195.047 44.6273 195.038C44.613 195.023 44.6082 195.007 44.613 194.987C44.6513 194.695 44.8072 194.455 45.0805 194.268C45.3586 194.081 45.7062 193.988 46.1234 193.988ZM45.9508 197.117C46.1858 197.117 46.3871 197.054 46.555 196.93C46.7228 196.805 46.8067 196.647 46.8067 196.455V196.117C46.8067 196.093 46.7947 196.081 46.7708 196.081H46.1666C45.9124 196.081 45.711 196.129 45.5624 196.225C45.4185 196.321 45.3466 196.457 45.3466 196.635C45.3466 196.788 45.4018 196.908 45.512 196.994C45.6271 197.076 45.7734 197.117 45.9508 197.117ZM52.4131 193.988C52.7823 193.988 53.07 194.1 53.2762 194.326C53.4872 194.546 53.5927 194.856 53.5927 195.254V197.634C53.5927 197.658 53.5831 197.68 53.5639 197.699C53.5496 197.714 53.5304 197.721 53.5064 197.721H52.8519C52.8279 197.721 52.8063 197.714 52.7871 197.699C52.7727 197.68 52.7656 197.658 52.7656 197.634V195.426C52.7656 195.206 52.7056 195.031 52.5857 194.901C52.4707 194.772 52.3148 194.707 52.1182 194.707C51.9216 194.707 51.761 194.772 51.6363 194.901C51.5116 195.031 51.4493 195.203 51.4493 195.419V197.634C51.4493 197.658 51.4397 197.68 51.4205 197.699C51.4061 197.714 51.387 197.721 51.363 197.721H50.7085C50.6845 197.721 50.6629 197.714 50.6437 197.699C50.6293 197.68 50.6221 197.658 50.6221 197.634V195.426C50.6221 195.206 50.5622 195.031 50.4423 194.901C50.3224 194.772 50.1642 194.707 49.9676 194.707C49.7854 194.707 49.6344 194.76 49.5145 194.865C49.3994 194.971 49.3323 195.115 49.3131 195.297V197.634C49.3131 197.658 49.3035 197.68 49.2843 197.699C49.2699 197.714 49.2507 197.721 49.2268 197.721H48.565C48.5411 197.721 48.5195 197.714 48.5003 197.699C48.4859 197.68 48.4787 197.658 48.4787 197.634V194.132C48.4787 194.108 48.4859 194.088 48.5003 194.074C48.5195 194.055 48.5411 194.045 48.565 194.045H49.2268C49.2507 194.045 49.2699 194.055 49.2843 194.074C49.3035 194.088 49.3131 194.108 49.3131 194.132V194.369C49.3131 194.383 49.3179 194.393 49.3275 194.398C49.3371 194.402 49.3466 194.398 49.3562 194.383C49.4617 194.249 49.5912 194.151 49.7446 194.088C49.9029 194.021 50.0779 193.988 50.2697 193.988C50.5047 193.988 50.7109 194.036 50.8883 194.132C51.0657 194.227 51.2024 194.367 51.2983 194.549C51.3126 194.568 51.3294 194.568 51.3486 194.549C51.4541 194.357 51.6003 194.215 51.7874 194.124C51.9744 194.033 52.183 193.988 52.4131 193.988ZM57.5141 195.469C57.5333 195.589 57.5429 195.724 57.5429 195.872L57.5357 196.095C57.5357 196.153 57.5069 196.181 57.4494 196.181H55.1981C55.1741 196.181 55.1621 196.193 55.1621 196.217C55.1765 196.376 55.1981 196.484 55.2269 196.541C55.3419 196.886 55.6224 197.061 56.0684 197.066C56.3945 197.066 56.6534 196.932 56.8452 196.663C56.8644 196.635 56.8884 196.62 56.9171 196.62C56.9363 196.62 56.9531 196.627 56.9675 196.642L57.4134 197.009C57.4566 197.042 57.4638 197.081 57.435 197.124C57.2864 197.335 57.0874 197.498 56.838 197.613C56.5935 197.728 56.3201 197.785 56.018 197.785C55.644 197.785 55.3252 197.702 55.0614 197.534C54.8025 197.366 54.6131 197.131 54.4932 196.829C54.3829 196.57 54.3278 196.21 54.3278 195.75C54.3278 195.472 54.3565 195.246 54.4141 195.074C54.51 194.738 54.6898 194.474 54.9535 194.283C55.2221 194.086 55.5433 193.988 55.9173 193.988C56.862 193.988 57.3942 194.482 57.5141 195.469ZM55.9173 194.707C55.7399 194.707 55.5913 194.753 55.4714 194.844C55.3563 194.93 55.2748 195.052 55.2269 195.21C55.1981 195.292 55.1789 195.397 55.1693 195.527C55.1597 195.551 55.1693 195.563 55.1981 195.563H56.6582C56.6822 195.563 56.6942 195.551 56.6942 195.527C56.6846 195.407 56.6702 195.316 56.651 195.254C56.6078 195.081 56.5215 194.947 56.3921 194.851C56.2674 194.755 56.1092 194.707 55.9173 194.707Z" fill="white"/>
<rect x="62.0636" y="191.243" width="19.956" height="7.95596" rx="1.0789" stroke="white" stroke-opacity="0.4" stroke-width="0.359633"/>
<path d="M66.987 193.838C66.987 193.874 66.969 193.892 66.933 193.892H65.0234C65.009 193.892 65.0018 193.899 65.0018 193.914V195.074C65.0018 195.088 65.009 195.095 65.0234 195.095H66.3342C66.3702 195.095 66.3882 195.113 66.3882 195.149V195.489C66.3882 195.525 66.3702 195.543 66.3342 195.543H65.0234C65.009 195.543 65.0018 195.55 65.0018 195.565V197.167C65.0018 197.203 64.9838 197.221 64.9478 197.221H64.5379C64.5019 197.221 64.4839 197.203 64.4839 197.167V193.499C64.4839 193.463 64.5019 193.445 64.5379 193.445H66.933C66.969 193.445 66.987 193.463 66.987 193.499V193.838ZM68.3386 197.264C68.0724 197.264 67.8405 197.197 67.6427 197.064C67.4449 196.928 67.3064 196.739 67.2273 196.498C67.1626 196.304 67.1302 196.084 67.1302 195.84C67.1302 195.584 67.1608 195.369 67.2219 195.192C67.301 194.955 67.4395 194.77 67.6373 194.637C67.8351 194.5 68.0706 194.432 68.344 194.432C68.6029 194.432 68.8277 194.5 69.0183 194.637C69.2125 194.77 69.3509 194.953 69.4337 195.187C69.4984 195.37 69.5308 195.586 69.5308 195.834C69.5308 196.086 69.4984 196.307 69.4337 196.498C69.3545 196.739 69.2179 196.928 69.0237 197.064C68.8295 197.197 68.6011 197.264 68.3386 197.264ZM68.3386 196.816C68.4824 196.816 68.6083 196.777 68.7162 196.697C68.8241 196.615 68.9014 196.5 68.9482 196.352C68.9877 196.216 69.0075 196.047 69.0075 195.845C69.0075 195.644 68.9895 195.476 68.9535 195.343C68.9068 195.196 68.8295 195.083 68.7216 195.004C68.6137 194.921 68.4824 194.879 68.3278 194.879C68.1803 194.879 68.0527 194.921 67.9448 195.004C67.8369 195.083 67.7596 195.196 67.7128 195.343C67.6733 195.469 67.6535 195.637 67.6535 195.845C67.6535 196.054 67.6733 196.223 67.7128 196.352C67.756 196.5 67.8315 196.615 67.9394 196.697C68.0509 196.777 68.1839 196.816 68.3386 196.816ZM70.2627 197.221C70.2268 197.221 70.2088 197.203 70.2088 197.167V193.499C70.2088 193.463 70.2268 193.445 70.2627 193.445H70.6727C70.7087 193.445 70.7267 193.463 70.7267 193.499V197.167C70.7267 197.203 70.7087 197.221 70.6727 197.221H70.2627ZM71.5323 197.221C71.4964 197.221 71.4784 197.203 71.4784 197.167V193.499C71.4784 193.463 71.4964 193.445 71.5323 193.445H71.9423C71.9783 193.445 71.9963 193.463 71.9963 193.499V197.167C71.9963 197.203 71.9783 197.221 71.9423 197.221H71.5323ZM73.87 197.264C73.6039 197.264 73.3719 197.197 73.1742 197.064C72.9764 196.928 72.8379 196.739 72.7588 196.498C72.694 196.304 72.6617 196.084 72.6617 195.84C72.6617 195.584 72.6922 195.369 72.7534 195.192C72.8325 194.955 72.971 194.77 73.1688 194.637C73.3666 194.5 73.6021 194.432 73.8754 194.432C74.1344 194.432 74.3591 194.5 74.5497 194.637C74.7439 194.77 74.8824 194.953 74.9651 195.187C75.0299 195.37 75.0622 195.586 75.0622 195.834C75.0622 196.086 75.0299 196.307 74.9651 196.498C74.886 196.739 74.7493 196.928 74.5551 197.064C74.3609 197.197 74.1326 197.264 73.87 197.264ZM73.87 196.816C74.0139 196.816 74.1398 196.777 74.2477 196.697C74.3555 196.615 74.4329 196.5 74.4796 196.352C74.5192 196.216 74.539 196.047 74.539 195.845C74.539 195.644 74.521 195.476 74.485 195.343C74.4383 195.196 74.3609 195.083 74.253 195.004C74.1452 194.921 74.0139 194.879 73.8593 194.879C73.7118 194.879 73.5841 194.921 73.4762 195.004C73.3684 195.083 73.291 195.196 73.2443 195.343C73.2047 195.469 73.1849 195.637 73.1849 195.845C73.1849 196.054 73.2047 196.223 73.2443 196.352C73.2874 196.5 73.363 196.615 73.4708 196.697C73.5823 196.777 73.7154 196.816 73.87 196.816ZM76.2234 197.221C76.1946 197.221 76.1748 197.206 76.164 197.178L75.3872 194.534L75.3818 194.518C75.3818 194.489 75.3998 194.475 75.4358 194.475H75.8566C75.8889 194.475 75.9087 194.491 75.9159 194.523L76.4284 196.482C76.432 196.489 76.4356 196.492 76.4392 196.492C76.4464 196.492 76.4518 196.489 76.4554 196.482L76.9786 194.523C76.9858 194.491 77.0056 194.475 77.038 194.475H77.4102C77.4425 194.475 77.4623 194.491 77.4695 194.523L78.0036 196.476C78.0072 196.483 78.0108 196.487 78.0144 196.487C78.0216 196.487 78.0269 196.483 78.0305 196.476L78.5646 194.523C78.5718 194.491 78.5916 194.475 78.6239 194.475L79.0393 194.48C79.0573 194.48 79.0699 194.486 79.0771 194.496C79.0879 194.507 79.0915 194.522 79.0879 194.54L78.3057 197.178C78.2949 197.206 78.2751 197.221 78.2463 197.221H77.8256C77.7968 197.221 77.777 197.206 77.7662 197.178L77.2376 195.354C77.234 195.347 77.2286 195.343 77.2214 195.343C77.2178 195.343 77.2142 195.347 77.2106 195.354L76.7089 197.172C76.7017 197.205 76.6819 197.221 76.6496 197.221H76.2234Z" fill="white"/>
<path d="M8.22643 210.01C8.19047 210.01 8.17249 209.992 8.17249 209.956V206.288C8.17249 206.252 8.19047 206.234 8.22643 206.234H8.50155C8.53752 206.234 8.5555 206.252 8.5555 206.288V209.654C8.5555 209.668 8.56269 209.675 8.57708 209.675H10.4813C10.5173 209.675 10.5353 209.693 10.5353 209.729V209.956C10.5353 209.992 10.5173 210.01 10.4813 210.01H8.22643ZM12.2041 210.053C11.9452 210.053 11.7222 209.986 11.5352 209.853C11.3482 209.72 11.2187 209.537 11.1468 209.303C11.0964 209.138 11.0713 208.916 11.0713 208.64C11.0713 208.363 11.0964 208.143 11.1468 207.981C11.2151 207.751 11.3428 207.57 11.5298 207.437C11.7168 207.304 11.9434 207.237 12.2095 207.237C12.4648 207.237 12.6842 207.304 12.8676 207.437C13.0546 207.57 13.1823 207.749 13.2506 207.976C13.301 208.131 13.3262 208.352 13.3262 208.64C13.3262 208.931 13.301 209.152 13.2506 209.303C13.1823 209.537 13.0546 209.72 12.8676 209.853C12.6842 209.986 12.4631 210.053 12.2041 210.053ZM12.2041 209.718C12.3767 209.718 12.5242 209.672 12.6465 209.578C12.7687 209.481 12.8515 209.352 12.8946 209.19C12.927 209.06 12.9432 208.879 12.9432 208.645C12.9432 208.408 12.9288 208.226 12.9 208.1C12.8568 207.938 12.7723 207.811 12.6465 207.717C12.5242 207.62 12.3749 207.571 12.1987 207.571C12.0225 207.571 11.8733 207.62 11.751 207.717C11.6287 207.811 11.546 207.938 11.5028 208.1C11.4741 208.226 11.4597 208.408 11.4597 208.645C11.4597 208.882 11.4741 209.064 11.5028 209.19C11.5424 209.352 11.6233 209.481 11.7456 209.578C11.8715 209.672 12.0243 209.718 12.2041 209.718ZM15.203 207.253C15.3217 207.253 15.4242 207.277 15.5105 207.323C15.5393 207.338 15.5501 207.361 15.5429 207.393L15.4835 207.658C15.4728 207.694 15.4494 207.705 15.4134 207.69C15.3523 207.665 15.2822 207.652 15.203 207.652L15.1329 207.658C14.9459 207.665 14.7913 207.735 14.669 207.868C14.5467 207.998 14.4856 208.163 14.4856 208.364V209.956C14.4856 209.992 14.4676 210.01 14.4316 210.01H14.1565C14.1205 210.01 14.1026 209.992 14.1026 209.956V207.334C14.1026 207.298 14.1205 207.28 14.1565 207.28H14.4316C14.4676 207.28 14.4856 207.298 14.4856 207.334V207.663C14.4856 207.674 14.4874 207.681 14.491 207.685C14.4982 207.685 14.5035 207.681 14.5071 207.674C14.5827 207.541 14.678 207.438 14.7931 207.366C14.9117 207.291 15.0484 207.253 15.203 207.253ZM18.1343 208.186C18.1487 208.287 18.1558 208.413 18.1558 208.564V208.737C18.1558 208.773 18.1379 208.791 18.1019 208.791H16.3595C16.3451 208.791 16.3379 208.798 16.3379 208.812C16.3451 209.01 16.3559 209.138 16.3703 209.195C16.4098 209.357 16.4943 209.485 16.6238 209.578C16.7533 209.672 16.9187 209.718 17.1201 209.718C17.2711 209.718 17.4042 209.684 17.5193 209.616C17.6344 209.548 17.7243 209.451 17.789 209.325C17.8106 209.292 17.8358 209.285 17.8645 209.303L18.0749 209.427C18.1037 209.445 18.1109 209.47 18.0965 209.503C18.0066 209.675 17.8717 209.812 17.6919 209.913C17.5121 210.01 17.3053 210.058 17.0716 210.058C16.8162 210.055 16.6022 209.994 16.4296 209.875C16.257 209.756 16.1329 209.591 16.0574 209.379C15.9927 209.206 15.9603 208.958 15.9603 208.634C15.9603 208.483 15.9621 208.361 15.9657 208.267C15.9729 208.17 15.9873 208.084 16.0088 208.008C16.07 207.775 16.1922 207.588 16.3757 207.447C16.5627 207.307 16.7874 207.237 17.05 207.237C17.3772 207.237 17.629 207.32 17.8052 207.485C17.9814 207.651 18.0911 207.884 18.1343 208.186ZM17.05 207.571C16.8738 207.571 16.7263 207.618 16.6076 207.712C16.4925 207.802 16.417 207.924 16.3811 208.079C16.3595 208.154 16.3451 208.276 16.3379 208.445C16.3379 208.46 16.3451 208.467 16.3595 208.467H17.7567C17.771 208.467 17.7782 208.46 17.7782 208.445C17.771 208.284 17.7602 208.168 17.7459 208.1C17.7063 207.938 17.6254 207.811 17.5031 207.717C17.3844 207.62 17.2334 207.571 17.05 207.571ZM21.6795 207.242C21.9493 207.242 22.1615 207.323 22.3161 207.485C22.4743 207.647 22.5535 207.868 22.5535 208.149V209.956C22.5535 209.992 22.5355 210.01 22.4995 210.01H22.2298C22.1938 210.01 22.1758 209.992 22.1758 209.956V208.224C22.1758 208.026 22.1183 207.87 22.0032 207.755C21.8917 207.636 21.7443 207.577 21.5609 207.577C21.3703 207.577 21.2156 207.634 21.0969 207.749C20.9819 207.865 20.9243 208.019 20.9243 208.213V209.956C20.9243 209.992 20.9063 210.01 20.8704 210.01H20.5953C20.5593 210.01 20.5413 209.992 20.5413 209.956V208.224C20.5413 208.026 20.4856 207.87 20.3741 207.755C20.2626 207.636 20.1133 207.577 19.9263 207.577C19.7357 207.577 19.5829 207.634 19.4678 207.749C19.3563 207.865 19.3006 208.019 19.3006 208.213V209.956C19.3006 209.992 19.2826 210.01 19.2466 210.01H18.9715C18.9355 210.01 18.9176 209.992 18.9176 209.956V207.334C18.9176 207.298 18.9355 207.28 18.9715 207.28H19.2466C19.2826 207.28 19.3006 207.298 19.3006 207.334V207.55C19.3006 207.557 19.3024 207.562 19.306 207.566C19.3132 207.566 19.3204 207.562 19.3275 207.555C19.4067 207.451 19.5074 207.374 19.6296 207.323C19.7555 207.269 19.894 207.242 20.045 207.242C20.232 207.242 20.3921 207.28 20.5251 207.356C20.6582 207.431 20.7589 207.541 20.8272 207.685C20.8344 207.703 20.8434 207.703 20.8542 207.685C20.9333 207.537 21.0448 207.428 21.1886 207.356C21.3325 207.28 21.4961 207.242 21.6795 207.242ZM24.589 210.01C24.5531 210.01 24.5351 209.992 24.5351 209.956V206.288C24.5351 206.252 24.5531 206.234 24.589 206.234H24.8642C24.9001 206.234 24.9181 206.252 24.9181 206.288V209.956C24.9181 209.992 24.9001 210.01 24.8642 210.01H24.589ZM27.9756 207.96C28.0296 208.132 28.0566 208.361 28.0566 208.645C28.0566 208.933 28.0332 209.156 27.9864 209.314C27.9217 209.544 27.803 209.726 27.6304 209.859C27.4614 209.988 27.2474 210.053 26.9884 210.053C26.8482 210.053 26.7187 210.026 26.6 209.972C26.4814 209.914 26.3825 209.834 26.3033 209.729C26.2962 209.722 26.289 209.72 26.2818 209.724C26.2782 209.724 26.2764 209.727 26.2764 209.735V211.002C26.2764 211.038 26.2584 211.056 26.2224 211.056H25.9473C25.9113 211.056 25.8934 211.038 25.8934 211.002V207.334C25.8934 207.298 25.9113 207.28 25.9473 207.28H26.2224C26.2584 207.28 26.2764 207.298 26.2764 207.334V207.561C26.2764 207.568 26.2782 207.573 26.2818 207.577C26.289 207.577 26.2962 207.573 26.3033 207.566C26.3825 207.462 26.4796 207.381 26.5946 207.323C26.7133 207.266 26.8446 207.237 26.9884 207.237C27.2402 207.237 27.4506 207.302 27.6196 207.431C27.7922 207.561 27.9109 207.737 27.9756 207.96ZM27.5495 209.325C27.589 209.246 27.6178 209.157 27.6358 209.06C27.6574 208.96 27.6682 208.821 27.6682 208.645C27.6682 208.476 27.661 208.345 27.6466 208.251C27.6322 208.154 27.607 208.068 27.5711 207.992C27.5279 207.863 27.4506 207.76 27.3391 207.685C27.2312 207.609 27.1017 207.571 26.9507 207.571C26.8068 207.571 26.6864 207.609 26.5893 207.685C26.4922 207.76 26.4202 207.861 26.3735 207.987C26.3411 208.059 26.3177 208.143 26.3033 208.24C26.289 208.337 26.2818 208.472 26.2818 208.645C26.2818 208.818 26.289 208.954 26.3033 209.055C26.3177 209.152 26.3429 209.238 26.3789 209.314C26.422 209.436 26.4922 209.535 26.5893 209.611C26.69 209.682 26.8086 209.718 26.9453 209.718C27.0891 209.718 27.2132 209.682 27.3175 209.611C27.4254 209.539 27.5027 209.443 27.5495 209.325ZM29.7275 210.037C29.5261 210.037 29.3463 210.004 29.1881 209.94C29.0335 209.875 28.913 209.789 28.8267 209.681C28.7439 209.573 28.7026 209.452 28.7026 209.319V209.255C28.7026 209.219 28.7206 209.201 28.7565 209.201H29.0155C29.0514 209.201 29.0694 209.219 29.0694 209.255V209.298C29.0694 209.416 29.1306 209.521 29.2528 209.611C29.3787 209.697 29.5351 209.74 29.7221 209.74C29.9092 209.74 30.0602 209.699 30.1753 209.616C30.2904 209.53 30.3479 209.422 30.3479 209.292C30.3479 209.202 30.3173 209.129 30.2562 209.071C30.1987 209.014 30.1285 208.969 30.0458 208.936C29.9667 208.904 29.8426 208.863 29.6736 208.812C29.4722 208.755 29.3068 208.697 29.1773 208.64C29.0478 208.582 28.9381 208.503 28.8482 208.402C28.7619 208.298 28.7188 208.167 28.7188 208.008C28.7188 207.778 28.8087 207.595 28.9885 207.458C29.1683 207.322 29.4057 207.253 29.7006 207.253C29.8984 207.253 30.0728 207.286 30.2238 207.35C30.3785 207.415 30.4972 207.505 30.5799 207.62C30.6626 207.731 30.7039 207.857 30.7039 207.998V208.014C30.7039 208.05 30.686 208.068 30.65 208.068H30.3965C30.3605 208.068 30.3425 208.05 30.3425 208.014V207.998C30.3425 207.875 30.2832 207.773 30.1645 207.69C30.0494 207.607 29.893 207.566 29.6952 207.566C29.5118 207.566 29.3643 207.604 29.2528 207.679C29.1413 207.751 29.0856 207.852 29.0856 207.981C29.0856 208.104 29.1395 208.197 29.2474 208.262C29.3553 208.327 29.5226 208.391 29.7491 208.456C29.9577 208.517 30.1267 208.575 30.2562 208.629C30.3857 208.683 30.4972 208.762 30.5907 208.866C30.6842 208.967 30.7309 209.1 30.7309 209.265C30.7309 209.499 30.6392 209.686 30.4558 209.826C30.2724 209.967 30.0296 210.037 29.7275 210.037ZM33.0799 207.334C33.0799 207.298 33.0979 207.28 33.1339 207.28H33.409C33.445 207.28 33.4629 207.298 33.4629 207.334V209.956C33.4629 209.992 33.445 210.01 33.409 210.01H33.1339C33.0979 210.01 33.0799 209.992 33.0799 209.956V209.724C33.0799 209.717 33.0763 209.711 33.0691 209.708C33.0619 209.704 33.0566 209.706 33.053 209.713C32.9019 209.936 32.6628 210.048 32.3355 210.048C32.1629 210.048 32.0028 210.013 31.8554 209.945C31.7115 209.873 31.5964 209.771 31.5101 209.638C31.4274 209.504 31.3861 209.344 31.3861 209.157V207.334C31.3861 207.298 31.404 207.28 31.44 207.28H31.7151C31.7511 207.28 31.7691 207.298 31.7691 207.334V209.044C31.7691 209.249 31.8266 209.413 31.9417 209.535C32.0568 209.654 32.2132 209.713 32.411 209.713C32.616 209.713 32.7778 209.652 32.8965 209.53C33.0188 209.407 33.0799 209.246 33.0799 209.044V207.334ZM37.0834 207.242C37.3531 207.242 37.5653 207.323 37.7199 207.485C37.8781 207.647 37.9573 207.868 37.9573 208.149V209.956C37.9573 209.992 37.9393 210.01 37.9033 210.01H37.6336C37.5976 210.01 37.5797 209.992 37.5797 209.956V208.224C37.5797 208.026 37.5221 207.87 37.407 207.755C37.2955 207.636 37.1481 207.577 36.9647 207.577C36.7741 207.577 36.6194 207.634 36.5008 207.749C36.3857 207.865 36.3281 208.019 36.3281 208.213V209.956C36.3281 209.992 36.3101 210.01 36.2742 210.01H35.9991C35.9631 210.01 35.9451 209.992 35.9451 209.956V208.224C35.9451 208.026 35.8894 207.87 35.7779 207.755C35.6664 207.636 35.5172 207.577 35.3301 207.577C35.1395 207.577 34.9867 207.634 34.8716 207.749C34.7601 207.865 34.7044 208.019 34.7044 208.213V209.956C34.7044 209.992 34.6864 210.01 34.6504 210.01H34.3753C34.3394 210.01 34.3214 209.992 34.3214 209.956V207.334C34.3214 207.298 34.3394 207.28 34.3753 207.28H34.6504C34.6864 207.28 34.7044 207.298 34.7044 207.334V207.55C34.7044 207.557 34.7062 207.562 34.7098 207.566C34.717 207.566 34.7242 207.562 34.7314 207.555C34.8105 207.451 34.9112 207.374 35.0335 207.323C35.1593 207.269 35.2978 207.242 35.4488 207.242C35.6358 207.242 35.7959 207.28 35.9289 207.356C36.062 207.431 36.1627 207.541 36.231 207.685C36.2382 207.703 36.2472 207.703 36.258 207.685C36.3371 207.537 36.4486 207.428 36.5925 207.356C36.7363 207.28 36.8999 207.242 37.0834 207.242Z" fill="white"/>
<path d="M11.0049 222.468V224.523M12.0324 221.441V226.064M13.0599 222.982V224.009M14.0875 221.954V225.455M15.115 220.413V226.578" stroke="#FAFAFA" stroke-width="0.449541" stroke-linecap="round" stroke-linejoin="round"/>
<path d="M22.2395 221.752C22.2575 221.73 22.2791 221.719 22.3042 221.719H22.7142C22.7502 221.719 22.7682 221.737 22.7682 221.773V225.442C22.7682 225.478 22.7502 225.496 22.7142 225.496H22.3042C22.2683 225.496 22.2503 225.478 22.2503 225.442V222.68C22.2503 222.669 22.2467 222.662 22.2395 222.658C22.2323 222.655 22.2269 222.658 22.2233 222.669L21.4519 223.845C21.4375 223.866 21.416 223.877 21.3872 223.877H21.1822C21.157 223.877 21.1354 223.866 21.1175 223.845L20.3406 222.68C20.3371 222.669 20.3317 222.665 20.3245 222.669C20.3173 222.672 20.3137 222.68 20.3137 222.69V225.442C20.3137 225.478 20.2957 225.496 20.2597 225.496H19.8497C19.8138 225.496 19.7958 225.478 19.7958 225.442V221.773C19.7958 221.737 19.8138 221.719 19.8497 221.719H20.2597C20.2885 221.719 20.3101 221.73 20.3245 221.752L21.2685 223.165C21.2721 223.169 21.2775 223.171 21.2847 223.171C21.2919 223.171 21.2973 223.169 21.3009 223.165L22.2395 221.752ZM23.9002 222.318C23.7995 222.318 23.7168 222.286 23.652 222.221C23.5873 222.156 23.5549 222.074 23.5549 221.973C23.5549 221.872 23.5873 221.79 23.652 221.725C23.7168 221.66 23.7995 221.628 23.9002 221.628C24.0009 221.628 24.0836 221.66 24.1483 221.725C24.2131 221.79 24.2454 221.872 24.2454 221.973C24.2454 222.074 24.2131 222.156 24.1483 222.221C24.0836 222.286 24.0009 222.318 23.9002 222.318ZM23.6844 225.49C23.6484 225.49 23.6304 225.472 23.6304 225.436V222.804C23.6304 222.768 23.6484 222.75 23.6844 222.75H24.0944C24.1303 222.75 24.1483 222.768 24.1483 222.804V225.436C24.1483 225.472 24.1303 225.49 24.0944 225.49H23.6844ZM25.0162 225.496C24.9802 225.496 24.9623 225.478 24.9623 225.442V221.773C24.9623 221.737 24.9802 221.719 25.0162 221.719H25.4262C25.4621 221.719 25.4801 221.737 25.4801 221.773V225.442C25.4801 225.478 25.4621 225.496 25.4262 225.496H25.0162ZM28.4544 223.78C28.4688 223.928 28.4742 224.093 28.4706 224.276C28.4706 224.312 28.4526 224.33 28.4166 224.33H26.6958C26.6814 224.33 26.6742 224.338 26.6742 224.352C26.6742 224.474 26.685 224.568 26.7066 224.632C26.7461 224.776 26.8253 224.89 26.9439 224.972C27.0662 225.051 27.2191 225.091 27.4025 225.091C27.6686 225.091 27.8736 224.981 28.0174 224.762C28.0354 224.726 28.0588 224.721 28.0876 224.746L28.3951 224.951C28.4202 224.972 28.4256 224.996 28.4112 225.021C28.3105 225.183 28.1667 225.31 27.9797 225.404C27.7963 225.497 27.5877 225.544 27.3539 225.544C27.0914 225.544 26.8702 225.487 26.6904 225.372C26.5106 225.256 26.3757 225.093 26.2858 224.881C26.1995 224.668 26.1563 224.411 26.1563 224.109C26.1563 223.847 26.1761 223.647 26.2157 223.51C26.2804 223.262 26.4099 223.066 26.6041 222.922C26.7983 222.779 27.0338 222.707 27.3108 222.707C27.674 222.707 27.9455 222.798 28.1253 222.982C28.3051 223.162 28.4148 223.428 28.4544 223.78ZM27.3108 223.154C27.1561 223.154 27.0284 223.194 26.9277 223.273C26.8271 223.349 26.7587 223.451 26.7228 223.581C26.6976 223.66 26.6814 223.76 26.6742 223.883C26.6742 223.897 26.6814 223.904 26.6958 223.904H27.9311C27.9455 223.904 27.9527 223.897 27.9527 223.883C27.9455 223.764 27.9347 223.676 27.9203 223.618C27.8844 223.478 27.8124 223.367 27.7046 223.284C27.6003 223.198 27.469 223.154 27.3108 223.154ZM28.9483 226.569C28.9231 226.569 28.9105 226.551 28.9105 226.515V226.197C28.9105 226.161 28.9285 226.143 28.9645 226.143H28.9753C29.1191 226.139 29.2324 226.121 29.3151 226.089C29.3978 226.057 29.4662 225.995 29.5201 225.906C29.574 225.819 29.6262 225.688 29.6765 225.512C29.6801 225.508 29.6801 225.503 29.6765 225.496C29.6765 225.485 29.6765 225.479 29.6765 225.479L28.7757 222.809L28.7703 222.788C28.7703 222.762 28.7864 222.75 28.8188 222.75H29.2558C29.2881 222.75 29.3097 222.764 29.3205 222.793L29.9301 224.827C29.9337 224.834 29.9391 224.837 29.9463 224.837C29.9535 224.837 29.9588 224.834 29.9624 224.827L30.5666 222.793C30.5774 222.764 30.599 222.75 30.6314 222.75H31.0575C31.0971 222.75 31.1115 222.77 31.1007 222.809L30.1189 225.684C30.0362 225.933 29.9535 226.116 29.8707 226.235C29.788 226.357 29.6801 226.443 29.5471 226.494C29.414 226.544 29.227 226.569 28.986 226.569H28.9483ZM33.9532 225.544C33.6943 225.544 33.4641 225.494 33.2627 225.393C33.0649 225.289 32.9103 225.143 32.7988 224.956C32.6909 224.766 32.6369 224.548 32.6369 224.303V222.906C32.6369 222.662 32.6909 222.448 32.7988 222.264C32.9103 222.077 33.0649 221.933 33.2627 221.833C33.4641 221.728 33.6943 221.676 33.9532 221.676C34.2121 221.676 34.4405 221.727 34.6383 221.827C34.8361 221.924 34.9889 222.063 35.0968 222.243C35.2083 222.423 35.2641 222.631 35.2641 222.868V222.874C35.2641 222.892 35.2587 222.906 35.2479 222.917C35.2371 222.928 35.2245 222.933 35.2101 222.933L34.8001 222.955C34.7642 222.955 34.7462 222.939 34.7462 222.906V222.89C34.7462 222.66 34.6743 222.475 34.5304 222.334C34.3866 222.194 34.1941 222.124 33.9532 222.124C33.7122 222.124 33.518 222.194 33.3706 222.334C33.2267 222.475 33.1548 222.66 33.1548 222.89V224.325C33.1548 224.555 33.2267 224.74 33.3706 224.881C33.518 225.021 33.7122 225.091 33.9532 225.091C34.1941 225.091 34.3866 225.021 34.5304 224.881C34.6743 224.74 34.7462 224.555 34.7462 224.325V224.314C34.7462 224.282 34.7642 224.266 34.8001 224.266L35.2101 224.287C35.2461 224.287 35.2641 224.305 35.2641 224.341C35.2641 224.579 35.2083 224.789 35.0968 224.972C34.9889 225.152 34.8361 225.292 34.6383 225.393C34.4405 225.494 34.2121 225.544 33.9532 225.544ZM35.8705 226.569C35.8453 226.569 35.8328 226.551 35.8328 226.515V226.197C35.8328 226.161 35.8507 226.143 35.8867 226.143H35.8975C36.0413 226.139 36.1546 226.121 36.2373 226.089C36.3201 226.057 36.3884 225.995 36.4423 225.906C36.4963 225.819 36.5484 225.688 36.5988 225.512C36.6024 225.508 36.6024 225.503 36.5988 225.496C36.5988 225.485 36.5988 225.479 36.5988 225.479L35.6979 222.809L35.6925 222.788C35.6925 222.762 35.7087 222.75 35.741 222.75H36.178C36.2104 222.75 36.2319 222.764 36.2427 222.793L36.8523 224.827C36.8559 224.834 36.8613 224.837 36.8685 224.837C36.8757 224.837 36.8811 224.834 36.8847 224.827L37.4889 222.793C37.4997 222.764 37.5212 222.75 37.5536 222.75H37.9798C38.0193 222.75 38.0337 222.77 38.0229 222.809L37.0411 225.684C36.9584 225.933 36.8757 226.116 36.793 226.235C36.7103 226.357 36.6024 226.443 36.4693 226.494C36.3362 226.544 36.1492 226.569 35.9083 226.569H35.8705ZM39.72 222.723C39.835 222.723 39.9393 222.746 40.0328 222.793C40.058 222.804 40.067 222.825 40.0598 222.858L39.9735 223.262C39.9699 223.295 39.9483 223.305 39.9088 223.295C39.8476 223.269 39.7757 223.257 39.693 223.257L39.6175 223.262C39.4484 223.269 39.3082 223.329 39.1967 223.44C39.0888 223.548 39.0349 223.69 39.0349 223.866V225.442C39.0349 225.478 39.0169 225.496 38.9809 225.496H38.5709C38.535 225.496 38.517 225.478 38.517 225.442V222.804C38.517 222.768 38.535 222.75 38.5709 222.75H38.9809C39.0169 222.75 39.0349 222.768 39.0349 222.804V223.09C39.0349 223.1 39.0366 223.108 39.0402 223.111C39.0474 223.111 39.0528 223.108 39.0564 223.1C39.2183 222.849 39.4394 222.723 39.72 222.723ZM42.1534 222.804C42.1534 222.768 42.1714 222.75 42.2073 222.75H42.6119C42.6479 222.75 42.6659 222.768 42.6659 222.804V225.442C42.6659 225.478 42.6479 225.496 42.6119 225.496H42.2073C42.1714 225.496 42.1534 225.478 42.1534 225.442V225.242C42.1534 225.235 42.1498 225.231 42.1426 225.231C42.139 225.228 42.1336 225.229 42.1264 225.237C41.9825 225.434 41.7614 225.533 41.4629 225.533C41.2867 225.533 41.123 225.499 40.972 225.431C40.8245 225.363 40.7059 225.262 40.6159 225.129C40.526 224.996 40.4811 224.834 40.4811 224.643V222.804C40.4811 222.768 40.4991 222.75 40.535 222.75H40.9396C40.9756 222.75 40.9936 222.768 40.9936 222.804V224.481C40.9936 224.668 41.0421 224.816 41.1392 224.924C41.2399 225.032 41.3802 225.086 41.56 225.086C41.7398 225.086 41.8836 225.032 41.9915 224.924C42.0994 224.812 42.1534 224.665 42.1534 224.481V222.804ZM44.3872 225.528C44.1714 225.528 43.9808 225.496 43.8153 225.431C43.6535 225.366 43.5276 225.278 43.4377 225.167C43.3478 225.051 43.3029 224.926 43.3029 224.789V224.73C43.3029 224.694 43.3208 224.676 43.3568 224.676H43.7452C43.7812 224.676 43.7992 224.694 43.7992 224.73V224.757C43.7992 224.857 43.8531 224.945 43.961 225.021C44.0725 225.096 44.2127 225.134 44.3818 225.134C44.5436 225.134 44.6749 225.1 44.7756 225.032C44.8763 224.96 44.9266 224.87 44.9266 224.762C44.9266 224.658 44.8799 224.58 44.7864 224.53C44.6928 224.476 44.5418 224.42 44.3332 224.363C44.1282 224.305 43.9556 224.248 43.8153 224.19C43.6787 224.129 43.5618 224.044 43.4647 223.937C43.3712 223.825 43.3244 223.683 43.3244 223.51C43.3244 223.269 43.4179 223.079 43.605 222.939C43.7956 222.795 44.0473 222.723 44.3602 222.723C44.5688 222.723 44.7522 222.757 44.9104 222.825C45.0723 222.89 45.1963 222.982 45.2826 223.1C45.369 223.219 45.4121 223.352 45.4121 223.5V223.516C45.4121 223.552 45.3941 223.57 45.3582 223.57H44.9806C44.9446 223.57 44.9266 223.552 44.9266 223.516V223.5C44.9266 223.395 44.8745 223.309 44.7702 223.241C44.6695 223.169 44.531 223.133 44.3548 223.133C44.1966 223.133 44.0671 223.163 43.9664 223.225C43.8693 223.286 43.8207 223.368 43.8207 223.473C43.8207 223.577 43.8675 223.656 43.961 223.71C44.0581 223.764 44.2127 223.822 44.4249 223.883C44.6335 223.94 44.8061 223.998 44.9428 224.055C45.083 224.109 45.2017 224.192 45.2988 224.303C45.3959 224.411 45.4445 224.553 45.4445 224.73C45.4445 224.974 45.3474 225.168 45.1532 225.312C44.9626 225.456 44.7072 225.528 44.3872 225.528ZM46.401 225.496C46.3003 225.496 46.2175 225.463 46.1528 225.399C46.0881 225.334 46.0557 225.251 46.0557 225.15C46.0557 225.05 46.0881 224.967 46.1528 224.902C46.2175 224.837 46.3003 224.805 46.401 224.805C46.5016 224.805 46.5844 224.837 46.6491 224.902C46.7138 224.967 46.7462 225.05 46.7462 225.15C46.7462 225.251 46.7138 225.334 46.6491 225.399C46.5844 225.463 46.5016 225.496 46.401 225.496ZM51.1243 221.752C51.1423 221.73 51.1639 221.719 51.189 221.719H51.599C51.635 221.719 51.653 221.737 51.653 221.773V225.442C51.653 225.478 51.635 225.496 51.599 225.496H51.189C51.1531 225.496 51.1351 225.478 51.1351 225.442V222.68C51.1351 222.669 51.1315 222.662 51.1243 222.658C51.1171 222.655 51.1117 222.658 51.1081 222.669L50.3367 223.845C50.3223 223.866 50.3007 223.877 50.272 223.877H50.067C50.0418 223.877 50.0202 223.866 50.0022 223.845L49.2254 222.68C49.2218 222.669 49.2164 222.665 49.2092 222.669C49.2021 222.672 49.1985 222.68 49.1985 222.69V225.442C49.1985 225.478 49.1805 225.496 49.1445 225.496H48.7345C48.6986 225.496 48.6806 225.478 48.6806 225.442V221.773C48.6806 221.737 48.6986 221.719 48.7345 221.719H49.1445C49.1733 221.719 49.1949 221.73 49.2092 221.752L50.1533 223.165C50.1569 223.169 50.1623 223.171 50.1695 223.171C50.1767 223.171 50.1821 223.169 50.1857 223.165L51.1243 221.752ZM52.785 222.318C52.6843 222.318 52.6015 222.286 52.5368 222.221C52.4721 222.156 52.4397 222.074 52.4397 221.973C52.4397 221.872 52.4721 221.79 52.5368 221.725C52.6015 221.66 52.6843 221.628 52.785 221.628C52.8857 221.628 52.9684 221.66 53.0331 221.725C53.0978 221.79 53.1302 221.872 53.1302 221.973C53.1302 222.074 53.0978 222.156 53.0331 222.221C52.9684 222.286 52.8857 222.318 52.785 222.318ZM52.5692 225.49C52.5332 225.49 52.5152 225.472 52.5152 225.436V222.804C52.5152 222.768 52.5332 222.75 52.5692 222.75H52.9792C53.0151 222.75 53.0331 222.768 53.0331 222.804V225.436C53.0331 225.472 53.0151 225.49 52.9792 225.49H52.5692ZM55.5517 221.773C55.5517 221.737 55.5697 221.719 55.6056 221.719H56.0156C56.0516 221.719 56.0696 221.737 56.0696 221.773V225.442C56.0696 225.478 56.0516 225.496 56.0156 225.496H55.6056C55.5697 225.496 55.5517 225.478 55.5517 225.442V225.264C55.5517 225.256 55.5481 225.251 55.5409 225.247C55.5373 225.244 55.5319 225.246 55.5247 225.253C55.4456 225.343 55.3521 225.413 55.2442 225.463C55.1363 225.514 55.0194 225.539 54.8936 225.539C54.6346 225.539 54.4189 225.476 54.2462 225.35C54.0772 225.22 53.9531 225.039 53.874 224.805C53.8057 224.615 53.7715 224.384 53.7715 224.115C53.7715 223.863 53.8003 223.645 53.8578 223.462C53.9334 223.225 54.0574 223.039 54.23 222.906C54.4027 222.773 54.6238 222.707 54.8936 222.707C55.0158 222.707 55.1309 222.732 55.2388 222.782C55.3503 222.829 55.4456 222.897 55.5247 222.987C55.5319 222.994 55.5373 222.996 55.5409 222.993C55.5481 222.989 55.5517 222.984 55.5517 222.976V221.773ZM55.4168 224.8C55.4996 224.649 55.5409 224.422 55.5409 224.12C55.5409 223.818 55.496 223.588 55.406 223.43C55.3018 223.246 55.1489 223.154 54.9475 223.154C54.7317 223.154 54.5717 223.241 54.4674 223.413C54.3523 223.593 54.2948 223.831 54.2948 224.125C54.2948 224.402 54.3397 224.625 54.4296 224.794C54.5339 224.992 54.7048 225.091 54.9421 225.091C55.1507 225.091 55.3089 224.994 55.4168 224.8ZM58.0533 222.712C58.3482 222.712 58.582 222.798 58.7546 222.971C58.9272 223.14 59.0135 223.37 59.0135 223.661V225.442C59.0135 225.478 58.9956 225.496 58.9596 225.496H58.5496C58.5136 225.496 58.4957 225.478 58.4957 225.442V223.764C58.4957 223.584 58.4435 223.439 58.3392 223.327C58.2349 223.216 58.0965 223.16 57.9238 223.16C57.7548 223.16 57.6164 223.216 57.5085 223.327C57.4006 223.439 57.3466 223.582 57.3466 223.759V225.442C57.3466 225.478 57.3287 225.496 57.2927 225.496H56.8827C56.8467 225.496 56.8288 225.478 56.8288 225.442V222.804C56.8288 222.768 56.8467 222.75 56.8827 222.75H57.2927C57.3287 222.75 57.3466 222.768 57.3466 222.804V222.998C57.3466 223.005 57.3484 223.011 57.352 223.014C57.3592 223.018 57.3646 223.016 57.3682 223.009C57.5229 222.811 57.7512 222.712 58.0533 222.712ZM60.0654 222.318C59.9647 222.318 59.882 222.286 59.8173 222.221C59.7525 222.156 59.7202 222.074 59.7202 221.973C59.7202 221.872 59.7525 221.79 59.8173 221.725C59.882 221.66 59.9647 221.628 60.0654 221.628C60.1661 221.628 60.2488 221.66 60.3136 221.725C60.3783 221.79 60.4107 221.872 60.4107 221.973C60.4107 222.074 60.3783 222.156 60.3136 222.221C60.2488 222.286 60.1661 222.318 60.0654 222.318ZM59.8496 225.49C59.8137 225.49 59.7957 225.472 59.7957 225.436V222.804C59.7957 222.768 59.8137 222.75 59.8496 222.75H60.2596C60.2956 222.75 60.3136 222.768 60.3136 222.804V225.436C60.3136 225.472 60.2956 225.49 60.2596 225.49H59.8496ZM62.816 222.804C62.816 222.768 62.834 222.75 62.8699 222.75H63.2799C63.3159 222.75 63.3338 222.768 63.3338 222.804V225.355C63.3338 225.791 63.2098 226.102 62.9616 226.289C62.7171 226.476 62.388 226.569 61.9744 226.569C61.9169 226.569 61.827 226.566 61.7047 226.558C61.6687 226.555 61.6508 226.535 61.6508 226.499L61.6669 226.127C61.6669 226.112 61.6723 226.1 61.6831 226.089C61.6939 226.078 61.7083 226.075 61.7263 226.078C61.7766 226.082 61.8504 226.084 61.9475 226.084C62.2532 226.084 62.4743 226.026 62.611 225.911C62.7476 225.799 62.816 225.609 62.816 225.339V225.242C62.816 225.235 62.8124 225.229 62.8052 225.226C62.8016 225.222 62.7962 225.224 62.789 225.231C62.638 225.407 62.4168 225.496 62.1255 225.496C61.8917 225.496 61.6795 225.434 61.4889 225.312C61.3019 225.19 61.1725 225.01 61.1005 224.773C61.0538 224.615 61.0304 224.395 61.0304 224.115C61.0304 223.816 61.0574 223.586 61.1113 223.424C61.1796 223.208 61.3001 223.036 61.4727 222.906C61.649 222.773 61.8558 222.707 62.0931 222.707C62.388 222.707 62.62 222.797 62.789 222.976C62.7962 222.984 62.8016 222.987 62.8052 222.987C62.8124 222.984 62.816 222.978 62.816 222.971V222.804ZM62.7836 224.616C62.7944 224.559 62.8016 224.498 62.8052 224.433C62.8124 224.368 62.816 224.26 62.816 224.109C62.816 223.958 62.8124 223.852 62.8052 223.791C62.8016 223.726 62.7926 223.665 62.7782 223.608C62.7494 223.474 62.6847 223.367 62.584 223.284C62.4833 223.198 62.3574 223.154 62.2064 223.154C62.0554 223.154 61.9295 223.198 61.8288 223.284C61.7281 223.367 61.6562 223.474 61.613 223.608C61.5734 223.715 61.5537 223.883 61.5537 224.109C61.5537 224.357 61.5716 224.526 61.6076 224.616C61.6436 224.749 61.7137 224.859 61.818 224.945C61.9259 225.028 62.0554 225.069 62.2064 225.069C62.3646 225.069 62.4923 225.028 62.5894 224.945C62.6901 224.859 62.7548 224.749 62.7836 224.616ZM65.2811 222.712C65.576 222.712 65.8098 222.798 65.9824 222.971C66.155 223.14 66.2413 223.37 66.2413 223.661V225.442C66.2413 225.478 66.2233 225.496 66.1874 225.496H65.7774C65.7414 225.496 65.7234 225.478 65.7234 225.442V223.764C65.7234 223.584 65.6713 223.439 65.567 223.327C65.4627 223.216 65.3242 223.16 65.1516 223.16C64.9826 223.16 64.8441 223.216 64.7362 223.327C64.6284 223.439 64.5744 223.582 64.5744 223.759V225.442C64.5744 225.478 64.5564 225.496 64.5205 225.496H64.1105C64.0745 225.496 64.0565 225.478 64.0565 225.442V221.773C64.0565 221.737 64.0745 221.719 64.1105 221.719H64.5205C64.5564 221.719 64.5744 221.737 64.5744 221.773V222.998C64.5744 223.005 64.5762 223.011 64.5798 223.014C64.587 223.018 64.5924 223.016 64.596 223.009C64.7506 222.811 64.979 222.712 65.2811 222.712ZM68.3343 223.122C68.3343 223.158 68.3164 223.176 68.2804 223.176H67.6978C67.6834 223.176 67.6762 223.183 67.6762 223.198V224.627C67.6762 224.778 67.7104 224.888 67.7787 224.956C67.847 225.021 67.9531 225.053 68.097 225.053H68.2534C68.2894 225.053 68.3074 225.071 68.3074 225.107V225.442C68.3074 225.478 68.2894 225.496 68.2534 225.496C68.1383 225.503 68.0556 225.506 68.0053 225.506C67.732 225.506 67.5252 225.458 67.3849 225.361C67.2482 225.26 67.1799 225.077 67.1799 224.811V223.198C67.1799 223.183 67.1727 223.176 67.1583 223.176H66.8293C66.7933 223.176 66.7753 223.158 66.7753 223.122V222.804C66.7753 222.768 66.7933 222.75 66.8293 222.75H67.1583C67.1727 222.75 67.1799 222.743 67.1799 222.728V222.092C67.1799 222.056 67.1979 222.038 67.2339 222.038H67.6223C67.6582 222.038 67.6762 222.056 67.6762 222.092V222.728C67.6762 222.743 67.6834 222.75 67.6978 222.75H68.2804C68.3164 222.75 68.3343 222.768 68.3343 222.804V223.122ZM71.2815 225.539C71.0046 225.539 70.7637 225.496 70.5587 225.409C70.3573 225.323 70.2008 225.201 70.0894 225.042C69.9815 224.884 69.9275 224.699 69.9275 224.487V224.33C69.9275 224.294 69.9455 224.276 69.9815 224.276H70.3753C70.4112 224.276 70.4292 224.294 70.4292 224.33V224.46C70.4292 224.643 70.5083 224.794 70.6666 224.913C70.8248 225.032 71.0424 225.091 71.3193 225.091C71.5675 225.091 71.7545 225.039 71.8803 224.935C72.0062 224.83 72.0691 224.694 72.0691 224.525C72.0691 224.413 72.0368 224.318 71.972 224.239C71.9073 224.16 71.812 224.088 71.6861 224.023C71.5639 223.955 71.384 223.874 71.1467 223.78C70.8841 223.679 70.6756 223.588 70.5209 223.505C70.3699 223.422 70.244 223.314 70.1433 223.181C70.0426 223.045 69.9923 222.874 69.9923 222.669C69.9923 222.36 70.1019 222.117 70.3213 221.941C70.5443 221.764 70.8446 221.676 71.2222 221.676C71.4883 221.676 71.7221 221.721 71.9235 221.811C72.1249 221.901 72.2795 222.027 72.3874 222.189C72.4989 222.351 72.5546 222.538 72.5546 222.75V222.858C72.5546 222.894 72.5367 222.912 72.5007 222.912H72.0961C72.0601 222.912 72.0422 222.894 72.0422 222.858V222.777C72.0422 222.59 71.9666 222.435 71.8156 222.313C71.6681 222.187 71.4632 222.124 71.2006 222.124C70.9777 222.124 70.805 222.171 70.6828 222.264C70.5605 222.354 70.4993 222.485 70.4993 222.658C70.4993 222.777 70.5299 222.874 70.591 222.949C70.6522 223.025 70.7421 223.093 70.8608 223.154C70.983 223.212 71.1683 223.287 71.4164 223.381C71.6717 223.482 71.8785 223.575 72.0368 223.661C72.195 223.744 72.3263 223.856 72.4306 223.996C72.5349 224.133 72.587 224.303 72.587 224.508C72.587 224.825 72.4701 225.077 72.2364 225.264C72.0062 225.447 71.6879 225.539 71.2815 225.539ZM73.2769 225.496C73.241 225.496 73.223 225.478 73.223 225.442V221.773C73.223 221.737 73.241 221.719 73.2769 221.719H73.6869C73.7229 221.719 73.7408 221.737 73.7408 221.773V223.85C73.7408 223.857 73.7444 223.863 73.7516 223.866C73.7588 223.87 73.7642 223.868 73.7678 223.861L74.7658 222.777C74.7802 222.759 74.8018 222.75 74.8305 222.75H75.3106C75.3322 222.75 75.3448 222.757 75.3484 222.771C75.3556 222.782 75.352 222.797 75.3376 222.815L74.6417 223.618C74.6345 223.633 74.6327 223.643 74.6363 223.651L75.4617 225.431L75.4671 225.452C75.4671 225.481 75.4509 225.496 75.4185 225.496H74.987C74.9582 225.496 74.9384 225.481 74.9276 225.452L74.2857 223.985C74.2785 223.967 74.2695 223.965 74.2587 223.98L73.7516 224.541C73.7444 224.555 73.7408 224.564 73.7408 224.568V225.442C73.7408 225.478 73.7229 225.496 73.6869 225.496H73.2769ZM75.9025 226.569C75.8773 226.569 75.8648 226.551 75.8648 226.515V226.197C75.8648 226.161 75.8827 226.143 75.9187 226.143H75.9295C76.0733 226.139 76.1866 226.121 76.2693 226.089C76.3521 226.057 76.4204 225.995 76.4743 225.906C76.5283 225.819 76.5804 225.688 76.6308 225.512C76.6344 225.508 76.6344 225.503 76.6308 225.496C76.6308 225.485 76.6308 225.479 76.6308 225.479L75.7299 222.809L75.7245 222.788C75.7245 222.762 75.7407 222.75 75.773 222.75H76.21C76.2424 222.75 76.2639 222.764 76.2747 222.793L76.8843 224.827C76.8879 224.834 76.8933 224.837 76.9005 224.837C76.9077 224.837 76.9131 224.834 76.9167 224.827L77.5209 222.793C77.5317 222.764 77.5532 222.75 77.5856 222.75H78.0118C78.0513 222.75 78.0657 222.77 78.0549 222.809L77.0731 225.684C76.9904 225.933 76.9077 226.116 76.825 226.235C76.7423 226.357 76.6344 226.443 76.5013 226.494C76.3682 226.544 76.1812 226.569 75.9403 226.569H75.9025Z" fill="white"/>
<g clip-path="url(#clip1_1032_3991)">
<path d="M123.631 149.06L120.33 152.066L117.028 149.06C116.81 148.866 116.639 148.631 116.524 148.373C116.41 148.114 116.355 147.836 116.363 147.557C116.371 147.278 116.441 147.003 116.571 146.75C116.7 146.497 116.884 146.272 117.113 146.088C117.342 145.904 117.609 145.765 117.899 145.681C118.189 145.597 118.494 145.569 118.796 145.598C119.099 145.628 119.391 145.715 119.655 145.853C119.919 145.992 120.148 146.179 120.33 146.403C120.512 146.181 120.742 145.995 121.005 145.858C121.269 145.721 121.561 145.635 121.862 145.607C122.163 145.578 122.468 145.607 122.756 145.691C123.045 145.776 123.312 145.914 123.539 146.098C123.767 146.281 123.951 146.506 124.08 146.758C124.209 147.01 124.28 147.283 124.289 147.562C124.298 147.84 124.244 148.117 124.131 148.375C124.017 148.634 123.847 148.868 123.631 149.063" stroke="white" stroke-width="0.7554" stroke-linecap="round" stroke-linejoin="round"/>
</g>
<path d="M118.433 157.089C118.466 157.221 118.482 157.358 118.482 157.498C118.482 157.639 118.464 157.77 118.428 157.89C118.371 158.081 118.262 158.234 118.1 158.348C117.941 158.459 117.751 158.514 117.529 158.514C117.31 158.514 117.123 158.46 116.967 158.353C116.811 158.245 116.702 158.098 116.639 157.912C116.609 157.828 116.593 157.755 116.59 157.692V157.683C116.59 157.659 116.603 157.647 116.63 157.647H116.985C117.012 157.647 117.027 157.66 117.03 157.687C117.033 157.708 117.041 157.74 117.053 157.782C117.086 157.893 117.143 157.981 117.224 158.047C117.307 158.11 117.408 158.141 117.525 158.141C117.648 158.141 117.751 158.108 117.835 158.042C117.922 157.973 117.98 157.879 118.01 157.759C118.031 157.696 118.042 157.609 118.042 157.498C118.042 157.4 118.033 157.308 118.015 157.224C117.994 157.11 117.94 157.023 117.853 156.963C117.769 156.901 117.664 156.869 117.538 156.869C117.421 156.869 117.316 156.896 117.224 156.95C117.131 157.001 117.071 157.07 117.044 157.157C117.035 157.184 117.018 157.197 116.994 157.197H116.635C116.605 157.197 116.59 157.182 116.59 157.152V155.381C116.59 155.351 116.605 155.336 116.635 155.336H118.316C118.346 155.336 118.361 155.351 118.361 155.381V155.664C118.361 155.694 118.346 155.709 118.316 155.709H117.039C117.027 155.709 117.021 155.715 117.021 155.727L117.017 156.667C117.017 156.685 117.024 156.689 117.039 156.68C117.111 156.617 117.194 156.571 117.286 156.541C117.382 156.508 117.483 156.491 117.588 156.491C117.797 156.491 117.977 156.544 118.127 156.649C118.28 156.754 118.382 156.901 118.433 157.089ZM120.786 157.089C120.819 157.221 120.835 157.358 120.835 157.498C120.835 157.639 120.817 157.77 120.781 157.89C120.724 158.081 120.615 158.234 120.453 158.348C120.294 158.459 120.104 158.514 119.882 158.514C119.663 158.514 119.476 158.46 119.32 158.353C119.164 158.245 119.055 158.098 118.992 157.912C118.962 157.828 118.946 157.755 118.943 157.692V157.683C118.943 157.659 118.956 157.647 118.983 157.647H119.338C119.365 157.647 119.38 157.66 119.383 157.687C119.386 157.708 119.394 157.74 119.406 157.782C119.439 157.893 119.496 157.981 119.577 158.047C119.66 158.11 119.761 158.141 119.878 158.141C120.001 158.141 120.104 158.108 120.188 158.042C120.275 157.973 120.333 157.879 120.363 157.759C120.384 157.696 120.395 157.609 120.395 157.498C120.395 157.4 120.386 157.308 120.368 157.224C120.347 157.11 120.293 157.023 120.206 156.963C120.122 156.901 120.017 156.869 119.891 156.869C119.774 156.869 119.669 156.896 119.577 156.95C119.484 157.001 119.424 157.07 119.397 157.157C119.388 157.184 119.371 157.197 119.347 157.197H118.988C118.958 157.197 118.943 157.182 118.943 157.152V155.381C118.943 155.351 118.958 155.336 118.988 155.336H120.669C120.699 155.336 120.714 155.351 120.714 155.381V155.664C120.714 155.694 120.699 155.709 120.669 155.709H119.392C119.38 155.709 119.374 155.715 119.374 155.727L119.37 156.667C119.37 156.685 119.377 156.689 119.392 156.68C119.464 156.617 119.547 156.571 119.64 156.541C119.735 156.508 119.836 156.491 119.941 156.491C120.15 156.491 120.33 156.544 120.48 156.649C120.633 156.754 120.735 156.901 120.786 157.089ZM121.449 158.483C121.419 158.483 121.404 158.468 121.404 158.438V155.381C121.404 155.351 121.419 155.336 121.449 155.336H121.79C121.82 155.336 121.835 155.351 121.835 155.381V156.815C121.835 156.821 121.838 156.826 121.844 156.829C121.85 156.829 121.855 156.826 121.858 156.82L123.143 155.363C123.155 155.345 123.173 155.336 123.197 155.336H123.588C123.606 155.336 123.618 155.342 123.624 155.354C123.63 155.363 123.627 155.375 123.615 155.39L122.546 156.653C122.543 156.662 122.543 156.671 122.546 156.68L123.692 158.429C123.698 158.441 123.701 158.45 123.701 158.456C123.701 158.474 123.689 158.483 123.665 158.483H123.274C123.253 158.483 123.235 158.474 123.22 158.456L122.249 156.986C122.246 156.98 122.241 156.977 122.235 156.977C122.229 156.977 122.225 156.978 122.222 156.981L121.844 157.404C121.838 157.416 121.835 157.423 121.835 157.426V158.438C121.835 158.468 121.82 158.483 121.79 158.483H121.449Z" fill="white"/>
<path d="M123.949 168.194C123.95 168.631 123.857 169.064 123.675 169.467C123.494 169.871 123.227 170.238 122.891 170.547C122.554 170.856 122.155 171.101 121.716 171.268C121.276 171.436 120.805 171.522 120.33 171.521C119.818 171.523 119.311 171.423 118.845 171.23L117.331 171.436C117.256 171.447 117.179 171.441 117.107 171.419C117.035 171.397 116.97 171.359 116.917 171.308C116.865 171.257 116.827 171.196 116.806 171.128C116.785 171.061 116.783 170.99 116.799 170.921L117.009 169.51C116.81 169.096 116.708 168.647 116.71 168.194C116.709 167.757 116.803 167.325 116.984 166.921C117.166 166.517 117.432 166.15 117.768 165.842C118.105 165.532 118.504 165.287 118.944 165.12C119.383 164.953 119.854 164.867 120.33 164.867C121.29 164.867 122.211 165.217 122.891 165.842C123.227 166.15 123.493 166.517 123.675 166.921C123.856 167.325 123.95 167.757 123.949 168.194Z" stroke="white" stroke-width="0.7554" stroke-linecap="round" stroke-linejoin="round"/>
<path d="M118.365 174.715C118.41 174.841 118.433 174.986 118.433 175.151V176.535C118.433 176.781 118.347 176.977 118.177 177.124C118.006 177.271 117.782 177.345 117.507 177.345C117.33 177.345 117.173 177.312 117.035 177.246C116.9 177.18 116.795 177.088 116.72 176.971C116.645 176.852 116.608 176.715 116.608 176.562V176.472C116.608 176.442 116.623 176.427 116.653 176.427H116.994C117.024 176.427 117.039 176.442 117.039 176.472V176.513C117.039 176.648 117.083 176.757 117.17 176.841C117.256 176.925 117.369 176.967 117.507 176.967C117.651 176.967 117.769 176.923 117.862 176.837C117.955 176.75 118.001 176.634 118.001 176.49V175.924C118.001 175.918 117.998 175.914 117.992 175.911C117.989 175.908 117.985 175.909 117.979 175.915C117.85 176.062 117.663 176.135 117.417 176.135C117.24 176.135 117.087 176.099 116.958 176.027C116.832 175.955 116.734 175.851 116.662 175.713C116.578 175.554 116.536 175.364 116.536 175.142C116.536 174.962 116.564 174.802 116.621 174.661C116.69 174.49 116.798 174.36 116.945 174.27C117.092 174.177 117.268 174.13 117.475 174.13C117.697 174.13 117.884 174.181 118.037 174.283C118.19 174.385 118.299 174.529 118.365 174.715ZM117.929 175.501C117.977 175.403 118.001 175.275 118.001 175.119C118.001 174.993 117.982 174.887 117.943 174.8C117.904 174.704 117.845 174.632 117.767 174.584C117.69 174.533 117.595 174.508 117.484 174.508C117.373 174.508 117.279 174.533 117.201 174.584C117.126 174.632 117.071 174.703 117.035 174.796C116.99 174.889 116.967 175.004 116.967 175.142C116.967 175.292 116.993 175.415 117.044 175.51C117.137 175.684 117.283 175.771 117.484 175.771C117.697 175.771 117.845 175.681 117.929 175.501ZM119.32 177.309C119.305 177.309 119.293 177.304 119.284 177.295C119.278 177.283 119.278 177.27 119.284 177.255L120.305 174.557C120.308 174.551 120.308 174.547 120.305 174.544C120.302 174.538 120.297 174.535 120.291 174.535H119.208C119.196 174.535 119.19 174.541 119.19 174.553V174.764C119.19 174.794 119.175 174.809 119.145 174.809H118.875C118.845 174.809 118.83 174.794 118.83 174.764V174.207C118.83 174.177 118.845 174.162 118.875 174.162H120.723C120.753 174.162 120.768 174.177 120.768 174.207V174.508C120.768 174.52 120.765 174.538 120.759 174.562L119.743 177.273C119.734 177.297 119.717 177.309 119.693 177.309H119.32ZM122.123 177.354C121.82 177.354 121.579 177.268 121.399 177.097C121.222 176.923 121.134 176.691 121.134 176.401V175.07C121.134 174.779 121.222 174.548 121.399 174.378C121.579 174.207 121.82 174.121 122.123 174.121C122.425 174.121 122.667 174.207 122.847 174.378C123.029 174.548 123.121 174.779 123.121 175.07V176.401C123.121 176.691 123.029 176.923 122.847 177.097C122.667 177.268 122.425 177.354 122.123 177.354ZM122.123 176.98C122.297 176.98 122.434 176.931 122.536 176.832C122.638 176.73 122.689 176.595 122.689 176.427V175.052C122.689 174.884 122.638 174.751 122.536 174.652C122.434 174.55 122.297 174.499 122.123 174.499C121.955 174.499 121.82 174.55 121.718 174.652C121.616 174.751 121.565 174.884 121.565 175.052V176.427C121.565 176.595 121.616 176.73 121.718 176.832C121.82 176.931 121.955 176.98 122.123 176.98Z" fill="white"/>
<g clip-path="url(#clip2_1032_3991)">
<path d="M122.09 186.418L115.553 188.421C115.296 188.5 115.071 188.651 114.91 188.852C114.749 189.053 114.659 189.295 114.653 189.545C114.647 189.794 114.725 190.04 114.876 190.247C115.027 190.455 115.244 190.614 115.497 190.704L117.916 191.554C117.973 191.576 118.025 191.608 118.069 191.648C118.113 191.688 118.148 191.736 118.171 191.789L119.096 194.012C119.175 194.201 119.304 194.369 119.471 194.5C119.638 194.632 119.839 194.723 120.054 194.765C120.269 194.807 120.492 194.799 120.703 194.741C120.915 194.684 121.107 194.579 121.262 194.436C121.407 194.301 121.516 194.137 121.583 193.958L123.762 187.949C123.839 187.735 123.849 187.506 123.793 187.287C123.736 187.068 123.615 186.868 123.442 186.709C123.269 186.55 123.051 186.438 122.813 186.387C122.575 186.335 122.326 186.344 122.093 186.415L122.09 186.418ZM122.925 187.694L120.746 193.703C120.716 193.781 120.661 193.849 120.588 193.897C120.515 193.946 120.428 193.972 120.338 193.974C120.249 193.975 120.161 193.952 120.086 193.906C120.011 193.86 119.954 193.794 119.921 193.718L118.993 191.497C118.98 191.468 118.966 191.439 118.949 191.411L121.094 189.44C121.177 189.364 121.223 189.261 121.223 189.154C121.223 189.046 121.177 188.943 121.094 188.867C121.012 188.791 120.9 188.749 120.783 188.749C120.666 188.749 120.554 188.791 120.472 188.867L118.327 190.839C118.297 190.824 118.265 190.811 118.233 190.799L115.818 189.946C115.734 189.916 115.663 189.863 115.613 189.794C115.563 189.726 115.537 189.645 115.539 189.562C115.541 189.48 115.57 189.399 115.623 189.333C115.675 189.266 115.749 189.215 115.833 189.188L122.37 187.185C122.448 187.162 122.53 187.159 122.609 187.177C122.688 187.194 122.76 187.231 122.817 187.284C122.874 187.336 122.914 187.403 122.933 187.475C122.952 187.547 122.949 187.623 122.925 187.694Z" fill="white"/>
</g>
<path d="M117.352 206.298C117.352 206.397 117.391 206.492 117.461 206.561C117.531 206.631 117.626 206.67 117.724 206.67C117.823 206.67 117.918 206.631 117.987 206.561C118.057 206.492 118.096 206.397 118.096 206.298C118.096 206.2 118.057 206.105 117.987 206.035C117.918 205.965 117.823 205.926 117.724 205.926C117.626 205.926 117.531 205.965 117.461 206.035C117.391 206.105 117.352 206.2 117.352 206.298ZM119.957 206.298C119.957 206.397 119.996 206.492 120.066 206.561C120.136 206.631 120.23 206.67 120.329 206.67C120.428 206.67 120.522 206.631 120.592 206.561C120.662 206.492 120.701 206.397 120.701 206.298C120.701 206.2 120.662 206.105 120.592 206.035C120.522 205.965 120.428 205.926 120.329 205.926C120.23 205.926 120.136 205.965 120.066 206.035C119.996 206.105 119.957 206.2 119.957 206.298ZM122.562 206.298C122.562 206.397 122.601 206.492 122.671 206.561C122.74 206.631 122.835 206.67 122.934 206.67C123.032 206.67 123.127 206.631 123.197 206.561C123.267 206.492 123.306 206.397 123.306 206.298C123.306 206.2 123.267 206.105 123.197 206.035C123.127 205.965 123.032 205.926 122.934 205.926C122.835 205.926 122.74 205.965 122.671 206.035C122.601 206.105 122.562 206.2 122.562 206.298Z" fill="white" stroke="white" stroke-width="0.520953" stroke-linecap="round" stroke-linejoin="round"/>
<rect x="115.159" y="216.383" width="10.3394" height="10.3394" rx="0.674312" fill="white"/>
<rect x="115.159" y="216.383" width="10.3394" height="10.3394" rx="0.674312" stroke="white" stroke-width="0.449541"/>
<defs>
<clipPath id="clip0_1032_3991">
<rect width="10.789" height="10.789" fill="white" transform="translate(7.66541 7.3125)"/>
</clipPath>
<clipPath id="clip1_1032_3991">
<rect width="10.5654" height="9.71229" fill="white" transform="translate(115.046 143.973)"/>
</clipPath>
<clipPath id="clip2_1032_3991">
<rect width="10.1478" height="10.1478" fill="white" transform="matrix(0.736204 -0.676759 0.736204 0.676759 112.858 189.571)"/>
</clipPath>
</defs>
</svg>
