<svg width="136" height="243" viewBox="0 0 136 243" fill="none" xmlns="http://www.w3.org/2000/svg">
<rect x="0.345123" y="0.330566" width="135.316" height="242.089" rx="13.8073" fill="#2A2A2A"/>
<path d="M103.956 19.8876L101.661 17.5919M101.661 17.5919C102.054 17.1993 102.365 16.7331 102.578 16.22C102.79 15.707 102.899 15.1571 102.899 14.6018C102.899 14.0465 102.79 13.4966 102.578 12.9835C102.365 12.4705 102.054 12.0043 101.661 11.6116C101.268 11.2189 100.802 10.9075 100.289 10.6949C99.7759 10.4824 99.226 10.373 98.6707 10.373C98.1154 10.373 97.5655 10.4824 97.0525 10.6949C96.5394 10.9075 96.0732 11.2189 95.6806 11.6116C94.8875 12.4047 94.442 13.4802 94.442 14.6018C94.442 15.7233 94.8875 16.7989 95.6806 17.5919C96.4736 18.385 97.5492 18.8305 98.6707 18.8305C99.7922 18.8305 100.868 18.385 101.661 17.5919Z" stroke="white" stroke-width="0.845725" stroke-linecap="round" stroke-linejoin="round"/>
<path d="M123.25 11.6615H121.823L121.119 10.6045C121.092 10.5637 121.055 10.5303 121.012 10.5072C120.968 10.4841 120.92 10.4721 120.871 10.4722H117.7C117.651 10.4721 117.602 10.4841 117.559 10.5072C117.516 10.5303 117.479 10.5637 117.452 10.6045L116.747 11.6615H115.321C115.032 11.6615 114.755 11.7763 114.55 11.9808C114.346 12.1852 114.231 12.4625 114.231 12.7517V18.3017C114.231 18.5909 114.346 18.8682 114.55 19.0726C114.755 19.2771 115.032 19.3919 115.321 19.3919H123.25C123.539 19.3919 123.816 19.2771 124.021 19.0726C124.225 18.8682 124.34 18.5909 124.34 18.3017V12.7517C124.34 12.4625 124.225 12.1852 124.021 11.9808C123.816 11.7763 123.539 11.6615 123.25 11.6615ZM123.745 18.3017C123.745 18.4332 123.693 18.5592 123.6 18.6521C123.507 18.7451 123.381 18.7973 123.25 18.7973H115.321C115.19 18.7973 115.063 18.7451 114.971 18.6521C114.878 18.5592 114.825 18.4332 114.825 18.3017V12.7517C114.825 12.6202 114.878 12.4942 114.971 12.4013C115.063 12.3083 115.19 12.2561 115.321 12.2561H116.907C116.956 12.2562 117.004 12.2442 117.047 12.2211C117.09 12.198 117.127 12.1646 117.154 12.1238L117.859 11.0668H120.711L121.416 12.1238C121.443 12.1646 121.48 12.198 121.523 12.2211C121.567 12.2442 121.615 12.2562 121.664 12.2561H123.25C123.381 12.2561 123.507 12.3083 123.6 12.4013C123.693 12.4942 123.745 12.6202 123.745 12.7517V18.3017ZM119.285 13.2472C118.874 13.2472 118.471 13.3693 118.129 13.598C117.787 13.8267 117.52 14.1517 117.362 14.532C117.205 14.9123 117.164 15.3308 117.244 15.7345C117.324 16.1382 117.523 16.5091 117.814 16.8002C118.105 17.0912 118.476 17.2895 118.879 17.3698C119.283 17.4501 119.701 17.4089 120.082 17.2513C120.462 17.0938 120.787 16.827 121.016 16.4848C121.245 16.1425 121.367 15.7401 121.367 15.3285C121.367 14.7765 121.147 14.2471 120.757 13.8568C120.367 13.4665 119.837 13.2472 119.285 13.2472ZM119.285 16.8151C118.991 16.8151 118.704 16.7279 118.459 16.5646C118.215 16.4012 118.024 16.169 117.912 15.8974C117.799 15.6257 117.77 15.3268 117.827 15.0385C117.885 14.7501 118.026 14.4852 118.234 14.2773C118.442 14.0694 118.707 13.9278 118.995 13.8704C119.284 13.8131 119.583 13.8425 119.854 13.955C120.126 14.0675 120.358 14.2581 120.521 14.5026C120.685 14.747 120.772 15.0345 120.772 15.3285C120.772 15.7228 120.615 16.1009 120.337 16.3797C120.058 16.6585 119.68 16.8151 119.285 16.8151Z" fill="#FAFAFA"/>
<path d="M9.58022 206.133C9.52384 206.133 9.49565 206.105 9.49565 206.048V200.297C9.49565 200.241 9.52384 200.213 9.58022 200.213H10.223C10.2794 200.213 10.3075 200.241 10.3075 200.297V205.397C10.3075 205.42 10.3188 205.431 10.3414 205.431H13.2591C13.3155 205.431 13.3437 205.459 13.3437 205.515V206.048C13.3437 206.105 13.3155 206.133 13.2591 206.133H9.58022ZM15.9765 206.2C15.5593 206.2 15.1957 206.096 14.8856 205.888C14.5755 205.673 14.3584 205.377 14.2344 205C14.1329 204.695 14.0821 204.351 14.0821 203.968C14.0821 203.567 14.13 203.229 14.2259 202.953C14.3499 202.581 14.567 202.29 14.8771 202.082C15.1872 201.868 15.5565 201.76 15.985 201.76C16.3909 201.76 16.7433 201.868 17.0422 202.082C17.3466 202.29 17.5637 202.578 17.6934 202.944C17.7949 203.232 17.8456 203.57 17.8456 203.959C17.8456 204.354 17.7949 204.701 17.6934 205C17.5693 205.377 17.3551 205.673 17.0506 205.888C16.7462 206.096 16.3881 206.2 15.9765 206.2ZM15.9765 205.499C16.2021 205.499 16.3994 205.436 16.5686 205.312C16.7377 205.183 16.8589 205.002 16.9322 204.771C16.9942 204.557 17.0252 204.292 17.0252 203.976C17.0252 203.66 16.9971 203.398 16.9407 203.19C16.8674 202.959 16.7462 202.781 16.577 202.657C16.4079 202.527 16.2021 202.462 15.9596 202.462C15.7285 202.462 15.5283 202.527 15.3592 202.657C15.19 202.781 15.0688 202.959 14.9955 203.19C14.9335 203.387 14.9025 203.649 14.9025 203.976C14.9025 204.303 14.9335 204.568 14.9955 204.771C15.0632 205.002 15.1816 205.183 15.3507 205.312C15.5255 205.436 15.7341 205.499 15.9765 205.499ZM20.7945 201.786C20.975 201.786 21.1385 201.822 21.2851 201.896C21.3245 201.913 21.3386 201.946 21.3273 201.997L21.192 202.632C21.1864 202.682 21.1526 202.699 21.0905 202.682C20.9947 202.643 20.8819 202.623 20.7522 202.623L20.6338 202.632C20.3688 202.643 20.149 202.736 19.9742 202.911C19.805 203.08 19.7205 203.302 19.7205 203.579V206.048C19.7205 206.105 19.6923 206.133 19.6359 206.133H18.9931C18.9368 206.133 18.9086 206.105 18.9086 206.048V201.913C18.9086 201.856 18.9368 201.828 18.9931 201.828H19.6359C19.6923 201.828 19.7205 201.856 19.7205 201.913V202.361C19.7205 202.378 19.7233 202.389 19.7289 202.395C19.7402 202.395 19.7487 202.389 19.7543 202.378C20.008 201.983 20.3548 201.786 20.7945 201.786ZM25.4653 203.443C25.4879 203.675 25.4963 203.934 25.4907 204.221C25.4907 204.278 25.4625 204.306 25.4061 204.306H22.7082C22.6857 204.306 22.6744 204.317 22.6744 204.34C22.6744 204.532 22.6913 204.678 22.7252 204.78C22.7872 205.005 22.9112 205.183 23.0973 205.312C23.289 205.436 23.5286 205.499 23.8161 205.499C24.2334 205.499 24.5547 205.327 24.7803 204.983C24.8085 204.926 24.8451 204.918 24.8902 204.957L25.3723 205.279C25.4117 205.312 25.4202 205.349 25.3977 205.389C25.2398 205.642 25.0143 205.842 24.7211 205.989C24.4335 206.136 24.1065 206.209 23.74 206.209C23.3284 206.209 22.9817 206.119 22.6998 205.938C22.4179 205.758 22.2064 205.501 22.0655 205.169C21.9302 204.836 21.8625 204.433 21.8625 203.959C21.8625 203.548 21.8935 203.235 21.9556 203.021C22.057 202.632 22.26 202.324 22.5645 202.099C22.8689 201.873 23.2382 201.76 23.6724 201.76C24.2418 201.76 24.6675 201.904 24.9494 202.192C25.2313 202.474 25.4033 202.891 25.4653 203.443ZM23.6724 202.462C23.4299 202.462 23.2298 202.524 23.0719 202.648C22.914 202.767 22.8069 202.928 22.7505 203.13C22.7111 203.255 22.6857 203.412 22.6744 203.604C22.6744 203.627 22.6857 203.638 22.7082 203.638H24.645C24.6675 203.638 24.6788 203.627 24.6788 203.604C24.6675 203.418 24.6506 203.28 24.628 203.19C24.5717 202.97 24.4589 202.795 24.2898 202.665C24.1262 202.53 23.9205 202.462 23.6724 202.462ZM30.989 201.769C31.4175 201.769 31.7558 201.899 32.0039 202.158C32.252 202.412 32.376 202.767 32.376 203.224V206.048C32.376 206.105 32.3478 206.133 32.2914 206.133H31.6571C31.6008 206.133 31.5726 206.105 31.5726 206.048V203.393C31.5726 203.111 31.4936 202.888 31.3358 202.725C31.1835 202.555 30.9777 202.471 30.7184 202.471C30.459 202.471 30.2476 202.553 30.0841 202.716C29.9206 202.88 29.8388 203.099 29.8388 203.376V206.048C29.8388 206.105 29.8106 206.133 29.7543 206.133H29.12C29.0636 206.133 29.0354 206.105 29.0354 206.048V203.393C29.0354 203.111 28.9565 202.888 28.7986 202.725C28.6464 202.555 28.4406 202.471 28.1812 202.471C27.9219 202.471 27.7132 202.553 27.5554 202.716C27.4031 202.88 27.327 203.099 27.327 203.376V206.048C27.327 206.105 27.2988 206.133 27.2425 206.133H26.5997C26.5433 206.133 26.5151 206.105 26.5151 206.048V201.913C26.5151 201.856 26.5433 201.828 26.5997 201.828H27.2425C27.2988 201.828 27.327 201.856 27.327 201.913V202.2C27.327 202.211 27.3298 202.22 27.3355 202.226C27.3468 202.231 27.358 202.228 27.3693 202.217C27.6174 201.918 27.9782 201.769 28.4518 201.769C28.7394 201.769 28.9846 201.825 29.1876 201.938C29.3906 202.045 29.5485 202.206 29.6612 202.42C29.6781 202.443 29.6951 202.443 29.712 202.42C29.8473 202.2 30.0249 202.037 30.2448 201.93C30.4703 201.822 30.7184 201.769 30.989 201.769ZM35.3814 206.133C35.3251 206.133 35.2969 206.105 35.2969 206.048V200.297C35.2969 200.241 35.3251 200.213 35.3814 200.213H36.0242C36.0806 200.213 36.1088 200.241 36.1088 200.297V206.048C36.1088 206.105 36.0806 206.133 36.0242 206.133H35.3814ZM40.8851 202.911C40.9922 203.215 41.0458 203.576 41.0458 203.993C41.0458 204.388 41.0007 204.729 40.9105 205.016C40.7921 205.394 40.5976 205.687 40.3269 205.896C40.0563 206.099 39.7096 206.2 39.2867 206.2C39.095 206.2 38.9118 206.164 38.737 206.091C38.5678 206.012 38.4212 205.902 38.2972 205.761C38.2859 205.749 38.2746 205.747 38.2634 205.752C38.2577 205.758 38.2549 205.766 38.2549 205.778V207.664C38.2549 207.72 38.2267 207.748 38.1703 207.748H37.5276C37.4712 207.748 37.443 207.72 37.443 207.664V201.913C37.443 201.856 37.4712 201.828 37.5276 201.828H38.1703C38.2267 201.828 38.2549 201.856 38.2549 201.913V202.192C38.2549 202.203 38.2577 202.211 38.2634 202.217C38.2746 202.223 38.2859 202.22 38.2972 202.209C38.4212 202.068 38.5678 201.958 38.737 201.879C38.9061 201.8 39.0894 201.76 39.2867 201.76C39.6926 201.76 40.0281 201.862 40.2931 202.065C40.5637 202.262 40.7611 202.544 40.8851 202.911ZM39.9548 205.093C40.1352 204.822 40.2255 204.45 40.2255 203.976C40.2255 203.542 40.155 203.193 40.014 202.928C39.8505 202.617 39.5827 202.462 39.2106 202.462C38.8836 202.462 38.6355 202.615 38.4663 202.919C38.331 203.161 38.2634 203.517 38.2634 203.985C38.2634 204.458 38.3367 204.819 38.4833 205.067C38.6468 205.355 38.8864 205.499 39.2021 205.499C39.5404 205.499 39.7913 205.363 39.9548 205.093ZM43.622 206.184C43.2837 206.184 42.9849 206.133 42.7256 206.031C42.4718 205.93 42.2745 205.792 42.1336 205.617C41.9926 205.436 41.9221 205.239 41.9221 205.025V204.932C41.9221 204.876 41.9503 204.847 42.0067 204.847H42.6156C42.672 204.847 42.7002 204.876 42.7002 204.932V204.974C42.7002 205.132 42.7848 205.27 42.9539 205.389C43.1287 205.507 43.3486 205.566 43.6136 205.566C43.8673 205.566 44.0731 205.513 44.231 205.405C44.3888 205.293 44.4678 205.152 44.4678 204.983C44.4678 204.819 44.3945 204.698 44.2479 204.619C44.1013 204.534 43.8645 204.447 43.5375 204.357C43.2161 204.267 42.9454 204.176 42.7256 204.086C42.5113 203.99 42.3281 203.858 42.1758 203.689C42.0292 203.514 41.956 203.291 41.956 203.021C41.956 202.643 42.1025 202.344 42.3957 202.124C42.6946 201.899 43.0892 201.786 43.5797 201.786C43.9068 201.786 44.1943 201.839 44.4424 201.946C44.6961 202.048 44.8906 202.192 45.0259 202.378C45.1612 202.564 45.2289 202.772 45.2289 203.004V203.029C45.2289 203.085 45.2007 203.114 45.1443 203.114H44.5523C44.4959 203.114 44.4678 203.085 44.4678 203.029V203.004C44.4678 202.84 44.386 202.705 44.2225 202.598C44.0646 202.485 43.8476 202.429 43.5713 202.429C43.3232 202.429 43.1202 202.476 42.9624 202.572C42.8101 202.668 42.734 202.798 42.734 202.961C42.734 203.125 42.8073 203.249 42.9539 203.333C43.1061 203.418 43.3486 203.508 43.6812 203.604C44.0082 203.694 44.2789 203.785 44.4931 203.875C44.713 203.959 44.8991 204.089 45.0513 204.264C45.2035 204.433 45.2796 204.656 45.2796 204.932C45.2796 205.315 45.1274 205.62 44.823 205.845C44.5241 206.071 44.1238 206.184 43.622 206.184ZM48.792 201.913C48.792 201.856 48.8202 201.828 48.8766 201.828H49.5108C49.5672 201.828 49.5954 201.856 49.5954 201.913V206.048C49.5954 206.105 49.5672 206.133 49.5108 206.133H48.8766C48.8202 206.133 48.792 206.105 48.792 206.048V205.735C48.792 205.724 48.7863 205.718 48.7751 205.718C48.7694 205.713 48.761 205.716 48.7497 205.727C48.5242 206.037 48.1774 206.192 47.7095 206.192C47.4332 206.192 47.1766 206.138 46.9398 206.031C46.7087 205.924 46.5226 205.766 46.3817 205.558C46.2407 205.349 46.1702 205.095 46.1702 204.797V201.913C46.1702 201.856 46.1984 201.828 46.2548 201.828H46.8891C46.9455 201.828 46.9737 201.856 46.9737 201.913V204.543C46.9737 204.836 47.0498 205.067 47.202 205.236C47.3599 205.405 47.5798 205.49 47.8617 205.49C48.1436 205.49 48.3691 205.405 48.5383 205.236C48.7074 205.062 48.792 204.83 48.792 204.543V201.913ZM55.254 201.769C55.6825 201.769 56.0208 201.899 56.2689 202.158C56.517 202.412 56.641 202.767 56.641 203.224V206.048C56.641 206.105 56.6128 206.133 56.5565 206.133H55.9222C55.8658 206.133 55.8376 206.105 55.8376 206.048V203.393C55.8376 203.111 55.7587 202.888 55.6008 202.725C55.4486 202.555 55.2428 202.471 54.9834 202.471C54.7241 202.471 54.5126 202.553 54.3491 202.716C54.1856 202.88 54.1039 203.099 54.1039 203.376V206.048C54.1039 206.105 54.0757 206.133 54.0193 206.133H53.385C53.3286 206.133 53.3004 206.105 53.3004 206.048V203.393C53.3004 203.111 53.2215 202.888 53.0636 202.725C52.9114 202.555 52.7056 202.471 52.4462 202.471C52.1869 202.471 51.9783 202.553 51.8204 202.716C51.6682 202.88 51.5921 203.099 51.5921 203.376V206.048C51.5921 206.105 51.5639 206.133 51.5075 206.133H50.8647C50.8084 206.133 50.7802 206.105 50.7802 206.048V201.913C50.7802 201.856 50.8084 201.828 50.8647 201.828H51.5075C51.5639 201.828 51.5921 201.856 51.5921 201.913V202.2C51.5921 202.211 51.5949 202.22 51.6005 202.226C51.6118 202.231 51.6231 202.228 51.6343 202.217C51.8824 201.918 52.2433 201.769 52.7169 201.769C53.0044 201.769 53.2497 201.825 53.4526 201.938C53.6556 202.045 53.8135 202.206 53.9263 202.42C53.9432 202.443 53.9601 202.443 53.977 202.42C54.1123 202.2 54.2899 202.037 54.5098 201.93C54.7353 201.822 54.9834 201.769 55.254 201.769Z" fill="white"/>
<rect x="9.06644" y="211.683" width="16.3859" height="16.3859" rx="8.19296" fill="white"/>
<rect x="9.06644" y="211.683" width="16.3859" height="16.3859" rx="8.19296" stroke="#484848" stroke-width="0.528578"/>
<path d="M29.848 221.926C29.5351 221.926 29.2581 221.865 29.0171 221.742C28.7761 221.62 28.5879 221.446 28.4526 221.222C28.3215 220.994 28.2559 220.732 28.2559 220.436V217.512C28.2559 217.49 28.2623 217.473 28.275 217.461C28.2919 217.444 28.3109 217.435 28.3321 217.435H28.9156C28.9367 217.435 28.9537 217.444 28.9663 217.461C28.9833 217.473 28.9917 217.49 28.9917 217.512V220.448C28.9917 220.698 29.0699 220.901 29.2264 221.057C29.3829 221.214 29.5901 221.292 29.848 221.292C30.106 221.292 30.3132 221.214 30.4696 221.057C30.6261 220.901 30.7043 220.698 30.7043 220.448V217.512C30.7043 217.49 30.7107 217.473 30.7233 217.461C30.7403 217.444 30.7593 217.435 30.7804 217.435H31.364C31.3851 217.435 31.402 217.444 31.4147 217.461C31.4316 217.473 31.4401 217.49 31.4401 217.512V220.436C31.4401 220.732 31.3745 220.994 31.2435 221.222C31.1124 221.446 30.9263 221.62 30.6853 221.742C30.4443 221.865 30.1652 221.926 29.848 221.926ZM33.4619 221.914C33.1955 221.914 32.9608 221.875 32.7578 221.799C32.559 221.719 32.4047 221.611 32.2948 221.476C32.1848 221.336 32.1298 221.182 32.1298 221.013V220.956C32.1298 220.935 32.1362 220.918 32.1489 220.905C32.1658 220.888 32.1848 220.88 32.206 220.88H32.7641C32.7853 220.88 32.8022 220.888 32.8149 220.905C32.8318 220.918 32.8402 220.935 32.8402 220.956V220.968C32.8402 221.074 32.8973 221.167 33.0115 221.248C33.1299 221.324 33.2779 221.362 33.4555 221.362C33.6247 221.362 33.7621 221.328 33.8678 221.26C33.9735 221.188 34.0264 221.1 34.0264 220.994C34.0264 220.897 33.982 220.825 33.8932 220.778C33.8086 220.727 33.6691 220.675 33.4745 220.62L33.2335 220.543C33.0178 220.48 32.836 220.412 32.688 220.34C32.54 220.269 32.4153 220.171 32.3138 220.049C32.2123 219.922 32.1616 219.761 32.1616 219.567C32.1616 219.271 32.2778 219.036 32.5104 218.863C32.743 218.685 33.0496 218.596 33.4301 218.596C33.6881 218.596 33.9143 218.638 34.1088 218.723C34.3034 218.803 34.4535 218.918 34.5592 219.066C34.6649 219.209 34.7178 219.374 34.7178 219.56C34.7178 219.581 34.7093 219.6 34.6924 219.617C34.6797 219.63 34.6628 219.636 34.6416 219.636H34.1025C34.0813 219.636 34.0623 219.63 34.0454 219.617C34.0327 219.6 34.0264 219.581 34.0264 219.56C34.0264 219.45 33.9714 219.359 33.8615 219.288C33.7557 219.211 33.6099 219.173 33.4238 219.173C33.2589 219.173 33.1236 219.205 33.0178 219.269C32.9164 219.328 32.8656 219.412 32.8656 219.522C32.8656 219.624 32.9142 219.702 33.0115 219.757C33.113 219.808 33.28 219.865 33.5126 219.928L33.6521 219.966C33.8763 220.034 34.0644 220.104 34.2167 220.176C34.3689 220.243 34.4979 220.34 34.6036 220.467C34.7093 220.59 34.7622 220.751 34.7622 220.949C34.7622 221.25 34.6438 221.486 34.407 221.66C34.1701 221.829 33.8551 221.914 33.4619 221.914ZM38.1186 219.89C38.1355 219.996 38.144 220.114 38.144 220.245L38.1376 220.442C38.1376 220.493 38.1123 220.518 38.0615 220.518H36.0762C36.055 220.518 36.0445 220.529 36.0445 220.55C36.0572 220.689 36.0762 220.785 36.1016 220.835C36.203 221.14 36.4504 221.294 36.8437 221.298C37.1312 221.298 37.3596 221.18 37.5287 220.943C37.5456 220.918 37.5668 220.905 37.5921 220.905C37.6091 220.905 37.6239 220.911 37.6365 220.924L38.0298 221.248C38.0679 221.277 38.0742 221.311 38.0488 221.349C37.9177 221.535 37.7423 221.679 37.5224 221.78C37.3067 221.882 37.0657 221.933 36.7993 221.933C36.4694 221.933 36.1882 221.859 35.9557 221.711C35.7273 221.563 35.5603 221.355 35.4546 221.089C35.3573 220.861 35.3087 220.543 35.3087 220.138C35.3087 219.892 35.3341 219.694 35.3848 219.541C35.4694 219.245 35.628 219.013 35.8605 218.844C36.0973 218.67 36.3806 218.584 36.7105 218.584C37.5435 218.584 38.0129 219.019 38.1186 219.89ZM36.7105 219.218C36.554 219.218 36.4229 219.258 36.3172 219.338C36.2157 219.414 36.1438 219.522 36.1016 219.662C36.0762 219.734 36.0593 219.827 36.0508 219.941C36.0424 219.962 36.0508 219.973 36.0762 219.973H37.3638C37.3849 219.973 37.3955 219.962 37.3955 219.941C37.3871 219.835 37.3744 219.755 37.3575 219.7C37.3194 219.548 37.2433 219.429 37.1291 219.345C37.0192 219.26 36.8796 219.218 36.7105 219.218ZM40.326 218.596C40.4614 218.596 40.5798 218.624 40.6813 218.679C40.7151 218.696 40.7278 218.727 40.7193 218.774L40.6115 219.345C40.6073 219.395 40.5777 219.41 40.5227 219.389C40.4593 219.368 40.3853 219.357 40.3007 219.357C40.2457 219.357 40.2034 219.359 40.1738 219.364C39.9962 219.372 39.8482 219.436 39.7298 219.554C39.6114 219.668 39.5522 219.818 39.5522 220.004V221.799C39.5522 221.821 39.5438 221.84 39.5268 221.856C39.5142 221.869 39.4972 221.875 39.4761 221.875H38.8925C38.8714 221.875 38.8524 221.869 38.8355 221.856C38.8228 221.84 38.8164 221.821 38.8164 221.799V218.71C38.8164 218.689 38.8228 218.672 38.8355 218.66C38.8524 218.643 38.8714 218.634 38.8925 218.634H39.4761C39.4972 218.634 39.5142 218.643 39.5268 218.66C39.5438 218.672 39.5522 218.689 39.5522 218.71V218.996C39.5522 219.013 39.5543 219.023 39.5586 219.028C39.567 219.028 39.5755 219.021 39.5839 219.008C39.7615 218.734 40.0089 218.596 40.326 218.596ZM42.7552 218.584C43.0978 218.584 43.3705 218.685 43.5735 218.888C43.7807 219.091 43.8843 219.368 43.8843 219.719V221.799C43.8843 221.821 43.8758 221.84 43.8589 221.856C43.8462 221.869 43.8293 221.875 43.8082 221.875H43.2246C43.2035 221.875 43.1845 221.869 43.1675 221.856C43.1549 221.84 43.1485 221.821 43.1485 221.799V219.871C43.1485 219.677 43.0935 219.52 42.9836 219.402C42.8736 219.279 42.7278 219.218 42.5459 219.218C42.3641 219.218 42.2161 219.277 42.1019 219.395C41.992 219.514 41.937 219.67 41.937 219.865V221.799C41.937 221.821 41.9285 221.84 41.9116 221.856C41.8989 221.869 41.882 221.875 41.8609 221.875H41.2773C41.2562 221.875 41.2372 221.869 41.2203 221.856C41.2076 221.84 41.2012 221.821 41.2012 221.799V218.71C41.2012 218.689 41.2076 218.672 41.2203 218.66C41.2372 218.643 41.2562 218.634 41.2773 218.634H41.8609C41.882 218.634 41.8989 218.643 41.9116 218.66C41.9285 218.672 41.937 218.689 41.937 218.71V218.913C41.937 218.926 41.9412 218.934 41.9497 218.939C41.9581 218.943 41.9645 218.939 41.9687 218.926C42.1421 218.698 42.4043 218.584 42.7552 218.584ZM45.8883 218.584C46.1547 218.584 46.3894 218.63 46.5924 218.723C46.7953 218.816 46.9518 218.945 47.0618 219.11C47.1717 219.271 47.2267 219.455 47.2267 219.662V221.799C47.2267 221.821 47.2182 221.84 47.2013 221.856C47.1886 221.869 47.1717 221.875 47.1506 221.875H46.567C46.5459 221.875 46.5268 221.869 46.5099 221.856C46.4972 221.84 46.4909 221.821 46.4909 221.799V221.596C46.4909 221.584 46.4867 221.577 46.4782 221.577C46.4697 221.573 46.4613 221.575 46.4528 221.584C46.2456 221.812 45.9454 221.926 45.5521 221.926C45.235 221.926 44.9728 221.846 44.7656 221.685C44.5626 221.525 44.4611 221.286 44.4611 220.968C44.4611 220.639 44.5753 220.383 44.8037 220.201C45.0362 220.015 45.3618 219.922 45.7805 219.922H46.4592C46.4803 219.922 46.4909 219.911 46.4909 219.89V219.738C46.4909 219.573 46.4423 219.446 46.345 219.357C46.2477 219.264 46.1019 219.218 45.9073 219.218C45.7467 219.218 45.6156 219.247 45.5141 219.307C45.4168 219.362 45.3555 219.44 45.3301 219.541C45.3174 219.592 45.2878 219.613 45.2413 219.605L44.6261 219.529C44.6049 219.524 44.5859 219.518 44.569 219.51C44.5563 219.497 44.5521 219.482 44.5563 219.465C44.5901 219.207 44.7276 218.996 44.9686 218.831C45.2138 218.666 45.5204 218.584 45.8883 218.584ZM45.7361 221.343C45.9433 221.343 46.1209 221.288 46.2689 221.178C46.4169 221.068 46.4909 220.928 46.4909 220.759V220.461C46.4909 220.44 46.4803 220.429 46.4592 220.429H45.9264C45.7022 220.429 45.5246 220.472 45.3936 220.556C45.2667 220.641 45.2033 220.761 45.2033 220.918C45.2033 221.053 45.2519 221.159 45.3492 221.235C45.4506 221.307 45.5796 221.343 45.7361 221.343ZM51.435 218.584C51.7606 218.584 52.0143 218.683 52.1961 218.882C52.3822 219.076 52.4752 219.349 52.4752 219.7V221.799C52.4752 221.821 52.4667 221.84 52.4498 221.856C52.4371 221.869 52.4202 221.875 52.3991 221.875H51.8219C51.8007 221.875 51.7817 221.869 51.7648 221.856C51.7521 221.84 51.7458 221.821 51.7458 221.799V219.852C51.7458 219.658 51.6929 219.503 51.5872 219.389C51.4857 219.275 51.3483 219.218 51.1749 219.218C51.0015 219.218 50.8599 219.275 50.7499 219.389C50.64 219.503 50.585 219.655 50.585 219.846V221.799C50.585 221.821 50.5765 221.84 50.5596 221.856C50.5469 221.869 50.53 221.875 50.5089 221.875H49.9317C49.9105 221.875 49.8915 221.869 49.8746 221.856C49.8619 221.84 49.8556 221.821 49.8556 221.799V219.852C49.8556 219.658 49.8027 219.503 49.697 219.389C49.5913 219.275 49.4517 219.218 49.2784 219.218C49.1177 219.218 48.9845 219.264 48.8788 219.357C48.7773 219.45 48.7181 219.577 48.7012 219.738V221.799C48.7012 221.821 48.6927 221.84 48.6758 221.856C48.6631 221.869 48.6462 221.875 48.625 221.875H48.0415C48.0203 221.875 48.0013 221.869 47.9844 221.856C47.9717 221.84 47.9654 221.821 47.9654 221.799V218.71C47.9654 218.689 47.9717 218.672 47.9844 218.66C48.0013 218.643 48.0203 218.634 48.0415 218.634H48.625C48.6462 218.634 48.6631 218.643 48.6758 218.66C48.6927 218.672 48.7012 218.689 48.7012 218.71V218.92C48.7012 218.932 48.7054 218.941 48.7138 218.945C48.7223 218.949 48.7308 218.945 48.7392 218.932C48.8322 218.814 48.9464 218.727 49.0817 218.672C49.2213 218.613 49.3756 218.584 49.5448 218.584C49.752 218.584 49.9338 218.626 50.0903 218.71C50.2467 218.795 50.3672 218.918 50.4518 219.078C50.4645 219.095 50.4793 219.095 50.4962 219.078C50.5892 218.909 50.7182 218.784 50.8831 218.704C51.048 218.624 51.232 218.584 51.435 218.584ZM55.9333 219.89C55.9503 219.996 55.9587 220.114 55.9587 220.245L55.9524 220.442C55.9524 220.493 55.927 220.518 55.8763 220.518H53.8909C53.8698 220.518 53.8592 220.529 53.8592 220.55C53.8719 220.689 53.8909 220.785 53.9163 220.835C54.0178 221.14 54.2651 221.294 54.6584 221.298C54.946 221.298 55.1743 221.18 55.3434 220.943C55.3604 220.918 55.3815 220.905 55.4069 220.905C55.4238 220.905 55.4386 220.911 55.4513 220.924L55.8445 221.248C55.8826 221.277 55.8889 221.311 55.8636 221.349C55.7325 221.535 55.557 221.679 55.3371 221.78C55.1214 221.882 54.8804 221.933 54.614 221.933C54.2842 221.933 54.003 221.859 53.7704 221.711C53.5421 221.563 53.375 221.355 53.2693 221.089C53.172 220.861 53.1234 220.543 53.1234 220.138C53.1234 219.892 53.1488 219.694 53.1995 219.541C53.2841 219.245 53.4427 219.013 53.6753 218.844C53.9121 218.67 54.1954 218.584 54.5252 218.584C55.3582 218.584 55.8276 219.019 55.9333 219.89ZM54.5252 219.218C54.3687 219.218 54.2377 219.258 54.1319 219.338C54.0305 219.414 53.9586 219.522 53.9163 219.662C53.8909 219.734 53.874 219.827 53.8655 219.941C53.8571 219.962 53.8655 219.973 53.8909 219.973H55.1785C55.1997 219.973 55.2102 219.962 55.2102 219.941C55.2018 219.835 55.1891 219.755 55.1722 219.7C55.1341 219.548 55.058 219.429 54.9438 219.345C54.8339 219.26 54.6944 219.218 54.5252 219.218Z" fill="white"/>
<rect x="63.1739" y="215.761" width="34.3429" height="8.22862" rx="1.05716" fill="#A52418"/>
<path d="M68.2354 221.926C67.9098 221.926 67.6265 221.875 67.3855 221.774C67.1487 221.673 66.9647 221.529 66.8337 221.343C66.7068 221.157 66.6434 220.939 66.6434 220.689V220.505C66.6434 220.463 66.6645 220.442 66.7068 220.442H67.1698C67.2121 220.442 67.2333 220.463 67.2333 220.505V220.658C67.2333 220.873 67.3263 221.051 67.5123 221.19C67.6984 221.33 67.9542 221.4 68.2798 221.4C68.5716 221.4 68.7915 221.338 68.9395 221.216C69.0875 221.093 69.1615 220.933 69.1615 220.734C69.1615 220.603 69.1235 220.491 69.0473 220.398C68.9712 220.305 68.8592 220.22 68.7112 220.144C68.5674 220.064 68.356 219.968 68.0769 219.858C67.7682 219.74 67.5229 219.632 67.3411 219.535C67.1635 219.438 67.0155 219.311 66.8971 219.154C66.7787 218.994 66.7195 218.793 66.7195 218.552C66.7195 218.188 66.8485 217.903 67.1064 217.695C67.3686 217.488 67.7217 217.385 68.1657 217.385C68.4786 217.385 68.7534 217.438 68.9902 217.543C69.2271 217.649 69.4089 217.797 69.5357 217.987C69.6668 218.178 69.7324 218.397 69.7324 218.647V218.774C69.7324 218.816 69.7112 218.837 69.6689 218.837H69.1932C69.1509 218.837 69.1298 218.816 69.1298 218.774V218.679C69.1298 218.459 69.041 218.277 68.8634 218.133C68.69 217.985 68.449 217.911 68.1403 217.911C67.8781 217.911 67.6751 217.966 67.5314 218.076C67.3876 218.182 67.3157 218.336 67.3157 218.539C67.3157 218.679 67.3517 218.793 67.4235 218.882C67.4954 218.97 67.6011 219.051 67.7407 219.123C67.8845 219.19 68.1022 219.279 68.394 219.389C68.6942 219.507 68.9374 219.617 69.1235 219.719C69.3095 219.816 69.4639 219.947 69.5865 220.112C69.7091 220.273 69.7704 220.474 69.7704 220.715C69.7704 221.087 69.633 221.383 69.3581 221.603C69.0875 221.818 68.7133 221.926 68.2354 221.926ZM72.4401 218.71C72.4401 218.668 72.4613 218.647 72.5035 218.647H72.9793C73.0215 218.647 73.0427 218.668 73.0427 218.71V221.812C73.0427 221.854 73.0215 221.875 72.9793 221.875H72.5035C72.4613 221.875 72.4401 221.854 72.4401 221.812V221.577C72.4401 221.569 72.4359 221.565 72.4274 221.565C72.4232 221.56 72.4169 221.563 72.4084 221.571C72.2393 221.804 71.9792 221.92 71.6282 221.92C71.421 221.92 71.2286 221.88 71.051 221.799C70.8776 221.719 70.7381 221.601 70.6324 221.444C70.5267 221.288 70.4738 221.097 70.4738 220.873V218.71C70.4738 218.668 70.4949 218.647 70.5372 218.647H71.013C71.0552 218.647 71.0764 218.668 71.0764 218.71V220.683C71.0764 220.903 71.1335 221.076 71.2476 221.203C71.366 221.33 71.531 221.393 71.7424 221.393C71.9538 221.393 72.123 221.33 72.2498 221.203C72.3767 221.072 72.4401 220.899 72.4401 220.683V218.71ZM76.5382 219.484C76.6059 219.7 76.6397 219.956 76.6397 220.252C76.6397 220.569 76.5995 220.839 76.5192 221.064C76.4261 221.338 76.2781 221.552 76.0752 221.704C75.8764 221.852 75.6248 221.926 75.3204 221.926C75.1723 221.926 75.0349 221.897 74.9081 221.837C74.7812 221.778 74.6713 221.696 74.5782 221.59C74.5698 221.582 74.5613 221.579 74.5529 221.584C74.5486 221.588 74.5465 221.594 74.5465 221.603V221.812C74.5465 221.854 74.5254 221.875 74.4831 221.875H74.001C73.9587 221.875 73.9376 221.854 73.9376 221.812V217.499C73.9376 217.457 73.9587 217.435 74.001 217.435H74.4831C74.5254 217.435 74.5465 217.457 74.5465 217.499V218.913C74.5465 218.922 74.5486 218.928 74.5529 218.932C74.5613 218.937 74.5698 218.934 74.5782 218.926C74.6713 218.82 74.7812 218.74 74.9081 218.685C75.0391 218.626 75.1766 218.596 75.3204 218.596C75.6375 218.596 75.8976 218.674 76.1005 218.831C76.3035 218.987 76.4494 219.205 76.5382 219.484ZM75.8658 221.051C75.9716 220.852 76.0244 220.59 76.0244 220.264C76.0244 219.918 75.9568 219.639 75.8214 219.427C75.6988 219.224 75.5106 219.123 75.2569 219.123C75.0201 219.123 74.8404 219.23 74.7178 219.446C74.6078 219.641 74.5529 219.911 74.5529 220.258C74.5529 220.605 74.6036 220.871 74.7051 221.057C74.8319 221.286 75.018 221.4 75.2633 221.4C75.5424 221.4 75.7432 221.283 75.8658 221.051ZM78.5726 221.914C78.3189 221.914 78.0948 221.875 77.9002 221.799C77.71 221.723 77.562 221.62 77.4562 221.489C77.3505 221.353 77.2977 221.205 77.2977 221.045V220.975C77.2977 220.933 77.3188 220.911 77.3611 220.911H77.8178C77.8601 220.911 77.8812 220.933 77.8812 220.975V221.007C77.8812 221.125 77.9446 221.229 78.0715 221.317C78.2026 221.406 78.3675 221.451 78.5662 221.451C78.7565 221.451 78.9109 221.41 79.0293 221.33C79.1477 221.245 79.2069 221.14 79.2069 221.013C79.2069 220.89 79.1519 220.799 79.042 220.74C78.932 220.677 78.7544 220.611 78.5092 220.543C78.2681 220.476 78.0652 220.408 77.9002 220.34C77.7396 220.269 77.6021 220.169 77.4879 220.042C77.378 219.911 77.323 219.744 77.323 219.541C77.323 219.258 77.433 219.034 77.6529 218.869C77.877 218.7 78.173 218.615 78.5409 218.615C78.7861 218.615 79.0018 218.655 79.1879 218.736C79.3781 218.812 79.524 218.92 79.6255 219.059C79.727 219.199 79.7777 219.355 79.7777 219.529V219.548C79.7777 219.59 79.7566 219.611 79.7143 219.611H79.2703C79.228 219.611 79.2069 219.59 79.2069 219.548V219.529C79.2069 219.406 79.1456 219.304 79.0229 219.224C78.9045 219.14 78.7417 219.097 78.5345 219.097C78.3485 219.097 78.1962 219.133 78.0778 219.205C77.9637 219.277 77.9066 219.374 77.9066 219.497C77.9066 219.62 77.9616 219.713 78.0715 219.776C78.1857 219.839 78.3675 219.907 78.617 219.979C78.8623 220.047 79.0652 220.114 79.2259 220.182C79.3908 220.245 79.5304 220.343 79.6445 220.474C79.7587 220.601 79.8158 220.768 79.8158 220.975C79.8158 221.262 79.7016 221.491 79.4733 221.66C79.2492 221.829 78.9489 221.914 78.5726 221.914ZM81.8221 221.926C81.5007 221.926 81.2259 221.846 80.9975 221.685C80.7692 221.52 80.6127 221.298 80.5281 221.019C80.4647 220.825 80.433 220.569 80.433 220.252C80.433 219.96 80.4647 219.704 80.5281 219.484C80.6127 219.214 80.7692 218.998 80.9975 218.837C81.2301 218.677 81.505 218.596 81.8221 218.596C82.1393 218.596 82.4162 218.677 82.653 218.837C82.8898 218.998 83.0442 219.201 83.1161 219.446C83.1414 219.514 83.1584 219.584 83.1668 219.655C83.1668 219.689 83.1478 219.71 83.1097 219.719L82.634 219.789H82.6213C82.5917 219.789 82.5706 219.77 82.5579 219.732L82.5389 219.63C82.505 219.486 82.4226 219.366 82.2915 219.269C82.1604 219.171 82.0018 219.123 81.8158 219.123C81.6339 219.123 81.4796 219.171 81.3527 219.269C81.2259 219.366 81.1434 219.495 81.1054 219.655C81.0673 219.808 81.0483 220.009 81.0483 220.258C81.0483 220.503 81.0673 220.702 81.1054 220.854C81.1476 221.023 81.2301 221.157 81.3527 221.254C81.4796 221.351 81.6339 221.4 81.8158 221.4C82.0018 221.4 82.1604 221.351 82.2915 221.254C82.4268 221.157 82.5114 221.03 82.5452 220.873C82.5494 220.869 82.5494 220.865 82.5452 220.861C82.5452 220.852 82.5473 220.846 82.5515 220.842V220.816C82.5642 220.782 82.5875 220.77 82.6213 220.778L83.097 220.854C83.1309 220.863 83.1478 220.88 83.1478 220.905V220.93C83.1478 220.968 83.1372 221.015 83.1161 221.07C83.0442 221.328 82.8898 221.535 82.653 221.692C82.4162 221.848 82.1393 221.926 81.8221 221.926ZM85.2813 218.615C85.4167 218.615 85.5393 218.643 85.6492 218.698C85.6788 218.71 85.6894 218.736 85.6809 218.774L85.5795 219.25C85.5752 219.288 85.5499 219.3 85.5033 219.288C85.4315 219.258 85.3469 219.243 85.2496 219.243L85.1608 219.25C84.9621 219.258 84.7972 219.328 84.6661 219.459C84.5392 219.586 84.4758 219.753 84.4758 219.96V221.812C84.4758 221.854 84.4546 221.875 84.4124 221.875H83.9303C83.888 221.875 83.8669 221.854 83.8669 221.812V218.71C83.8669 218.668 83.888 218.647 83.9303 218.647H84.4124C84.4546 218.647 84.4758 218.668 84.4758 218.71V219.047C84.4758 219.059 84.4779 219.068 84.4821 219.072C84.4906 219.072 84.4969 219.068 84.5012 219.059C84.6914 218.763 84.9515 218.615 85.2813 218.615ZM86.5886 218.139C86.4702 218.139 86.3729 218.101 86.2968 218.025C86.2207 217.949 86.1826 217.852 86.1826 217.734C86.1826 217.615 86.2207 217.518 86.2968 217.442C86.3729 217.366 86.4702 217.328 86.5886 217.328C86.707 217.328 86.8042 217.366 86.8803 217.442C86.9565 217.518 86.9945 217.615 86.9945 217.734C86.9945 217.852 86.9565 217.949 86.8803 218.025C86.8042 218.101 86.707 218.139 86.5886 218.139ZM86.3349 221.869C86.2926 221.869 86.2714 221.848 86.2714 221.806V218.71C86.2714 218.668 86.2926 218.647 86.3349 218.647H86.8169C86.8592 218.647 86.8803 218.668 86.8803 218.71V221.806C86.8803 221.848 86.8592 221.869 86.8169 221.869H86.3349ZM90.4443 219.484C90.512 219.7 90.5458 219.956 90.5458 220.252C90.5458 220.569 90.5056 220.839 90.4253 221.064C90.3323 221.338 90.1843 221.552 89.9813 221.704C89.7826 221.852 89.531 221.926 89.2265 221.926C89.0785 221.926 88.9411 221.897 88.8142 221.837C88.6873 221.778 88.5774 221.696 88.4844 221.59C88.4759 221.582 88.4675 221.579 88.459 221.584C88.4548 221.588 88.4527 221.594 88.4527 221.603V221.812C88.4527 221.854 88.4315 221.875 88.3892 221.875H87.9072C87.8649 221.875 87.8437 221.854 87.8437 221.812V217.499C87.8437 217.457 87.8649 217.435 87.9072 217.435H88.3892C88.4315 217.435 88.4527 217.457 88.4527 217.499V218.913C88.4527 218.922 88.4548 218.928 88.459 218.932C88.4675 218.937 88.4759 218.934 88.4844 218.926C88.5774 218.82 88.6873 218.74 88.8142 218.685C88.9453 218.626 89.0827 218.596 89.2265 218.596C89.5436 218.596 89.8037 218.674 90.0067 218.831C90.2096 218.987 90.3555 219.205 90.4443 219.484ZM89.772 221.051C89.8777 220.852 89.9306 220.59 89.9306 220.264C89.9306 219.918 89.8629 219.639 89.7276 219.427C89.605 219.224 89.4168 219.123 89.1631 219.123C88.9263 219.123 88.7465 219.23 88.6239 219.446C88.514 219.641 88.459 219.911 88.459 220.258C88.459 220.605 88.5097 220.871 88.6112 221.057C88.7381 221.286 88.9241 221.4 89.1694 221.4C89.4485 221.4 89.6494 221.283 89.772 221.051ZM93.9195 219.858C93.9364 220.032 93.9427 220.226 93.9385 220.442C93.9385 220.484 93.9174 220.505 93.8751 220.505H91.8517C91.8348 220.505 91.8263 220.514 91.8263 220.531C91.8263 220.675 91.839 220.785 91.8644 220.861C91.9109 221.03 92.0039 221.163 92.1434 221.26C92.2872 221.353 92.4669 221.4 92.6826 221.4C92.9955 221.4 93.2365 221.271 93.4057 221.013C93.4268 220.971 93.4543 220.964 93.4882 220.994L93.8497 221.235C93.8793 221.26 93.8856 221.288 93.8687 221.317C93.7503 221.508 93.5812 221.658 93.3613 221.768C93.1456 221.878 92.9004 221.933 92.6255 221.933C92.3168 221.933 92.0568 221.865 91.8453 221.73C91.6339 221.594 91.4753 221.402 91.3696 221.152C91.2681 220.903 91.2174 220.601 91.2174 220.245C91.2174 219.937 91.2406 219.702 91.2872 219.541C91.3633 219.25 91.5155 219.019 91.7438 218.85C91.9722 218.681 92.2492 218.596 92.5748 218.596C93.0019 218.596 93.3211 218.704 93.5326 218.92C93.744 219.131 93.873 219.444 93.9195 219.858ZM92.5748 219.123C92.3929 219.123 92.2428 219.169 92.1244 219.262C92.006 219.351 91.9257 219.472 91.8834 219.624C91.8538 219.717 91.8348 219.835 91.8263 219.979C91.8263 219.996 91.8348 220.004 91.8517 220.004H93.3042C93.3211 220.004 93.3296 219.996 93.3296 219.979C93.3211 219.839 93.3084 219.736 93.2915 219.668C93.2492 219.503 93.1647 219.372 93.0378 219.275C92.9152 219.173 92.7608 219.123 92.5748 219.123Z" fill="white"/>
<path d="M126.489 103.32L126.738 101.883C126.752 101.798 126.748 101.712 126.726 101.629C126.704 101.547 126.664 101.47 126.609 101.405C126.554 101.339 126.485 101.287 126.407 101.251C126.33 101.214 126.245 101.196 126.16 101.196H124.334C124.292 101.196 124.249 101.186 124.211 101.168C124.172 101.15 124.138 101.124 124.11 101.092C124.083 101.059 124.062 101.021 124.051 100.98C124.04 100.939 124.037 100.896 124.044 100.854L124.278 99.4287C124.316 99.1972 124.305 98.9604 124.246 98.7334C124.221 98.6396 124.173 98.5537 124.105 98.4836C124.038 98.4136 123.954 98.3617 123.862 98.3327L123.81 98.3162C123.695 98.2791 123.57 98.2877 123.46 98.3401C123.34 98.3979 123.253 98.5033 123.221 98.6284L123.053 99.2747C122.999 99.4803 122.922 99.6789 122.822 99.8663C122.675 100.14 122.449 100.36 122.214 100.562L121.707 100.999C121.636 101.06 121.581 101.137 121.546 101.223C121.511 101.309 121.497 101.402 121.505 101.495L121.791 104.805C121.804 104.951 121.871 105.087 121.979 105.187C122.087 105.286 122.229 105.341 122.376 105.341H124.014C125.241 105.341 126.288 104.486 126.489 103.32Z" fill="white"/>
<path fill-rule="evenodd" clip-rule="evenodd" d="M120.392 100.931C120.46 100.928 120.527 100.951 120.578 100.996C120.629 101.041 120.661 101.104 120.667 101.172L121.009 105.132C121.015 105.191 121.008 105.25 120.991 105.307C120.973 105.363 120.943 105.415 120.904 105.46C120.866 105.505 120.818 105.541 120.765 105.567C120.711 105.593 120.653 105.607 120.594 105.61C120.535 105.612 120.476 105.603 120.42 105.582C120.365 105.561 120.314 105.529 120.272 105.487C120.229 105.446 120.196 105.397 120.173 105.342C120.15 105.287 120.139 105.229 120.139 105.169V101.195C120.139 101.127 120.166 101.061 120.213 101.012C120.26 100.963 120.324 100.934 120.392 100.931Z" fill="white"/>
<path d="M119.061 112.16C119.026 112.16 119.008 112.143 119.008 112.107V108.513C119.008 108.478 119.026 108.46 119.061 108.46H119.463C119.498 108.46 119.516 108.478 119.516 108.513V111.7C119.516 111.714 119.523 111.721 119.537 111.721H121.361C121.396 111.721 121.414 111.739 121.414 111.774V112.107C121.414 112.143 121.396 112.16 121.361 112.16H119.061ZM122.266 109.047C122.168 109.047 122.086 109.015 122.023 108.952C121.96 108.888 121.928 108.807 121.928 108.709C121.928 108.61 121.96 108.529 122.023 108.465C122.086 108.402 122.168 108.37 122.266 108.37C122.365 108.37 122.446 108.402 122.509 108.465C122.573 108.529 122.604 108.61 122.604 108.709C122.604 108.807 122.573 108.888 122.509 108.952C122.446 109.015 122.365 109.047 122.266 109.047ZM122.055 112.155C122.019 112.155 122.002 112.137 122.002 112.102V109.523C122.002 109.487 122.019 109.47 122.055 109.47H122.456C122.492 109.47 122.509 109.487 122.509 109.523V112.102C122.509 112.137 122.492 112.155 122.456 112.155H122.055ZM123.36 112.16C123.324 112.16 123.307 112.143 123.307 112.107V108.513C123.307 108.478 123.324 108.46 123.36 108.46H123.761C123.797 108.46 123.814 108.478 123.814 108.513V110.548C123.814 110.555 123.818 110.56 123.825 110.564C123.832 110.567 123.837 110.566 123.841 110.559L124.819 109.496C124.833 109.479 124.854 109.47 124.882 109.47H125.352C125.374 109.47 125.386 109.477 125.389 109.491C125.396 109.501 125.393 109.516 125.379 109.533L124.697 110.321C124.69 110.335 124.688 110.345 124.692 110.352L125.5 112.097L125.506 112.118C125.506 112.146 125.49 112.16 125.458 112.16H125.035C125.007 112.16 124.988 112.146 124.977 112.118L124.348 110.68C124.341 110.663 124.332 110.661 124.322 110.675L123.825 111.225C123.818 111.239 123.814 111.247 123.814 111.251V112.107C123.814 112.143 123.797 112.16 123.761 112.16H123.36ZM128.035 110.479C128.049 110.624 128.054 110.786 128.05 110.966C128.05 111.001 128.033 111.018 127.998 111.018H126.311C126.297 111.018 126.29 111.025 126.29 111.04C126.29 111.159 126.301 111.251 126.322 111.314C126.361 111.455 126.438 111.566 126.555 111.647C126.674 111.725 126.824 111.764 127.004 111.764C127.265 111.764 127.465 111.656 127.606 111.441C127.624 111.406 127.647 111.401 127.675 111.425L127.976 111.626C128.001 111.647 128.006 111.67 127.992 111.695C127.894 111.854 127.753 111.979 127.569 112.07C127.39 112.162 127.185 112.208 126.956 112.208C126.699 112.208 126.482 112.151 126.306 112.039C126.13 111.926 125.998 111.765 125.91 111.558C125.825 111.35 125.783 111.098 125.783 110.802C125.783 110.544 125.802 110.349 125.841 110.215C125.904 109.972 126.031 109.78 126.222 109.639C126.412 109.498 126.643 109.427 126.914 109.427C127.27 109.427 127.536 109.517 127.712 109.697C127.888 109.873 127.996 110.134 128.035 110.479ZM126.914 109.866C126.762 109.866 126.637 109.905 126.539 109.982C126.44 110.056 126.373 110.157 126.338 110.284C126.313 110.361 126.297 110.46 126.29 110.58C126.29 110.594 126.297 110.601 126.311 110.601H127.522C127.536 110.601 127.543 110.594 127.543 110.58C127.536 110.463 127.525 110.377 127.511 110.321C127.476 110.183 127.406 110.074 127.3 109.993C127.198 109.908 127.069 109.866 126.914 109.866Z" fill="white"/>
<g clip-path="url(#clip0_1032_4818)">
<path d="M120.661 123.343L120.412 124.781C120.398 124.865 120.402 124.952 120.424 125.034C120.446 125.117 120.486 125.193 120.541 125.259C120.596 125.324 120.665 125.377 120.743 125.413C120.82 125.449 120.905 125.468 120.99 125.468H122.816C122.858 125.468 122.9 125.477 122.939 125.495C122.978 125.513 123.012 125.539 123.04 125.572C123.067 125.604 123.087 125.642 123.099 125.683C123.11 125.724 123.112 125.767 123.105 125.81L122.872 127.235C122.834 127.466 122.845 127.703 122.903 127.93C122.929 128.024 122.977 128.11 123.044 128.18C123.112 128.25 123.196 128.302 123.288 128.331L123.339 128.347C123.455 128.384 123.58 128.376 123.69 128.323C123.809 128.266 123.897 128.16 123.929 128.035L124.097 127.389C124.15 127.183 124.228 126.985 124.328 126.797C124.474 126.523 124.701 126.304 124.936 126.101L125.443 125.664C125.513 125.604 125.568 125.527 125.603 125.441C125.638 125.355 125.653 125.262 125.645 125.169L125.359 121.859C125.346 121.713 125.279 121.576 125.171 121.477C125.062 121.377 124.921 121.322 124.774 121.322H123.136C121.909 121.322 120.862 122.177 120.661 123.343Z" fill="white"/>
<path fill-rule="evenodd" clip-rule="evenodd" d="M126.758 125.732C126.689 125.735 126.623 125.712 126.572 125.667C126.52 125.622 126.489 125.559 126.483 125.491L126.141 121.531C126.135 121.472 126.141 121.413 126.159 121.356C126.177 121.3 126.207 121.248 126.245 121.203C126.284 121.158 126.332 121.122 126.385 121.096C126.439 121.07 126.497 121.056 126.556 121.053C126.615 121.051 126.674 121.06 126.729 121.081C126.785 121.102 126.835 121.134 126.878 121.176C126.92 121.217 126.954 121.266 126.977 121.321C127 121.376 127.011 121.434 127.011 121.494V125.468C127.011 125.536 126.984 125.602 126.937 125.651C126.89 125.7 126.826 125.729 126.758 125.732Z" fill="white"/>
</g>
<path d="M116.061 135.189C116.026 135.189 116.008 135.171 116.008 135.136V131.542C116.008 131.507 116.026 131.489 116.061 131.489H117.34C117.707 131.489 117.999 131.586 118.218 131.78C118.436 131.97 118.546 132.225 118.546 132.546V134.132C118.546 134.452 118.436 134.71 118.218 134.904C117.999 135.094 117.707 135.189 117.34 135.189H116.061ZM116.516 134.729C116.516 134.743 116.523 134.75 116.537 134.75H117.362C117.566 134.75 117.728 134.689 117.848 134.565C117.971 134.438 118.035 134.269 118.038 134.058V132.62C118.038 132.409 117.976 132.241 117.853 132.118C117.733 131.991 117.569 131.928 117.362 131.928H116.537C116.523 131.928 116.516 131.935 116.516 131.949V134.729ZM119.519 132.076C119.42 132.076 119.339 132.044 119.276 131.98C119.212 131.917 119.181 131.836 119.181 131.737C119.181 131.639 119.212 131.558 119.276 131.494C119.339 131.431 119.42 131.399 119.519 131.399C119.618 131.399 119.699 131.431 119.762 131.494C119.826 131.558 119.857 131.639 119.857 131.737C119.857 131.836 119.826 131.917 119.762 131.98C119.699 132.044 119.618 132.076 119.519 132.076ZM119.308 135.184C119.272 135.184 119.255 135.166 119.255 135.131V132.551C119.255 132.516 119.272 132.499 119.308 132.499H119.709C119.745 132.499 119.762 132.516 119.762 132.551V135.131C119.762 135.166 119.745 135.184 119.709 135.184H119.308ZM121.506 135.221C121.294 135.221 121.108 135.189 120.946 135.126C120.787 135.062 120.664 134.976 120.576 134.867C120.487 134.754 120.443 134.63 120.443 134.497V134.438C120.443 134.403 120.461 134.386 120.496 134.386H120.877C120.912 134.386 120.93 134.403 120.93 134.438V134.465C120.93 134.563 120.983 134.65 121.088 134.724C121.197 134.798 121.335 134.835 121.501 134.835C121.659 134.835 121.788 134.801 121.886 134.734C121.985 134.664 122.034 134.576 122.034 134.47C122.034 134.368 121.989 134.292 121.897 134.243C121.805 134.19 121.657 134.135 121.453 134.079C121.252 134.023 121.083 133.966 120.946 133.91C120.812 133.85 120.697 133.767 120.602 133.661C120.51 133.552 120.465 133.413 120.465 133.244C120.465 133.008 120.556 132.821 120.739 132.684C120.926 132.543 121.173 132.472 121.479 132.472C121.684 132.472 121.863 132.506 122.019 132.573C122.177 132.636 122.299 132.726 122.383 132.842C122.468 132.958 122.51 133.089 122.51 133.233V133.249C122.51 133.284 122.492 133.302 122.457 133.302H122.087C122.052 133.302 122.034 133.284 122.034 133.249V133.233C122.034 133.131 121.983 133.046 121.881 132.98C121.782 132.909 121.647 132.874 121.474 132.874C121.319 132.874 121.192 132.904 121.094 132.964C120.998 133.024 120.951 133.105 120.951 133.207C120.951 133.309 120.997 133.387 121.088 133.439C121.183 133.492 121.335 133.549 121.543 133.609C121.747 133.665 121.916 133.721 122.05 133.778C122.188 133.831 122.304 133.912 122.399 134.021C122.494 134.127 122.542 134.266 122.542 134.438C122.542 134.678 122.447 134.868 122.256 135.009C122.07 135.15 121.819 135.221 121.506 135.221ZM123.188 135.189C123.153 135.189 123.135 135.171 123.135 135.136V131.542C123.135 131.507 123.153 131.489 123.188 131.489H123.59C123.625 131.489 123.643 131.507 123.643 131.542V135.136C123.643 135.171 123.625 135.189 123.59 135.189H123.188ZM124.686 132.076C124.587 132.076 124.506 132.044 124.443 131.98C124.379 131.917 124.348 131.836 124.348 131.737C124.348 131.639 124.379 131.558 124.443 131.494C124.506 131.431 124.587 131.399 124.686 131.399C124.785 131.399 124.866 131.431 124.929 131.494C124.993 131.558 125.024 131.639 125.024 131.737C125.024 131.836 124.993 131.917 124.929 131.98C124.866 132.044 124.785 132.076 124.686 132.076ZM124.475 135.184C124.439 135.184 124.422 135.166 124.422 135.131V132.551C124.422 132.516 124.439 132.499 124.475 132.499H124.876C124.912 132.499 124.929 132.516 124.929 132.551V135.131C124.929 135.166 124.912 135.184 124.876 135.184H124.475ZM125.78 135.189C125.744 135.189 125.727 135.171 125.727 135.136V131.542C125.727 131.507 125.744 131.489 125.78 131.489H126.181C126.217 131.489 126.234 131.507 126.234 131.542V133.577C126.234 133.584 126.238 133.589 126.245 133.593C126.252 133.596 126.257 133.594 126.261 133.587L127.238 132.525C127.253 132.507 127.274 132.499 127.302 132.499H127.772C127.793 132.499 127.806 132.506 127.809 132.52C127.816 132.53 127.813 132.544 127.799 132.562L127.117 133.35C127.11 133.364 127.108 133.374 127.112 133.381L127.92 135.126L127.926 135.147C127.926 135.175 127.91 135.189 127.878 135.189H127.455C127.427 135.189 127.408 135.175 127.397 135.147L126.768 133.709C126.761 133.691 126.752 133.69 126.742 133.704L126.245 134.253C126.238 134.267 126.234 134.276 126.234 134.28V135.136C126.234 135.171 126.217 135.189 126.181 135.189H125.78ZM130.454 133.508C130.469 133.653 130.474 133.815 130.47 133.994C130.47 134.03 130.453 134.047 130.417 134.047H128.731C128.717 134.047 128.71 134.054 128.71 134.068C128.71 134.188 128.721 134.28 128.742 134.343C128.781 134.484 128.858 134.595 128.974 134.676C129.094 134.754 129.244 134.793 129.424 134.793C129.684 134.793 129.885 134.685 130.026 134.47C130.044 134.435 130.067 134.43 130.095 134.454L130.396 134.655C130.421 134.676 130.426 134.699 130.412 134.724C130.313 134.882 130.173 135.007 129.989 135.099C129.81 135.191 129.605 135.237 129.376 135.237C129.119 135.237 128.902 135.18 128.726 135.067C128.55 134.955 128.418 134.794 128.33 134.586C128.245 134.378 128.203 134.127 128.203 133.831C128.203 133.573 128.222 133.378 128.261 133.244C128.324 133.001 128.451 132.809 128.641 132.668C128.832 132.527 129.063 132.456 129.334 132.456C129.69 132.456 129.956 132.546 130.132 132.726C130.308 132.902 130.416 133.163 130.454 133.508ZM129.334 132.895C129.182 132.895 129.057 132.934 128.959 133.011C128.86 133.085 128.793 133.186 128.758 133.313C128.733 133.39 128.717 133.489 128.71 133.609C128.71 133.623 128.717 133.63 128.731 133.63H129.942C129.956 133.63 129.963 133.623 129.963 133.609C129.956 133.492 129.945 133.406 129.931 133.35C129.896 133.212 129.825 133.103 129.72 133.022C129.618 132.937 129.489 132.895 129.334 132.895Z" fill="white"/>
<path d="M119.346 144.704H127.804C128.385 144.704 128.856 145.179 128.856 145.761L128.861 155.275L126.747 153.161H119.346C118.765 153.161 118.289 152.685 118.289 152.104V145.761C118.289 145.179 118.765 144.704 119.346 144.704ZM120.932 151.047H126.218C126.509 151.047 126.747 150.809 126.747 150.518C126.747 150.227 126.509 149.989 126.218 149.989H120.932C120.641 149.989 120.404 150.227 120.404 150.518C120.404 150.809 120.641 151.047 120.932 151.047ZM120.932 149.461H126.218C126.509 149.461 126.747 149.223 126.747 148.932C126.747 148.642 126.509 148.404 126.218 148.404H120.932C120.641 148.404 120.404 148.642 120.404 148.932C120.404 149.223 120.641 149.461 120.932 149.461ZM120.932 147.875H126.218C126.509 147.875 126.747 147.637 126.747 147.347C126.747 147.056 126.509 146.818 126.218 146.818H120.932C120.641 146.818 120.404 147.056 120.404 147.347C120.404 147.637 120.641 147.875 120.932 147.875Z" fill="white"/>
<path d="M122.549 160.808C122.587 160.963 122.607 161.124 122.607 161.289C122.607 161.455 122.586 161.608 122.543 161.749C122.476 161.975 122.348 162.154 122.157 162.288C121.971 162.419 121.747 162.484 121.486 162.484C121.229 162.484 121.009 162.42 120.825 162.293C120.642 162.167 120.514 161.994 120.44 161.775C120.404 161.677 120.385 161.59 120.381 161.516V161.506C120.381 161.478 120.397 161.464 120.429 161.464H120.847C120.878 161.464 120.896 161.479 120.899 161.511C120.903 161.536 120.912 161.573 120.926 161.622C120.965 161.753 121.032 161.857 121.127 161.934C121.225 162.008 121.343 162.045 121.481 162.045C121.625 162.045 121.747 162.006 121.846 161.929C121.948 161.848 122.017 161.737 122.052 161.596C122.076 161.522 122.089 161.42 122.089 161.289C122.089 161.173 122.078 161.065 122.057 160.967C122.032 160.833 121.969 160.731 121.867 160.66C121.768 160.586 121.645 160.549 121.497 160.549C121.359 160.549 121.236 160.581 121.127 160.644C121.017 160.704 120.947 160.785 120.915 160.887C120.905 160.919 120.885 160.935 120.857 160.935H120.434C120.399 160.935 120.381 160.917 120.381 160.882V158.8C120.381 158.764 120.399 158.747 120.434 158.747H122.411C122.446 158.747 122.464 158.764 122.464 158.8V159.133C122.464 159.168 122.446 159.185 122.411 159.185H120.91C120.896 159.185 120.889 159.192 120.889 159.207L120.884 160.311C120.884 160.332 120.892 160.338 120.91 160.327C120.995 160.253 121.091 160.199 121.201 160.163C121.313 160.125 121.432 160.105 121.555 160.105C121.802 160.105 122.013 160.167 122.189 160.29C122.369 160.414 122.489 160.586 122.549 160.808ZM123.328 162.447C123.293 162.447 123.275 162.429 123.275 162.394V158.8C123.275 158.764 123.293 158.747 123.328 158.747H123.73C123.765 158.747 123.783 158.764 123.783 158.8V160.486C123.783 160.493 123.786 160.498 123.793 160.502C123.8 160.502 123.805 160.498 123.809 160.491L125.321 158.778C125.335 158.757 125.356 158.747 125.384 158.747H125.844C125.865 158.747 125.879 158.754 125.886 158.768C125.893 158.778 125.89 158.793 125.876 158.81L124.618 160.295C124.614 160.306 124.614 160.317 124.618 160.327L125.966 162.383C125.973 162.397 125.976 162.408 125.976 162.415C125.976 162.436 125.962 162.447 125.934 162.447H125.474C125.449 162.447 125.428 162.436 125.411 162.415L124.269 160.687C124.265 160.68 124.26 160.676 124.253 160.676C124.246 160.676 124.241 160.678 124.237 160.681L123.793 161.178C123.786 161.192 123.783 161.201 123.783 161.205V162.394C123.783 162.429 123.765 162.447 123.73 162.447H123.328Z" fill="white"/>
<path d="M123.927 173.34V171.815L125.586 173.474L126.916 174.804L125.562 175.932L123.927 177.294V175.802C121.057 175.585 120.051 177.247 120.051 177.247C120.051 176.212 120.136 175.138 120.95 174.324C121.896 173.378 123.265 173.311 123.927 173.34Z" fill="white"/>
<path d="M118.15 185.518C117.879 185.518 117.643 185.476 117.442 185.391C117.245 185.306 117.091 185.187 116.982 185.032C116.876 184.877 116.823 184.695 116.823 184.487V184.334C116.823 184.299 116.841 184.281 116.876 184.281H117.262C117.297 184.281 117.315 184.299 117.315 184.334V184.461C117.315 184.64 117.393 184.788 117.548 184.905C117.703 185.021 117.916 185.079 118.187 185.079C118.43 185.079 118.614 185.028 118.737 184.926C118.86 184.824 118.922 184.69 118.922 184.524C118.922 184.415 118.89 184.322 118.827 184.244C118.763 184.166 118.67 184.096 118.547 184.033C118.427 183.966 118.251 183.886 118.018 183.795C117.761 183.696 117.556 183.606 117.405 183.525C117.257 183.444 117.134 183.338 117.035 183.208C116.936 183.074 116.887 182.907 116.887 182.706C116.887 182.403 116.994 182.165 117.209 181.992C117.428 181.82 117.722 181.733 118.092 181.733C118.353 181.733 118.582 181.777 118.779 181.865C118.977 181.953 119.128 182.077 119.234 182.235C119.343 182.394 119.398 182.577 119.398 182.785V182.891C119.398 182.926 119.38 182.944 119.345 182.944H118.948C118.913 182.944 118.895 182.926 118.895 182.891V182.812C118.895 182.628 118.821 182.477 118.673 182.357C118.529 182.234 118.328 182.172 118.071 182.172C117.852 182.172 117.683 182.218 117.563 182.309C117.444 182.398 117.384 182.526 117.384 182.695C117.384 182.812 117.414 182.907 117.474 182.981C117.534 183.055 117.622 183.122 117.738 183.182C117.858 183.238 118.039 183.312 118.282 183.404C118.533 183.502 118.735 183.594 118.89 183.678C119.045 183.759 119.174 183.869 119.276 184.006C119.378 184.14 119.429 184.307 119.429 184.508C119.429 184.818 119.315 185.065 119.086 185.248C118.86 185.428 118.548 185.518 118.15 185.518ZM121.252 182.748C121.541 182.748 121.77 182.833 121.94 183.002C122.109 183.167 122.193 183.393 122.193 183.678V185.423C122.193 185.458 122.176 185.476 122.14 185.476H121.739C121.703 185.476 121.686 185.458 121.686 185.423V183.779C121.686 183.603 121.635 183.46 121.532 183.351C121.43 183.241 121.295 183.187 121.125 183.187C120.96 183.187 120.824 183.241 120.718 183.351C120.613 183.46 120.56 183.601 120.56 183.774V185.423C120.56 185.458 120.542 185.476 120.507 185.476H120.105C120.07 185.476 120.052 185.458 120.052 185.423V181.828C120.052 181.793 120.07 181.776 120.105 181.776H120.507C120.542 181.776 120.56 181.793 120.56 181.828V183.028C120.56 183.035 120.562 183.041 120.565 183.044C120.572 183.048 120.578 183.046 120.581 183.039C120.733 182.845 120.956 182.748 121.252 182.748ZM123.9 182.743C124.115 182.743 124.302 182.782 124.461 182.859C124.623 182.933 124.746 183.039 124.831 183.176C124.919 183.31 124.963 183.463 124.963 183.636V185.423C124.963 185.458 124.945 185.476 124.91 185.476H124.508C124.473 185.476 124.455 185.458 124.455 185.423V185.232C124.455 185.215 124.447 185.211 124.429 185.222C124.337 185.317 124.225 185.391 124.091 185.444C123.96 185.493 123.814 185.518 123.652 185.518C123.391 185.518 123.175 185.453 123.002 185.322C122.833 185.188 122.748 184.988 122.748 184.72C122.748 184.445 122.843 184.23 123.034 184.075C123.227 183.916 123.497 183.837 123.842 183.837H124.434C124.448 183.837 124.455 183.83 124.455 183.816V183.673C124.455 183.518 124.41 183.398 124.318 183.314C124.23 183.226 124.094 183.182 123.911 183.182C123.763 183.182 123.641 183.212 123.546 183.271C123.455 183.328 123.398 183.405 123.377 183.504C123.367 183.539 123.345 183.555 123.314 183.552L122.886 183.493C122.85 183.486 122.835 183.472 122.838 183.451C122.866 183.243 122.977 183.074 123.171 182.944C123.365 182.81 123.608 182.743 123.9 182.743ZM123.763 185.09C123.95 185.09 124.112 185.04 124.249 184.942C124.387 184.843 124.455 184.718 124.455 184.566V184.255C124.455 184.24 124.448 184.233 124.434 184.233H123.937C123.73 184.233 123.564 184.274 123.441 184.355C123.317 184.436 123.256 184.549 123.256 184.693C123.256 184.824 123.301 184.922 123.393 184.989C123.488 185.056 123.612 185.09 123.763 185.09ZM126.827 182.759C126.939 182.759 127.042 182.782 127.133 182.827C127.158 182.838 127.167 182.859 127.16 182.891L127.075 183.287C127.072 183.319 127.05 183.33 127.012 183.319C126.952 183.294 126.881 183.282 126.8 183.282L126.726 183.287C126.561 183.294 126.423 183.352 126.314 183.462C126.208 183.567 126.155 183.707 126.155 183.879V185.423C126.155 185.458 126.138 185.476 126.103 185.476H125.701C125.666 185.476 125.648 185.458 125.648 185.423V182.838C125.648 182.803 125.666 182.785 125.701 182.785H126.103C126.138 182.785 126.155 182.803 126.155 182.838V183.118C126.155 183.129 126.157 183.136 126.161 183.139C126.168 183.139 126.173 183.136 126.177 183.129C126.335 182.882 126.552 182.759 126.827 182.759ZM129.746 183.795C129.76 183.939 129.765 184.101 129.762 184.281C129.762 184.316 129.744 184.334 129.709 184.334H128.023C128.009 184.334 128.002 184.341 128.002 184.355C128.002 184.475 128.012 184.566 128.033 184.63C128.072 184.771 128.15 184.882 128.266 184.963C128.386 185.04 128.535 185.079 128.715 185.079C128.976 185.079 129.177 184.972 129.318 184.757C129.335 184.721 129.358 184.716 129.387 184.741L129.688 184.942C129.712 184.963 129.718 184.986 129.704 185.01C129.605 185.169 129.464 185.294 129.281 185.386C129.101 185.477 128.897 185.523 128.668 185.523C128.41 185.523 128.194 185.467 128.017 185.354C127.841 185.241 127.709 185.081 127.621 184.873C127.536 184.665 127.494 184.413 127.494 184.117C127.494 183.86 127.514 183.664 127.552 183.53C127.616 183.287 127.743 183.095 127.933 182.954C128.123 182.813 128.354 182.743 128.625 182.743C128.981 182.743 129.247 182.833 129.424 183.012C129.6 183.189 129.707 183.449 129.746 183.795ZM128.625 183.182C128.474 183.182 128.349 183.22 128.25 183.298C128.151 183.372 128.084 183.472 128.049 183.599C128.025 183.677 128.009 183.775 128.002 183.895C128.002 183.909 128.009 183.916 128.023 183.916H129.233C129.247 183.916 129.254 183.909 129.254 183.895C129.247 183.779 129.237 183.693 129.223 183.636C129.187 183.499 129.117 183.389 129.011 183.308C128.909 183.224 128.78 183.182 128.625 183.182Z" fill="white"/>
<path d="M120.756 198.161C120.756 198.255 120.793 198.345 120.859 198.411C120.925 198.477 121.015 198.514 121.108 198.514C121.202 198.514 121.292 198.477 121.358 198.411C121.424 198.345 121.461 198.255 121.461 198.161C121.461 198.068 121.424 197.978 121.358 197.912C121.292 197.846 121.202 197.809 121.108 197.809C121.015 197.809 120.925 197.846 120.859 197.912C120.793 197.978 120.756 198.068 120.756 198.161ZM123.223 198.161C123.223 198.255 123.26 198.345 123.326 198.411C123.392 198.477 123.482 198.514 123.575 198.514C123.669 198.514 123.758 198.477 123.824 198.411C123.89 198.345 123.928 198.255 123.928 198.161C123.928 198.068 123.89 197.978 123.824 197.912C123.758 197.846 123.669 197.809 123.575 197.809C123.482 197.809 123.392 197.846 123.326 197.912C123.26 197.978 123.223 198.068 123.223 198.161ZM125.689 198.161C125.689 198.255 125.727 198.345 125.793 198.411C125.859 198.477 125.948 198.514 126.042 198.514C126.135 198.514 126.225 198.477 126.291 198.411C126.357 198.345 126.394 198.255 126.394 198.161C126.394 198.068 126.357 197.978 126.291 197.912C126.225 197.846 126.135 197.809 126.042 197.809C125.948 197.809 125.859 197.846 125.793 197.912C125.727 197.978 125.689 198.068 125.689 198.161Z" fill="white" stroke="white" stroke-width="0.740009" stroke-linecap="round" stroke-linejoin="round"/>
<rect x="117.232" y="210.847" width="12.6859" height="12.6859" rx="1.05716" fill="white"/>
<defs>
<clipPath id="clip0_1032_4818">
<rect width="8.45725" height="8.45725" fill="white" transform="matrix(-1 0 0 -1 127.803 129.075)"/>
</clipPath>
</defs>
</svg>
