<svg width="102" height="102" viewBox="0 0 102 102" fill="none" xmlns="http://www.w3.org/2000/svg">
<g clip-path="url(#clip0_1184_15297)">
<mask id="mask0_1184_15297" style="mask-type:luminance" maskUnits="userSpaceOnUse" x="0" y="0" width="102" height="102">
<path d="M101.2 0.573242H0.269531V101.504H101.2V0.573242Z" fill="white"/>
</mask>
<g mask="url(#mask0_1184_15297)">
<g opacity="0.57">
<path d="M51.6387 85.9648C60.6998 85.9648 68.0567 87.1374 68.0567 88.5816C68.0567 90.0257 60.6998 91.1983 51.6387 91.1983C42.5776 91.1983 35.2207 90.0257 35.2207 88.5816C35.2207 87.1374 42.5776 85.9648 51.6387 85.9648Z" fill="black"/>
<path d="M51.6387 85.9648C60.6998 85.9648 68.0567 87.1374 68.0567 88.5816C68.0567 90.0257 60.6998 91.1983 51.6387 91.1983C42.5776 91.1983 35.2207 90.0257 35.2207 88.5816C35.2207 87.1374 42.5776 85.9648 51.6387 85.9648Z" stroke="#39403B" stroke-width="0.29196"/>
</g>
<mask id="mask1_1184_15297" style="mask-type:luminance" maskUnits="userSpaceOnUse" x="0" y="2" width="102" height="101">
<path d="M0.177734 2.06641H101.108V102.997H0.177734V2.06641Z" fill="white"/>
</mask>
<g mask="url(#mask1_1184_15297)">
<mask id="mask2_1184_15297" style="mask-type:luminance" maskUnits="userSpaceOnUse" x="35" y="8" width="33" height="84">
<path d="M67.0438 8.4248H35.2227V91.7859H67.0438V8.4248Z" fill="white"/>
</mask>
<g mask="url(#mask2_1184_15297)">
<path d="M66.9684 37.8694V76.2553H35.1602V37.8694C35.1602 31.6692 38.7074 26.2966 43.8834 23.6764C45.1194 23.051 45.8739 21.7576 45.8739 20.3726V18.0244H56.3101V20.3753C56.3101 21.765 57.0581 23.07 58.2951 23.7023C59.7842 24.4629 61.1378 25.4519 62.31 26.6236C65.1874 29.5015 66.9684 33.4747 66.9684 37.8694Z" fill="#BFBD84"/>
<path d="M55.6999 18.9696H46.485C45.2281 18.9696 44.209 17.9505 44.209 16.6936V15.1393C44.209 13.8824 45.2281 12.8633 46.485 12.8633H55.6999C56.9568 12.8633 57.9759 13.8824 57.9759 15.1393V16.6936C57.9759 17.9505 56.9568 18.9696 55.6999 18.9696Z" fill="#F8F24B"/>
<mask id="mask3_1184_15297" style="mask-type:alpha" maskUnits="userSpaceOnUse" x="35" y="12" width="32" height="81">
<path d="M66.9694 37.8645L66.9948 92.8854L35.1523 92.792L35.1611 37.8645C35.1611 31.6643 38.7083 26.2917 43.8843 23.6716C45.1204 23.0461 45.8749 21.7527 45.8749 20.3677V18.0195H56.3111V20.3705C56.3111 21.7601 57.0591 23.0651 58.2961 23.6975C59.7852 24.458 61.1388 25.447 62.311 26.6188C65.1884 29.4966 66.9694 33.4698 66.9694 37.8645Z" fill="#A6DCB8"/>
<path d="M55.6999 18.9627H46.485C45.2281 18.9627 44.209 17.9436 44.209 16.6868V15.1324C44.209 13.8755 45.2281 12.8564 46.485 12.8564H55.6999C56.9568 12.8564 57.9759 13.8755 57.9759 15.1324V16.6868C57.9759 17.9436 56.9568 18.9627 55.6999 18.9627Z" fill="#386F4A"/>
</mask>
<g mask="url(#mask3_1184_15297)">
<path d="M66.5381 87.0003C62.5228 87.0003 63.4572 81.2548 54.7095 81.2548C47.2015 81.2548 46.8222 85.4835 44.3288 86.6857C44.2733 86.714 44.2178 86.7371 44.1576 86.7644C43.8014 86.9083 43.399 86.9957 42.9271 86.9957C42.4599 86.9957 42.0667 86.9129 41.7105 86.769C41.6503 86.7459 41.5902 86.7186 41.5347 86.6904C39.0274 85.502 38.6666 81.2548 31.1447 81.2548C22.397 81.2548 23.3268 87.0003 19.3161 87.0003C19.2976 87.0003 19.2791 87.0003 19.2606 86.9957C19.2421 87.0003 19.219 87.0003 19.2005 87.0003C15.1851 87.0003 16.1196 81.2548 7.37184 81.2548C-0.136122 81.2548 -0.515453 85.4835 -3.00885 86.6857C-3.06437 86.714 -3.11988 86.7371 -3.18002 86.7644C-3.53622 86.9083 -3.93868 86.9957 -4.41053 86.9957C-4.87775 86.9957 -5.27096 86.9129 -5.62716 86.769C-5.6873 86.7459 -5.74743 86.7186 -5.80295 86.6904C-8.31023 85.502 -8.67105 81.2548 -16.1929 81.2548C-24.9406 81.2548 -24.0108 87.0003 -28.0215 87.0003C-32.0369 87.0003 -31.6205 80.2561 -31.6205 80.2561V76.2588H70.1371V80.2561C70.1371 80.2561 70.5535 87.0003 66.5381 87.0003Z" fill="#4A4A4A"/>
<path d="M78.417 87.0003C74.4017 87.0003 75.3361 81.2548 66.5884 81.2548C59.0804 81.2548 58.7011 85.4835 56.2077 86.6857C56.1522 86.714 56.0967 86.7371 56.0365 86.7644C55.6803 86.9083 55.2779 86.9957 54.806 86.9957C54.3388 86.9957 53.9456 86.9129 53.5894 86.769C53.5292 86.7459 53.4691 86.7186 53.4136 86.6904C50.9063 85.502 50.5455 81.2548 43.0236 81.2548C34.2759 81.2548 35.2057 87.0003 31.195 87.0003C31.1765 87.0003 31.158 87.0003 31.1395 86.9957C31.121 87.0003 31.0979 87.0003 31.0794 87.0003C27.064 87.0003 27.9985 81.2548 19.2507 81.2548C11.7428 81.2548 11.3635 85.4835 8.87005 86.6857C8.81454 86.714 8.75903 86.7371 8.69889 86.7644C8.34269 86.9083 7.94023 86.9957 7.46838 86.9957C7.00116 86.9957 6.60795 86.9129 6.25175 86.769C6.19161 86.7459 6.13147 86.7186 6.07596 86.6904C3.56868 85.502 3.20785 81.2548 -4.31399 81.2548C-13.0617 81.2548 -12.1319 87.0003 -16.1426 87.0003C-20.158 87.0003 -19.7416 80.2561 -19.7416 80.2561V76.2588H82.016V80.2561C82.016 80.2561 82.4324 87.0003 78.417 87.0003Z" fill="#BFBD84"/>
</g>
<path d="M66.5381 87.0018C62.5228 87.0018 63.4572 81.2563 54.7095 81.2563C47.2015 81.2563 46.8222 85.4849 44.3288 86.6872C44.2733 86.7154 44.2178 86.7386 44.1576 86.7658C43.8014 86.9097 43.399 86.9971 42.9271 86.9971C42.4599 86.9971 42.0667 86.9143 41.7105 86.7705C41.6503 86.7473 41.5902 86.7201 41.5347 86.6918C39.0274 85.5034 38.6666 81.2563 31.1447 81.2563C22.397 81.2563 23.3268 87.0018 19.3161 87.0018C19.2976 87.0018 19.2791 87.0018 19.2606 86.9971C19.2421 87.0018 19.219 87.0018 19.2005 87.0018C15.1851 87.0018 16.1196 81.2563 7.37184 81.2563C-0.136122 81.2563 -0.515453 85.4849 -3.00885 86.6872C-3.06437 86.7154 -3.11988 86.7386 -3.18002 86.7658C-3.53622 86.9097 -3.93868 86.9971 -4.41053 86.9971C-4.87775 86.9971 -5.27096 86.9143 -5.62716 86.7705C-5.6873 86.7473 -5.74743 86.7201 -5.80295 86.6918C-8.31023 85.5034 -8.67105 81.2563 -16.1929 81.2563C-24.9406 81.2563 -24.0108 87.0018 -28.0215 87.0018C-32.0369 87.0018 -31.6205 80.2576 -31.6205 80.2576V76.2603H70.1371V80.2576C70.1371 80.2576 70.5535 87.0018 66.5381 87.0018Z" fill="#4A4A4A"/>
<path d="M78.417 87.0018C74.4017 87.0018 75.3361 81.2563 66.5884 81.2563C59.0804 81.2563 58.7011 85.4849 56.2077 86.6872C56.1522 86.7154 56.0967 86.7386 56.0365 86.7658C55.6803 86.9097 55.2779 86.9971 54.806 86.9971C54.3388 86.9971 53.9456 86.9143 53.5894 86.7705C53.5292 86.7473 53.4691 86.7201 53.4136 86.6918C50.9063 85.5034 50.5455 81.2563 43.0236 81.2563C34.2759 81.2563 35.2057 87.0018 31.195 87.0018C31.1765 87.0018 31.158 87.0018 31.1395 86.9971C31.121 87.0018 31.0979 87.0018 31.0794 87.0018C27.064 87.0018 27.9985 81.2563 19.2507 81.2563C11.7428 81.2563 11.3635 85.4849 8.87005 86.6872C8.81454 86.7154 8.75903 86.7386 8.69889 86.7658C8.34269 86.9097 7.94023 86.9971 7.46838 86.9971C7.00116 86.9971 6.60795 86.9143 6.25175 86.7705C6.19161 86.7473 6.13147 86.7201 6.07596 86.6918C3.56868 85.5034 3.20785 81.2563 -4.31399 81.2563C-13.0617 81.2563 -12.1319 87.0018 -16.1426 87.0018C-20.158 87.0018 -19.7416 80.2576 -19.7416 80.2576V76.2603H82.016V80.2576C82.016 80.2576 82.4324 87.0018 78.417 87.0018Z" fill="#BFBD84"/>
<mask id="mask4_1184_15297" style="mask-type:alpha" maskUnits="userSpaceOnUse" x="35" y="12" width="32" height="81">
<path d="M66.9694 37.8645L66.9948 92.8854L35.1523 92.792L35.1611 37.8645C35.1611 31.6643 38.7083 26.2917 43.8843 23.6716C45.1204 23.0461 45.8749 21.7527 45.8749 20.3677V18.0195H56.3111V20.3705C56.3111 21.7601 57.0591 23.0651 58.2961 23.6975C59.7852 24.458 61.1388 25.447 62.311 26.6188C65.1884 29.4966 66.9694 33.4698 66.9694 37.8645Z" fill="#F8F24B"/>
<path d="M55.6999 18.9627H46.485C45.2281 18.9627 44.209 17.9436 44.209 16.6868V15.1324C44.209 13.8755 45.2281 12.8564 46.485 12.8564H55.6999C56.9568 12.8564 57.9759 13.8755 57.9759 15.1324V16.6868C57.9759 17.9436 56.9568 18.9627 55.6999 18.9627Z" fill="#F8F24B"/>
</mask>
<g mask="url(#mask4_1184_15297)">
<path d="M73.2532 76.1199H-19.7363V36.5391H73.2532V76.1199Z" fill="#F8F24B"/>
<path d="M40.2812 58.389L48.6395 47.498L57.8331 59.8226" stroke="black" stroke-width="0.925196" stroke-miterlimit="10" stroke-linecap="round"/>
<path d="M53.2266 53.6437L57.667 49.8286L62.0131 54.747" stroke="black" stroke-width="0.925196" stroke-miterlimit="10" stroke-linecap="round"/>
<path d="M57.9196 44.2786C57.9196 45.6891 56.7765 46.8331 55.366 46.8331C53.956 46.8331 52.8125 45.6891 52.8125 44.2786C52.8125 42.8682 53.956 41.7251 55.366 41.7251C56.7765 41.7251 57.9196 42.8682 57.9196 44.2786Z" stroke="black" stroke-width="0.925196" stroke-miterlimit="10" stroke-linecap="round"/>
<path d="M45.3633 51.7706L46.832 53.7764L48.5455 52.0551L50.3843 53.7209L51.7351 51.6484" stroke="black" stroke-width="0.925196" stroke-miterlimit="10" stroke-linecap="round"/>
<path d="M55.7988 51.4351L57.5308 52.9968L59.173 51.5341" stroke="black" stroke-width="0.925196" stroke-miterlimit="10" stroke-linecap="round"/>
<path d="M46.0526 62.801C46.0651 62.7687 46.0323 62.7353 45.9777 62.7275C45.9245 62.7192 45.8699 62.739 45.8569 62.7719L44.2573 65.8884L44.1851 66.0027L42.6678 62.7696C42.6558 62.7432 42.6164 62.7256 42.572 62.7256H41.2481C41.2161 62.7256 41.1856 62.7344 41.1666 62.7501C41.1481 62.7659 41.1421 62.7858 41.1518 62.8043L42.3088 65.1015L41.743 66.0027L40.2253 62.7696C40.2132 62.7432 40.1739 62.7256 40.1295 62.7256H38.8055C38.7736 62.7256 38.7436 62.7344 38.7241 62.7501C38.7056 62.7659 38.7001 62.7858 38.7098 62.8043L40.964 67.2794C40.964 67.2804 40.965 67.2808 40.9659 67.2813C40.9719 67.2915 40.9825 67.3007 40.9969 67.3072C41.0015 67.3095 41.0052 67.3109 41.0098 67.3128C41.014 67.3141 41.0177 67.3165 41.0228 67.3178C41.0325 67.3202 41.0422 67.3206 41.0519 67.3211C41.0552 67.3211 41.0566 67.322 41.0593 67.322C41.069 67.322 41.0788 67.3211 41.0885 67.3197C41.0982 67.3183 41.106 67.3146 41.1135 67.3118C41.1144 67.3114 41.1158 67.3109 41.1158 67.3109C41.1315 67.304 41.144 67.2947 41.1514 67.2836L41.1523 67.2827L41.8157 66.2293C41.8171 66.227 41.8184 66.2247 41.8194 66.2229L42.4046 65.2912L43.4065 67.2794C43.4065 67.2804 43.4075 67.2808 43.4084 67.2813C43.4144 67.2915 43.4251 67.3007 43.4394 67.3072C43.4436 67.3095 43.4477 67.3109 43.4523 67.3128C43.4565 67.3141 43.4602 67.3165 43.4658 67.3178C43.4755 67.3202 43.4847 67.3206 43.4944 67.3211C43.4977 67.3211 43.4995 67.322 43.5023 67.322C43.512 67.322 43.6929 67.3211 43.7026 67.3197C43.7123 67.3183 43.7197 67.3146 43.7267 67.3118C43.7276 67.3114 43.729 67.3114 43.7299 67.3109C43.7456 67.304 43.7572 67.2947 43.7646 67.2836C43.7655 67.2831 43.7664 67.2827 43.7664 67.2827L43.8224 67.1934L44.4007 66.0841L46.0526 62.801Z" fill="black"/>
<path d="M50.722 67.3036C50.7104 67.3059 50.6988 67.3077 50.6877 67.3077C50.647 67.3077 50.6082 67.292 50.5934 67.268L49.2814 65.1261H47.9357L46.6229 67.268C46.609 67.2916 46.572 67.3077 46.5294 67.3077H45.205C45.1726 67.3077 45.1421 67.2971 45.1231 67.2805C45.1046 67.2643 45.1005 67.2434 45.1116 67.2249L47.8525 62.7498C47.8534 62.7488 47.8538 62.7488 47.8548 62.7479C47.8576 62.7433 47.8626 62.7396 47.8673 62.7354C47.87 62.7331 47.8724 62.7303 47.8751 62.7285C47.8807 62.7248 47.8872 62.7229 47.8941 62.7206C47.8983 62.7188 47.9029 62.7169 47.9075 62.7155C47.9089 62.7151 47.9103 62.7141 47.9112 62.7137C47.9168 62.7128 47.9232 62.7128 47.9283 62.7123C47.9348 62.7114 47.9399 62.7104 47.9459 62.7104C47.9524 62.7104 47.9589 62.7114 47.9644 62.7123C47.9704 62.7128 47.9764 62.7128 47.9815 62.7137C47.9829 62.7141 47.9838 62.7151 47.9852 62.7155C47.9899 62.7165 47.994 62.7188 47.9986 62.7206C48.0056 62.7225 48.0121 62.7253 48.0171 62.7285C48.0208 62.7303 48.0222 62.7336 48.0255 62.7354C48.0306 62.7401 48.0352 62.7433 48.0389 62.7484C48.0389 62.7484 48.0394 62.7493 48.0403 62.7498L48.6986 63.8248C48.7009 63.8272 48.7013 63.829 48.7032 63.8313L50.7812 67.2249C50.8006 67.2564 50.7738 67.2911 50.722 67.3036ZM48.0097 65.0045H49.2074L48.6083 64.0279L48.0097 65.0045Z" fill="black"/>
<path d="M55.0188 62.7696C55.0188 62.8033 54.9744 62.8306 54.9184 62.8306H53.168V67.2447C53.168 67.2785 53.1226 67.3058 53.0676 67.3058H51.7432C51.6872 67.3058 51.6428 67.2785 51.6428 67.2447V62.8306H49.8914C49.8364 62.8306 49.791 62.8033 49.791 62.7696C49.791 62.7363 49.8364 62.7085 49.8914 62.7085H54.9184C54.9744 62.7085 55.0188 62.7363 55.0188 62.7696Z" fill="black"/>
<path d="M59.5112 67.2447C59.5112 67.2785 59.4659 67.3058 59.4109 67.3058H55.6092C55.5542 67.3058 55.5098 67.2785 55.5098 67.2447V62.7696C55.5098 62.7363 55.5542 62.7085 55.6092 62.7085H59.4109C59.4659 62.7085 59.5112 62.7363 59.5112 62.7696C59.5112 62.8033 59.4659 62.8306 59.4109 62.8306H57.034V65.0192H58.0522C58.1073 65.0192 58.1526 65.0469 58.1526 65.0802C58.1526 65.114 58.1073 65.1413 58.0522 65.1413H57.034V67.1837H59.4109C59.4659 67.1837 59.5112 67.2114 59.5112 67.2447Z" fill="black"/>
<path d="M64.7091 67.2989C64.6938 67.303 64.6781 67.3058 64.6624 67.3058C64.6267 67.3058 64.5916 67.2938 64.5735 67.2725L62.7768 65.1246C62.6713 65.1348 62.5645 65.1413 62.4553 65.1413H61.6009V67.2447C61.6009 67.2785 61.5565 67.3058 61.501 67.3058H60.177C60.1215 67.3058 60.0762 67.2785 60.0762 67.2447V62.77C60.0762 62.7363 60.1215 62.7085 60.177 62.7085H62.4553C63.5577 62.7085 64.4542 63.2544 64.4542 63.9251C64.4542 64.4853 63.8274 64.9567 62.9785 65.0974L64.7521 67.217C64.7771 67.2466 64.7581 67.2836 64.7091 67.2989ZM62.4553 65.0192C63.4471 65.0192 64.2544 64.5279 64.2544 63.9251C64.2544 63.3214 63.4471 62.8311 62.4553 62.8311H61.6009V65.0192H62.4553Z" fill="black"/>
</g>
</g>
</g>
</g>
</g>
<defs>
<clipPath id="clip0_1184_15297">
<rect width="100.93" height="100.93" fill="white" transform="translate(0.269531 0.573242)"/>
</clipPath>
</defs>
</svg>
