<svg viewBox="0 0 111 111" fill="none" xmlns="http://www.w3.org/2000/svg">
<g clip-path="url(#clip0_1184_7989)">
<mask id="mask0_1184_7989" style="mask-type:luminance" maskUnits="userSpaceOnUse" x="0" y="0" width="111" height="111">
<path d="M110.45 0.292969H0.730469V110.012H110.45V0.292969Z" fill="white"/>
</mask>
<g mask="url(#mask0_1184_7989)">
<path d="M81.2054 47.3805C81.2579 47.1458 81.4391 46.9753 81.6577 46.9211C81.4829 46.7791 81.3915 46.5476 81.4441 46.3131C81.5179 45.9825 81.8458 45.7744 82.1762 45.8483C82.2095 45.8557 82.2732 45.87 82.2732 45.87L83.7217 46.2277C83.7217 46.2277 83.7036 44.8651 83.9723 44.1949C84.2408 43.5248 85.2477 43.4271 85.0903 44.2071C84.933 44.9871 84.9722 45.2675 85.4188 46.0806C85.7108 46.6122 85.8447 47.0068 85.9024 47.2163C85.9311 47.3209 85.9322 47.4304 85.9085 47.5363L85.2517 50.4755C85.2158 50.6362 85.0564 50.7375 84.8955 50.7016L81.3695 49.9135C81.3695 49.9135 81.3057 49.8992 81.2725 49.8919C80.942 49.8179 80.7002 49.5098 80.8001 49.1863C80.882 48.9215 81.2353 48.8929 81.2353 48.8929C81.2353 48.8929 80.8413 48.7567 80.9286 48.3658C81.01 48.002 81.2563 47.9636 81.4191 47.9886C81.2444 47.8467 81.153 47.6152 81.2054 47.3805Z" fill="#494949"/>
<path d="M86.7751 47.504L88.0475 47.7884C88.2559 47.835 88.387 48.0416 88.3405 48.2501L87.597 51.5767C87.5504 51.785 87.3438 51.9162 87.1353 51.8696L85.863 51.5852C85.6545 51.5387 85.5233 51.332 85.57 51.1235L86.3134 47.7971C86.36 47.5886 86.5668 47.4575 86.7751 47.504Z" fill="#AAA521"/>
<path d="M78.7148 85.6086C79.3205 83.2743 81.3568 81.5419 83.572 80.5885C85.7871 79.6352 88.2128 79.3182 90.5747 78.831C92.9367 78.3437 95.3436 77.6357 97.1755 76.0674C97.9769 75.3813 98.6694 74.4968 98.8511 73.4576C99.0329 72.4185 98.5812 71.2237 97.6206 70.7879C96.1002 70.0982 94.5101 71.4954 93.3567 72.7024C90.534 75.6563 87.2918 78.2087 83.7579 80.259" fill="#494949"/>
<path d="M62.7922 87.9178C64.1134 86.342 66.5247 86.4467 68.5667 86.6879C67.788 86.7398 67.0973 85.9542 67.1633 85.1765C67.2292 84.3988 67.9509 83.7617 68.7286 83.6969C69.5064 83.6322 70.2779 84.0811 70.6987 84.7384C70.0008 83.8776 69.2827 82.9764 69.0311 81.8972C68.7795 80.818 69.1456 79.5084 70.1466 79.0329C70.9771 78.6385 72.0028 78.9292 72.7167 79.5084C73.4305 80.0877 73.8989 80.9081 74.3508 81.7086C74.3471 80.3212 73.6145 79.0538 72.9049 77.8616C72.1953 76.6693 71.4648 75.4002 71.4661 74.0129C71.4673 72.6254 72.5139 71.1386 73.9003 71.1939C75.2776 71.2487 76.1574 72.6682 76.6386 73.9599C77.5434 76.3891 77.945 79.0045 77.8111 81.5933C78.1447 78.8659 79.0361 76.2078 80.4142 73.8308C80.5811 73.543 80.7683 73.2464 81.0605 73.0873C81.558 72.8164 82.2142 73.0532 82.576 73.4891C82.938 73.925 83.0662 74.5067 83.136 75.0691C83.4148 77.3157 82.9204 79.651 81.7552 81.5922C82.5675 80.9905 82.9461 79.9783 83.254 79.0155C83.562 78.0529 83.8696 77.0336 84.6041 76.3392C85.3385 75.6449 86.6583 75.4557 87.3068 76.231C87.7525 76.7639 87.7353 77.542 87.5976 78.2228C87.2767 79.8092 86.4146 81.2809 85.1879 82.3367C86.299 81.1129 87.6593 80.1162 89.1609 79.4254C89.7338 79.1618 90.3978 78.9416 90.9815 79.1801C92.0859 79.6313 91.9947 81.3048 91.2827 82.262C90.5706 83.2193 89.4678 83.8687 88.9066 84.9214C90.3311 83.3855 92.7763 82.9074 94.6745 83.7936C96.5727 84.6798 97.7761 86.8613 97.5132 88.9396L72.3275 89.2116C68.9447 89.2482 65.559 89.2846 62.1816 89.0918" fill="#AAA521"/>
<path d="M39.5228 95.7796C38.867 93.2517 36.6618 91.3756 34.2629 90.3432C31.864 89.3108 29.2372 88.9675 26.6793 88.4398C24.1216 87.9122 21.5152 87.1455 19.5311 85.4471C18.6634 84.7042 17.9134 83.7461 17.7166 82.6209C17.5198 81.4956 18.009 80.2018 19.0492 79.7299C20.6957 78.9829 22.4176 80.496 23.6667 81.803C26.7235 85.0019 30.2346 87.7659 34.0617 89.9863" fill="#AAA521"/>
<path d="M25.1758 94.4307C26.5152 92.8328 28.9602 92.9389 31.0308 93.1836C30.2412 93.2361 29.5407 92.4397 29.6077 91.651C29.6745 90.8625 30.4062 90.2167 31.1949 90.151C31.9835 90.0853 32.7658 90.5405 33.1924 91.207C32.4849 90.3341 31.7567 89.4204 31.5016 88.3261C31.2465 87.2319 31.6176 85.9039 32.6326 85.422C33.4745 85.0219 34.5146 85.3168 35.2383 85.9041C35.9622 86.4915 36.4371 87.3233 36.8954 88.1349C36.8917 86.7282 36.1488 85.4431 35.4294 84.2342C34.7098 83.0255 33.9691 81.7386 33.9704 80.3319C33.9717 78.9252 35.0329 77.4177 36.4386 77.4737C37.8351 77.5294 38.7272 78.9685 39.2151 80.2783C40.1325 82.7414 40.5398 85.3931 40.4038 88.018C40.7421 85.2527 41.646 82.5576 43.0434 80.1474C43.2126 79.8557 43.4023 79.5548 43.6986 79.3935C44.2031 79.1189 44.8684 79.359 45.2354 79.8009C45.6024 80.2429 45.7324 80.8327 45.8031 81.4029C46.0858 83.6808 45.5845 86.0488 44.4031 88.0169C45.2266 87.4069 45.6104 86.3805 45.9227 85.4043C46.2348 84.4282 46.5468 83.3946 47.2914 82.6905C48.0362 81.9865 49.3743 81.7949 50.0319 82.581C50.4838 83.1213 50.4663 83.91 50.3267 84.6005C50.0013 86.2089 49.1272 87.7013 47.8835 88.7718C49.0101 87.5309 50.3892 86.5202 51.9118 85.8198C52.4926 85.5526 53.1659 85.3295 53.7577 85.5712C54.8776 86.0287 54.7852 87.7255 54.0632 88.696C53.3411 89.6667 52.2232 90.3251 51.6541 91.3926C53.0984 89.8352 55.5775 89.3504 57.5021 90.249C59.4267 91.1475 60.647 93.3595 60.3805 95.4667C51.8683 95.5587 43.3561 95.6505 34.8439 95.7425C31.414 95.7795 27.9811 95.8165 24.5566 95.6211" fill="#494949"/>
<g opacity="0.6">
<path d="M87.7139 94.5203C88.0012 96.3272 77.9454 99.4283 65.2533 101.447C52.5613 103.466 42.0395 103.637 41.7521 101.83C41.4647 100.024 51.5207 96.9225 64.2127 94.9039C76.9046 92.8853 87.4265 92.7135 87.7139 94.5203Z" fill="#494949"/>
</g>
<path d="M71.227 25.9992L82.2078 90.2794C82.2708 90.6479 82.2949 91.0159 82.2839 91.3752C82.2785 91.5549 82.2627 91.7316 82.2395 91.907C82.2258 91.9963 82.212 92.0856 82.1978 92.1726C82.1034 92.6937 81.93 93.1919 81.6927 93.6552C81.573 93.8882 81.4373 94.112 81.2874 94.3237C81.1375 94.5353 80.9713 94.7351 80.7934 94.9249C80.6745 95.049 80.5478 95.1698 80.418 95.2862L80.4156 95.2867C80.2853 95.4008 80.1491 95.5085 80.007 95.6101L80.0047 95.6106C79.7915 95.7629 79.5638 95.9008 79.3283 96.0208L79.326 96.0211C79.1682 96.1012 79.0067 96.1749 78.839 96.2397C78.5013 96.3699 78.1461 96.4691 77.7777 96.532L51.4109 101.036C51.0212 101.103 50.6336 101.125 50.2538 101.108C50.1904 101.105 50.1297 101.103 50.066 101.097C49.9974 101.092 49.9261 101.085 49.857 101.077C49.5661 101.042 49.2832 100.984 49.0066 100.906C48.8667 100.864 48.7311 100.82 48.5993 100.77C48.5373 100.747 48.4755 100.724 48.4153 100.698C48.2857 100.645 48.1591 100.584 48.0348 100.521C47.6484 100.324 47.2876 100.079 46.9593 99.7965C46.8288 99.6835 46.7023 99.565 46.5816 99.4381C46.4019 99.2491 46.2347 99.0482 46.0819 98.8327C45.876 98.5464 45.7006 98.2407 45.5556 97.9152L45.5552 97.9129C45.372 97.5045 45.2371 97.0685 45.1584 96.6084L34.1776 32.3283C33.6745 29.3824 35.6573 26.5796 38.6079 26.0755L64.9747 21.5714C67.9252 21.0673 70.7239 23.0533 71.227 25.9992Z" fill="#282828"/>
<path d="M70.0539 26.1998L81.0347 90.4801C81.0832 90.764 81.1035 91.0529 81.0945 91.3395C81.0923 91.4679 81.0808 91.5979 81.0618 91.7413L81.0232 91.9821C80.9566 92.3558 80.8246 92.7433 80.6344 93.114C80.5419 93.294 80.4346 93.4718 80.3155 93.6371C80.2069 93.7934 80.0747 93.9537 79.9255 94.112C79.8557 94.1843 79.7707 94.2665 79.6724 94.3558L79.6326 94.3915C79.5507 94.4634 79.466 94.5335 79.3759 94.5997L79.313 94.6417C79.1647 94.7492 79.0073 94.8462 78.8431 94.9323L78.7878 94.9611C78.6565 95.0269 78.5329 95.0818 78.411 95.1316C78.1409 95.2333 77.8617 95.31 77.5777 95.3586L51.2108 99.8627C50.9126 99.9137 50.6093 99.9341 50.3098 99.9201C50.2076 99.9158 50.105 99.9091 50.0063 99.897C49.7795 99.8706 49.5543 99.8245 49.3309 99.7612C49.2239 99.7287 49.1164 99.6938 49.0231 99.6568C48.969 99.637 48.9279 99.6223 48.8914 99.6067L48.8627 99.5948C48.7823 99.5626 48.6905 99.5203 48.5768 99.4624C48.2826 99.3097 47.9989 99.119 47.7356 98.8934C47.6279 98.8007 47.5328 98.7107 47.4448 98.6194C47.3004 98.4677 47.1689 98.3066 47.0544 98.1449C46.9053 97.9361 46.7764 97.7189 46.6693 97.4885L46.6421 97.4278C46.497 97.1023 46.3928 96.7602 46.3326 96.4081L35.3517 32.1279C34.9595 29.8323 36.5107 27.642 38.8088 27.2494L65.1757 22.7452C66.9292 22.4457 68.6202 23.2801 69.4955 24.7129C69.7666 25.1545 69.9612 25.6576 70.0539 26.1998Z" fill="#FFFEEA"/>
<path d="M79.0484 72.4799C79.0356 72.2356 79.0247 71.9453 79.019 71.6152L79.8847 76.6831C79.4758 75.9292 79.1897 75.3716 79.1199 75.1612C78.9475 74.6472 78.9774 73.4922 79.0484 72.4799Z" fill="#282828"/>
<path d="M74.0075 42.2771L72.7109 34.6876C73.3025 34.5865 73.8642 34.9842 73.9652 35.5758L74.8957 41.023C74.9967 41.6146 74.5992 42.176 74.0075 42.2771Z" fill="#282828"/>
<path d="M36.0295 44.858L36.8456 44.7186L36.1974 40.9238L35.3812 41.0633C35.2404 41.0873 35.1456 41.2211 35.1698 41.3619L35.7308 44.6465C35.7549 44.7874 35.8886 44.8821 36.0295 44.858Z" fill="#282828"/>
<path d="M36.8127 49.436L37.6288 49.2966L36.9806 45.502L36.1644 45.6413C36.0236 45.6653 35.9288 45.7991 35.953 45.94L36.5141 49.2245C36.5381 49.3654 36.6719 49.4601 36.8127 49.436Z" fill="#282828"/>
<path d="M56.1911 25.9328L48.3509 27.2723C47.0318 27.4975 45.7801 26.611 45.5547 25.292L58.1714 23.1367C58.3966 24.4557 57.51 25.7074 56.1911 25.9328Z" fill="#282828"/>
<path d="M68.4137 48.1405L44.0258 52.002L41.2773 34.6447L65.6654 30.7832L68.4137 48.1405Z" fill="white"/>
<path d="M65.6521 30.7383L66.2393 34.4038L41.7669 38.3249L41.1797 34.6593L65.6521 30.7383Z" fill="#494949"/>
<path d="M43.9116 36.2592C43.9411 36.4329 43.8239 36.5979 43.65 36.6274C43.4761 36.6568 43.3114 36.5398 43.2819 36.3659C43.2524 36.192 43.3695 36.0272 43.5434 35.9977C43.7173 35.9683 43.8821 36.0852 43.9116 36.2592Z" fill="white"/>
<path d="M45.1088 36.0569C45.1383 36.2308 45.0213 36.3956 44.8473 36.4251C44.6736 36.4547 44.5086 36.3376 44.4791 36.1637C44.4497 35.9899 44.5668 35.825 44.7406 35.7956C44.9145 35.7661 45.0793 35.8831 45.1088 36.0569Z" fill="white"/>
<path d="M46.3041 35.8538C46.3336 36.0277 46.2166 36.1925 46.0427 36.222C45.8689 36.2515 45.704 36.1345 45.6744 35.9606C45.645 35.7868 45.7621 35.6218 45.936 35.5924C46.1098 35.5629 46.2746 35.68 46.3041 35.8538Z" fill="white"/>
<path d="M54.0804 40.6491L50.5391 39.189L51.1634 43.1318L54.0804 40.6491Z" fill="#AAA521"/>
<path d="M69.1502 52.3965L71.9873 69.1803L48.1616 73.208L45.3242 56.4242L69.1502 52.3965Z" fill="white"/>
<path d="M55.6634 67.3889L49.3077 68.4633L48.3789 62.9695L54.7345 61.895L55.6634 67.3889Z" fill="#AAA521"/>
<path d="M69.1503 52.3965L69.7712 56.0692L45.9452 60.097L45.3242 56.4242L69.1503 52.3965Z" fill="#494949"/>
<path d="M48.116 57.9169C48.1495 58.1152 48.0159 58.3032 47.8175 58.3366C47.6193 58.3701 47.4312 58.2366 47.3977 58.0382C47.3642 57.8399 47.4977 57.652 47.6961 57.6184C47.8943 57.585 48.0824 57.7185 48.116 57.9169Z" fill="white"/>
<path d="M49.4792 57.6869C49.5128 57.8852 49.3791 58.0732 49.1808 58.1067C48.9824 58.1401 48.7945 58.0066 48.761 57.8082C48.7275 57.61 48.8611 57.422 49.0594 57.3884C49.2576 57.355 49.4457 57.4885 49.4792 57.6869Z" fill="white"/>
<path d="M50.8446 57.4563C50.8781 57.6547 50.7444 57.8427 50.5462 57.8762C50.3479 57.9098 50.1598 57.7761 50.1263 57.5778C50.0927 57.3795 50.2263 57.1915 50.4246 57.158C50.623 57.1245 50.811 57.2579 50.8446 57.4563Z" fill="white"/>
<path d="M56.1797 62.07L67.678 60.1235" stroke="#494949" stroke-width="0.719757" stroke-miterlimit="10"/>
<path d="M56.4238 63.6051L67.9224 61.6587" stroke="#494949" stroke-width="0.719757" stroke-miterlimit="10"/>
<path d="M56.7109 65.1335L65.7336 63.606" stroke="#494949" stroke-width="0.719757" stroke-miterlimit="10"/>
<path d="M56.9434 66.6781L63.0876 65.6382" stroke="#494949" stroke-width="0.719757" stroke-miterlimit="10"/>
<path d="M72.3806 73.5112L73.0016 77.1711L49.2599 81.2008L48.6387 77.541L72.3806 73.5112Z" fill="#494949"/>
<path d="M51.3686 79.0261C51.3981 79.2 51.2811 79.3649 51.1072 79.3943C50.9333 79.424 50.7684 79.307 50.7389 79.1331C50.7095 78.9592 50.8265 78.7944 51.0004 78.7648C51.1743 78.7354 51.3391 78.8523 51.3686 79.0261Z" fill="white"/>
<path d="M52.5658 78.8231C52.5954 78.9969 52.4782 79.1618 52.3043 79.1913C52.1305 79.2208 51.9657 79.1039 51.9362 78.93C51.9067 78.7561 52.0236 78.5913 52.1974 78.5617C52.3713 78.5322 52.5363 78.6492 52.5658 78.8231Z" fill="white"/>
<path d="M53.7612 78.6205C53.7907 78.7943 53.6736 78.9592 53.4998 78.9886C53.3259 79.0182 53.161 78.9013 53.1315 78.7273C53.102 78.5534 53.2191 78.3886 53.393 78.359C53.5668 78.3296 53.7317 78.4466 53.7612 78.6205Z" fill="white"/>
<path d="M58.1976 85.9041C58.4916 87.6358 57.326 89.2781 55.5941 89.5721C53.8623 89.866 52.2202 88.7003 51.9262 86.9685C51.6324 85.2367 52.7979 83.5947 54.5297 83.3007C56.2615 83.0068 57.9037 84.1723 58.1976 85.9041Z" fill="#AAA521"/>
<path d="M55.2346 85.7496C55.3397 85.627 55.3969 85.4652 55.3678 85.2936C55.3157 84.9867 55.0246 84.7801 54.7177 84.8323C54.4107 84.8843 54.2041 85.1755 54.2562 85.4822C54.2872 85.6646 54.4068 85.8027 54.5595 85.8811C54.2749 86.0712 54.112 86.4154 54.1729 86.7746L54.3005 87.5264L56.0658 87.2269L55.9382 86.4749C55.8746 86.1001 55.586 85.8216 55.2346 85.7496Z" fill="white"/>
<path d="M59.6816 84.6832L71.18 82.7368" stroke="#AAA521" stroke-width="0.719757" stroke-miterlimit="10"/>
<path d="M59.9414 86.2199L71.4398 84.2734" stroke="#AAA521" stroke-width="0.719757" stroke-miterlimit="10"/>
<path d="M60.2012 87.7511L71.6997 85.8047" stroke="#AAA521" stroke-width="0.719757" stroke-miterlimit="10"/>
<path d="M90.9609 91.6994C90.8469 91.7567 90.7378 91.8212 90.634 91.8903L90.814 92.5313L90.3456 92.9965L89.7057 92.8129C89.5619 93.0267 89.4447 93.256 89.3549 93.4953L89.8783 93.9078L89.7735 94.5597L89.147 94.7879C89.1565 95.0335 89.193 95.2807 89.2593 95.5242L89.9258 95.5537L90.2198 96.1453L89.8433 96.6961C90.0033 96.9014 90.1842 97.0846 90.382 97.2432L90.9381 96.8755L91.5243 97.1805L91.5445 97.8463C91.7896 97.9169 92.0434 97.9596 92.3012 97.9718L92.5348 97.3486L93.1873 97.2499L93.5957 97.7765C93.7191 97.7315 93.8424 97.6793 93.9638 97.618C94.0742 97.5611 94.1797 97.4994 94.2812 97.4333L94.1028 96.7912L94.5728 96.3276L95.2129 96.5143C95.3565 96.3001 95.476 96.0705 95.5665 95.8309L95.0443 95.4166L95.1509 94.765L95.7787 94.5392C95.7692 94.2855 95.732 94.0309 95.6631 93.7802L94.9961 93.7527L94.6996 93.1626L95.0749 92.6111C94.9141 92.4063 94.7322 92.2241 94.5339 92.0657L93.9789 92.435L93.3915 92.1326L93.3694 91.467C93.1231 91.3969 92.8692 91.3547 92.6119 91.3433L92.3813 91.9682L91.7279 92.0697L91.3186 91.5432C91.1977 91.5883 91.0778 91.6396 90.9609 91.6994ZM93.0579 93.2961C93.8094 93.6246 94.1557 94.5001 93.8253 95.2551C93.4943 96.0069 92.619 96.3506 91.8672 96.0203C91.1135 95.6936 90.7695 94.8165 91.0986 94.0641C91.4275 93.3087 92.3057 92.9665 93.0579 93.2961Z" fill="#494949"/>
<path d="M73.2787 12.796C73.1823 12.6914 73.0797 12.5945 72.9739 12.5045L72.3425 12.8937L71.7008 12.5346L71.7013 11.7929C71.4281 11.7045 71.1466 11.6495 70.8629 11.6265L70.5816 12.3134L69.8512 12.4011L69.4148 11.8C69.1547 11.8855 68.9011 12.0005 68.6607 12.1462L68.8333 12.869L68.2901 13.3651L67.5847 13.1307C67.4138 13.3649 67.2731 13.6149 67.1637 13.8755L67.7281 14.3582L67.5812 15.0795L66.8744 15.3052C66.8741 15.5894 66.906 15.8745 66.972 16.1543L67.7109 16.2132L68.0165 16.8819L67.5778 17.4805C67.6638 17.599 67.7575 17.7151 67.8605 17.8261C67.9552 17.927 68.0536 18.0211 68.1556 18.1095L68.7885 17.7219L69.4291 18.083L69.4254 18.8258C69.6989 18.914 69.9813 18.9715 70.2655 18.9948L70.5492 18.3086L71.2797 18.2231L71.714 18.8262C71.9827 18.7382 72.2442 18.6204 72.4915 18.4696L72.3163 17.747L72.8575 17.2485L73.5633 17.4815C73.7332 17.2464 73.8727 16.9957 73.9815 16.7349L73.4158 16.2537L73.5596 15.5318L74.2658 15.3043C74.2652 15.0189 74.2328 14.734 74.166 14.4552L73.426 14.3996L73.1172 13.731L73.5555 13.1312C73.4701 13.0155 73.3785 12.9027 73.2787 12.796ZM72.2114 15.5314C72.0899 16.4369 71.2585 17.0759 70.3485 16.9536C69.4417 16.8297 68.8054 15.9975 68.9288 15.091C69.0477 14.1838 69.8816 13.5466 70.7881 13.6683C71.698 13.7891 72.3337 14.6247 72.2114 15.5314Z" fill="#494949"/>
<path d="M25.1204 23.5268C25.1084 23.6199 25.1027 23.7129 25.1019 23.8045L25.5663 23.9592L25.6564 24.436L25.2808 24.7499C25.3518 24.9255 25.4432 25.0913 25.5517 25.2446L26.0185 25.0962L26.372 25.4286L26.2527 25.904C26.4062 25.9994 26.5718 26.079 26.7472 26.139L27.0401 25.7456L27.5212 25.8103L27.7013 26.2666C27.8922 26.2539 28.0784 26.2194 28.2565 26.1643L28.2617 25.674L28.6889 25.443L29.1026 25.7052C29.2465 25.585 29.3772 25.4482 29.4908 25.2963L29.2079 24.8973L29.4167 24.4594L29.9055 24.4279C29.929 24.3342 29.9481 24.2377 29.9607 24.1385C29.9716 24.0479 29.9776 23.9582 29.9792 23.8691L29.5148 23.7131L29.4263 23.2359L29.8039 22.9233C29.7327 22.7475 29.6421 22.5801 29.5336 22.4263L29.0662 22.5733L28.7135 22.2401L28.8348 21.7647C28.6766 21.666 28.5062 21.5837 28.3252 21.5224L28.0336 21.917L27.552 21.8541L27.3711 21.3984C27.1801 21.4121 26.9943 21.4476 26.8162 21.503L26.8121 21.9931L26.386 22.2258L25.9717 21.965C25.8276 22.0861 25.6971 22.2233 25.5842 22.3752L25.8695 22.7731L25.662 23.2125L25.1729 23.2448C25.1504 23.337 25.1323 23.4311 25.1204 23.5268ZM26.9568 22.9085C27.4664 22.5864 28.1419 22.7365 28.4653 23.2488C28.7867 23.7602 28.635 24.4348 28.124 24.7563C27.6145 25.0803 26.9389 24.9281 26.6166 24.4177C26.2924 23.9062 26.4461 23.2306 26.9568 22.9085Z" fill="#494949"/>
<path d="M74.7342 16.2445C74.6879 16.2992 74.6455 16.3566 74.6071 16.4153L74.841 16.7073L74.7011 17.051L74.3295 17.0967C74.3023 17.239 74.2922 17.3833 74.2983 17.5269L74.6597 17.6253L74.7489 17.9857L74.4749 18.2415C74.5339 18.3665 74.6073 18.4864 74.6953 18.5977L75.0464 18.4664L75.3288 18.7077L75.2549 19.0756C75.3829 19.1467 75.5168 19.2016 75.6541 19.2402L75.8608 18.9276L76.2312 18.9566L76.3882 19.2967C76.5305 19.2792 76.6713 19.2454 76.8074 19.1951L76.791 18.8212L77.107 18.6265L77.434 18.8093C77.488 18.7588 77.5404 18.7047 77.5896 18.6462C77.6342 18.5926 77.6754 18.5375 77.7133 18.481L77.4798 18.188L77.621 17.8446L77.9933 17.8006C78.0205 17.6581 78.0317 17.513 78.0257 17.3692L77.6645 17.2695L77.5763 16.9091L77.8516 16.6541C77.7908 16.5252 77.7155 16.4015 77.6247 16.2869L77.2737 16.4195L76.9904 16.1792L77.0633 15.8112C76.935 15.7407 76.8009 15.6865 76.6635 15.6482L76.4575 15.9614L76.0871 15.9342L75.9293 15.5946C75.7864 15.6126 75.6456 15.6465 75.5101 15.6971L75.5281 16.0712L75.2125 16.2674L74.8849 16.0851C74.8322 16.1351 74.7815 16.1878 74.7342 16.2445ZM76.1705 16.6094C76.6316 16.6141 77.0032 16.9908 76.9985 17.4542C76.9925 17.9159 76.6151 18.2863 76.1535 18.2807C75.6917 18.2774 75.3207 17.8994 75.3255 17.4378C75.3295 16.9746 75.7088 16.6044 76.1705 16.6094Z" fill="#494949"/>
<path d="M28.8118 34.9628C28.9087 34.7359 28.9892 34.5047 29.0564 34.2731L27.9915 33.5508L28.1034 32.2796L29.2776 31.753C29.2233 31.2578 29.1105 30.7733 28.945 30.3078L27.6578 30.3508L26.9997 29.2573L27.6406 28.1393C27.3204 27.7885 26.9579 27.4687 26.5565 27.1919L25.5353 27.9791L24.3635 27.4719L24.2331 26.1889C23.7407 26.085 23.2452 26.04 22.7551 26.0522L22.3922 27.2887L21.1463 27.569L20.2865 26.6108C19.8363 26.8122 19.408 27.0654 19.0121 27.369L19.4441 28.5806L18.6031 29.5398L17.3439 29.271C17.2174 29.4915 17.1004 29.7223 16.9977 29.9644C16.9054 30.186 16.8265 30.4085 16.7589 30.6327L17.8229 31.3588L17.7068 32.6293L16.5283 33.1516C16.5833 33.6472 16.6932 34.1353 16.8583 34.6018L18.146 34.563L18.801 35.6583L18.155 36.7744C18.4853 37.1371 18.8578 37.4671 19.2721 37.7513L20.2913 36.9603L21.4652 37.4624L21.5984 38.745C22.0912 38.8466 22.5872 38.8892 23.0775 38.876L23.4367 37.6385L24.6813 37.353L25.5438 38.3086C25.995 38.1048 26.423 37.8507 26.8169 37.547L26.3786 36.3363L27.2169 35.372L28.4781 35.6393C28.6006 35.4219 28.7136 35.1967 28.8118 34.9628ZM23.7235 35.2186C22.204 35.6702 20.6014 34.8088 20.148 33.2818C19.6994 31.7584 20.5638 30.1595 22.0863 29.7101C23.6067 29.2533 25.2084 30.12 25.6602 31.6414C26.1161 33.1673 25.2456 34.7675 23.7235 35.2186Z" fill="#AAA521"/>
<path d="M67.2207 31.1805V35.2224C67.2207 36.5913 68.3305 37.7013 69.6996 37.7013H71.6666V41.0293L75.3044 37.7013H81.6096C84.0947 37.7013 86.1093 35.6866 86.1093 33.2015C86.1093 30.7164 84.0947 28.7017 81.6096 28.7017H69.6996C68.3305 28.7017 67.2207 29.8115 67.2207 31.1805Z" fill="#AAA521"/>
<path d="M73.583 33.0766C73.583 33.4975 73.2417 33.8387 72.8208 33.8387C72.3998 33.8387 72.0586 33.4975 72.0586 33.0766C72.0586 32.6557 72.3998 32.3145 72.8208 32.3145C73.2417 32.3145 73.583 32.6557 73.583 33.0766Z" fill="white"/>
<path d="M77.3819 33.0766C77.3819 33.4975 77.0405 33.8387 76.6196 33.8387C76.1987 33.8387 75.8574 33.4975 75.8574 33.0766C75.8574 32.6557 76.1987 32.3145 76.6196 32.3145C77.0405 32.3145 77.3819 32.6557 77.3819 33.0766Z" fill="white"/>
<path d="M81.1826 33.0766C81.1826 33.4974 80.8413 33.8387 80.4204 33.8387C79.9994 33.8387 79.6582 33.4974 79.6582 33.0766C79.6582 32.6557 79.9994 32.3145 80.4204 32.3145C80.8413 32.3145 81.1826 32.6557 81.1826 33.0766Z" fill="white"/>
<path d="M35.1515 51.5249C35.5802 53.0832 34.6644 54.6941 33.1058 55.1227C31.5474 55.5514 29.9365 54.6355 29.5079 53.0771C29.0792 51.5185 29.995 49.9076 31.5535 49.4791C33.1122 49.0504 34.723 49.9663 35.1515 51.5249Z" fill="#AAA521"/>
<path d="M35.2487 42.9702L33.6789 46.8479C33.6055 47.0293 33.3989 47.1167 33.2174 47.0433C33.0362 46.9699 32.9486 46.7634 33.0221 46.582L34.5918 42.7043C34.6652 42.523 34.8719 42.4354 35.0532 42.5089C35.2346 42.5823 35.3221 42.7888 35.2487 42.9702Z" fill="#AAA521"/>
<path d="M38.827 45.9718L35.8768 48.938C35.7388 49.0767 35.5147 49.0773 35.376 48.9393C35.2373 48.8014 35.2365 48.5771 35.3745 48.4383L38.3246 45.4722C38.4625 45.3334 38.6869 45.3328 38.8255 45.4707V45.4708C38.9642 45.6088 38.965 45.8331 38.827 45.9718Z" fill="#E3DC0B"/>
<path d="M41.0128 49.9328L37.0525 51.2808C36.8673 51.3438 36.6659 51.2448 36.6031 51.0596L36.6029 51.0595C36.54 50.8744 36.639 50.6732 36.8241 50.6102L40.7846 49.2622C40.9698 49.1991 41.171 49.2982 41.234 49.4835C41.297 49.6686 41.1979 49.8698 41.0128 49.9328Z" fill="#E3DC0B"/>
<path d="M41.9373 53.708L37.7724 54.103C37.5776 54.1215 37.4048 53.9787 37.3864 53.7839V53.7837C37.3679 53.5891 37.5108 53.4163 37.7055 53.3978L41.8705 53.0031C42.0652 52.9846 42.2379 53.1275 42.2564 53.3222C42.2748 53.5169 42.1319 53.6896 41.9373 53.708Z" fill="#AAA521"/>
<path d="M20.8105 64.5195L22.1127 65.6305L21.7716 66.1129L20.8105 64.5195Z" fill="#F1E70A"/>
<path d="M36.835 59.1924C37.0307 59.5184 36.9245 59.9467 36.5979 60.1428L36.2881 60.3293C35.9618 60.5253 35.5341 60.419 35.3378 60.093L26.4205 45.27C26.2247 44.9439 26.3308 44.5159 26.657 44.3194L26.9673 44.1331C27.2932 43.9368 27.7216 44.0435 27.9177 44.3696L36.835 59.1924Z" fill="#282828"/>
<path d="M22.2631 62.876L17.2731 65.8775C16.8813 66.1133 16.3676 65.9854 16.1321 65.5937L12.6457 59.7983C12.4099 59.4064 12.5376 58.8934 12.9295 58.6578L17.2075 56.084C17.5993 55.8484 18.1124 55.9762 18.3482 56.368L22.2631 62.876Z" fill="#282828"/>
<path d="M12.733 59.9429C11.7856 60.8872 11.5544 62.3905 12.2728 63.5842L12.6837 64.2669C13.4016 65.4608 14.8382 65.9614 16.116 65.5666L12.733 59.9429Z" fill="#AAA521"/>
<path d="M18.3477 56.3689L21.8859 62.2501C27.8122 59.2788 33.2932 59.5562 35.1432 59.7703L26.6223 45.606C25.9489 47.4304 23.6742 52.5399 18.3477 56.3689Z" fill="#AAA521"/>
<path d="M17.0488 66.0122C17.0668 66.0353 17.0803 66.0625 17.1035 66.0824L18.1624 66.9847C18.3337 67.1303 18.5918 67.111 18.7411 66.9428L21.8522 72.301L21.9683 72.4941L22.1757 72.8384C22.2933 73.0342 22.5501 73.0976 22.7453 72.9803L25.2022 71.5023C25.3972 71.3846 25.4617 71.1278 25.3443 70.9325L25.0206 70.3952C24.9033 70.1996 24.637 70.1416 24.4507 70.2531C24.4507 70.2531 23.4247 68.8679 23.0346 68.2187C22.543 67.4023 21.2392 65.235 20.8092 64.5196L21.397 63.8297C21.5106 63.6967 21.5236 63.5125 21.4471 63.3667L17.0488 66.0122Z" fill="#AAA521"/>
<path d="M51.9155 15.848L44.9461 17.3631C44.7699 17.4014 44.596 17.2896 44.5576 17.1134L43.0427 10.1439C43.0044 9.96767 43.1162 9.79366 43.2924 9.75537L50.2618 8.24046C50.438 8.20206 50.612 8.31387 50.6503 8.49008L52.1652 15.4596C52.2035 15.6358 52.0917 15.8097 51.9155 15.848Z" fill="#494949"/>
<path d="M50.0975 15.9482L48.6743 17.9879L46.6348 16.5648" fill="#494949"/>
<path d="M49.2021 10.899C48.5641 10.5154 47.7305 10.7512 47.3279 11.3775L47.3037 11.4152L47.266 11.391C46.6399 10.9884 45.7835 11.12 45.3623 11.7338C44.9265 12.369 45.1043 13.234 45.7476 13.6476L47.751 14.8717C47.9472 14.9917 48.203 14.9361 48.3317 14.7457L49.6461 12.8001C50.0596 12.1568 49.8623 11.296 49.2021 10.899Z" fill="white"/>
</g>
</g>
<defs>
<clipPath id="clip0_1184_7989">
<rect width="109.719" height="109.719" fill="white" transform="translate(0.730469 0.291992)"/>
</clipPath>
</defs>
</svg>
