<svg  viewBox="0 0 96 96" fill="none" xmlns="http://www.w3.org/2000/svg">
<g clip-path="url(#clip0_1184_7815)">
<mask id="mask0_1184_7815" style="mask-type:luminance" maskUnits="userSpaceOnUse" x="0" y="0" width="96" height="96">
<path d="M95.1906 0.75293H0.808594V95.1349H95.1906V0.75293Z" fill="white"/>
</mask>
<g mask="url(#mask0_1184_7815)">
<path d="M80.9192 70.3305L16.2991 71.3841C14.0344 71.421 12.1687 69.615 12.1317 67.3504L11.4594 26.1173C11.4225 23.8526 13.2284 21.9867 15.4931 21.9497L80.1132 20.8961C82.3779 20.8592 84.2437 22.6653 84.2806 24.93L84.9529 66.1631C84.9898 68.4276 83.1839 70.2935 80.9192 70.3305Z" fill="#4C4C4C"/>
<path d="M82.3316 66.5353C82.3227 65.9844 81.8688 65.5451 81.3177 65.5541C80.7669 65.563 80.3276 66.0169 80.3366 66.5678C80.3456 67.1189 80.7994 67.5582 81.3502 67.5493C81.9013 67.5403 82.3406 67.0864 82.3316 66.5353Z" fill="#EFE601"/>
<path d="M79.1559 66.5871C79.1469 66.0361 78.693 65.5968 78.1419 65.6058C77.5911 65.6148 77.1518 66.0687 77.1608 66.6196C77.1698 67.1707 77.6237 67.61 78.1744 67.601C78.7255 67.592 79.1648 67.1382 79.1559 66.5871Z" fill="#EFE601"/>
<path d="M17.4547 67.5929C17.4457 67.042 16.9917 66.6027 16.4409 66.6117C15.89 66.6206 15.4506 67.0745 15.4596 67.6255C15.4686 68.1766 15.9225 68.6159 16.4734 68.6069C17.0242 68.5979 17.4637 68.144 17.4547 67.5929Z" fill="#EFE601"/>
<path d="M74.8537 65.6585L19.6557 66.5584C19.1071 66.5674 18.6655 67.0236 18.6745 67.5722C18.6834 68.1209 19.1396 68.5625 19.6883 68.5535L74.8862 67.6535C75.4349 67.6446 75.8765 67.1884 75.8675 66.6397C75.8586 66.0911 75.4024 65.6495 74.8537 65.6585Z" fill="#EFE601"/>
<mask id="mask1_1184_7815" style="mask-type:alpha" maskUnits="userSpaceOnUse" x="11" y="20" width="74" height="52">
<path d="M80.9056 70.2548L16.2854 71.3084C14.0207 71.3453 12.155 69.5393 12.1181 67.2747L11.4458 26.0416C11.4088 23.7769 13.2147 21.911 15.4794 21.8741L80.0995 20.8205C82.3643 20.7835 84.23 22.5896 84.2669 24.8543L84.9392 66.0874C84.9762 68.352 83.1703 70.2179 80.9056 70.2548Z" fill="black"/>
</mask>
<g mask="url(#mask1_1184_7815)">
<path d="M116.258 20.0634L108.85 19.9184L83.8719 72.2972L93.0762 71.9699L116.258 20.0634Z" fill="#E7E363"/>
</g>
<path d="M42.3176 49.8825L42.1432 39.1863C42.1226 37.9178 43.5189 37.1338 44.5911 37.8117L53.3862 43.3723C54.3924 44.0084 54.3729 45.4825 53.3502 46.0917L44.7295 51.2271C43.6759 51.855 42.3376 51.1086 42.3176 49.8825Z" fill="white"/>
</g>
</g>
<defs>
<clipPath id="clip0_1184_7815">
<rect width="94.382" height="94.382" fill="white" transform="translate(0.808594 0.75293)"/>
</clipPath>
</defs>
</svg>
