<svg viewBox="0 0 81 78" fill="none" xmlns="http://www.w3.org/2000/svg">
<g clip-path="url(#clip0_1349_15425)">
<mask id="mask0_1349_15425" style="mask-type:luminance" maskUnits="userSpaceOnUse" x="0" y="0" width="81" height="78">
<path d="M80.4016 0.348267H0.601562V77.3483H80.4016V0.348267Z" fill="white"/>
</mask>
<g mask="url(#mask0_1349_15425)">
<path d="M25.4146 46.8626C23.6777 43.2928 20.1732 40.9163 16.214 40.6238C15.6322 40.5841 15.0481 40.5841 14.4663 40.6238C10.5071 40.9163 7.0026 43.2928 5.26576 46.8626C3.31821 50.7229 3.53704 55.3216 5.84256 58.9794L14.6533 72.7988C14.8951 73.1782 15.3985 73.2897 15.7779 73.048C15.8782 72.9841 15.9632 72.899 16.027 72.7988L24.8378 58.9794C27.1433 55.3216 27.3621 50.7229 25.4146 46.8626Z" fill="#1D1D1D"/>
<path d="M15.3385 46.2943C18.4875 46.2943 21.0403 48.8471 21.0403 51.9961C21.0403 55.1451 18.4875 57.6979 15.3385 57.6979C12.1895 57.6979 9.63672 55.1451 9.63672 51.9961C9.63672 48.8471 12.1895 46.2943 15.3385 46.2943Z" fill="#FCFC6E"/>
<path d="M48.1387 3.12305H75.8333C76.2831 3.12305 76.6478 3.48775 76.6478 3.93757V28.374C76.6478 28.8238 76.2831 29.1885 75.8333 29.1885H48.1387C47.6889 29.1885 47.3242 28.8238 47.3242 28.374V3.93757C47.3242 3.48775 47.6889 3.12305 48.1387 3.12305Z" fill="#1D1D1D"/>
<path d="M57.9133 3.12305H48.1387C47.6889 3.12305 47.3242 3.48775 47.3242 3.93757V11.2685H57.9133C58.3631 11.2685 58.7278 10.9038 58.7278 10.454V3.93757C58.7278 3.48775 58.3631 3.12305 57.9133 3.12305Z" fill="#F9F607"/>
<path d="M75.8351 3.12305H66.0606C65.6108 3.12305 65.2461 3.48775 65.2461 3.93757V10.454C65.2461 10.9038 65.6108 11.2685 66.0606 11.2685H76.6497V3.93757C76.6497 3.48775 76.285 3.12305 75.8351 3.12305Z" fill="#F9F607"/>
<path d="M59.5441 24.301H50.5841C50.1342 24.301 49.7695 23.9363 49.7695 23.4865C49.7695 23.0367 50.1342 22.672 50.5841 22.672H59.5441C59.9939 22.672 60.3586 23.0367 60.3586 23.4865C60.3586 23.9363 59.9939 24.301 59.5441 24.301Z" fill="#F9F607"/>
<path d="M54.6568 26.7454H50.5842C50.1344 26.7454 49.7695 26.3807 49.7695 25.9309C49.7695 25.481 50.1344 25.1163 50.5842 25.1163H54.6568C55.1066 25.1163 55.4715 25.481 55.4715 25.9309C55.4715 26.3807 55.1066 26.7454 54.6568 26.7454Z" fill="#F9F607"/>
<path d="M57.0977 3.12305V15.3413C57.0978 15.7911 57.4625 16.1558 57.9123 16.1556C58.1282 16.1556 58.3354 16.0697 58.4881 15.9171L61.9849 12.4203L65.4817 15.9171C65.7998 16.2352 66.3157 16.235 66.6338 15.9169C66.7864 15.7642 66.8722 15.5571 66.8722 15.3413V3.12305H57.0977Z" fill="#F3F324"/>
<path d="M43.4409 16.1696H30.9809C25.7232 16.1696 21.4609 20.4319 21.4609 25.6896C21.4609 30.9473 25.7232 35.2096 30.9809 35.2096H57.9309C61.5263 35.2096 64.4409 38.1242 64.4409 41.7196C64.4409 45.3149 61.5263 48.2296 57.9309 48.2296H42.1809C38.8562 48.2296 36.1609 50.9248 36.1609 54.2496C36.1609 57.5743 38.8562 60.2696 42.1809 60.2696H67.9409C70.9564 60.2696 73.4009 62.7141 73.4009 65.7296C73.4009 68.745 70.9564 71.1896 67.9409 71.1896H22.1609" stroke="#FFFF56" stroke-width="4.76" stroke-miterlimit="10" stroke-linecap="round"/>
</g>
</g>
<defs>
<clipPath id="clip0_1349_15425">
<rect width="79.8" height="77" fill="white" transform="translate(0.601562 0.348267)"/>
</clipPath>
</defs>
</svg>
