<svg viewBox="0 0 78 78" fill="none" xmlns="http://www.w3.org/2000/svg">
<g clip-path="url(#clip0_1349_14488)">
<mask id="mask0_1349_14488" style="mask-type:luminance" maskUnits="userSpaceOnUse" x="0" y="0" width="79" height="78">
<path d="M78.0046 0.146362H0.15625V77.9947H78.0046V0.146362Z" fill="white"/>
</mask>
<g mask="url(#mask0_1349_14488)">
<path d="M52.2102 13.0758L52.3346 12.8067C52.3951 12.6756 52.5901 12.709 52.6035 12.8528L52.6312 13.148C52.6358 13.1981 52.6669 13.242 52.7126 13.2632L52.9817 13.3875C53.1128 13.448 53.0794 13.6431 52.9356 13.6565L52.6404 13.6841C52.5903 13.6888 52.5464 13.7198 52.5253 13.7656L52.4009 14.0347C52.3404 14.1658 52.1454 14.1323 52.132 13.9886L52.1043 13.6935C52.0997 13.6433 52.0686 13.5994 52.0229 13.5783L51.7537 13.4539C51.6226 13.3934 51.656 13.1983 51.7998 13.1849L52.095 13.1573C52.1452 13.1526 52.1891 13.1216 52.2102 13.0758Z" fill="#48472D"/>
<path d="M62.7917 33.8362L63.0159 33.3508C63.1251 33.1142 63.477 33.1745 63.5012 33.434L63.5509 33.9664C63.5594 34.0569 63.6155 34.1359 63.6979 34.1741L64.1834 34.3983C64.4198 34.5076 64.3595 34.8593 64.1002 34.8835L63.5678 34.9334C63.4773 34.9418 63.3982 34.9977 63.3599 35.0803L63.1357 35.5658C63.0266 35.8022 62.6747 35.7419 62.6505 35.4826L62.6007 34.9502C62.5922 34.8595 62.5363 34.7805 62.4539 34.7425L61.9683 34.5181C61.7318 34.4089 61.7921 34.0572 62.0515 34.0329L62.584 33.9831C62.6745 33.9746 62.7535 33.9187 62.7917 33.8362Z" fill="#48472D"/>
<path d="M59.2288 69.3569L58.9481 70.0797C58.8114 70.4317 58.297 70.3764 58.2384 70.0033L58.118 69.2374C58.0976 69.1072 58.0095 68.9979 57.8867 68.9501L57.1638 68.6697C56.8117 68.5328 56.8671 68.0185 57.2402 67.9599L58.0062 67.8396C58.1364 67.8192 58.2457 67.7311 58.2934 67.6082L58.5739 66.8854C58.7106 66.5332 59.2251 66.5886 59.2837 66.9618L59.4042 67.7277C59.4246 67.8579 59.5127 67.9673 59.6355 68.0149L60.3582 68.2955C60.7104 68.4322 60.655 68.9464 60.2818 69.0052L59.516 69.1254C59.3858 69.146 59.2765 69.2341 59.2288 69.3569Z" fill="#48472D"/>
<path d="M54.695 18.1207C54.695 17.5438 54.2272 17.0759 53.6502 17.0759C53.0733 17.0759 52.6055 17.5438 52.6055 18.1207C52.6055 18.6976 53.0733 19.1654 53.6502 19.1654C54.2272 19.1654 54.695 18.6976 54.695 18.1207Z" fill="#48472D"/>
<path d="M63.7937 37.1191C63.7937 36.8848 63.6037 36.6949 63.3695 36.6949C63.1353 36.6949 62.9453 36.8848 62.9453 37.1191C62.9453 37.3535 63.1353 37.5433 63.3695 37.5433C63.6037 37.5433 63.7937 37.3535 63.7937 37.1191Z" fill="#48472D"/>
<path d="M35.4448 69.9207C35.4448 69.0158 34.7112 68.2823 33.8064 68.2823C32.9016 68.2823 32.168 69.0158 32.168 69.9207C32.168 70.8256 32.9016 71.559 33.8064 71.559C34.7112 71.559 35.4448 70.8256 35.4448 69.9207Z" fill="#48472D"/>
<path d="M39.5353 68.7988C39.5353 68.4449 39.2484 68.1582 38.8946 68.1582C38.5408 68.1582 38.2539 68.4449 38.2539 68.7988C38.2539 69.1526 38.5408 69.4393 38.8946 69.4393C39.2484 69.4393 39.5353 69.1526 39.5353 68.7988Z" fill="#48472D"/>
<path d="M40.4154 11.8831C39.963 12.332 39.9601 13.0627 40.409 13.5152C40.8579 13.9676 41.5885 13.9703 42.0409 13.5215C42.4934 13.0726 42.4961 12.342 42.0473 11.8895C41.5985 11.4371 40.8679 11.4343 40.4154 11.8831Z" fill="#48472D"/>
<path d="M65.6758 45.9302C65.3755 46.2284 65.3734 46.7134 65.6714 47.0138C65.9694 47.3141 66.4545 47.3161 66.7549 47.0181C67.0554 46.7199 67.0574 46.2351 66.7592 45.9345C66.4612 45.6342 65.9761 45.6322 65.6758 45.9302Z" fill="#48472D"/>
<path d="M36.0449 7.8213C35.7937 8.07049 35.7921 8.47612 36.0415 8.72731C36.2907 8.97851 36.6961 8.98008 36.9473 8.73088C37.1985 8.48168 37.2002 8.0762 36.951 7.82501C36.7018 7.57381 36.2962 7.5721 36.0449 7.8213Z" fill="#48472D"/>
<path d="M14.5096 43.3048C13.6067 43.3651 12.9239 44.146 12.9842 45.0487C13.0447 45.9516 13.8257 46.6345 14.7284 46.574C15.6313 46.5135 16.3142 45.7329 16.2538 44.8301C16.1933 43.927 15.4123 43.2442 14.5096 43.3048Z" fill="#48472D"/>
<path d="M9.4065 31.8418C9.0534 31.8655 8.78636 32.1708 8.81006 32.5237C8.83361 32.8768 9.13904 33.1439 9.49214 33.1202C9.84509 33.0966 10.112 32.7913 10.0884 32.4384C10.0647 32.0854 9.7596 31.8181 9.4065 31.8418Z" fill="#48472D"/>
<path d="M19.4162 15.2781L9.85323 12.2968C9.41774 12.1611 9.17461 11.6981 9.31042 11.2624L9.83617 9.576C9.97197 9.14038 10.4352 8.89745 10.8707 9.03321L20.4336 12.0145C20.8691 12.1503 21.1122 12.6134 20.9764 13.049L20.4506 14.7354C20.3148 15.171 19.8517 15.4139 19.4162 15.2781Z" fill="#E5E5E5"/>
<path d="M12.6466 13.1674L19.4162 15.2779C19.8517 15.4136 20.315 15.1708 20.4508 14.7352L20.9766 13.0488C21.1124 12.6132 20.8692 12.15 20.4337 12.0143L19.1461 11.6129C19.1461 11.6129 16.3014 14.3068 12.6466 13.1674Z" fill="#D8D8D8"/>
<path d="M19.5022 15.3041L9.76562 12.2687L7.62346 19.14C7.35477 20.0019 7.83573 20.9184 8.69748 21.187L15.313 23.2494C16.1749 23.5181 17.0913 23.0373 17.36 22.1754L19.5022 15.3041Z" fill="#B1AD33"/>
<path d="M19.5029 15.3041L14.3624 13.7015C15.8246 14.7022 17.4423 16.6158 16.8469 18.5258C15.742 22.0698 13.4418 22.0789 9.32837 21.3835L15.3137 23.2495C16.1755 23.5182 17.092 23.0373 17.3607 22.1754L19.5029 15.3041Z" fill="#B1AD33"/>
<path d="M10.3904 11.5991L10.9161 9.91268C11.0519 9.47706 11.5151 9.23413 11.9506 9.3699L10.8707 9.03321C10.4352 8.89745 9.97197 9.14038 9.83617 9.576L9.31042 11.2624C9.17461 11.6981 9.4177 12.1612 9.8532 12.2969L10.9332 12.6336C10.4977 12.4979 10.2546 12.0347 10.3904 11.5991Z" fill="#F4F4EF"/>
<path d="M8.70331 19.4767L10.8455 12.6053L9.76562 12.2687L7.62346 19.14C7.35477 20.0019 7.83573 20.9184 8.69748 21.187L9.77733 21.5237C8.91546 21.255 8.43462 20.3386 8.70331 19.4767Z" fill="#F9F466"/>
<path d="M16.1618 17.7879L14.6378 17.3128L15.1129 15.7887L13.1062 15.1631L12.631 16.6872L11.1069 16.212L10.4813 18.2186L12.0055 18.6938L11.5304 20.2178L13.5371 20.8434L14.0122 19.3194L15.5362 19.7945L16.1618 17.7879Z" fill="white"/>
<path d="M19.4162 15.2781L9.85323 12.2968C9.41774 12.1611 9.17461 11.6981 9.31042 11.2624L9.83617 9.576C9.97197 9.14038 10.4352 8.89745 10.8707 9.03321L20.4336 12.0145C20.8691 12.1503 21.1122 12.6134 20.9764 13.049L20.4506 14.7354C20.3148 15.171 19.8517 15.4139 19.4162 15.2781Z" stroke="#48472D" stroke-width="0.59611" stroke-linecap="round" stroke-linejoin="round"/>
<path d="M19.5022 15.3041L9.76562 12.2687L7.62346 19.14C7.35477 20.0019 7.83573 20.9184 8.69748 21.187L15.313 23.2494C16.1749 23.5181 17.0913 23.0373 17.36 22.1754L19.5022 15.3041Z" stroke="#48472D" stroke-width="0.59611" stroke-linecap="round" stroke-linejoin="round"/>
<path d="M16.1618 17.7879L14.6378 17.3128L15.1129 15.7887L13.1062 15.1631L12.631 16.6872L11.1069 16.212L10.4813 18.2186L12.0055 18.6938L11.5304 20.2178L13.5371 20.8434L14.0122 19.3194L15.5362 19.7945L16.1618 17.7879Z" stroke="#48472D" stroke-width="0.59611" stroke-linecap="round" stroke-linejoin="round"/>
<path d="M11.0312 9.86572L10.433 11.7846" stroke="#BCBCBC" stroke-width="0.59611" stroke-linecap="round" stroke-linejoin="round"/>
<path d="M12.1562 10.2145L11.558 12.1334" stroke="#BCBCBC" stroke-width="0.59611" stroke-linecap="round" stroke-linejoin="round"/>
<path d="M13.2773 10.5647L12.6791 12.4836" stroke="#BCBCBC" stroke-width="0.59611" stroke-linecap="round" stroke-linejoin="round"/>
<path d="M14.4023 10.9146L13.8041 12.8335" stroke="#BCBCBC" stroke-width="0.59611" stroke-linecap="round" stroke-linejoin="round"/>
<path d="M15.5234 11.266L14.9252 13.1849" stroke="#BCBCBC" stroke-width="0.59611" stroke-linecap="round" stroke-linejoin="round"/>
<path d="M16.6445 11.6163L16.0463 13.5352" stroke="#BCBCBC" stroke-width="0.59611" stroke-linecap="round" stroke-linejoin="round"/>
<path d="M17.7695 11.9664L17.1713 13.8853" stroke="#BCBCBC" stroke-width="0.59611" stroke-linecap="round" stroke-linejoin="round"/>
<path d="M18.8906 12.3167L18.2924 14.2356" stroke="#BCBCBC" stroke-width="0.59611" stroke-linecap="round" stroke-linejoin="round"/>
<path d="M20.0156 12.6635L19.4174 14.5824" stroke="#BCBCBC" stroke-width="0.59611" stroke-linecap="round" stroke-linejoin="round"/>
<path d="M10.9531 9.79541L10.3549 11.7143" stroke="#48472D" stroke-width="0.59611" stroke-linecap="round" stroke-linejoin="round"/>
<path d="M12.0742 10.1455L11.476 12.0644" stroke="#48472D" stroke-width="0.59611" stroke-linecap="round" stroke-linejoin="round"/>
<path d="M13.1992 10.4956L12.601 12.4145" stroke="#48472D" stroke-width="0.59611" stroke-linecap="round" stroke-linejoin="round"/>
<path d="M14.3203 10.847L13.7221 12.766" stroke="#48472D" stroke-width="0.59611" stroke-linecap="round" stroke-linejoin="round"/>
<path d="M15.4414 11.1958L14.8432 13.1147" stroke="#48472D" stroke-width="0.59611" stroke-linecap="round" stroke-linejoin="round"/>
<path d="M16.5664 11.5472L15.9682 13.4661" stroke="#48472D" stroke-width="0.59611" stroke-linecap="round" stroke-linejoin="round"/>
<path d="M17.6875 11.8962L17.0893 13.8151" stroke="#48472D" stroke-width="0.59611" stroke-linecap="round" stroke-linejoin="round"/>
<path d="M18.8086 12.2477L18.2104 14.1666" stroke="#48472D" stroke-width="0.59611" stroke-linecap="round" stroke-linejoin="round"/>
<path d="M19.9336 12.5945L19.3354 14.5134" stroke="#48472D" stroke-width="0.59611" stroke-linecap="round" stroke-linejoin="round"/>
<path d="M26.7699 60.7901L19.6045 65.7653C18.8994 66.255 17.9312 66.084 17.4365 65.3821L9.59463 54.2548C9.09525 53.5461 9.26839 52.5661 9.98064 52.0716L17.146 47.0962C17.8512 46.6065 18.8195 46.7776 19.314 47.4795L27.1559 58.6068C27.6555 59.3156 27.4821 60.2956 26.7699 60.7901Z" fill="#CFCFCD"/>
<path d="M26.7699 60.7901L19.6045 65.7653C18.8994 66.255 17.9312 66.084 17.4365 65.3821L9.59463 54.2548C9.09525 53.5461 9.26839 52.5661 9.98064 52.0716L17.146 47.0962C17.8512 46.6065 18.8195 46.7776 19.314 47.4795L27.1559 58.6068C27.6555 59.3156 27.4821 60.2956 26.7699 60.7901Z" stroke="#48472D" stroke-width="0.884106" stroke-linecap="round" stroke-linejoin="round"/>
<path d="M25.5826 62.4861L17.5379 65.8559C16.7376 66.191 15.8175 65.8098 15.4886 65.0069L10.3286 52.4079C10.0034 51.6139 10.3795 50.7062 11.1708 50.3748L19.2155 47.0051C20.0157 46.6699 20.9359 47.0511 21.2648 47.854L26.4249 60.4532C26.7501 61.2472 26.374 62.1546 25.5826 62.4861Z" fill="#EFEFEF"/>
<path d="M17.6699 65.801L25.5827 62.4865C26.3741 62.1551 26.7501 61.2474 26.425 60.4534L21.2652 47.8546C20.9363 47.0515 20.016 46.6704 19.2157 47.0054L15.9198 48.3861C18.2818 48.3006 20.8772 49.2395 22.374 53.9767C24.1049 59.4556 19.661 64.0485 17.6699 65.801Z" fill="#E0E0E0"/>
<path d="M25.5826 62.4861L17.5379 65.8559C16.7376 66.191 15.8175 65.8098 15.4886 65.0069L10.3286 52.4079C10.0034 51.6139 10.3795 50.7062 11.1708 50.3748L19.2155 47.0051C20.0157 46.6699 20.9359 47.0511 21.2648 47.854L26.4249 60.4532C26.7501 61.2472 26.374 62.1546 25.5826 62.4861Z" stroke="#48472D" stroke-width="0.884106" stroke-linecap="round" stroke-linejoin="round"/>
<path d="M12.2773 52.4774L20.1258 49.3127" stroke="#48472D" stroke-width="0.884106" stroke-linecap="round" stroke-linejoin="round"/>
<path d="M12.957 54.129L20.8054 50.9644" stroke="#48472D" stroke-width="0.884106" stroke-linecap="round" stroke-linejoin="round"/>
<path d="M13.6328 55.7837L21.4813 52.619" stroke="#48472D" stroke-width="0.884106" stroke-linecap="round" stroke-linejoin="round"/>
<path d="M14.3125 57.4388L22.1608 54.2742" stroke="#48472D" stroke-width="0.884106" stroke-linecap="round" stroke-linejoin="round"/>
<path d="M14.9883 59.0917L22.8368 55.9269" stroke="#48472D" stroke-width="0.884106" stroke-linecap="round" stroke-linejoin="round"/>
<path d="M15.668 60.7468L23.5163 57.5822" stroke="#48472D" stroke-width="0.884106" stroke-linecap="round" stroke-linejoin="round"/>
<path d="M16.3438 62.4015L24.1922 59.2368" stroke="#48472D" stroke-width="0.884106" stroke-linecap="round" stroke-linejoin="round"/>
<path d="M72.2813 54.4576L61.1463 64.211C60.6566 64.64 59.9117 64.5907 59.4828 64.101L53.6909 57.4887C53.2618 56.9988 53.3111 56.2541 53.8008 55.8251L64.9358 46.0717C65.4254 45.6428 66.1701 45.692 66.5992 46.1819L72.3912 52.7943C72.8201 53.2839 72.7709 54.0287 72.2813 54.4576Z" fill="#F6EC00"/>
<path d="M60.0524 63.6019L54.2606 56.9897C53.8315 56.4998 53.8808 55.7551 54.3705 55.3261L53.8007 55.8252C53.3111 56.2541 53.2618 56.9988 53.6909 57.4887L59.4827 64.1009C59.9116 64.5905 60.6566 64.64 61.1462 64.2111L61.716 63.712C61.2263 64.141 60.4813 64.0915 60.0524 63.6019Z" fill="#FFFBA3"/>
<path d="M64.9342 46.0688L63.23 47.5615C65.2615 49.9718 69.7046 56.7099 62.4859 63.033L72.2795 54.4545C72.7691 54.0256 72.8184 53.2809 72.3894 52.7911L66.5976 46.1789C66.1686 45.6891 65.4238 45.6399 64.9342 46.0688Z" fill="#B3AE32"/>
<path d="M72.2813 54.4576L61.1463 64.211C60.6566 64.64 59.9117 64.5907 59.4828 64.101L53.6909 57.4887C53.2618 56.9988 53.3111 56.2541 53.8008 55.8251L64.9358 46.0717C65.4254 45.6428 66.1701 45.692 66.5992 46.1819L72.3912 52.7943C72.8201 53.2839 72.7709 54.0287 72.2813 54.4576Z" stroke="#48472D" stroke-width="0.758603" stroke-linecap="round" stroke-linejoin="round"/>
<path d="M64.4871 52.3122L63.1486 53.4847L61.976 52.146L60.2135 53.6899L61.3861 55.0285L60.0476 56.2009L61.5913 57.9633L62.9298 56.7909L64.1023 58.1294L65.8648 56.5856L64.6923 55.2471L66.0309 54.0746L64.4871 52.3122Z" fill="white"/>
<path d="M64.4871 52.3122L63.1486 53.4847L61.976 52.146L60.2135 53.6899L61.3861 55.0285L60.0476 56.2009L61.5913 57.9633L62.9298 56.7909L64.1023 58.1294L65.8648 56.5856L64.6923 55.2471L66.0309 54.0746L64.4871 52.3122Z" stroke="#48472D" stroke-width="0.758603" stroke-linecap="round" stroke-linejoin="round"/>
<path d="M59.8301 48.1847L56.5651 51.0447C56.3049 51.2726 56.2787 51.6687 56.5067 51.929L57.2618 52.791L61.4694 49.1054L60.7143 48.2434C60.4863 47.9831 60.0903 47.9568 59.8301 48.1847Z" stroke="#48472D" stroke-width="0.758603" stroke-linecap="round" stroke-linejoin="round"/>
<path d="M59.7918 48.9769L57.426 51.0492C57.3281 51.135 57.1791 51.1251 57.0933 51.0271L56.6515 50.5227C56.5657 50.4248 56.5755 50.2758 56.6734 50.1901L59.0392 48.1177C59.1371 48.032 59.2862 48.0419 59.372 48.1398L59.8138 48.6441C59.8997 48.7422 59.8897 48.8912 59.7918 48.9769Z" fill="#B1AD33"/>
<path d="M59.7918 48.9769L57.426 51.0492C57.3281 51.135 57.1791 51.1251 57.0933 51.0271L56.6515 50.5227C56.5657 50.4248 56.5755 50.2758 56.6734 50.1901L59.0392 48.1177C59.1371 48.032 59.2862 48.0419 59.372 48.1398L59.8138 48.6441C59.8997 48.7422 59.8897 48.8912 59.7918 48.9769Z" stroke="#48472D" stroke-width="0.758603" stroke-linecap="round" stroke-linejoin="round"/>
<path d="M63.6168 17.8508C61.4943 17.8387 59.793 16.0849 59.793 13.9625V7.91358C59.793 6.97868 60.5508 6.22058 61.4858 6.22058V6.78737C60.8637 6.78737 60.3596 7.29161 60.3596 7.91358V13.9688C60.3596 15.7785 61.8102 17.2738 63.6199 17.2842C65.4371 17.2946 66.9188 15.8195 66.9188 14.0048V7.91358C66.9188 7.29161 66.4146 6.78737 65.7926 6.78737V6.22058C66.7275 6.22058 67.4855 6.97868 67.4855 7.91358V14.0048C67.4855 16.1332 65.7478 17.8631 63.6168 17.8508Z" fill="#737258"/>
<path d="M63.6168 17.8508C61.4943 17.8387 59.793 16.0849 59.793 13.9625V7.91358C59.793 6.97868 60.5508 6.22058 61.4858 6.22058V6.78737C60.8637 6.78737 60.3596 7.29161 60.3596 7.91358V13.9688C60.3596 15.7785 61.8102 17.2738 63.6199 17.2842C65.4371 17.2946 66.9188 15.8195 66.9188 14.0048V7.91358C66.9188 7.29161 66.4146 6.78737 65.7926 6.78737V6.22058C66.7275 6.22058 67.4855 6.97868 67.4855 7.91358V14.0048C67.4855 16.1332 65.7478 17.8631 63.6168 17.8508Z" fill="#48472D"/>
<path d="M65.1032 22.3213H65.0121C64.1272 22.3213 63.4102 21.6041 63.4102 20.7191V17.7954C63.4102 17.6702 63.5115 17.5687 63.6367 17.5687C63.7619 17.5687 63.8633 17.6702 63.8633 17.7954V20.6737C63.8633 21.3333 64.3981 21.868 65.0577 21.868C65.7172 21.868 66.2519 21.3333 66.2519 20.6737V20.2395C66.2519 19.8892 66.5359 19.6051 66.8864 19.6051H68.5053C68.8557 19.6051 69.1399 19.8892 69.1399 20.2395V20.9161C69.1399 21.0412 69.2414 21.1426 69.3665 21.1426H71.6693C71.7946 21.1426 71.896 21.2442 71.896 21.3694C71.896 21.4946 71.7946 21.596 71.6693 21.596H69.3211C68.9706 21.596 68.6866 21.3119 68.6866 20.9615V20.2851C68.6866 20.16 68.5851 20.0584 68.4599 20.0584H66.9319C66.8067 20.0584 66.7052 20.16 66.7052 20.2851V20.7191C66.7052 21.6041 65.988 22.3213 65.1032 22.3213Z" fill="#48472D"/>
<path d="M65.1032 22.3213H65.0121C64.1272 22.3213 63.4102 21.6041 63.4102 20.7191V17.7954C63.4102 17.6702 63.5115 17.5687 63.6367 17.5687C63.7619 17.5687 63.8633 17.6702 63.8633 17.7954V20.6737C63.8633 21.3333 64.3981 21.868 65.0577 21.868C65.7172 21.868 66.2519 21.3333 66.2519 20.6737V20.2395C66.2519 19.8892 66.5359 19.6051 66.8864 19.6051H68.5053C68.8557 19.6051 69.1399 19.8892 69.1399 20.2395V20.9161C69.1399 21.0412 69.2414 21.1426 69.3665 21.1426H71.6693C71.7946 21.1426 71.896 21.2442 71.896 21.3694C71.896 21.4946 71.7946 21.596 71.6693 21.596H69.3211C68.9706 21.596 68.6866 21.3119 68.6866 20.9615V20.2851C68.6866 20.16 68.5851 20.0584 68.4599 20.0584H66.9319C66.8067 20.0584 66.7052 20.16 66.7052 20.2851V20.7191C66.7052 21.6041 65.988 22.3213 65.1032 22.3213Z" stroke="#48472D" stroke-width="0.468191" stroke-miterlimit="10"/>
<path d="M72.9327 21.3671C72.9327 20.7159 72.4047 20.1879 71.7535 20.1879C71.1022 20.1879 70.5742 20.7159 70.5742 21.3671C70.5742 22.0184 71.1022 22.5464 71.7535 22.5464C72.4047 22.5464 72.9327 22.0184 72.9327 21.3671Z" fill="#F4EF60"/>
<path d="M72.9327 21.3671C72.9327 20.7159 72.4047 20.1879 71.7535 20.1879C71.1022 20.1879 70.5742 20.7159 70.5742 21.3671C70.5742 22.0184 71.1022 22.5464 71.7535 22.5464C72.4047 22.5464 72.9327 22.0184 72.9327 21.3671Z" stroke="#48472D" stroke-width="0.624254" stroke-linecap="round" stroke-linejoin="round"/>
<path d="M72.3064 21.3674C72.3064 21.0606 72.0576 20.812 71.7508 20.812C71.4439 20.812 71.1953 21.0606 71.1953 21.3674C71.1953 21.6742 71.4439 21.9228 71.7508 21.9228C72.0576 21.9228 72.3064 21.6742 72.3064 21.3674Z" fill="#48472D"/>
<path d="M66.6335 10.7729V14.0072C66.6335 15.6593 65.2895 17.0032 63.6374 17.0032C61.9853 17.0032 60.641 15.6593 60.641 14.0072V10.7729H59.5078V14.0072C59.5078 16.2841 61.3602 18.1368 63.6374 18.1368C65.9145 18.1368 67.767 16.2841 67.767 14.0072V10.7729H66.6335Z" fill="#F4EF60"/>
<path d="M66.6335 10.7729V14.0072C66.6335 15.6593 65.2895 17.0032 63.6374 17.0032C61.9853 17.0032 60.641 15.6593 60.641 14.0072V10.7729H59.5078V14.0072C59.5078 16.2841 61.3602 18.1368 63.6374 18.1368C65.9145 18.1368 67.767 16.2841 67.767 14.0072V10.7729H66.6335Z" stroke="#48472D" stroke-width="0.624254" stroke-linecap="round" stroke-linejoin="round"/>
<path d="M62.3549 6.74117C62.3549 7.21587 62.0751 7.60074 61.7302 7.60074C61.3851 7.60074 61.1055 7.21587 61.1055 6.74117C61.1055 6.26646 61.3851 5.88159 61.7302 5.88159C62.0751 5.88159 62.3549 6.26646 62.3549 6.74117Z" fill="#737258"/>
<path d="M62.3549 6.74117C62.3549 7.21587 62.0751 7.60074 61.7302 7.60074C61.3851 7.60074 61.1055 7.21587 61.1055 6.74117C61.1055 6.26646 61.3851 5.88159 61.7302 5.88159C62.0751 5.88159 62.3549 6.26646 62.3549 6.74117Z" stroke="#48472D" stroke-width="0.624254" stroke-miterlimit="10"/>
<path d="M66.1674 6.67647C66.1674 7.15117 65.8878 7.53616 65.5427 7.53616C65.1976 7.53616 64.918 7.15117 64.918 6.67647C64.918 6.20176 65.1976 5.81702 65.5427 5.81702C65.8878 5.81702 66.1674 6.20176 66.1674 6.67647Z" fill="#737258"/>
<path d="M66.1674 6.67647C66.1674 7.15117 65.8878 7.53616 65.5427 7.53616C65.1976 7.53616 64.918 7.15117 64.918 6.67647C64.918 6.20176 65.1976 5.81702 65.5427 5.81702C65.8878 5.81702 66.1674 6.20176 66.1674 6.67647Z" stroke="#48472D" stroke-width="0.624254" stroke-miterlimit="10"/>
<path d="M43.0057 58.1765L39.0824 60.376L35.1585 58.1765C26.195 53.1522 20.6445 43.678 20.6445 33.4024V19.7705L39.0824 17.0797L57.5196 19.7705V33.4024C57.5196 43.678 51.9691 53.1522 43.0057 58.1765Z" fill="#FFFDDB"/>
<path d="M36.9909 58.1763C28.0274 53.1522 22.477 43.678 22.477 33.4024V19.7703L39.9983 17.2134L39.0822 17.0797L20.6445 19.7703V33.4024C20.6445 43.678 26.1952 53.1522 35.1585 58.1763L39.0822 60.376L39.9983 59.8621L36.9909 58.1763Z" fill="#FCFCF7"/>
<path d="M36.6279 54.427C29.1978 50.2623 24.582 42.384 24.582 33.8662V23.4305L39.0833 21.3142L53.5846 23.4305V33.8662C53.5846 42.384 48.9691 50.2623 41.539 54.427L39.0833 55.8037L36.6279 54.427Z" fill="#F4EF60"/>
<path d="M53.5851 33.8669V23.4313L47.4247 22.5321C47.3923 27.4704 46.3266 46.0109 32.3906 51.3861C33.6723 52.5405 35.0889 53.5648 36.6284 54.4276L39.084 55.8041L41.5395 54.4276C48.9694 50.2629 53.5851 42.3845 53.5851 33.8669Z" fill="#B1AD33"/>
<path d="M43.0057 58.1765L39.0824 60.376L35.1585 58.1765C26.195 53.1522 20.6445 43.678 20.6445 33.4024V19.7705L39.0824 17.0797L57.5196 19.7705V33.4024C57.5196 43.678 51.9691 53.1522 43.0057 58.1765Z" stroke="#48472D" stroke-width="0.984871" stroke-linecap="round" stroke-linejoin="round"/>
<path d="M36.6279 54.427C29.1978 50.2623 24.582 42.384 24.582 33.8662V23.4305L39.0833 21.3142L53.5846 23.4305V33.8662C53.5846 42.384 48.9691 50.2623 41.539 54.427L39.0833 55.8037L36.6279 54.427Z" stroke="#48472D" stroke-width="0.984871" stroke-linecap="round" stroke-linejoin="round"/>
<path d="M47.6889 32.0881H42.4993V26.8987H35.6662V32.0881H30.4766V38.9212H35.6662V44.1107H42.4993V38.9212H47.6889V32.0881Z" fill="white"/>
<path d="M47.6889 32.0881H42.4993V26.8987H35.6662V32.0881H30.4766V38.9212H35.6662V44.1107H42.4993V38.9212H47.6889V32.0881Z" stroke="#48472D" stroke-width="0.984871" stroke-linecap="round" stroke-linejoin="round"/>
</g>
</g>
<defs>
<clipPath id="clip0_1349_14488">
<rect width="77.8483" height="77.8483" fill="white" transform="translate(0.15625 0.146118)"/>
</clipPath>
</defs>
</svg>
