<svg width="37" height="43" viewBox="0 0 37 43" fill="none" xmlns="http://www.w3.org/2000/svg">
<path d="M25.1458 5.68747C25.1458 5.68747 24.6875 5.82498 23.9083 6.07706C23.7708 5.66456 23.5875 5.13747 23.3125 4.63331C22.4417 2.96039 21.1583 2.08956 19.6 2.06664C19.4854 2.06664 19.3937 2.06664 19.2792 2.08956C19.2333 2.04372 19.1875 1.97497 19.1417 1.92914C18.4771 1.19581 17.6062 0.852058 16.575 0.874975C14.5812 0.943725 12.5875 2.38748 10.9604 4.95414C9.81458 6.76456 8.96667 9.03331 8.71458 10.775C6.42292 11.4854 4.81875 11.9896 4.77292 11.9896C3.60417 12.3562 3.58125 12.4021 3.42083 13.4791C3.30625 14.3041 0.28125 37.7708 0.28125 37.7708L25.4437 42.125V5.64164C25.3292 5.64164 25.2146 5.66456 25.1458 5.68747ZM19.325 7.49789C17.9958 7.91039 16.5292 8.36873 15.0854 8.80414C15.4979 7.22289 16.2771 5.66456 17.2396 4.63331C17.6062 4.24372 18.0875 3.83122 18.6833 3.57914C19.2333 4.74789 19.3479 6.37497 19.325 7.49789ZM16.5979 2.20414C17.0562 2.20414 17.4687 2.29581 17.8125 2.52497C17.2625 2.79997 16.7583 3.21248 16.2542 3.73956C14.9938 5.09164 14.0083 7.22289 13.6187 9.26248C12.4042 9.62914 11.2354 9.99581 10.1354 10.3396C10.8229 7.10831 13.5271 2.29581 16.5979 2.20414ZM12.7021 20.5146C12.8396 22.6458 18.4771 23.1271 18.7979 28.1458C19.05 32.0875 16.7125 34.7916 13.3208 34.9979C9.2875 35.25 7.04167 32.8666 7.04167 32.8666L7.88958 29.2229C7.88958 29.2229 10.1354 30.9187 11.9229 30.8041C13.0917 30.7354 13.5042 29.7729 13.4812 29.1083C13.2979 26.3125 8.71458 26.4729 8.43958 21.8896C8.1875 18.0166 10.7312 14.1208 16.3229 13.7541C18.5 13.6166 19.6 14.1666 19.6 14.1666L18.3167 18.9562C18.3167 18.9562 16.8958 18.3146 15.2 18.4062C12.725 18.5666 12.6792 20.125 12.7021 20.5146ZM20.6542 7.08539C20.6312 6.07706 20.5167 4.65622 20.0354 3.44164C21.5479 3.73956 22.3042 5.43539 22.625 6.46664C22.0521 6.64998 21.3875 6.85623 20.6542 7.08539ZM26.2687 42.0333L36.7188 39.4437C36.7188 39.4437 32.2271 9.05623 32.2042 8.84998C32.1812 8.64373 31.9979 8.52914 31.8375 8.50623C31.6771 8.48331 28.7437 8.43748 28.7437 8.43748C28.7437 8.43748 26.9562 6.69581 26.2687 6.03123V42.0333Z" fill="#F8F24B"/>
</svg>
