<svg width="77" height="78" viewBox="0 0 77 78" fill="none" xmlns="http://www.w3.org/2000/svg">
<g clip-path="url(#clip0_1349_9615)">
<mask id="mask0_1349_9615" style="mask-type:luminance" maskUnits="userSpaceOnUse" x="0" y="0" width="77" height="78">
<path d="M77 0.348267H0V77.3483H77V0.348267Z" fill="white"/>
</mask>
<g mask="url(#mask0_1349_9615)">
<path d="M12.1055 35.0875C12.1055 34.073 12.742 33.1673 13.6965 32.8237L33.7171 25.6139V65.48H12.1055V35.0875Z" fill="#FDFAB4"/>
<path d="M33.7148 17.9893C33.7148 16.929 34.4091 15.9934 35.4239 15.6861L61.868 7.67966C63.4131 7.21189 64.9714 8.36817 64.9714 9.9826V65.4422H33.7148V17.9893Z" fill="#FFF500"/>
<path d="M66.2457 67.7983H10.7891C10.1246 67.7983 9.58594 67.2597 9.58594 66.5952C9.58594 65.9308 10.1246 65.3921 10.7891 65.3921H66.2457C66.9102 65.3921 67.4489 65.9308 67.4489 66.5952C67.4489 67.2597 66.9102 67.7983 66.2457 67.7983Z" fill="#D9D211"/>
<path d="M22.9102 38.8368C23.5746 38.8368 24.1133 39.3755 24.1133 40.0399V42.4949C24.1133 43.1594 23.5746 43.6981 22.9102 43.6981C22.2457 43.6981 21.707 43.1594 21.707 42.4949V40.0399C21.707 39.3755 22.2457 38.8368 22.9102 38.8368Z" fill="#D9D211"/>
<path d="M22.9102 50.868C23.5746 50.868 24.1133 51.4067 24.1133 52.0712V54.5262C24.1133 55.1906 23.5746 55.7293 22.9102 55.7293C22.2457 55.7293 21.707 55.1906 21.707 54.5262V52.0712C21.707 51.4067 22.2457 50.868 22.9102 50.868Z" fill="#D9D211"/>
<path d="M42.1602 26.8055C42.8246 26.8055 43.3633 27.3442 43.3633 28.0087V30.4637C43.3633 31.1281 42.8246 31.6668 42.1602 31.6668C41.4957 31.6668 40.957 31.1281 40.957 30.4637V28.0087C40.957 27.3442 41.4957 26.8055 42.1602 26.8055Z" fill="#FDFAB4"/>
<path d="M49.3789 26.8055C50.0434 26.8055 50.582 27.3442 50.582 28.0087V30.4637C50.582 31.1281 50.0434 31.6668 49.3789 31.6668C48.7145 31.6668 48.1758 31.1281 48.1758 30.4637V28.0087C48.1758 27.3442 48.7145 26.8055 49.3789 26.8055Z" fill="#FDFAB4"/>
<path d="M56.5977 26.8055C57.2621 26.8055 57.8008 27.3442 57.8008 28.0087V30.4637C57.8008 31.1281 57.2621 31.6668 56.5977 31.6668C55.9332 31.6668 55.3945 31.1281 55.3945 30.4637V28.0087C55.3945 27.3442 55.9332 26.8055 56.5977 26.8055Z" fill="#FDFAB4"/>
<path d="M42.1602 38.8368C42.8246 38.8368 43.3633 39.3755 43.3633 40.0399V42.4949C43.3633 43.1594 42.8246 43.6981 42.1602 43.6981C41.4957 43.6981 40.957 43.1594 40.957 42.4949V40.0399C40.957 39.3755 41.4957 38.8368 42.1602 38.8368Z" fill="#FDFAB4"/>
<path d="M49.3789 38.8368C50.0434 38.8368 50.582 39.3755 50.582 40.0399V42.4949C50.582 43.1594 50.0434 43.6981 49.3789 43.6981C48.7145 43.6981 48.1758 43.1594 48.1758 42.4949V40.0399C48.1758 39.3755 48.7145 38.8368 49.3789 38.8368Z" fill="#FDFAB4"/>
<path d="M56.5977 38.8368C57.2621 38.8368 57.8008 39.3755 57.8008 40.0399V42.4949C57.8008 43.1594 57.2621 43.6981 56.5977 43.6981C55.9332 43.6981 55.3945 43.1594 55.3945 42.4949V40.0399C55.3945 39.3755 55.9332 38.8368 56.5977 38.8368Z" fill="#FDFAB4"/>
<path d="M42.1602 50.868C42.8246 50.868 43.3633 51.4067 43.3633 52.0712V54.5262C43.3633 55.1906 42.8246 55.7293 42.1602 55.7293C41.4957 55.7293 40.957 55.1906 40.957 54.5262V52.0712C40.957 51.4067 41.4957 50.868 42.1602 50.868Z" fill="#FDFAB4"/>
<path d="M49.3789 50.868C50.0434 50.868 50.582 51.4067 50.582 52.0712V54.5262C50.582 55.1906 50.0434 55.7293 49.3789 55.7293C48.7145 55.7293 48.1758 55.1906 48.1758 54.5262V52.0712C48.1758 51.4067 48.7145 50.868 49.3789 50.868Z" fill="#FDFAB4"/>
<path d="M56.5977 50.868C57.2621 50.868 57.8008 51.4067 57.8008 52.0712V54.5262C57.8008 55.1906 57.2621 55.7293 56.5977 55.7293C55.9332 55.7293 55.3945 55.1906 55.3945 54.5262V52.0712C55.3945 51.4067 55.9332 50.868 56.5977 50.868Z" fill="#FDFAB4"/>
</g>
</g>
<defs>
<clipPath id="clip0_1349_9615">
<rect width="77" height="77" fill="white" transform="translate(0 0.348267)"/>
</clipPath>
</defs>
</svg>
