<svg viewBox="0 0 66 65" fill="none" xmlns="http://www.w3.org/2000/svg">
<path d="M33.0013 0.417236C15.3234 0.417236 0.917969 14.8227 0.917969 32.5006C0.917969 50.1785 15.3234 64.5839 33.0013 64.5839C50.6792 64.5839 65.0846 50.1785 65.0846 32.5006C65.0846 14.8227 50.6792 0.417236 33.0013 0.417236ZM4.15839 32.5006C4.15839 28.3297 5.05672 24.3514 6.66089 20.7581L20.4246 58.456C10.7996 53.7718 4.15839 43.9222 4.15839 32.5006ZM33.0013 61.3435C30.178 61.3435 27.4509 60.9264 24.8521 60.1564L33.5146 35.0031L42.3696 59.2902C42.4338 59.4185 42.498 59.5789 42.5621 59.6752C39.5784 60.766 36.3701 61.3435 33.0013 61.3435ZM36.9796 18.9614C38.7121 18.8652 40.2842 18.6727 40.2842 18.6727C41.8242 18.4802 41.6638 16.2022 40.0917 16.2985C40.0917 16.2985 35.4076 16.6514 32.3917 16.6514C29.5684 16.6514 24.788 16.2985 24.788 16.2985C23.248 16.2343 23.0555 18.6085 24.6276 18.7047C24.6276 18.7047 26.1034 18.8972 27.6434 18.9935L32.1351 31.3135L25.8146 50.2427L15.3234 18.9614C17.0559 18.8972 18.628 18.7047 18.628 18.7047C20.168 18.5122 20.0076 16.2343 18.4355 16.3306C18.4355 16.3306 13.7513 16.6835 10.7355 16.6835C10.1901 16.6835 9.54839 16.6835 8.87464 16.6514C14.0721 8.82307 22.9271 3.65765 33.0013 3.65765C40.5088 3.65765 47.3426 6.51307 52.4759 11.2293C52.3476 11.2293 52.2192 11.1972 52.0909 11.1972C49.2676 11.1972 47.2463 13.6677 47.2463 16.3306C47.2463 18.7047 48.6259 20.726 50.0696 23.1002C51.1605 25.0252 52.4438 27.4956 52.4438 31.0568C52.4438 33.5272 51.4813 36.3827 50.2621 40.3931L47.3746 50.0181L36.9796 18.9614ZM58.3151 18.6727C61.9187 25.2678 62.8052 33.0093 60.7856 40.2484C58.7661 47.4874 54.0002 53.652 47.503 57.4293L56.3259 31.9552C57.9621 27.8485 58.5076 24.5439 58.5076 21.6243C58.5076 20.5656 58.4434 19.571 58.3151 18.6727Z" fill="#F8F24B"/>
</svg>
