<svg viewBox="0 0 93 94" fill="none" xmlns="http://www.w3.org/2000/svg">
<g clip-path="url(#clip0_1349_15688)">
<mask id="mask0_1349_15688" style="mask-type:luminance" maskUnits="userSpaceOnUse" x="0" y="0" width="93" height="94">
<path d="M93 0.303345H0V93.3033H93V0.303345Z" fill="white"/>
</mask>
<g mask="url(#mask0_1349_15688)">
<path d="M46.5015 21.083C60.6966 21.083 72.2218 32.6083 72.2218 46.8033C72.2218 60.9983 60.6966 72.5236 46.5015 72.5236C32.3065 72.5236 20.7812 60.9983 20.7812 46.8033C20.7812 32.6083 32.3065 21.083 46.5015 21.083Z" fill="black"/>
<g opacity="0.5">
<path d="M46.4933 46.766C46.509 46.766 46.5218 46.7787 46.5218 46.7944C46.5218 46.8102 46.509 46.8229 46.4933 46.8229C46.4776 46.8229 46.4648 46.8102 46.4648 46.7944C46.4648 46.7787 46.4776 46.766 46.4933 46.766Z" fill="#FFF600"/>
</g>
<path d="M46.4971 46.7764C46.5084 46.7764 46.5176 46.7856 46.5176 46.7969C46.5176 46.8082 46.5084 46.8174 46.4971 46.8174C46.4858 46.8174 46.4766 46.8082 46.4766 46.7969C46.4766 46.7856 46.4858 46.7764 46.4971 46.7764Z" fill="#FFF600"/>
<path d="M48.9696 35.2806V58.3259C48.9696 59.6887 47.8631 60.7951 46.5004 60.7951C45.1377 60.7951 44.0312 59.6887 44.0312 58.3259V35.2806C44.0312 33.9178 45.1377 32.8114 46.5004 32.8114C47.8631 32.8114 48.9696 33.9178 48.9696 35.2806Z" fill="#FFF500"/>
<path d="M58.023 49.2724H34.9776C33.6149 49.2724 32.5085 48.166 32.5085 46.8033C32.5085 45.4405 33.6149 44.3341 34.9776 44.3341H58.023C59.3858 44.3341 60.4922 45.4405 60.4922 46.8033C60.4922 48.166 59.3858 49.2724 58.023 49.2724Z" fill="#FFF500"/>
</g>
</g>
<defs>
<clipPath id="clip0_1349_15688">
<rect width="93" height="93" fill="white" transform="translate(0 0.303345)"/>
</clipPath>
</defs>
</svg>
